<svg width="19" height="25" viewBox="0 0 19 25" fill="none" xmlns="http://www.w3.org/2000/svg">
<path d="M7.00034 17.1941V23.1941H12.0003V17.1941H7.00034Z" fill="#808F9D"/>
<path d="M17.5003 24.6941H1.50034C1.10252 24.6941 0.720988 24.536 0.439683 24.2547C0.158379 23.9734 0.000343323 23.5919 0.000343323 23.1941V7.19406C0.000343323 6.79624 0.158379 6.41471 0.439683 6.1334C0.720988 5.8521 1.10252 5.69406 1.50034 5.69406H5.00034V7.69406H2.00034V22.6941H17.0003V7.69406H14.0003V5.69406H17.5003C17.8982 5.69406 18.2797 5.8521 18.561 6.1334C18.8423 6.41471 19.0003 6.79624 19.0003 7.19406V23.1941C19.0003 23.5919 18.8423 23.9734 18.561 24.2547C18.2797 24.536 17.8982 24.6941 17.5003 24.6941Z" fill="#808F9D"/>
<path d="M7.00034 5.19406V7.19406H12.0003V5.19406H7.00034Z" fill="#265ED7"/>
<path d="M8.50034 8.69406H10.5003V3.69406H8.50034V8.69406Z" fill="#265ED7"/>
<path d="M13.5003 11.6941H5.50034C5.10252 11.6941 4.72099 11.536 4.43968 11.2547C4.15838 10.9734 4.00034 10.5919 4.00034 10.1941V2.19406C4.00034 1.79624 4.15838 1.41471 4.43968 1.1334C4.72099 0.852097 5.10252 0.694061 5.50034 0.694061L13.5003 0.694061C13.8982 0.694061 14.2797 0.852097 14.561 1.1334C14.8423 1.41471 15.0003 1.79624 15.0003 2.19406V10.1941C15.0003 10.5919 14.8423 10.9734 14.561 11.2547C14.2797 11.536 13.8982 11.6941 13.5003 11.6941ZM6.00034 9.69406H13.0003V2.69406H6.00034V9.69406Z" fill="#808F9D"/>
</svg>
