<svg width="20" height="21" viewBox="0 0 20 21" fill="none" xmlns="http://www.w3.org/2000/svg">
<circle cx="10.5" cy="11.5" r="9.5" fill="#3B98CC"/>
<path fill-rule="evenodd" clip-rule="evenodd" d="M9.9 12.6C10.0659 12.6 10.2 12.7344 10.2 12.9C10.2 13.0656 10.0659 13.2 9.9 13.2H5.7C5.5344 13.2 5.4 13.0656 5.4 12.9C5.4 12.7344 5.5344 12.6 5.7 12.6H9.9ZM11.7 11.4H5.7C5.5344 11.4 5.4 11.2656 5.4 11.1C5.4 10.9344 5.5344 10.8 5.7 10.8H11.7C11.8659 10.8 12 10.9344 12 11.1C12 11.2656 11.8659 11.4 11.7 11.4ZM12.3 9.6H5.7C5.5344 9.6 5.4 9.4656 5.4 9.3C5.4 9.1344 5.5344 9 5.7 9H12.3C12.4659 9 12.6 9.1344 12.6 9.3C12.6 9.4656 12.4659 9.6 12.3 9.6ZM5.4 7.5C5.4 7.3344 5.5344 7.2 5.7 7.2H11.1C11.2659 7.2 11.4 7.3344 11.4 7.5C11.4 7.6656 11.2659 7.8 11.1 7.8H5.7C5.5344 7.8 5.4 7.6656 5.4 7.5ZM5.4 5.7C5.4 5.5344 5.5344 5.4 5.7 5.4H11.7C11.8659 5.4 12 5.5344 12 5.7C12 5.8656 11.8659 6 11.7 6H5.7C5.5344 6 5.4 5.8656 5.4 5.7ZM4.2 12.9C4.2 13.0656 4.0656 13.2 3.9 13.2H3.3C3.1344 13.2 3 13.0656 3 12.9C3 12.7344 3.1344 12.6 3.3 12.6H3.9C4.0656 12.6 4.2 12.7344 4.2 12.9ZM4.2 11.1C4.2 11.2656 4.0656 11.4 3.9 11.4H3.3C3.1344 11.4 3 11.2656 3 11.1C3 10.9344 3.1344 10.8 3.3 10.8H3.9C4.0656 10.8 4.2 10.9344 4.2 11.1ZM4.2 9.3C4.2 9.4656 4.0656 9.6 3.9 9.6H3.3C3.1344 9.6 3 9.4656 3 9.3C3 9.1344 3.1344 9 3.3 9H3.9C4.0656 9 4.2 9.1344 4.2 9.3ZM4.2 7.5C4.2 7.6656 4.0656 7.8 3.9 7.8H3.3C3.1344 7.8 3 7.6656 3 7.5C3 7.3344 3.1344 7.2 3.3 7.2H3.9C4.0656 7.2 4.2 7.3344 4.2 7.5ZM4.2 5.7C4.2 5.8656 4.0656 6 3.9 6H3.3C3.1344 6 3 5.8656 3 5.7C3 5.5344 3.1344 5.4 3.3 5.4H3.9C4.0656 5.4 4.2 5.5344 4.2 5.7ZM4.2 1.5C4.2 1.3344 4.3344 1.2 4.5 1.2H5.1C5.2656 1.2 5.4 1.3344 5.4 1.5C5.4 1.6656 5.2656 1.8 5.1 1.8H4.5C4.3344 1.8 4.2 1.6656 4.2 1.5ZM7.2 1.5C7.2 1.3344 7.3344 1.2 7.5 1.2H8.1C8.2659 1.2 8.4 1.3344 8.4 1.5C8.4 1.6656 8.2659 1.8 8.1 1.8H7.5C7.3344 1.8 7.2 1.6656 7.2 1.5ZM10.2 1.5C10.2 1.3344 10.3341 1.2 10.5 1.2H11.1C11.2659 1.2 11.4 1.3344 11.4 1.5C11.4 1.6656 11.2659 1.8 11.1 1.8H10.5C10.3341 1.8 10.2 1.6656 10.2 1.5ZM3.3 2.4C3.4653 2.4 3.6 2.5347 3.6 2.7C3.6 2.8653 3.4653 3 3.3 3C3.1347 3 3 2.8653 3 2.7C3 2.5347 3.1347 2.4 3.3 2.4ZM2.4 2.7C2.4 3.1962 2.8038 3.6 3.3 3.6C3.7962 3.6 4.2 3.1962 4.2 2.7C4.2 2.3094 3.9486 1.9797 3.6 1.8552V0.3C3.6 0.1344 3.4656 0 3.3 0C3.1344 0 3 0.1344 3 0.3V1.8552C2.6514 1.9797 2.4 2.3094 2.4 2.7ZM12.3 2.4C12.4656 2.4 12.6 2.5347 12.6 2.7C12.6 2.8653 12.4656 3 12.3 3C12.1344 3 12 2.8653 12 2.7C12 2.5347 12.1344 2.4 12.3 2.4ZM11.4 2.7C11.4 3.1962 11.8038 3.6 12.3 3.6C12.7962 3.6 13.2 3.1962 13.2 2.7C13.2 2.3094 12.9483 1.9797 12.6 1.8552V0.3C12.6 0.1344 12.4659 0 12.3 0C12.1341 0 12 0.1344 12 0.3V1.8552C11.6517 1.9797 11.4 2.3094 11.4 2.7ZM9.3 2.4C9.4656 2.4 9.6 2.5347 9.6 2.7C9.6 2.8653 9.4656 3 9.3 3C9.1344 3 9 2.8653 9 2.7C9 2.5347 9.1344 2.4 9.3 2.4ZM8.4 2.7C8.4 3.1962 8.8038 3.6 9.3 3.6C9.7962 3.6 10.2 3.1962 10.2 2.7C10.2 2.3094 9.9483 1.9797 9.6 1.8552V0.3C9.6 0.1344 9.4659 0 9.3 0C9.1341 0 9 0.1344 9 0.3V1.8552C8.6517 1.9797 8.4 2.3094 8.4 2.7ZM6.3 2.4C6.4653 2.4 6.6 2.5347 6.6 2.7C6.6 2.8653 6.4653 3 6.3 3C6.1347 3 6 2.8653 6 2.7C6 2.5347 6.1347 2.4 6.3 2.4ZM5.4 2.7C5.4 3.1962 5.8038 3.6 6.3 3.6C6.7962 3.6 7.2 3.1962 7.2 2.7C7.2 2.3094 6.9486 1.9797 6.6 1.8552V0.3C6.6 0.1344 6.4656 0 6.3 0C6.1344 0 6 0.1344 6 0.3V1.8552C5.6514 1.9797 5.4 2.3094 5.4 2.7ZM14.1 17.4H1.5C1.1634 17.4 0.8142 17.1255 0.6699 16.8H14.9301C14.7858 17.1255 14.4366 17.4 14.1 17.4ZM0.6 16.2H15V15.6H0.6V16.2ZM14.1 1.2H13.5C13.3341 1.2 13.2 1.3344 13.2 1.5C13.2 1.6656 13.3341 1.8 13.5 1.8H14.1C14.5374 1.8 15 2.2626 15 2.7V15H0.6V2.7C0.6 2.2626 1.0626 1.8 1.5 1.8H2.1C2.2656 1.8 2.4 1.6656 2.4 1.5C2.4 1.3344 2.2656 1.2 2.1 1.2H1.5C0.729 1.2 0 1.929 0 2.7V16.5C0 17.271 0.729 18 1.5 18H14.1C14.871 18 15.6 17.271 15.6 16.5V2.7C15.6 1.929 14.871 1.2 14.1 1.2Z" fill="#475564"/>
</svg>
