<svg width="18" height="25" viewBox="0 0 18 25" fill="none" xmlns="http://www.w3.org/2000/svg">
<path d="M16.8289 7.73564L15.9528 7.14522C15.7471 7.00809 15.6633 6.74906 15.7471 6.5167L16.109 5.52632C16.2994 5.00065 16.2194 4.41785 15.888 3.96456C15.5605 3.51127 15.0386 3.25605 14.471 3.2751L13.4159 3.31319C13.1493 3.317 12.9512 3.16082 12.8826 2.92466L12.5931 1.91142C12.4407 1.37432 12.0294 0.947698 11.4961 0.776285C10.9628 0.604872 10.3838 0.70772 9.94193 1.05055L9.11153 1.70191C8.91727 1.85428 8.64681 1.85428 8.45255 1.70191L7.62596 1.05055C7.18409 0.703911 6.6051 0.604872 6.07182 0.776285C5.53853 0.947698 5.13095 1.37432 4.97477 1.91142L4.68528 2.92466C4.61671 3.16082 4.39578 3.32081 4.15199 3.31319L3.09685 3.2751C2.54072 3.25225 2.00743 3.51508 1.67984 3.96456C1.35226 4.41785 1.26845 5.00065 1.45891 5.52632L1.82078 6.5167C1.90458 6.74906 1.82078 7.00809 1.61509 7.14522L0.738979 7.73564C0.27426 8.04799 0 8.56985 0 9.12598C0 9.68593 0.27807 10.204 0.738979 10.5163L1.61509 11.1068C1.82078 11.2439 1.90458 11.5029 1.82078 11.7353L1.45891 12.7256C1.26845 13.2513 1.34845 13.8341 1.67984 14.2874C2.00743 14.7407 2.54072 14.9997 3.09685 14.9769L4.11009 14.9426V24.1227C4.11009 24.3246 4.21675 24.5112 4.38816 24.6141C4.47958 24.6674 4.57862 24.6941 4.68147 24.6941C4.77289 24.6941 4.86812 24.6712 4.95192 24.6255L8.78775 22.5609L12.6579 24.6255C12.8331 24.7207 13.0502 24.7131 13.2216 24.6103C13.393 24.5074 13.4997 24.3208 13.4997 24.1189V14.9426L14.4748 14.9769C15.031 14.9997 15.5643 14.7369 15.8919 14.2874C16.2194 13.8341 16.3032 13.2513 16.1128 12.7256L15.7509 11.7353C15.6671 11.5029 15.7509 11.2439 15.9566 11.1068L16.8327 10.5163C17.2974 10.204 17.5717 9.68212 17.5717 9.12598C17.5679 8.56604 17.2898 8.04799 16.8289 7.73564ZM12.3531 23.1666L9.05439 21.4067C8.97059 21.361 8.87917 21.3382 8.78394 21.3382C8.69252 21.3382 8.5973 21.361 8.51349 21.4067L5.25284 23.1628V16.8929C5.25284 16.8967 5.25665 16.8967 5.25665 16.9005C5.30236 16.9614 5.35188 17.0148 5.40521 17.0681C5.42045 17.0833 5.43949 17.0986 5.45854 17.1176C5.50044 17.1557 5.54234 17.19 5.58424 17.2243C5.6071 17.2395 5.62614 17.2548 5.649 17.27C5.69471 17.3005 5.74042 17.3271 5.78994 17.3538C5.81279 17.3652 5.83184 17.3766 5.85469 17.3881C5.92707 17.4224 5.99944 17.4528 6.07562 17.4795C6.15181 17.5062 6.2318 17.5214 6.31179 17.5366C6.33465 17.5404 6.36131 17.5442 6.38417 17.5442C6.44131 17.5519 6.49844 17.5557 6.55558 17.5557C6.57082 17.5557 6.58225 17.5595 6.59748 17.5595C6.60891 17.5595 6.62034 17.5557 6.63176 17.5557C6.70414 17.5557 6.77651 17.5481 6.84508 17.5366C6.8565 17.5366 6.86793 17.5328 6.87936 17.5328C6.95935 17.5176 7.03934 17.4985 7.11934 17.4719C7.14219 17.4643 7.16124 17.4566 7.18409 17.449C7.24123 17.4262 7.29837 17.4033 7.35551 17.3728C7.37836 17.3614 7.40122 17.35 7.42026 17.3386C7.49264 17.2967 7.56501 17.2509 7.62977 17.2014L8.46017 16.5501C8.55539 16.4739 8.67348 16.4358 8.79156 16.4358C8.90965 16.4358 9.02392 16.4739 9.12296 16.5501L9.95336 17.2014C10.3952 17.5442 10.9742 17.6509 11.5075 17.4757C11.5875 17.449 11.6637 17.4185 11.7361 17.3805C11.7589 17.369 11.778 17.3576 11.797 17.3462C11.8503 17.3157 11.8998 17.2852 11.9494 17.2509C11.9684 17.2357 11.9875 17.2243 12.0065 17.209C12.0674 17.1633 12.1208 17.1138 12.1741 17.0605C12.1779 17.0567 12.1817 17.0529 12.1893 17.0491C12.2465 16.9919 12.296 16.9272 12.3455 16.8624C12.3493 16.8548 12.3569 16.851 12.3608 16.8434V23.1666H12.3531ZM16.189 9.56785L15.3129 10.1583C14.6729 10.5887 14.4101 11.3963 14.6729 12.1238L15.0348 13.1142C15.0957 13.2856 15.0729 13.4646 14.9662 13.6132C14.8596 13.7579 14.692 13.8379 14.5129 13.8341L13.4578 13.796C12.9245 13.777 12.4484 14.0017 12.1284 14.3788C12.1208 14.3864 12.1132 14.3941 12.1093 14.4055C12.0484 14.4817 11.9913 14.5617 11.9417 14.6493C11.9303 14.6683 11.9189 14.6836 11.9113 14.7026C11.8618 14.8016 11.816 14.9045 11.7856 15.015L11.4961 16.0282C11.4466 16.2034 11.3209 16.3329 11.1456 16.3901C11.1037 16.4053 11.058 16.4129 11.0161 16.4167C10.8866 16.4244 10.7571 16.3863 10.6504 16.3025L9.82004 15.6511C9.69815 15.5559 9.56101 15.4835 9.42388 15.4264C9.3896 15.4111 9.35913 15.3959 9.32485 15.3844C8.86013 15.2283 8.3497 15.2816 7.91926 15.5406C7.86212 15.5749 7.80499 15.6092 7.74785 15.6511L6.91745 16.3025C6.77651 16.4129 6.59367 16.4472 6.42226 16.3901C6.25085 16.3329 6.12134 16.2034 6.07182 16.0282L5.92707 15.5216L5.78232 15.015C5.75184 14.9121 5.70994 14.8131 5.66423 14.7178C5.65281 14.695 5.64138 14.6759 5.62614 14.6569C5.58424 14.5845 5.53853 14.5122 5.4852 14.4474C5.46997 14.4283 5.45473 14.4093 5.43949 14.3941C5.37855 14.3255 5.3176 14.2607 5.24523 14.1998C5.2338 14.1884 5.22237 14.1808 5.21094 14.1693C4.92145 13.937 4.55577 13.7998 4.16342 13.7998C4.14438 13.7998 4.12152 13.7998 4.10247 13.7998L3.04734 13.8379C2.86831 13.8417 2.7007 13.7656 2.59404 13.617C2.48739 13.4722 2.46072 13.2894 2.52548 13.118L2.88735 12.1238C3.15018 11.4001 2.88735 10.5887 2.24741 10.1583L1.3713 9.56785C1.22274 9.465 1.13513 9.30502 1.13513 9.12218C1.13513 8.93934 1.22274 8.77935 1.3713 8.6765L2.24741 8.08608C2.88735 7.65565 3.15018 6.8481 2.88735 6.12055L2.52548 5.13017C2.46453 4.95875 2.48739 4.77972 2.59404 4.63116C2.7007 4.48642 2.86831 4.40642 3.04734 4.41023L4.10247 4.44832C4.87574 4.47499 5.56139 3.97599 5.7747 3.2332L6.0642 2.21996C6.11372 2.04474 6.23942 1.91523 6.41464 1.85809C6.58605 1.80095 6.76889 1.83523 6.90983 1.9457L7.74023 2.59707C8.3497 3.07321 9.19914 3.07321 9.80861 2.59707L10.639 1.9457C10.7799 1.83523 10.9628 1.80095 11.1342 1.85809C11.3056 1.91523 11.4351 2.04474 11.4846 2.21996L11.7741 3.2332C11.9875 3.97599 12.6617 4.4788 13.4464 4.44832L14.5015 4.41023C14.6805 4.40642 14.8481 4.48261 14.9548 4.63116C15.0615 4.77591 15.0881 4.95875 15.0234 5.13017L14.6615 6.12436C14.3987 6.8481 14.6615 7.65946 15.3014 8.08989L16.1775 8.68031C16.3261 8.78316 16.4137 8.94314 16.4137 9.12598C16.4251 9.30502 16.3375 9.46881 16.189 9.56785Z" fill="#808F9D"/>
<path d="M12.3493 6.85571H10.3267L9.70196 4.93208C9.57244 4.53593 9.20676 4.26929 8.79156 4.26929C8.37637 4.26929 8.01069 4.53593 7.88117 4.93208L7.25647 6.85571H5.22618C4.81098 6.85571 4.4453 7.12236 4.31579 7.51851C4.18628 7.91466 4.32722 8.3451 4.66242 8.58888L6.30037 9.77735L5.67566 11.701C5.54615 12.0971 5.68709 12.5276 6.0223 12.7714C6.35751 13.0151 6.8108 13.0151 7.14981 12.7714L8.78776 11.5829L10.4257 12.7714C10.5933 12.8932 10.7914 12.9542 10.9895 12.9542C11.1875 12.9542 11.3856 12.8932 11.5532 12.7714C11.8884 12.5276 12.0294 12.0971 11.8998 11.701L11.2751 9.77735L12.9131 8.58888C13.2483 8.3451 13.3892 7.91466 13.2597 7.51851C13.1302 7.12236 12.7645 6.85571 12.3493 6.85571ZM10.2657 9.0955C10.0638 9.24025 9.98003 9.49928 10.06 9.73545L10.639 11.5143L9.12677 10.4135C8.92489 10.2687 8.65443 10.2687 8.45636 10.4135L6.94412 11.5143L7.52311 9.73545C7.5993 9.49928 7.51549 9.24406 7.31742 9.0955L5.80518 7.99466H7.67548C7.92307 7.99466 8.14401 7.83467 8.22019 7.5985L8.79918 5.81962L9.37818 7.5985C9.45436 7.83467 9.67529 7.99466 9.92289 7.99466H11.7932L10.2657 9.0955Z" fill="#9BCDD6"/>
</svg>
