<svg width="24" height="20" viewBox="0 0 24 20" fill="none" xmlns="http://www.w3.org/2000/svg">
<path d="M22.7273 18.1818H10.9091C10.668 18.1818 10.4368 18.0861 10.2663 17.9156C10.0958 17.7451 10 17.5138 10 17.2727C10 17.0316 10.0958 16.8004 10.2663 16.6299C10.4368 16.4594 10.668 16.3636 10.9091 16.3636H22.7273C22.9684 16.3636 23.1996 16.4594 23.3701 16.6299C23.5406 16.8004 23.6364 17.0316 23.6364 17.2727C23.6364 17.5138 23.5406 17.7451 23.3701 17.9156C23.1996 18.0861 22.9684 18.1818 22.7273 18.1818Z" fill="#475564"/>
<path d="M22.7273 10.9091H20C19.7589 10.9091 19.5277 10.8133 19.3572 10.6428C19.1867 10.4724 19.0909 10.2411 19.0909 10C19.0909 9.75891 19.1867 9.52768 19.3572 9.35719C19.5277 9.18671 19.7589 9.09093 20 9.09093H22.7273C22.9684 9.09093 23.1996 9.18671 23.3701 9.35719C23.5406 9.52768 23.6364 9.75891 23.6364 10C23.6364 10.2411 23.5406 10.4724 23.3701 10.6428C23.1996 10.8133 22.9684 10.9091 22.7273 10.9091Z" fill="#475564"/>
<path d="M22.7273 3.63638H7.27273C7.03162 3.63638 6.80039 3.5406 6.62991 3.37011C6.45942 3.19963 6.36364 2.9684 6.36364 2.72729C6.36364 2.48618 6.45942 2.25495 6.62991 2.08447C6.80039 1.91398 7.03162 1.8182 7.27273 1.8182H22.7273C22.9684 1.8182 23.1996 1.91398 23.3701 2.08447C23.5406 2.25495 23.6364 2.48618 23.6364 2.72729C23.6364 2.9684 23.5406 3.19963 23.3701 3.37011C23.1996 3.5406 22.9684 3.63638 22.7273 3.63638Z" fill="#475564"/>
<path d="M3.63636 3.63638H0.909091C0.667985 3.63638 0.436754 3.5406 0.266267 3.37011C0.0957789 3.19963 0 2.9684 0 2.72729C0 2.48618 0.0957789 2.25495 0.266267 2.08447C0.436754 1.91398 0.667985 1.8182 0.909091 1.8182H3.63636C3.87747 1.8182 4.1087 1.91398 4.27919 2.08447C4.44968 2.25495 4.54545 2.48618 4.54545 2.72729C4.54545 2.9684 4.44968 3.19963 4.27919 3.37011C4.1087 3.5406 3.87747 3.63638 3.63636 3.63638Z" fill="#475564"/>
<path d="M16.3636 10.9091H0.909091C0.667985 10.9091 0.436754 10.8133 0.266267 10.6428C0.0957789 10.4724 0 10.2411 0 10C0 9.75891 0.0957789 9.52768 0.266267 9.35719C0.436754 9.18671 0.667985 9.09093 0.909091 9.09093H16.3636C16.6047 9.09093 16.836 9.18671 17.0065 9.35719C17.1769 9.52768 17.2727 9.75891 17.2727 10C17.2727 10.2411 17.1769 10.4724 17.0065 10.6428C16.836 10.8133 16.6047 10.9091 16.3636 10.9091Z" fill="#475564"/>
<path d="M7.27273 18.1818H0.909091C0.667985 18.1818 0.436754 18.0861 0.266267 17.9156C0.0957789 17.7451 0 17.5138 0 17.2727C0 17.0316 0.0957789 16.8004 0.266267 16.6299C0.436754 16.4594 0.667985 16.3636 0.909091 16.3636H7.27273C7.51383 16.3636 7.74506 16.4594 7.91555 16.6299C8.08604 16.8004 8.18182 17.0316 8.18182 17.2727C8.18182 17.5138 8.08604 17.7451 7.91555 17.9156C7.74506 18.0861 7.51383 18.1818 7.27273 18.1818Z" fill="#475564"/>
<path d="M18.1818 12.7273C17.6424 12.7273 17.1151 12.5673 16.6666 12.2677C16.2181 11.968 15.8686 11.542 15.6621 11.0437C15.4557 10.5454 15.4017 9.99699 15.5069 9.46795C15.6122 8.93891 15.8719 8.45296 16.2533 8.07154C16.6348 7.69013 17.1207 7.43038 17.6498 7.32515C18.1788 7.21992 18.7272 7.27392 19.2255 7.48035C19.7238 7.68677 20.1498 8.03633 20.4495 8.48483C20.7491 8.93332 20.9091 9.46061 20.9091 10C20.9091 10.7233 20.6218 11.417 20.1103 11.9285C19.5988 12.44 18.9051 12.7273 18.1818 12.7273ZM18.1818 9.09093C18.002 9.09093 17.8263 9.14424 17.6768 9.24414C17.5273 9.34403 17.4107 9.48601 17.3419 9.65212C17.2731 9.81824 17.2551 10.001 17.2902 10.1774C17.3253 10.3537 17.4119 10.5157 17.539 10.6428C17.6661 10.77 17.8281 10.8566 18.0045 10.8916C18.1808 10.9267 18.3636 10.9087 18.5297 10.8399C18.6958 10.7711 18.8378 10.6546 18.9377 10.5051C19.0376 10.3556 19.0909 10.1798 19.0909 10C19.0909 9.75891 18.9951 9.52768 18.8246 9.35719C18.6542 9.18671 18.4229 9.09093 18.1818 9.09093Z" fill="#265ED7"/>
<path d="M9.09091 20C8.55151 20 8.02422 19.8401 7.57572 19.5404C7.12722 19.2407 6.77766 18.8148 6.57124 18.3164C6.36482 17.8181 6.31081 17.2697 6.41604 16.7407C6.52128 16.2116 6.78102 15.7257 7.16244 15.3443C7.54386 14.9629 8.02981 14.7031 8.55885 14.5979C9.08789 14.4926 9.63625 14.5467 10.1346 14.7531C10.6329 14.9595 11.0589 15.3091 11.3586 15.7576C11.6582 16.2061 11.8182 16.7333 11.8182 17.2727C11.8182 17.9961 11.5308 18.6898 11.0194 19.2012C10.5079 19.7127 9.81423 20 9.09091 20ZM9.09091 16.3637C8.91111 16.3637 8.73535 16.417 8.58585 16.5169C8.43635 16.6168 8.31983 16.7587 8.25102 16.9249C8.18222 17.091 8.16421 17.2738 8.19929 17.4501C8.23437 17.6264 8.32095 17.7884 8.44809 17.9156C8.57523 18.0427 8.73721 18.1293 8.91356 18.1644C9.08991 18.1994 9.27269 18.1814 9.43881 18.1126C9.60492 18.0438 9.7469 17.9273 9.8468 17.7778C9.94669 17.6283 10 17.4525 10 17.2727C10 17.0316 9.90423 16.8004 9.73374 16.6299C9.56325 16.4594 9.33202 16.3637 9.09091 16.3637Z" fill="#265ED7"/>
<path d="M5.45455 5.45456C4.91514 5.45456 4.38785 5.29461 3.93935 4.99493C3.49086 4.69526 3.1413 4.26932 2.93487 3.77097C2.72845 3.27263 2.67444 2.72426 2.77968 2.19522C2.88491 1.66619 3.14466 1.18023 3.52607 0.798816C3.90749 0.4174 4.39344 0.157653 4.92248 0.0524203C5.45152 -0.0528122 5.99988 0.00119695 6.49823 0.207618C6.99657 0.414039 7.42251 0.7636 7.72219 1.2121C8.02187 1.6606 8.18182 2.18789 8.18182 2.72729C8.18182 3.45061 7.89448 4.1443 7.38302 4.65576C6.87156 5.16723 6.17786 5.45456 5.45455 5.45456ZM5.45455 1.8182C5.27474 1.8182 5.09898 1.87152 4.94948 1.97141C4.79998 2.0713 4.68346 2.21328 4.61466 2.3794C4.54585 2.54551 4.52785 2.7283 4.56292 2.90464C4.598 3.08099 4.68458 3.24297 4.81172 3.37011C4.93886 3.49725 5.10084 3.58383 5.27719 3.61891C5.45354 3.65399 5.63633 3.63599 5.80244 3.56718C5.96855 3.49837 6.11054 3.38185 6.21043 3.23235C6.31032 3.08285 6.36364 2.90709 6.36364 2.72729C6.36364 2.48618 6.26786 2.25495 6.09737 2.08446C5.92688 1.91398 5.69565 1.8182 5.45455 1.8182Z" fill="#265ED7"/>
</svg>
