<svg width="25" height="24" viewBox="0 0 25 24" fill="none" xmlns="http://www.w3.org/2000/svg">
<path fill-rule="evenodd" clip-rule="evenodd" d="M14.9342 18.2985C15.1147 18.1672 16.2856 16.7876 16.54 16.4963L21.2887 11.0707C22.5073 9.68878 23.0089 7.69093 22.3179 5.73481C21.7834 4.22168 20.4885 2.83304 18.6386 2.72934C16.4529 2.60683 15.3876 4.16918 14.4876 5.19723C13.8621 5.91172 13.3633 6.75468 12.5098 6.47132C11.6963 6.20124 10.4535 3.87994 9.07414 3.18229C8.28712 2.78422 7.38161 2.60163 6.43636 2.82976C4.889 3.20324 3.49144 4.63993 3.20417 6.35876C2.8845 8.10627 3.20311 9.43688 4.1012 10.7084C4.56006 11.358 8.05239 15.132 8.3084 15.559C8.87946 16.5115 8.20806 17.7258 7.29082 17.703C6.75243 17.6895 6.51625 17.3311 6.23342 17.0079C5.37239 16.0238 2.53375 12.8636 2.03957 12.142C1.2251 10.9528 0.776654 9.54235 0.690098 8.10346V7.06807C0.81758 4.94766 1.72727 2.86552 3.40943 1.43557C5.92192 -0.700237 9.60018 -0.471811 11.9786 2.24828C12.1995 2.50098 12.6234 3.04184 12.8451 3.21147C13.2339 2.91389 13.8652 1.91161 14.8003 1.21351C15.463 0.718746 16.536 0.189993 17.5015 0.0681134C19.1572 -0.140879 20.7263 0.23559 21.9709 1.19272C23.1117 2.06997 23.9652 3.16778 24.5055 4.6448C24.7827 5.40254 24.9609 6.30663 25 7.23758V8.00482C24.9704 8.69806 24.8587 9.38816 24.6484 10.0266C24.0508 11.8408 23.4676 12.424 22.3055 13.7521L13.9727 23.2753C13.6535 23.6402 13.4107 24.0372 12.7498 23.9972C12.1755 23.9625 11.9337 23.5225 11.6224 23.1668C11.3022 22.8008 11.0168 22.4746 10.6966 22.1086C10.3965 21.7657 9.99157 21.4318 9.91113 20.8893C9.81009 20.2081 10.1443 19.6783 10.4893 19.457C10.9532 19.1596 11.5487 19.2494 11.885 19.6109C12.1573 19.9037 12.5731 20.4761 12.8451 20.6842L14.9342 18.2985L14.9342 18.2985Z" fill="#475564"/>
<path fill-rule="evenodd" clip-rule="evenodd" d="M14.9342 18.2985C14.9342 17.634 15.0165 16.9026 14.9079 16.0477C14.4945 12.7959 13.508 10.7914 11.4084 8.65179C11.0688 8.30569 10.5421 7.90946 10.1537 7.64392C8.91917 6.79983 7.29444 6.18575 5.76926 6.14314C5.51947 6.13617 5.40737 6.08243 5.10479 6.08488C4.81481 6.08723 4.73552 6.13685 4.44079 6.14141C4.17363 6.14553 3.37135 6.26966 3.20418 6.35876C3.49145 4.63991 4.88901 3.20323 6.43637 2.82976C7.38162 2.60164 8.28713 2.78423 9.07415 3.1823C10.4535 3.87994 11.6963 6.20124 12.5098 6.47133C13.3633 6.75469 13.8621 5.91173 14.4876 5.19724C15.3876 4.16918 16.4529 2.60683 18.6386 2.72935C20.4885 2.83305 21.7834 4.22169 22.3179 5.73481C23.0089 7.69093 22.5073 9.68879 21.2887 11.0707L16.54 16.4963C16.2856 16.7876 15.1148 18.1672 14.9342 18.2985V18.2985Z" fill="#9BCDD6"/>
</svg>
