<svg width="27" height="26" viewBox="0 0 27 26" fill="none" xmlns="http://www.w3.org/2000/svg">
<path d="M12.7992 18.1044C12.4475 18.1044 12.1101 17.9646 11.8614 17.7159C11.6127 17.4672 11.4729 17.1298 11.4729 16.7781V8.82039C11.4729 8.46864 11.6127 8.1313 11.8614 7.88257C12.1101 7.63384 12.4475 7.49411 12.7992 7.49411C13.151 7.49411 13.4883 7.63384 13.737 7.88257C13.9858 8.1313 14.1255 8.46864 14.1255 8.82039V16.7781C14.1255 17.1298 13.9858 17.4672 13.737 17.7159C13.4883 17.9646 13.151 18.1044 12.7992 18.1044Z" fill="#265ED7"/>
<path d="M16.7781 14.1256H8.82038C8.46863 14.1256 8.13128 13.9859 7.88256 13.7371C7.63383 13.4884 7.4941 13.1511 7.4941 12.7993C7.4941 12.4476 7.63383 12.1102 7.88256 11.8615C8.13128 11.6128 8.46863 11.473 8.82038 11.473H16.7781C17.1298 11.473 17.4672 11.6128 17.7159 11.8615C17.9646 12.1102 18.1043 12.4476 18.1043 12.7993C18.1043 13.1511 17.9646 13.4884 17.7159 13.7371C17.4672 13.9859 17.1298 14.1256 16.7781 14.1256Z" fill="#265ED7"/>
<path fill-rule="evenodd" clip-rule="evenodd" d="M15.2495 19.5901C15.4428 19.4495 16.6963 17.9726 16.9687 17.6606L22.0526 11.8521C23.3572 10.3727 23.8942 8.23379 23.1544 6.1396C22.5822 4.51967 21.1959 3.03301 19.2154 2.92199C16.8755 2.79083 15.7349 4.46346 14.7714 5.56408C14.1018 6.329 13.5678 7.23146 12.654 6.9281C11.7831 6.63895 10.4525 4.1538 8.97583 3.40692C8.13326 2.98075 7.16384 2.78527 6.15187 3.0295C4.49528 3.42934 2.99907 4.96744 2.69153 6.80759C2.3493 8.67845 2.6904 10.103 3.65187 11.4642C4.14313 12.1597 7.88196 16.2001 8.15604 16.6572C8.76741 17.677 8.04862 18.977 7.06664 18.9525C6.49024 18.9381 6.23739 18.5545 5.9346 18.2084C5.0128 17.1549 1.97379 13.7715 1.44473 12.9991C0.572761 11.7259 0.0926647 10.2159 -7.912e-07 8.67544V7.56697C0.136479 5.29689 1.11038 3.06778 2.91128 1.53689C5.60112 -0.749665 9.53901 -0.505115 12.0853 2.40697C12.3218 2.67751 12.7756 3.25655 13.0129 3.43815C13.4292 3.11956 14.105 2.04654 15.1062 1.29917C15.8157 0.769478 16.9644 0.203402 17.9981 0.0729201C19.7706 -0.150824 21.4504 0.252218 22.7829 1.27691C24.0042 2.21608 24.918 3.39138 25.4964 4.97266C25.7932 5.78388 25.984 6.75179 26.0258 7.74845V8.56984C25.9942 9.31201 25.8746 10.0508 25.6494 10.7344C25.0096 12.6766 24.3853 13.3009 23.1411 14.7228L14.2202 24.9182C13.8784 25.3088 13.6185 25.7338 12.911 25.6911C12.296 25.6539 12.0372 25.1829 11.704 24.802C11.3612 24.4102 11.0556 24.061 10.7128 23.6692C10.3915 23.3021 9.95802 22.9445 9.8719 22.3638C9.76373 21.6345 10.1215 21.0673 10.4909 20.8304C10.9875 20.512 11.625 20.6081 11.9851 20.9952C12.2766 21.3086 12.7218 21.9214 13.0129 22.1442L15.2495 19.5901L15.2495 19.5901Z" fill="#475564"/>
</svg>
