<svg width="25" height="24" viewBox="0 0 25 24" fill="none" xmlns="http://www.w3.org/2000/svg">
<path fill-rule="evenodd" clip-rule="evenodd" d="M9 23H16V12H9V23ZM10.75 18.6H12.5V16.4H10.75V14.2H14.25V20.8H10.75V18.6Z" fill="#265ED7"/>
<path d="M3.53081 14.3876C3.23447 14.4216 2.96142 14.5648 2.76488 14.7892C2.56834 15.0136 2.46239 15.3031 2.46769 15.6013V22.804C2.46881 23.1208 2.59518 23.4244 2.81923 23.6485C3.04328 23.8725 3.34684 23.9989 3.6637 24H20.4699C20.7867 23.9989 21.0903 23.8725 21.3144 23.6485C21.5384 23.4244 21.6648 23.1208 21.6659 22.804V15.6013C21.6659 15.4437 21.6349 15.2875 21.5746 15.1418C21.5143 14.9962 21.4259 14.8638 21.3144 14.7523C21.2029 14.6408 21.0706 14.5523 20.9249 14.492C20.7793 14.4316 20.6231 14.4006 20.4655 14.4006C20.3078 14.4006 20.1517 14.4316 20.006 14.492C19.8603 14.5523 19.728 14.6408 19.6165 14.7523C19.505 14.8638 19.4166 14.9962 19.3563 15.1418C19.296 15.2875 19.265 15.4437 19.265 15.6013V21.5991H4.86857V15.6013C4.87162 15.4303 4.83808 15.2606 4.7702 15.1036C4.70233 14.9466 4.60168 14.806 4.475 14.691C4.34833 14.5761 4.19855 14.4896 4.03571 14.4372C3.87287 14.3849 3.70072 14.368 3.53081 14.3876V14.3876Z" fill="#475564"/>
<path d="M12.0535 2.5355e-05C11.7403 0.00495788 11.4415 0.132133 11.2207 0.354399L0.421197 11.1539C0.295217 11.2614 0.192845 11.3938 0.120519 11.5428C0.0481926 11.6918 0.0074785 11.8541 0.000936849 12.0196C-0.0056048 12.1851 0.0221675 12.3501 0.0825073 12.5043C0.142847 12.6586 0.234449 12.7986 0.35155 12.9157C0.468651 13.0328 0.608717 13.1244 0.762939 13.1848C0.917161 13.2451 1.0822 13.2729 1.24768 13.2663C1.41315 13.2598 1.57549 13.2191 1.72446 13.1468C1.87344 13.0744 2.00584 12.9721 2.11333 12.8461L12.0712 2.89703L22.0203 12.8461C22.13 12.9637 22.2623 13.058 22.4092 13.1235C22.5561 13.1889 22.7147 13.2242 22.8755 13.2272C23.0363 13.2302 23.1961 13.2008 23.3453 13.1408C23.4946 13.0809 23.6302 12.9915 23.7443 12.8781C23.8583 12.7646 23.9484 12.6294 24.0091 12.4805C24.0699 12.3316 24.1001 12.172 24.0979 12.0111C24.0958 11.8503 24.0613 11.6916 23.9966 11.5443C23.9319 11.397 23.8383 11.2643 23.7213 11.1539L12.9129 0.354399C12.8004 0.241159 12.6665 0.151491 12.5189 0.0906431C12.3713 0.0297946 12.2131 -0.00101205 12.0535 2.5355e-05V2.5355e-05Z" fill="#475564"/>
</svg>
