<svg width="20" height="22" viewBox="0 0 20 22" fill="none" xmlns="http://www.w3.org/2000/svg">
<circle cx="10.5" cy="12.5" r="9.5" fill="#A2BAEF"/>
<path d="M8.50752 14.2166C8.40564 13.9597 8.20588 13.7537 7.95216 13.644C7.69844 13.5343 7.41154 13.5298 7.15454 13.6316L4.18084 14.8099C3.95561 14.8995 3.76863 15.0647 3.65204 15.2773C3.53546 15.4898 3.49654 15.7363 3.54198 15.9744C3.58743 16.2125 3.7144 16.4273 3.90106 16.5819C4.08773 16.7366 4.32243 16.8214 4.56483 16.8217C4.69641 16.8211 4.82669 16.7956 4.94883 16.7467L7.92253 15.5685C8.17895 15.4663 8.38446 15.2667 8.49409 15.0133C8.60372 14.76 8.60855 14.4735 8.50752 14.2166ZM4.74145 16.2247C4.65313 16.2599 4.55637 16.268 4.46343 16.248C4.3705 16.228 4.2856 16.1809 4.2195 16.1126C4.1534 16.0443 4.10909 15.9579 4.09219 15.8643C4.07529 15.7708 4.08657 15.6743 4.12459 15.5872C4.14936 15.5294 4.18529 15.4771 4.23034 15.4332C4.27538 15.3893 4.32865 15.3547 4.38709 15.3315L5.61219 14.8462L5.96581 15.7384L4.74145 16.2247ZM7.71516 15.0465L6.49005 15.534L6.13493 14.64L7.36041 14.1548C7.47867 14.1079 7.6107 14.1099 7.72749 14.1603C7.84428 14.2107 7.93628 14.3054 7.98328 14.4236C8.03008 14.5418 8.02815 14.6737 7.97789 14.7904C7.92764 14.9072 7.83316 14.9993 7.71516 15.0465Z" fill="#475564"/>
<path d="M12.6887 13.9936L11.4223 13.0152L10.159 12.0372C10.0507 11.9534 9.92691 11.8918 9.79477 11.8558C9.66262 11.8199 9.52468 11.8103 9.38885 11.8277C9.25301 11.8451 9.12195 11.8892 9.00314 11.9573C8.88434 12.0254 8.78013 12.1163 8.69649 12.2247C8.52778 12.4437 8.45277 12.7206 8.48792 12.9947C8.52307 13.2689 8.6655 13.5179 8.88399 13.6872L11.4137 15.6443C11.522 15.728 11.6458 15.7896 11.7779 15.8255C11.9101 15.8613 12.048 15.8708 12.1838 15.8534C12.3196 15.836 12.4506 15.792 12.5694 15.724C12.6882 15.6559 12.7925 15.5651 12.8762 15.4568C12.9599 15.3485 13.0214 15.2247 13.0573 15.0926C13.0932 14.9604 13.1027 14.8225 13.0853 14.6867C13.0679 14.5509 13.0239 14.4199 12.9559 14.3011C12.8878 14.1823 12.797 14.078 12.6887 13.9943V13.9936ZM9.14198 12.5686C9.18035 12.5187 9.22825 12.4768 9.2829 12.4456C9.33755 12.4143 9.39787 12.3941 9.46035 12.3863C9.48075 12.3838 9.50129 12.3825 9.52185 12.3826C9.62797 12.3824 9.73109 12.4178 9.81472 12.4831L10.8572 13.2893L10.27 14.0483L9.22748 13.2421C9.12664 13.1639 9.06098 13.0489 9.04494 12.9223C9.02891 12.7957 9.06381 12.6679 9.14198 12.5671V12.5686ZM12.4307 15.1129C12.3921 15.163 12.3439 15.2049 12.2891 15.2363C12.2342 15.2677 12.1737 15.288 12.111 15.296C12.0483 15.304 11.9846 15.2995 11.9237 15.2828C11.8627 15.2661 11.8056 15.2376 11.7557 15.1988L10.7132 14.3926L11.3004 13.6336L12.3429 14.4398C12.4434 14.5175 12.5091 14.6319 12.5255 14.7579C12.542 14.8839 12.5079 15.0113 12.4307 15.1122V15.1129Z" fill="#475564"/>
<path d="M11.6301 15.9151H8.43178C8.15877 15.9203 7.89869 16.0324 7.70745 16.2273C7.5162 16.4222 7.40907 16.6843 7.40907 16.9574C7.40907 17.2305 7.5162 17.4926 7.70745 17.6875C7.89869 17.8824 8.15877 17.9945 8.43178 17.9997H11.6301C11.7686 18.0023 11.9063 17.9773 12.0351 17.9261C12.1638 17.8749 12.2811 17.7986 12.38 17.7015C12.4789 17.6045 12.5575 17.4887 12.6111 17.3609C12.6647 17.2331 12.6924 17.096 12.6924 16.9574C12.6924 16.8188 12.6647 16.6817 12.6111 16.5539C12.5575 16.4261 12.4789 16.3103 12.38 16.2133C12.2811 16.1162 12.1638 16.0399 12.0351 15.9887C11.9063 15.9375 11.7686 15.9125 11.6301 15.9151ZM7.95216 16.9576C7.95226 16.8304 8.00281 16.7084 8.09273 16.6184C8.18264 16.5284 8.30457 16.4778 8.43178 16.4776H9.74989V17.4372H8.43178C8.30464 17.437 8.18276 17.3864 8.09286 17.2965C8.00296 17.2066 7.95236 17.0847 7.95216 16.9576ZM11.6301 17.4372H10.3124V16.4776H11.6301C11.6942 16.4758 11.7581 16.4869 11.8179 16.5102C11.8777 16.5335 11.9322 16.5686 11.9782 16.6133C12.0241 16.658 12.0607 16.7115 12.0857 16.7706C12.1106 16.8297 12.1235 16.8932 12.1235 16.9574C12.1235 17.0216 12.1106 17.0851 12.0857 17.1442C12.0607 17.2033 12.0241 17.2568 11.9782 17.3015C11.9322 17.3462 11.8777 17.3813 11.8179 17.4046C11.7581 17.4279 11.6942 17.439 11.6301 17.4372Z" fill="#475564"/>
<path d="M16.5789 15.2247C16.3974 15.0182 16.1677 14.8597 15.9103 14.7631C15.6529 14.6666 15.3757 14.635 15.1032 14.6712C14.8307 14.7074 14.5713 14.8102 14.348 14.9706C14.1247 15.131 13.9444 15.344 13.8231 15.5907C13.7018 15.8374 13.6432 16.1102 13.6525 16.3849C13.6618 16.6597 13.7387 16.9279 13.8764 17.1658C14.0142 17.4038 14.2084 17.6041 14.4421 17.749C14.6757 17.8939 14.9414 17.979 15.2158 17.9966C15.2533 17.9989 15.2908 18 15.3253 18C15.6465 17.9996 15.9608 17.9065 16.2305 17.7321C16.5003 17.5577 16.7141 17.3093 16.8463 17.0165C16.9786 16.7238 17.0237 16.3991 16.9763 16.0814C16.9288 15.7637 16.7909 15.4664 16.5789 15.2251V15.2247ZM14.5914 15.4954C14.775 15.3332 15.0074 15.2369 15.2519 15.2216C15.4964 15.2063 15.739 15.273 15.9414 15.4111L14.3356 16.8229C14.2238 16.6049 14.1882 16.3557 14.2346 16.1151C14.281 15.8744 14.4066 15.6563 14.5914 15.4954ZM16.0561 17.1611C15.8729 17.324 15.6403 17.4208 15.3956 17.436C15.1509 17.4512 14.9082 17.384 14.7061 17.2451L16.3115 15.834C16.4211 16.0525 16.4555 16.301 16.4091 16.541C16.3628 16.7809 16.2384 16.9989 16.0554 17.1608L16.0561 17.1611Z" fill="#475564"/>
<path d="M14.4576 14.245C14.7863 14.2096 15.0971 14.0776 15.3509 13.8656C15.6046 13.6536 15.7897 13.3711 15.8829 13.0539C15.976 12.7367 15.9731 12.399 15.8743 12.0834C15.7755 11.7679 15.5854 11.4888 15.328 11.2813C15.0706 11.0738 14.7575 10.9473 14.4282 10.9178C14.0989 10.8882 13.7682 10.957 13.478 11.1154C13.1878 11.2738 12.9511 11.5147 12.7978 11.8076C12.6445 12.1006 12.5814 12.4324 12.6167 12.7611C12.6607 13.1706 12.8543 13.5495 13.1603 13.825C13.4664 14.1006 13.8635 14.2535 14.2753 14.2543C14.3362 14.2544 14.397 14.2513 14.4576 14.245ZM13.4154 11.8874C13.5065 11.7737 13.6191 11.6791 13.7469 11.6092C13.8746 11.5392 14.015 11.4952 14.1598 11.4798C14.1993 11.4756 14.239 11.4734 14.2787 11.4734C14.5028 11.4745 14.7214 11.5435 14.9055 11.6713C15.0897 11.7991 15.2308 11.9797 15.3103 12.1892L13.1852 12.4172C13.2133 12.2232 13.2928 12.0403 13.4154 11.8874ZM13.5831 13.447C13.4305 13.3234 13.314 13.1611 13.2456 12.9771L15.3718 12.7499C15.3433 12.9427 15.2643 13.1246 15.1428 13.2771C15.0213 13.4295 14.8616 13.5472 14.68 13.618C14.4984 13.6889 14.3013 13.7104 14.1086 13.6805C13.916 13.6506 13.7347 13.5703 13.5831 13.4477V13.447Z" fill="#475564"/>
<path d="M8.78536 15.6621C9.16477 15.6629 9.5347 15.5436 9.84209 15.3212C9.87333 15.3001 9.90001 15.273 9.92056 15.2414C9.9411 15.2098 9.9551 15.1744 9.9617 15.1374C9.96831 15.1003 9.9674 15.0622 9.95902 15.0255C9.95064 14.9888 9.93496 14.9541 9.91292 14.9235C9.89088 14.893 9.86293 14.8671 9.83072 14.8476C9.79851 14.8281 9.7627 14.8152 9.72542 14.8097C9.68814 14.8043 9.65014 14.8064 9.61369 14.8159C9.57724 14.8255 9.54307 14.8422 9.51322 14.8652C9.30136 15.0181 9.04661 15.1001 8.78536 15.0996C8.71077 15.0996 8.63923 15.1292 8.58649 15.182C8.53374 15.2347 8.50411 15.3062 8.50411 15.3808C8.50411 15.4554 8.53374 15.5269 8.58649 15.5797C8.63923 15.6324 8.71077 15.6621 8.78536 15.6621Z" fill="#475564"/>
<path d="M2.94183 15.0995H1.80972C1.47902 15.099 1.16202 14.9674 0.928212 14.7335C0.694408 14.4997 0.562888 14.1826 0.562491 13.8519V13.1623H7.93488C8.00947 13.1623 8.08101 13.1327 8.13375 13.0799C8.18649 13.0272 8.21612 12.9556 8.21612 12.8811C8.21612 12.8065 8.18649 12.7349 8.13375 12.6822C8.08101 12.6294 8.00947 12.5998 7.93488 12.5998H0.562491V6.89502H1.82247C1.89706 6.89502 1.9686 6.86539 2.02134 6.81264C2.07409 6.7599 2.10372 6.68836 2.10372 6.61377C2.10372 6.53918 2.07409 6.46765 2.02134 6.4149C1.9686 6.36216 1.89706 6.33253 1.82247 6.33253H0.562491V5.0748C0.562888 4.74413 0.69442 4.42713 0.928235 4.19331C1.16205 3.9595 1.47906 3.82796 1.80972 3.82757H8.78462C9.11528 3.82796 9.43229 3.9595 9.6661 4.19331C9.89992 4.42713 10.0314 4.74413 10.0318 5.0748V6.33253H2.78621C2.71162 6.33253 2.64008 6.36216 2.58734 6.4149C2.53459 6.46765 2.50496 6.53918 2.50496 6.61377C2.50496 6.68836 2.53459 6.7599 2.58734 6.81264C2.64008 6.86539 2.71162 6.89502 2.78621 6.89502H10.0326V11.3702C10.0326 11.4448 10.0622 11.5163 10.115 11.5691C10.1677 11.6218 10.2393 11.6514 10.3138 11.6514C10.3884 11.6514 10.46 11.6218 10.5127 11.5691C10.5655 11.5163 10.5951 11.4448 10.5951 11.3702V5.0748C10.5945 4.59501 10.4036 4.13505 10.0644 3.79579C9.72512 3.45653 9.26515 3.26567 8.78537 3.26508H7.77288V2.36509H9.16036C9.23495 2.36509 9.30649 2.33546 9.35923 2.28271C9.41197 2.22997 9.44161 2.15843 9.44161 2.08384V0.281246C9.44161 0.206655 9.41197 0.135119 9.35923 0.082375C9.30649 0.0296312 9.23495 0 9.16036 0L1.43735 0C1.36276 0 1.29123 0.0296312 1.23848 0.082375C1.18574 0.135119 1.15611 0.206655 1.15611 0.281246V2.08384C1.15611 2.15843 1.18574 2.22997 1.23848 2.28271C1.29123 2.33546 1.36276 2.36509 1.43735 2.36509H2.82258V3.26508H1.8101C1.33025 3.26557 0.870187 3.45639 0.530846 3.79566C0.191505 4.13493 0.000595585 4.59495 0 5.0748V13.8519C0.000496165 14.3318 0.19131 14.7918 0.530581 15.1312C0.869851 15.4705 1.32987 15.6614 1.80972 15.662H2.94183C3.01642 15.662 3.08796 15.6324 3.1407 15.5796C3.19344 15.5269 3.22308 15.4554 3.22308 15.3808C3.22308 15.3062 3.19344 15.2346 3.1407 15.1819C3.08796 15.1292 3.01642 15.0995 2.94183 15.0995ZM3.38507 2.36509H6.07828C6.15287 2.36509 6.22441 2.33546 6.27715 2.28271C6.3299 2.22997 6.35953 2.15843 6.35953 2.08384C6.35953 2.00925 6.3299 1.93772 6.27715 1.88497C6.22441 1.83223 6.15287 1.8026 6.07828 1.8026H1.7186V0.562491H8.87649V1.8026H7.02139C6.9468 1.8026 6.87527 1.83223 6.82252 1.88497C6.76978 1.93772 6.74015 2.00925 6.74015 2.08384C6.74015 2.15843 6.76978 2.22997 6.82252 2.28271C6.87527 2.33546 6.9468 2.36509 7.02139 2.36509H7.20889V3.26508H3.38395L3.38507 2.36509Z" fill="#475564"/>
<path d="M5.98829 11.7283H4.60681C4.53222 11.7283 4.46069 11.6987 4.40794 11.6459C4.3552 11.5932 4.32557 11.5217 4.32557 11.4471V10.711H3.58945C3.51486 10.711 3.44333 10.6813 3.39058 10.6286C3.33784 10.5758 3.30821 10.5043 3.30821 10.4297V9.04824C3.30821 8.97365 3.33784 8.90211 3.39058 8.84937C3.44333 8.79662 3.51486 8.76699 3.58945 8.76699H4.32557V8.03088C4.32557 7.95629 4.3552 7.88475 4.40794 7.83201C4.46069 7.77926 4.53222 7.74963 4.60681 7.74963H5.98829C6.06288 7.74963 6.13442 7.77926 6.18716 7.83201C6.23991 7.88475 6.26954 7.95629 6.26954 8.03088V8.76699H7.00528C7.07987 8.76699 7.1514 8.79662 7.20415 8.84937C7.25689 8.90211 7.28652 8.97365 7.28652 9.04824V10.4297C7.28652 10.5043 7.25689 10.5758 7.20415 10.6286C7.1514 10.6813 7.07987 10.711 7.00528 10.711H6.26954V11.4471C6.26954 11.5217 6.23991 11.5932 6.18716 11.6459C6.13442 11.6987 6.06288 11.7283 5.98829 11.7283ZM4.88806 11.1658H5.70705V10.4297C5.70705 10.3551 5.73668 10.2836 5.78942 10.2308C5.84217 10.1781 5.9137 10.1485 5.98829 10.1485H6.72403V9.32948H5.98829C5.9137 9.32948 5.84217 9.29985 5.78942 9.24711C5.73668 9.19437 5.70705 9.12283 5.70705 9.04824V8.31213H4.88806V9.04824C4.88806 9.12283 4.85843 9.19437 4.80568 9.24711C4.75294 9.29985 4.6814 9.32948 4.60681 9.32948H3.8707V10.1485H4.60681C4.6814 10.1485 4.75294 10.1781 4.80568 10.2308C4.85843 10.2836 4.88806 10.3551 4.88806 10.4297V11.1658Z" fill="#475564"/>
</svg>
