<svg width="18" height="24" viewBox="0 0 18 24" fill="none" xmlns="http://www.w3.org/2000/svg">
<path d="M8.84918 4.00009C8.80853 4.00089 8.76879 4.01228 8.73388 4.03313C8.69898 4.05399 8.67011 4.08358 8.65014 4.119C8.63016 4.15442 8.61976 4.19443 8.61997 4.23509C8.62018 4.27575 8.63098 4.31566 8.65132 4.35087C8.86399 4.70281 8.98031 5.10452 8.98858 5.51565C8.99349 6.14687 8.75015 6.75474 8.31105 7.20819C7.87194 7.66164 7.27224 7.92434 6.64125 7.93966C6.2755 7.94071 5.91451 7.85676 5.58676 7.69442C5.259 7.53209 4.97344 7.29582 4.75259 7.00424C4.7266 6.97229 4.69277 6.94763 4.6544 6.93265C4.61603 6.91768 4.57444 6.9129 4.53368 6.91879C4.49291 6.92468 4.45437 6.94103 4.42181 6.96625C4.38925 6.99147 4.36378 7.0247 4.34788 7.0627C4.08757 7.70896 3.97095 8.40411 4.00613 9.09995C4.05022 10.0547 4.37394 10.9753 4.93703 11.7475C5.50011 12.5197 6.27774 13.1093 7.1732 13.4431C8.06867 13.7768 9.04248 13.84 9.97355 13.6247C10.9046 13.4094 11.7519 12.9252 12.41 12.2322C13.0681 11.5392 13.508 10.668 13.675 9.72701C13.842 8.786 13.7287 7.81664 13.3493 6.93948C12.9699 6.06231 12.3411 5.31603 11.541 4.79342C10.7409 4.27081 9.8048 3.99493 8.84918 4.00009V4.00009Z" fill="#9BCDD6"/>
<path d="M8.88343 1.52588e-05C6.53582 0.0271579 4.29202 0.971802 2.63191 2.63192C0.971787 4.29204 0.0271427 6.53584 0 8.88344C0.0304427 10.0813 0.305775 11.2602 0.809042 12.3476C1.31231 13.435 2.03285 14.4079 2.92631 15.2064C5.01652 17.4533 7.94283 23.3582 7.94283 23.4105C8.02841 23.5872 8.16203 23.7362 8.32838 23.8404C8.49474 23.9447 8.6871 24 8.88343 24C9.07976 24 9.27212 23.9447 9.43847 23.8404C9.60483 23.7362 9.73845 23.5872 9.82403 23.4105C9.87628 23.3582 12.8026 17.4533 14.8406 15.2064C15.734 14.4079 16.4545 13.435 16.9578 12.3476C17.4611 11.2602 17.7364 10.0813 17.7669 8.88344C17.7397 6.53584 16.7951 4.29204 15.135 2.63192C13.4748 0.971802 11.231 0.0271579 8.88343 1.52588e-05V1.52588e-05ZM13.3774 13.7432H13.3251C11.8097 15.3631 9.92854 18.6552 8.88343 20.6932C7.78606 18.6552 5.95712 15.4154 4.44171 13.7432H4.38946C3.69088 13.1363 3.12584 12.391 2.73008 11.5545C2.33431 10.718 2.11643 9.80847 2.09022 8.88344C2.11719 7.09018 2.84156 5.37792 4.10973 4.10975C5.37791 2.84157 7.09016 2.1172 8.88343 2.09023C10.6767 2.1172 12.3889 2.84157 13.6571 4.10975C14.9253 5.37792 15.6497 7.09018 15.6766 8.88344C15.6504 9.80847 15.4325 10.718 15.0368 11.5545C14.641 12.391 14.076 13.1363 13.3774 13.7432Z" fill="#475564"/>
</svg>
