<svg width="25" height="24" viewBox="0 0 25 24" fill="none" xmlns="http://www.w3.org/2000/svg">
<path d="M19.7087 24C19.5786 24 19.45 23.9723 19.3316 23.9185C19.2131 23.8648 19.1075 23.7864 19.0218 23.6885L16.0725 20.3188C14.8858 20.6241 13.6652 20.7776 12.4399 20.7757C9.17483 20.7757 6.09772 19.7153 3.77559 17.7904C1.40297 15.8242 0.0980263 13.1954 0.0980263 10.3878C0.0980263 7.58023 1.40419 4.95148 3.77559 2.98525C6.09772 1.06038 9.17483 0 12.4399 0C15.705 0 18.7815 1.06038 21.1037 2.98525C23.4763 4.95148 24.7812 7.58023 24.7812 10.3878C24.7812 13.3852 23.2713 16.1971 20.6212 18.17V23.0875C20.6212 23.3295 20.5251 23.5616 20.3539 23.7327C20.1828 23.9039 19.9507 24 19.7087 24V24ZM16.3797 18.372C16.5098 18.372 16.6383 18.3998 16.7568 18.4535C16.8753 18.5072 16.9809 18.5856 17.0665 18.6835L18.7961 20.6595V17.6998C18.7961 17.5514 18.8321 17.4053 18.9013 17.2741C18.9704 17.1429 19.0704 17.0305 19.1928 16.9466C21.5843 15.3113 22.9555 12.9205 22.9555 10.3878C22.9555 5.66631 18.2376 1.8251 12.4393 1.8251C6.64099 1.8251 1.92312 5.66631 1.92312 10.3878C1.92312 15.1094 6.64099 18.9506 12.4399 18.9506C13.6845 18.9535 14.9226 18.7719 16.1138 18.4116C16.2001 18.3856 16.2896 18.3723 16.3797 18.372Z" fill="#475564"/>
<path d="M16.2587 7.77607H8.62063C8.37861 7.77607 8.1465 7.67993 7.97536 7.50879C7.80423 7.33766 7.70808 7.10555 7.70808 6.86352C7.70808 6.6215 7.80423 6.38939 7.97536 6.21826C8.1465 6.04712 8.37861 5.95098 8.62063 5.95098H16.2587C16.5007 5.95098 16.7328 6.04712 16.9039 6.21826C17.0751 6.38939 17.1712 6.6215 17.1712 6.86352C17.1712 7.10555 17.0751 7.33766 16.9039 7.50879C16.7328 7.67993 16.5007 7.77607 16.2587 7.77607Z" fill="#9BCDD6"/>
<path d="M16.2587 11.2194H8.62063C8.37861 11.2194 8.1465 11.1233 7.97536 10.9522C7.80423 10.781 7.70808 10.5489 7.70808 10.3069C7.70808 10.0649 7.80423 9.83275 7.97536 9.66162C8.1465 9.49048 8.37861 9.39434 8.62063 9.39434H16.2587C16.5007 9.39434 16.7328 9.49048 16.9039 9.66162C17.0751 9.83275 17.1712 10.0649 17.1712 10.3069C17.1712 10.5489 17.0751 10.781 16.9039 10.9522C16.7328 11.1233 16.5007 11.2194 16.2587 11.2194V11.2194Z" fill="#9BCDD6"/>
<path d="M16.2587 14.6628H8.62063C8.37861 14.6628 8.1465 14.5666 7.97536 14.3955C7.80423 14.2244 7.70808 13.9923 7.70808 13.7502C7.70808 13.5082 7.80423 13.2761 7.97536 13.105C8.1465 12.9338 8.37861 12.8377 8.62063 12.8377H16.2587C16.5007 12.8377 16.7328 12.9338 16.9039 13.105C17.0751 13.2761 17.1712 13.5082 17.1712 13.7502C17.1712 13.9923 17.0751 14.2244 16.9039 14.3955C16.7328 14.5666 16.5007 14.6628 16.2587 14.6628Z" fill="#9BCDD6"/>
</svg>
