<svg width="17" height="24" viewBox="0 0 17 24" fill="none" xmlns="http://www.w3.org/2000/svg">
<path fill-rule="evenodd" clip-rule="evenodd" d="M1.87491 17.4375C1.87491 16.398 3.76385 16.4816 3.75053 14.2506C3.74049 12.564 3.74992 10.8744 3.74992 9.18748C3.74992 8.29079 3.77625 7.59644 4.01248 6.91888C4.31438 6.05283 4.91602 5.2381 5.61099 4.72056C5.87007 4.52756 6.08694 4.38414 6.38987 4.23375C7.65965 3.60332 9.21514 3.60332 10.4849 4.23375C10.7878 4.38414 11.0046 4.52756 11.2638 4.72056C11.9588 5.2381 12.5604 6.05283 12.8623 6.91888C13.0985 7.59654 13.1249 8.29079 13.1249 9.18748C13.1249 10.8744 13.1343 12.564 13.1242 14.2506C13.1109 16.4816 14.9999 16.3979 14.9999 17.4375C14.9999 17.9686 14.5289 18.375 13.9686 18.375H2.9061C2.34573 18.375 1.87481 17.9686 1.87481 17.4375H1.87491ZM8.31425 0.000102443H8.56053C8.88291 0.0409771 9.18727 0.243199 9.33059 0.606871C9.45291 0.917067 9.37484 1.52507 9.37484 1.92203C9.56785 1.967 9.82436 2.01351 9.99657 2.05039C10.852 2.23346 11.7093 2.68318 12.409 3.20041C12.6654 3.39004 13.1307 3.79888 13.3322 4.05847C13.6258 4.43649 13.7737 4.54231 14.0895 5.08239C14.59 5.9385 14.802 6.58236 14.9744 7.71312C15.0538 8.23394 14.9999 12.5017 14.9999 13.4064C14.9999 13.9143 14.9526 14.3804 15.1472 14.7122C15.3453 15.0501 16.0432 15.1371 16.5627 16.1091C16.8595 16.6643 16.8749 17.0687 16.8749 17.672C16.8749 18.2453 16.467 19.0433 16.0674 19.4427L15.2943 19.9821C15.0745 20.0884 14.5969 20.2502 14.2968 20.2502H2.57807C2.25538 20.2502 1.7741 20.0747 1.54668 19.9691C1.17758 19.7978 0.755413 19.4119 0.514877 19.0789C0.0671 18.459 0 17.9909 0 17.2501C0 16.5592 0.454026 15.6966 0.936839 15.3276C1.10146 15.2018 1.17 15.133 1.37437 15.0151C1.96741 14.6731 1.87491 14.2697 1.87491 13.4064C1.87491 12.4532 1.87491 11.5001 1.87491 10.547C1.87491 8.46556 1.66592 7.08853 2.68615 5.26453C3.13823 4.45636 3.47517 4.06841 4.13582 3.47978C4.58872 3.07625 4.86429 2.91337 5.38777 2.62233C6.18273 2.18049 6.64095 2.122 7.49983 1.92193C7.49983 1.52496 7.42177 0.917067 7.54409 0.606768C7.68741 0.243097 7.99176 0.0408747 8.31415 0L8.31425 0.000102443Z" fill="#475564"/>
<path fill-rule="evenodd" clip-rule="evenodd" d="M5.62467 22.9219V23.2031C5.62467 23.5467 6.07798 24 6.42157 24H10.4528C10.7964 24 11.2497 23.5467 11.2497 23.2031V22.9219C11.2497 22.5783 10.7964 22.125 10.4528 22.125H6.42157C6.07798 22.125 5.62467 22.5783 5.62467 22.9219V22.9219Z" fill="#3B98CC"/>
</svg>
