<svg width="23" height="22" viewBox="0 0 23 22" fill="none" xmlns="http://www.w3.org/2000/svg">
<path d="M11.55 4.72461e-06C9.98454 -0.000387842 8.43775 0.339829 7.01693 0.99705C5.59612 1.65427 4.33532 2.61276 3.322 3.806L1.826 2.475C1.66736 2.33587 1.47205 2.24529 1.26336 2.21409C1.05467 2.18288 0.841402 2.21236 0.649 2.299C0.456005 2.38576 0.292127 2.52634 0.177015 2.70388C0.0619028 2.88143 0.000441498 3.08841 0 3.3V7.7C0 7.99174 0.115892 8.27153 0.322182 8.47782C0.528472 8.68411 0.808262 8.8 1.1 8.8H6.05C6.27158 8.79935 6.48781 8.73179 6.67035 8.60617C6.85288 8.48055 6.99323 8.30273 7.073 8.096C7.1541 7.88651 7.16911 7.6572 7.11601 7.43892C7.06291 7.22064 6.94426 7.02385 6.776 6.875L4.961 5.258C5.77291 4.29942 6.78395 3.52927 7.92376 3.00115C9.06358 2.47304 10.3048 2.19965 11.561 2.2C13.1742 2.19974 14.7565 2.64294 16.1348 3.48115C17.5132 4.31936 18.6346 5.52034 19.3765 6.95283C20.1185 8.38531 20.4523 9.99418 20.3417 11.6036C20.231 13.213 19.6801 14.761 18.7491 16.0785C17.8181 17.396 16.5429 18.4322 15.0628 19.0739C13.5827 19.7156 11.9547 19.938 10.3567 19.717C8.75867 19.496 7.25217 18.8399 6.00183 17.8205C4.75149 16.8012 3.80541 15.4577 3.267 13.937C3.17073 13.6613 2.96888 13.4352 2.70586 13.3083C2.44284 13.1814 2.14019 13.1642 1.8645 13.2605C1.58881 13.3568 1.36265 13.5586 1.23578 13.8216C1.10891 14.0847 1.09173 14.3873 1.188 14.663C1.85975 16.5651 3.04161 18.2459 4.60434 19.5215C6.16707 20.7971 8.05048 21.6184 10.0486 21.8956C12.0467 22.1728 14.0826 21.8953 15.9335 21.0933C17.7845 20.2912 19.3793 18.9957 20.5435 17.3483C21.7077 15.7009 22.3964 13.765 22.5344 11.7525C22.6724 9.73999 22.2544 7.72827 21.3259 5.93736C20.3975 4.14646 18.9945 2.64534 17.2703 1.59818C15.5462 0.551015 13.5672 -0.00186461 11.55 4.72461e-06V4.72461e-06Z" fill="#475564"/>
<path d="M15.675 15.4C15.437 15.4 15.2054 15.3228 15.015 15.18L10.615 11.88C10.4784 11.7775 10.3675 11.6447 10.2911 11.4919C10.2147 11.3392 10.175 11.1708 10.175 11V6.6C10.175 6.30826 10.2909 6.02847 10.4972 5.82218C10.7035 5.61589 10.9832 5.5 11.275 5.5C11.5667 5.5 11.8465 5.61589 12.0528 5.82218C12.2591 6.02847 12.375 6.30826 12.375 6.6V10.45L16.335 13.42C16.4506 13.5067 16.5479 13.6153 16.6215 13.7396C16.6951 13.8639 16.7435 14.0014 16.7639 14.1444C16.7844 14.2874 16.7764 14.4331 16.7406 14.573C16.7047 14.7129 16.6417 14.8444 16.555 14.96C16.4525 15.0966 16.3197 15.2075 16.1669 15.2839C16.0142 15.3602 15.8458 15.4 15.675 15.4Z" fill="#265ED7"/>
</svg>
