<svg width="24" height="25" viewBox="0 0 24 25" fill="none" xmlns="http://www.w3.org/2000/svg">
<path d="M23.52 9.74655C23.3771 9.69125 23.2208 9.68102 23.072 9.71722C22.9231 9.75342 22.789 9.83432 22.6875 9.94905L18 15.199V11.944C18 11.3473 17.7629 10.775 17.341 10.3531C16.919 9.9311 16.3467 9.69405 15.75 9.69405H2.25C1.65326 9.69405 1.08097 9.9311 0.659009 10.3531C0.237053 10.775 0 11.3473 0 11.944L0 22.444C0 23.0408 0.237053 23.6131 0.659009 24.035C1.08097 24.457 1.65326 24.694 2.25 24.694H15.75C16.3467 24.694 16.919 24.457 17.341 24.035C17.7629 23.6131 18 23.0408 18 22.444V19.1665L22.6875 24.4165C22.7556 24.5006 22.8412 24.569 22.9383 24.6169C23.0354 24.6648 23.1417 24.6911 23.25 24.694C23.3426 24.6948 23.4344 24.677 23.52 24.6415C23.6609 24.5871 23.7822 24.4915 23.8678 24.367C23.9535 24.2425 23.9995 24.0951 24 23.944V10.444C23.9995 10.293 23.9535 10.1455 23.8678 10.0211C23.7822 9.89662 23.6609 9.80093 23.52 9.74655V9.74655ZM16.5 22.444C16.5 22.6429 16.421 22.8337 16.2803 22.9744C16.1397 23.115 15.9489 23.194 15.75 23.194H2.25C2.05109 23.194 1.86032 23.115 1.71967 22.9744C1.57902 22.8337 1.5 22.6429 1.5 22.444V11.944C1.5 11.7451 1.57902 11.5544 1.71967 11.4137C1.86032 11.2731 2.05109 11.194 2.25 11.194H15.75C15.9489 11.194 16.1397 11.2731 16.2803 11.4137C16.421 11.5544 16.5 11.7451 16.5 11.944V22.444ZM22.5 21.9715L18.255 17.194L22.5 12.4165V21.9715Z" fill="#808F9D"/>
<path d="M10.5 21.694H7.49999C7.30108 21.694 7.11032 21.615 6.96966 21.4744C6.82901 21.3337 6.74999 21.143 6.74999 20.944V19.444H5.25C5.05108 19.444 4.86032 19.365 4.71967 19.2244C4.57901 19.0837 4.5 18.893 4.5 18.694V15.694C4.5 15.4951 4.57901 15.3044 4.71967 15.1637C4.86032 15.0231 5.05108 14.944 5.25 14.944H6.74999V13.444C6.74999 13.2451 6.82901 13.0544 6.96966 12.9137C7.11032 12.7731 7.30108 12.694 7.49999 12.694H10.5C10.6989 12.694 10.8897 12.7731 11.0303 12.9137C11.171 13.0544 11.25 13.2451 11.25 13.444V14.944H12.75C12.9489 14.944 13.1397 15.0231 13.2803 15.1637C13.421 15.3044 13.5 15.4951 13.5 15.694V18.694C13.5 18.893 13.421 19.0837 13.2803 19.2244C13.1397 19.365 12.9489 19.444 12.75 19.444H11.25V20.944C11.25 21.143 11.171 21.3337 11.0303 21.4744C10.8897 21.615 10.6989 21.694 10.5 21.694ZM8.24999 20.194H9.74999V18.694C9.74999 18.4951 9.82901 18.3044 9.96966 18.1637C10.1103 18.0231 10.3011 17.944 10.5 17.944H12V16.444H10.5C10.3011 16.444 10.1103 16.365 9.96966 16.2244C9.82901 16.0837 9.74999 15.893 9.74999 15.694V14.194H8.24999V15.694C8.24999 15.893 8.17097 16.0837 8.03032 16.2244C7.88967 16.365 7.69891 16.444 7.49999 16.444H5.99999V17.944H7.49999C7.69891 17.944 7.88967 18.0231 8.03032 18.1637C8.17097 18.3044 8.24999 18.4951 8.24999 18.694V20.194Z" fill="#265ED7"/>
<path d="M20.25 10.4441H20.1525C20.0132 10.4263 19.8817 10.3697 19.773 10.2809C19.6643 10.192 19.5827 10.0745 19.5375 9.94155L18.96 8.19405H12.75C12.1532 8.19405 11.581 7.957 11.159 7.53504C10.737 7.11309 10.5 6.54079 10.5 5.94406V2.94406C10.5 2.34732 10.737 1.77503 11.159 1.35307C11.581 0.931114 12.1532 0.694061 12.75 0.694061L21.75 0.694061C22.3467 0.694061 22.919 0.931114 23.341 1.35307C23.7629 1.77503 24 2.34732 24 2.94406V5.94406C24.0096 6.47362 23.8321 6.9896 23.4987 7.40117C23.1654 7.81274 22.6975 8.09351 22.1775 8.19405L20.8725 10.1441C20.8004 10.2403 20.7062 10.3178 20.5978 10.37C20.4895 10.4222 20.3702 10.4476 20.25 10.4441ZM12.75 2.19406C12.5511 2.19406 12.3603 2.27308 12.2197 2.41373C12.079 2.55438 12 2.74515 12 2.94406V5.94406C12 6.14297 12.079 6.33373 12.2197 6.47439C12.3603 6.61504 12.5511 6.69406 12.75 6.69406H19.5C19.6572 6.69365 19.8106 6.74267 19.9385 6.83419C20.0663 6.9257 20.1622 7.05509 20.2125 7.20405L20.475 7.99905L21.1275 7.03155C21.1954 6.92838 21.2878 6.84359 21.3964 6.78471C21.505 6.72584 21.6264 6.69469 21.75 6.69406C21.9489 6.69406 22.1397 6.61504 22.2803 6.47439C22.421 6.33373 22.5 6.14297 22.5 5.94406V2.94406C22.5 2.74515 22.421 2.55438 22.2803 2.41373C22.1397 2.27308 21.9489 2.19406 21.75 2.19406H12.75Z" fill="#265ED7"/>
<path d="M14.25 5.19406C14.0511 5.19406 13.8603 5.11504 13.7197 4.97439C13.579 4.83374 13.5 4.64297 13.5 4.44406C13.5 4.24515 13.579 4.05438 13.7197 3.91373C13.8603 3.77308 14.0511 3.69406 14.25 3.69406C14.4489 3.69406 14.6397 3.77308 14.7803 3.91373C14.921 4.05438 15 4.24515 15 4.44406C15 4.64297 14.921 4.83374 14.7803 4.97439C14.6397 5.11504 14.4489 5.19406 14.25 5.19406Z" fill="#265ED7"/>
<path d="M17.25 5.19406C17.0511 5.19406 16.8603 5.11504 16.7197 4.97439C16.579 4.83374 16.5 4.64297 16.5 4.44406C16.5 4.24515 16.579 4.05438 16.7197 3.91373C16.8603 3.77308 17.0511 3.69406 17.25 3.69406C17.4489 3.69406 17.6397 3.77308 17.7803 3.91373C17.921 4.05438 18 4.24515 18 4.44406C18 4.64297 17.921 4.83374 17.7803 4.97439C17.6397 5.11504 17.4489 5.19406 17.25 5.19406Z" fill="#265ED7"/>
<path d="M20.25 5.19406C20.0511 5.19406 19.8603 5.11504 19.7196 4.97439C19.579 4.83374 19.5 4.64297 19.5 4.44406C19.5 4.24515 19.579 4.05438 19.7196 3.91373C19.8603 3.77308 20.0511 3.69406 20.25 3.69406C20.4489 3.69406 20.6397 3.77308 20.7803 3.91373C20.921 4.05438 21 4.24515 21 4.44406C21 4.64297 20.921 4.83374 20.7803 4.97439C20.6397 5.11504 20.4489 5.19406 20.25 5.19406Z" fill="#265ED7"/>
</svg>
