<svg width="26" height="25" viewBox="0 0 26 25" fill="none" xmlns="http://www.w3.org/2000/svg">
<path d="M2.52632 14.5875L13.8947 14.5888C15.2259 14.5888 16.3176 15.6189 16.4141 16.9265L16.4211 17.1151V19.0098C16.4198 23.4309 11.7272 24.6941 8.21053 24.6941C4.77205 24.6941 0.208042 23.4865 0.00688422 19.2999L0 19.0098V17.1138C0 15.7827 1.03124 14.691 2.33787 14.5945L2.52632 14.5875ZM16.6989 14.5888H22.7368C24.068 14.5888 25.1597 15.62 25.2562 16.9266L25.2632 17.1151V18.3783C25.2619 22.2461 21.6531 23.4309 18.9474 23.4309C18.0884 23.4309 17.1398 23.3096 16.2442 23.0242C16.6686 22.5366 17.0109 21.9795 17.2573 21.3479C17.9432 21.5058 18.5874 21.5362 18.9474 21.5362L19.284 21.5286C20.5286 21.4741 23.1826 21.0695 23.3592 18.6372L23.3684 18.3783V17.1151C23.3684 16.8053 23.1438 16.5472 22.85 16.4938L22.7368 16.4835H17.6198C17.5137 15.8502 17.2489 15.2749 16.8688 14.7906L16.6989 14.5888ZM2.52632 16.4823L2.39917 16.4949C2.24205 16.5269 2.13474 16.6121 2.07916 16.6667C2.02459 16.7223 1.9393 16.8287 1.90737 16.9863L1.89474 17.1138V19.0098C1.89474 20.2844 2.46316 21.185 3.68463 21.8418C4.72819 22.4038 6.21412 22.7441 7.80957 22.7931L8.21053 22.7993L8.61145 22.7931C10.2067 22.7441 11.6917 22.4038 12.7364 21.8418C13.8803 21.2261 14.4525 20.396 14.5196 19.2434L14.5263 19.0086V17.1151C14.5263 16.8053 14.3017 16.5472 14.0079 16.4938L13.8947 16.4835L2.52632 16.4823Z" fill="#475564"/>
<path d="M2 6.69406C2 9.99406 4.7 12.6941 8 12.6941C11.3 12.6941 14 9.99406 14 6.69406C14 3.39406 11.3 0.694061 8 0.694061C4.7 0.694061 2 3.39406 2 6.69406ZM12.5882 6.69406C12.5882 9.21759 10.5235 11.2823 8 11.2823C5.47647 11.2823 3.41176 9.21759 3.41176 6.69406C3.41176 4.17053 5.47647 2.10583 8 2.10583C10.5235 2.10583 12.5882 4.17053 12.5882 6.69406Z" fill="#3B98CC"/>
<path d="M15 8.19406C15 10.6691 17.025 12.6941 19.5 12.6941C21.975 12.6941 24 10.6691 24 8.19406C24 5.71906 21.975 3.69406 19.5 3.69406C17.025 3.69406 15 5.71906 15 8.19406ZM22.9412 8.19406C22.9412 10.0867 21.3926 11.6352 19.5 11.6352C17.6074 11.6352 16.0588 10.0867 16.0588 8.19406C16.0588 6.30141 17.6074 4.75288 19.5 4.75288C21.3926 4.75288 22.9412 6.30141 22.9412 8.19406Z" fill="#3B98CC"/>
</svg>
