<svg width="21" height="20" viewBox="0 0 21 20" fill="none" xmlns="http://www.w3.org/2000/svg">
<circle cx="11.5" cy="10.5" r="9.5" fill="#3B98CC"/>
<path d="M7.72241 7.75043C7.33256 7.49312 6.80236 7.58669 6.51386 7.95315L5.11039 9.77767C4.70494 10.2455 4.33848 10.5028 4.03439 10.5262C3.87065 10.534 3.71471 10.4716 3.56657 10.3313C3.34045 10.1207 3.2079 9.81665 3.2079 9.48138V6.38594C3.2079 6.2222 3.09874 6.07405 2.9428 6.02727C2.78686 5.98049 2.61532 6.03507 2.52176 6.17542L0.213822 9.59054C0.0266925 9.87123 -0.0434812 10.2221 0.0266926 10.5574L1.00912 15.2824V15.6255C1.00912 15.836 1.18066 15.9997 1.38338 15.9997H6.34233C6.53726 15.9997 6.70099 15.8516 6.71659 15.6567L6.91152 13.4735C7.00508 12.4287 7.25459 11.4073 7.64444 10.4482C7.70682 10.2923 7.76919 10.1363 7.83157 9.98819C7.96412 9.66851 8.08887 9.37222 8.18244 9.13051C8.37737 8.6237 8.18244 8.05451 7.72241 7.75043ZM7.4807 8.87321C7.39493 9.11491 7.27018 9.39561 7.14543 9.6997C7.08305 9.84784 7.02068 10.0038 6.9505 10.1597C6.52946 11.1889 6.26436 12.2805 6.163 13.4033L5.99926 15.2434H1.76544V15.2356C1.76544 15.2122 1.76544 15.181 1.75764 15.1577L0.767415 10.3936C0.736227 10.2611 0.767415 10.1207 0.845386 10.0038L2.46718 7.61008V9.47358C2.46718 10.0116 2.6855 10.5262 3.06755 10.8771C3.37164 11.1577 3.72251 11.2903 4.08897 11.2669C4.61138 11.2357 5.14938 10.8926 5.71077 10.2455L7.12983 8.40538C7.17662 8.343 7.26238 8.33521 7.32476 8.37419C7.47291 8.49115 7.54308 8.69387 7.4807 8.87321Z" fill="#475564"/>
<path d="M17.5 0H3.96423C3.13773 0 2.45939 0.670549 2.45939 1.49704V4.96674C2.45939 5.17726 2.63092 5.341 2.83365 5.341C3.04417 5.341 3.20791 5.16946 3.20791 4.96674V1.49704C3.20791 1.08379 3.54318 0.74852 3.95643 0.74852H17.4922C17.9054 0.74852 18.2407 1.08379 18.2407 1.49704V9.8867C18.2407 10.2999 17.9054 10.6352 17.4922 10.6352H8.61908C8.40856 10.6352 8.24482 10.8068 8.24482 11.0095C8.24482 11.2122 8.41636 11.3837 8.61908 11.3837H17.5C18.3265 11.3837 19.0048 10.7132 19.0048 9.8867V1.49704C19.0048 0.670549 18.3265 0 17.5 0Z" fill="#475564"/>
<path d="M12.4708 4.75609C10.9894 4.48319 9.69508 5.63716 9.69508 7.07182C9.69508 8.36614 10.7477 9.42654 12.0498 9.42654C12.1901 9.42654 12.3305 9.41095 12.4708 9.38756C12.6736 9.34857 12.8139 9.15365 12.7749 8.95092C12.7359 8.7482 12.541 8.60785 12.3383 8.64684C12.2447 8.66243 12.1434 8.67023 12.0498 8.67023C11.1687 8.67023 10.4514 7.95289 10.4514 7.07182C10.4514 6.19075 11.1687 5.47342 12.0498 5.47342C12.1434 5.47342 12.2369 5.48122 12.3383 5.49681C12.541 5.5358 12.7437 5.39545 12.7749 5.19273C12.8061 4.99 12.6736 4.79508 12.4708 4.75609Z" fill="#475564"/>
<path d="M14.9191 9.41888C16.2134 9.41888 17.2738 8.36627 17.2738 7.06416C17.2738 5.76984 16.2212 4.70944 14.9191 4.70944C13.617 4.70944 12.5644 5.76205 12.5644 7.06416C12.5644 8.36627 13.617 9.41888 14.9191 9.41888ZM14.9191 5.47356C15.8002 5.47356 16.5175 6.19089 16.5175 7.07196C16.5175 7.95303 15.8002 8.67036 14.9191 8.67036C14.038 8.67036 13.3207 7.95303 13.3207 7.07196C13.3207 6.19089 14.038 5.47356 14.9191 5.47356Z" fill="#475564"/>
</svg>
