<svg width="24" height="24" viewBox="0 0 24 24" fill="none" xmlns="http://www.w3.org/2000/svg">
<path d="M21.3684 16.7164C20.86 16.7164 20.363 16.5656 19.9402 16.2831C19.5175 16.0007 19.188 15.5992 18.9934 15.1295C18.7989 14.6597 18.7479 14.1428 18.8471 13.6442C18.9463 13.1455 19.1912 12.6875 19.5507 12.3279C19.9102 11.9684 20.3682 11.7236 20.8669 11.6244C21.3656 11.5252 21.8825 11.5761 22.3522 11.7707C22.8219 11.9653 23.2234 12.2948 23.5059 12.7175C23.7883 13.1402 23.9391 13.6373 23.9391 14.1457C23.9391 14.8275 23.6683 15.4813 23.1862 15.9634C22.7041 16.4455 22.0502 16.7164 21.3684 16.7164ZM21.3684 12.4319C21.0295 12.4319 20.6981 12.5324 20.4163 12.7207C20.1345 12.909 19.9148 13.1767 19.7851 13.4899C19.6554 13.803 19.6214 14.1476 19.6876 14.48C19.7537 14.8125 19.9169 15.1179 20.1566 15.3575C20.3963 15.5972 20.7016 15.7604 21.0341 15.8266C21.3665 15.8927 21.7111 15.8587 22.0243 15.729C22.3374 15.5993 22.6051 15.3797 22.7934 15.0978C22.9817 14.816 23.0822 14.4847 23.0822 14.1457C23.0822 13.6912 22.9017 13.2553 22.5803 12.9339C22.2589 12.6125 21.8229 12.4319 21.3684 12.4319Z" fill="#9BCDD6"/>
<path d="M22.0111 14.5741H20.7257C20.6121 14.5741 20.5031 14.529 20.4228 14.4487C20.3424 14.3683 20.2973 14.2593 20.2973 14.1457C20.2973 14.0321 20.3424 13.9231 20.4228 13.8427C20.5031 13.7624 20.6121 13.7173 20.7257 13.7173H22.0111C22.1247 13.7173 22.2337 13.7624 22.3141 13.8427C22.3944 13.9231 22.4395 14.0321 22.4395 14.1457C22.4395 14.2593 22.3944 14.3683 22.3141 14.4487C22.2337 14.529 22.1247 14.5741 22.0111 14.5741Z" fill="#9BCDD6"/>
<path d="M21.3684 15.2168C21.2548 15.2168 21.1458 15.1717 21.0655 15.0913C20.9851 15.011 20.94 14.902 20.94 14.7884V13.503C20.94 13.3894 20.9851 13.2804 21.0655 13.2001C21.1458 13.1197 21.2548 13.0746 21.3684 13.0746C21.4821 13.0746 21.591 13.1197 21.6714 13.2001C21.7517 13.2804 21.7969 13.3894 21.7969 13.503V14.7884C21.7969 14.902 21.7517 15.011 21.6714 15.0913C21.591 15.1717 21.4821 15.2168 21.3684 15.2168Z" fill="#9BCDD6"/>
<path d="M15.1559 20.144C14.4177 20.1428 13.71 19.8491 13.188 19.327C12.6659 18.805 12.3722 18.0973 12.371 17.3591V12.0035C12.371 11.8898 12.4162 11.7809 12.4965 11.7005C12.5769 11.6202 12.6858 11.575 12.7995 11.575H13.6564C13.77 11.575 13.879 11.6202 13.9593 11.7005C14.0397 11.7809 14.0848 11.8898 14.0848 12.0035C14.0848 12.1171 14.0397 12.2261 13.9593 12.3064C13.879 12.3868 13.77 12.4319 13.6564 12.4319H13.2279V17.3591C13.2279 17.8704 13.431 18.3608 13.7926 18.7224C14.1542 19.0839 14.6446 19.2871 15.1559 19.2871C15.6673 19.2871 16.1577 19.0839 16.5192 18.7224C16.8808 18.3608 17.0839 17.8704 17.0839 17.3591V12.4319H16.6555C16.5419 12.4319 16.4329 12.3868 16.3525 12.3064C16.2722 12.2261 16.2271 12.1171 16.2271 12.0035C16.2271 11.8898 16.2722 11.7809 16.3525 11.7005C16.4329 11.6202 16.5419 11.575 16.6555 11.575H17.5124C17.626 11.575 17.735 11.6202 17.8154 11.7005C17.8957 11.7809 17.9408 11.8898 17.9408 12.0035V17.3591C17.9397 18.0973 17.6459 18.805 17.1239 19.327C16.6019 19.8491 15.8942 20.1428 15.1559 20.144V20.144Z" fill="#9BCDD6"/>
<path d="M18.2622 24C17.3251 23.9989 16.4267 23.6261 15.764 22.9635C15.1014 22.3008 14.7286 21.4024 14.7275 20.4653V19.7155C14.7275 19.6019 14.7726 19.4929 14.853 19.4126C14.9333 19.3322 15.0423 19.2871 15.1559 19.2871C15.2696 19.2871 15.3785 19.3322 15.4589 19.4126C15.5392 19.4929 15.5844 19.6019 15.5844 19.7155V20.4653C15.5844 21.1755 15.8665 21.8566 16.3687 22.3588C16.8709 22.861 17.552 23.1431 18.2622 23.1431C18.9724 23.1431 19.6535 22.861 20.1557 22.3588C20.6578 21.8566 20.94 21.1755 20.94 20.4653V16.2879C20.94 16.1743 20.9851 16.0653 21.0655 15.985C21.1458 15.9046 21.2548 15.8595 21.3684 15.8595C21.4821 15.8595 21.591 15.9046 21.6714 15.985C21.7517 16.0653 21.7969 16.1743 21.7969 16.2879V20.4653C21.7957 21.4024 21.423 22.3008 20.7603 22.9635C20.0977 23.6261 19.1993 23.9989 18.2622 24V24Z" fill="#9BCDD6"/>
<path d="M21.3684 6.69072C21.33 6.69487 21.2912 6.69487 21.2527 6.69072L20.0145 6.35225C19.9049 6.32214 19.8117 6.2497 19.7554 6.15087C19.6992 6.05204 19.6845 5.93492 19.7146 5.82526C19.7447 5.71561 19.8172 5.62241 19.916 5.56616C20.0148 5.50992 20.1319 5.49524 20.2416 5.52535L21.4798 5.86382C21.5934 5.87859 21.6966 5.9379 21.7665 6.0287C21.8364 6.11949 21.8673 6.23434 21.8526 6.34797C21.8378 6.4616 21.7785 6.56471 21.6877 6.63461C21.5969 6.70452 21.482 6.73549 21.3684 6.72072V6.69072Z" fill="#808F9D"/>
<path d="M20.5544 7.14059C20.5175 7.14651 20.4799 7.14651 20.443 7.14059C20.3887 7.12572 20.3378 7.10028 20.2933 7.06574C20.2488 7.03119 20.2116 6.98822 20.1838 6.93927C20.1559 6.89033 20.138 6.83637 20.131 6.78049C20.124 6.72461 20.1281 6.66789 20.1431 6.6136L20.4815 5.37539C20.5116 5.26573 20.5841 5.17253 20.6829 5.11629C20.7817 5.06004 20.8989 5.04536 21.0085 5.07547C21.1182 5.10558 21.2114 5.17802 21.2676 5.27685C21.3239 5.37568 21.3385 5.49281 21.3084 5.60246L20.97 6.84068C20.9423 6.92878 20.8868 7.00558 20.812 7.05962C20.7371 7.11367 20.6467 7.14207 20.5544 7.14059Z" fill="#808F9D"/>
<path d="M7.56385 21.8963C7.1472 21.8961 6.73966 21.7744 6.39114 21.5461C6.04261 21.3178 5.76821 20.9928 5.60156 20.611L0.185981 8.50306C-0.0452988 7.98483 -0.061505 7.39601 0.14092 6.86585C0.343345 6.33569 0.74786 5.90751 1.26567 5.6753L9.90745 1.81928C10.0025 1.79888 10.1016 1.81141 10.1886 1.85481C10.2756 1.8982 10.3452 1.96989 10.3861 2.05808C10.427 2.14628 10.4366 2.24576 10.4135 2.34017C10.3903 2.43458 10.3358 2.51831 10.2588 2.57763L1.617 6.43365C1.46073 6.50225 1.31969 6.60127 1.2021 6.72496C1.08451 6.84864 0.992723 6.9945 0.932102 7.15403C0.871481 7.31355 0.843236 7.48356 0.849014 7.65412C0.854792 7.82468 0.894477 7.99238 0.965756 8.14744L6.37276 20.2811C6.44136 20.4373 6.54038 20.5784 6.66406 20.696C6.78774 20.8136 6.9336 20.9053 7.09313 20.966C7.25266 21.0266 7.42267 21.0548 7.59323 21.0491C7.76379 21.0433 7.93149 21.0036 8.08655 20.9323L11.6684 19.3342C11.7704 19.2956 11.8833 19.2974 11.984 19.3391C12.0848 19.3809 12.1658 19.4595 12.2106 19.5589C12.2554 19.6584 12.2606 19.7712 12.2251 19.8743C12.1896 19.9774 12.1162 20.0631 12.0197 20.114L8.43788 21.7121C8.16321 21.8357 7.86506 21.8986 7.56385 21.8963Z" fill="#808F9D"/>
<path d="M5.40447 8.01034C5.32085 8.01063 5.23898 7.98644 5.16893 7.94076C5.09889 7.89508 5.04375 7.82991 5.0103 7.75327C4.98748 7.70179 4.97503 7.64632 4.97366 7.59003C4.97229 7.53374 4.98203 7.47772 5.00232 7.4252C5.02262 7.37267 5.05307 7.32466 5.09193 7.28391C5.13079 7.24317 5.1773 7.21048 5.22881 7.18772L8.74636 5.61532C8.79784 5.59225 8.85337 5.57955 8.90976 5.57793C8.96615 5.57632 9.0223 5.58583 9.07502 5.60593C9.12773 5.62602 9.17598 5.6563 9.21699 5.69503C9.258 5.73377 9.29099 5.7802 9.31406 5.83168C9.33712 5.88316 9.34983 5.93869 9.35144 5.99508C9.35305 6.05147 9.34354 6.10762 9.32345 6.16034C9.30335 6.21305 9.27308 6.2613 9.23434 6.30231C9.19561 6.34332 9.14917 6.37631 9.09769 6.39937L5.57585 7.97178C5.522 7.99633 5.46365 8.00946 5.40447 8.01034Z" fill="#808F9D"/>
<path d="M5.27593 10.8809C5.17713 10.8835 5.08048 10.8519 5.00234 10.7913C4.92421 10.7308 4.86941 10.6451 4.84722 10.5488C4.82503 10.4525 4.83683 10.3515 4.8806 10.2629C4.92438 10.1743 4.99744 10.1035 5.08742 10.0626L7.99229 8.77727C8.0943 8.73868 8.20718 8.74045 8.30792 8.78221C8.40867 8.82397 8.4897 8.90257 8.5345 9.00201C8.5793 9.10144 8.5845 9.21421 8.54903 9.31735C8.51356 9.42048 8.4401 9.5062 8.34362 9.55704L5.43874 10.8424C5.38753 10.8658 5.33221 10.8789 5.27593 10.8809Z" fill="#808F9D"/>
<path d="M6.32563 13.2245C6.22795 13.2241 6.13337 13.1903 6.05754 13.1287C5.98171 13.0671 5.92919 12.9815 5.90869 12.886C5.88819 12.7905 5.90094 12.6909 5.94482 12.6036C5.9887 12.5163 6.06108 12.4467 6.14997 12.4062L7.13111 11.9778C7.23312 11.9392 7.346 11.9409 7.44675 11.9827C7.54749 12.0245 7.62852 12.1031 7.67332 12.2025C7.71812 12.3019 7.72332 12.4147 7.68785 12.5178C7.65238 12.621 7.57892 12.7067 7.48244 12.7575L6.50129 13.186C6.44613 13.2111 6.38625 13.2243 6.32563 13.2245V13.2245Z" fill="#808F9D"/>
<path d="M11.0857 17.9032C11.0488 17.9097 11.0111 17.9097 10.9743 17.9032L7.80378 17.0463C7.2564 16.8969 6.79064 16.5365 6.5087 16.0441C6.22677 15.5517 6.15168 14.9676 6.29993 14.4199L9.80034 1.57935C9.87428 1.30784 10.001 1.05356 10.1732 0.831035C10.3455 0.608508 10.5598 0.422094 10.8041 0.282441C11.0484 0.142788 11.3178 0.0526321 11.597 0.017124C11.8761 -0.0183841 12.1595 0.00145109 12.431 0.0754965L22.3581 2.79185C22.628 2.86432 22.8808 2.98995 23.1015 3.16138C23.3222 3.3328 23.5065 3.54656 23.6435 3.79014C23.7838 4.03438 23.8746 4.30391 23.9106 4.58328C23.9466 4.86265 23.9272 5.14638 23.8534 5.41824L22.4781 10.4653C22.4399 10.5642 22.3665 10.6453 22.272 10.6932C22.1775 10.741 22.0687 10.7522 21.9664 10.7245C21.8642 10.6968 21.7758 10.6323 21.7184 10.5432C21.661 10.4542 21.6386 10.3471 21.6555 10.2426L23.0394 5.19544C23.0839 5.03244 23.0958 4.86226 23.0745 4.69464C23.0532 4.52702 22.999 4.36525 22.9151 4.21858C22.832 4.0714 22.7202 3.94245 22.5862 3.8394C22.4522 3.73635 22.2989 3.66131 22.1353 3.61876L12.2211 0.898116C11.8933 0.812988 11.5452 0.86064 11.2524 1.03072C10.9596 1.20079 10.7457 1.47955 10.6572 1.80642L7.13112 14.6127C7.08626 14.7756 7.07395 14.9457 7.0949 15.1134C7.11586 15.281 7.16965 15.4429 7.25322 15.5897C7.33679 15.7366 7.44848 15.8655 7.58191 15.9691C7.71535 16.0728 7.8679 16.1491 8.03086 16.1937L11.2014 17.0506C11.2564 17.0641 11.3082 17.0884 11.3537 17.122C11.3993 17.1557 11.4377 17.1981 11.4668 17.2467C11.4959 17.2953 11.5151 17.3492 11.5232 17.4052C11.5313 17.4613 11.5282 17.5184 11.5141 17.5733C11.4915 17.6691 11.4366 17.7543 11.3585 17.8144C11.2805 17.8745 11.1841 17.9058 11.0857 17.9032Z" fill="#808F9D"/>
<path d="M18.5664 5.731C18.5279 5.73521 18.4891 5.73521 18.4507 5.731L14.7318 4.71986C14.6775 4.70499 14.6266 4.67955 14.5821 4.64501C14.5376 4.61047 14.5004 4.56749 14.4726 4.51855C14.4447 4.4696 14.4268 4.41564 14.4198 4.35976C14.4128 4.30388 14.4169 4.24717 14.4319 4.19287C14.4436 4.13767 14.466 4.08533 14.498 4.03884C14.53 3.99236 14.5709 3.95265 14.6182 3.92199C14.6656 3.89134 14.7186 3.87034 14.7741 3.86022C14.8296 3.85009 14.8866 3.85102 14.9417 3.86297L18.6606 4.88267C18.7169 4.88999 18.7712 4.90831 18.8204 4.9366C18.8695 4.96489 18.9127 5.00259 18.9473 5.04755C18.9819 5.09251 19.0073 5.14384 19.0221 5.19862C19.0369 5.2534 19.0407 5.31056 19.0334 5.36682C19.0261 5.42308 19.0077 5.47736 18.9795 5.52654C18.9512 5.57572 18.9135 5.61885 18.8685 5.65346C18.8236 5.68808 18.7722 5.7135 18.7174 5.72827C18.6627 5.74304 18.6055 5.74688 18.5492 5.73957L18.5664 5.731Z" fill="#808F9D"/>
<path d="M19.1276 8.55018C19.0892 8.55439 19.0504 8.55439 19.012 8.55018L12.7995 6.8621C12.6858 6.83028 12.5895 6.75463 12.5317 6.65178C12.4738 6.54893 12.4592 6.42732 12.491 6.31368C12.5228 6.20005 12.5985 6.10372 12.7013 6.04586C12.8042 5.98801 12.9258 5.97339 13.0394 6.0052L19.2262 7.71899C19.3398 7.73376 19.4429 7.79307 19.5128 7.88387C19.5827 7.97466 19.6137 8.08951 19.5989 8.20314C19.5842 8.31677 19.5249 8.41988 19.4341 8.48978C19.3433 8.55969 19.2284 8.59066 19.1148 8.57589L19.1276 8.55018Z" fill="#808F9D"/>
<path d="M17.3025 10.7181C17.2656 10.7246 17.2279 10.7246 17.1911 10.7181L12.1354 9.33425C12.0802 9.31877 12.0287 9.29259 11.9837 9.2572C11.9386 9.2218 11.901 9.17788 11.873 9.12795C11.8449 9.07802 11.827 9.02306 11.8202 8.96619C11.8134 8.90933 11.8179 8.85168 11.8333 8.79654C11.8488 8.74141 11.875 8.68985 11.9104 8.64483C11.9458 8.59981 11.9897 8.5622 12.0396 8.53416C12.0895 8.50611 12.1445 8.48817 12.2014 8.48136C12.2582 8.47456 12.3159 8.47902 12.371 8.49449L17.4139 9.86124C17.5226 9.89132 17.6151 9.96308 17.6712 10.0609C17.7274 10.1588 17.7427 10.2749 17.7138 10.3839C17.6926 10.4777 17.6406 10.5616 17.566 10.6223C17.4914 10.6829 17.3986 10.7166 17.3025 10.7181Z" fill="#808F9D"/>
</svg>
