<svg width="25" height="24" viewBox="0 0 25 24" fill="none" xmlns="http://www.w3.org/2000/svg">
<path d="M12.6 5.15412e-06C10.8922 -0.0004231 9.20481 0.370723 7.65484 1.08769C6.10486 1.80466 4.72944 2.85028 3.624 4.152L1.992 2.7C1.81894 2.54822 1.60587 2.44941 1.37821 2.41537C1.15054 2.38133 0.917893 2.41348 0.708 2.508C0.49746 2.60265 0.318684 2.756 0.193107 2.94969C0.0675303 3.14338 0.000481634 3.36917 0 3.6V8.4C0 8.71826 0.126428 9.02349 0.351472 9.24853C0.576515 9.47358 0.88174 9.6 1.2 9.6H6.6C6.84173 9.59929 7.07761 9.52559 7.27674 9.38855C7.47587 9.25151 7.62898 9.05753 7.716 8.832C7.80447 8.60346 7.82084 8.35331 7.76292 8.11519C7.705 7.87706 7.57556 7.66238 7.392 7.5L5.412 5.736C6.29771 4.69027 7.40067 3.85011 8.6441 3.27399C9.88754 2.69786 11.2416 2.39962 12.612 2.4C14.3719 2.39972 16.098 2.88321 17.6016 3.79762C19.1053 4.71203 20.3287 6.02219 21.138 7.5849C21.9474 9.14761 22.3116 10.9027 22.1909 12.6585C22.0702 14.4142 21.4692 16.103 20.4536 17.5402C19.438 18.9774 18.0468 20.1078 16.4321 20.8079C14.8175 21.5079 13.0415 21.7506 11.2982 21.5095C9.55491 21.2683 7.91146 20.5526 6.54745 19.4406C5.18344 18.3286 4.15136 16.863 3.564 15.204C3.45897 14.9032 3.23878 14.6565 2.95184 14.5181C2.66491 14.3797 2.33476 14.361 2.034 14.466C1.73324 14.571 1.48653 14.7912 1.34813 15.0782C1.20972 15.3651 1.19097 15.6952 1.296 15.996C2.02881 18.071 3.31812 19.9046 5.02291 21.2962C6.72771 22.6878 8.78234 23.5837 10.9621 23.8862C13.1419 24.1886 15.3628 23.8857 17.382 23.0108C19.4013 22.1359 21.141 20.7226 22.4111 18.9254C23.6811 17.1282 24.4325 15.0164 24.583 12.8209C24.7336 10.6254 24.2775 8.43084 23.2647 6.47712C22.2518 4.52341 20.7213 2.88583 18.8404 1.74347C16.9595 0.601107 14.8006 -0.00203412 12.6 5.15412e-06V5.15412e-06Z" fill="#808F9D"/>
<path d="M17.1 16.8C16.8404 16.8 16.5877 16.7158 16.38 16.56L11.58 12.96C11.431 12.8482 11.31 12.7033 11.2267 12.5367C11.1434 12.37 11.1 12.1863 11.1 12V7.2C11.1 6.88174 11.2264 6.57652 11.4515 6.35147C11.6765 6.12643 11.9817 6 12.3 6C12.6183 6 12.9235 6.12643 13.1485 6.35147C13.3736 6.57652 13.5 6.88174 13.5 7.2V11.4L17.82 14.64C17.9461 14.7346 18.0523 14.853 18.1326 14.9886C18.2129 15.1242 18.2657 15.2743 18.2879 15.4303C18.3102 15.5863 18.3016 15.7452 18.2625 15.8978C18.2233 16.0505 18.1545 16.1939 18.06 16.32C17.9482 16.469 17.8033 16.59 17.6367 16.6733C17.47 16.7566 17.2863 16.8 17.1 16.8Z" fill="#9BCDD6"/>
</svg>
