<svg width="24" height="24" viewBox="0 0 24 24" fill="none" xmlns="http://www.w3.org/2000/svg">
<path d="M17.5885 24C16.6546 23.9931 15.7249 23.8759 14.8186 23.6508C11.6888 22.8956 8.46579 20.98 5.74487 18.2567C3.02395 15.5334 1.10593 12.3098 0.350781 9.18298C-0.444363 5.89375 0.122744 3.0797 1.94585 1.2566L2.46639 0.736059C2.93868 0.264717 3.57867 0 4.24591 0C4.91316 0 5.55315 0.264717 6.02544 0.736059L9.01678 3.7268C9.48841 4.19894 9.75333 4.83898 9.75333 5.50633C9.75333 6.17367 9.48841 6.81372 9.01678 7.28585L7.24979 9.05224C8.09687 10.5387 9.249 12.0263 10.6106 13.3879C11.9723 14.7496 13.4611 15.9023 14.9469 16.7494L16.7133 14.9824C16.947 14.7486 17.2244 14.5632 17.5297 14.4367C17.8351 14.3102 18.1623 14.2451 18.4928 14.2451C18.8234 14.2451 19.1506 14.3102 19.456 14.4367C19.7613 14.5632 20.0387 14.7486 20.2724 14.9824L23.2631 17.9731C23.7349 18.4451 23.9999 19.0851 23.9999 19.7524C23.9999 20.4197 23.7349 21.0596 23.2631 21.5316L22.742 22.0521C21.4567 23.3398 19.6778 24 17.5885 24ZM4.24591 1.78968C4.1506 1.78921 4.05615 1.80776 3.9681 1.84426C3.88005 1.88075 3.80017 1.93444 3.73313 2.0022L3.21199 2.52275C1.84675 3.88798 1.44798 6.10448 2.08911 8.76033C2.76785 11.5738 4.51514 14.4971 7.00862 16.99C9.5021 19.4828 12.4248 21.2283 15.2388 21.9095C17.8953 22.5506 20.1106 22.1518 21.4758 20.7866L21.9964 20.266C22.1324 20.1299 22.2088 19.9454 22.2088 19.753C22.2088 19.5605 22.1324 19.376 21.9964 19.2399L19.0062 16.2491C18.8701 16.1131 18.6856 16.0367 18.4931 16.0367C18.3007 16.0367 18.1162 16.1131 17.9801 16.2491L15.7409 18.4883C15.6065 18.6227 15.4329 18.7109 15.2451 18.7401C15.0573 18.7693 14.865 18.738 14.6962 18.6507C12.8606 17.7015 11.01 16.3196 9.34451 14.6541C7.679 12.9886 6.30004 11.1392 5.34849 9.30356C5.26111 9.1348 5.22968 8.94261 5.25877 8.7548C5.28785 8.567 5.37593 8.39332 5.51026 8.25889L7.75004 6.01971C7.88605 5.88359 7.96245 5.69905 7.96245 5.50663C7.96245 5.31421 7.88605 5.12966 7.75004 4.99354L4.7593 2.0022C4.69205 1.93456 4.61204 1.88095 4.52391 1.84447C4.43579 1.80799 4.34129 1.78937 4.24591 1.78968V1.78968Z" fill="#808F9D"/>
<path d="M18.5447 13.2347C18.3073 13.2347 18.0795 13.1404 17.9116 12.9725C17.7437 12.8045 17.6493 12.5768 17.6493 12.3393C17.6476 10.7684 17.0228 9.26238 15.9121 8.15155C14.8014 7.04072 13.2954 6.41581 11.7245 6.41391C11.4871 6.41391 11.2593 6.31957 11.0914 6.15165C10.9234 5.98372 10.8291 5.75596 10.8291 5.51848C10.8291 5.281 10.9234 5.05324 11.0914 4.88531C11.2593 4.71739 11.4871 4.62305 11.7245 4.62305C15.979 4.62305 19.4402 8.08539 19.4402 12.3393C19.4402 12.5768 19.3458 12.8045 19.1779 12.9725C19.01 13.1404 18.7822 13.2347 18.5447 13.2347Z" fill="#9BCDD6"/>
<path d="M22.3294 13.2343C22.092 13.2343 21.8642 13.1399 21.6963 12.972C21.5284 12.8041 21.434 12.5763 21.434 12.3388C21.434 6.98474 17.0762 2.62876 11.7245 2.62876C11.4871 2.62876 11.2593 2.53442 11.0914 2.36649C10.9234 2.19856 10.8291 1.97081 10.8291 1.73332C10.8291 1.49584 10.9234 1.26808 11.0914 1.10016C11.2593 0.932231 11.4871 0.837891 11.7245 0.837891C18.066 0.837891 23.2249 5.99737 23.2249 12.3388C23.2249 12.5763 23.1305 12.8041 22.9626 12.972C22.7947 13.1399 22.5669 13.2343 22.3294 13.2343Z" fill="#9BCDD6"/>
</svg>
