<svg width="19" height="18" viewBox="0 0 19 18" fill="none" xmlns="http://www.w3.org/2000/svg">
<path d="M9.45 3.86559e-06C8.16917 -0.000317325 6.90361 0.278042 5.74113 0.815768C4.57864 1.35349 3.54708 2.13771 2.718 3.114L1.494 2.025C1.3642 1.91116 1.2044 1.83706 1.03366 1.81153C0.862908 1.78599 0.68842 1.81011 0.531 1.881C0.373095 1.95198 0.239013 2.067 0.14483 2.21227C0.0506477 2.35753 0.000361226 2.52688 0 2.7V6.3C0 6.5387 0.0948211 6.76762 0.263604 6.9364C0.432387 7.10518 0.661305 7.2 0.9 7.2H4.95C5.1313 7.19947 5.3082 7.14419 5.45755 7.04141C5.6069 6.93863 5.72173 6.79314 5.787 6.624C5.85335 6.4526 5.86563 6.26498 5.82219 6.08639C5.77875 5.9078 5.68167 5.74678 5.544 5.625L4.059 4.302C4.72329 3.5177 5.5505 2.88758 6.48308 2.45549C7.41565 2.0234 8.43119 1.79971 9.459 1.8C10.7789 1.79979 12.0735 2.1624 13.2012 2.84821C14.329 3.53403 15.2465 4.51664 15.8535 5.68868C16.4606 6.86071 16.7337 8.17705 16.6432 9.49385C16.5527 10.8106 16.1019 12.0772 15.3402 13.1551C14.5785 14.2331 13.5351 15.0809 12.3241 15.6059C11.1131 16.1309 9.7811 16.3129 8.47364 16.1321C7.16618 15.9512 5.9336 15.4145 4.91059 14.5804C3.88758 13.7464 3.11352 12.6472 2.673 11.403C2.59423 11.1774 2.42908 10.9924 2.21388 10.8886C1.99869 10.7848 1.75107 10.7707 1.5255 10.8495C1.29993 10.9283 1.1149 11.0934 1.01109 11.3086C0.907293 11.5238 0.89323 11.7714 0.972 11.997C1.52161 13.5533 2.48859 14.9285 3.76719 15.9721C5.04578 17.0158 6.58675 17.6878 8.22157 17.9146C9.85639 18.1414 11.5221 17.9143 13.0365 17.2581C14.551 16.6019 15.8558 15.5419 16.8083 14.194C17.7608 12.8462 18.3243 11.2623 18.4373 9.61569C18.5502 7.96908 18.2081 6.32313 17.4485 4.85784C16.6889 3.39256 15.541 2.16437 14.1303 1.3076C12.7196 0.450831 11.1005 -0.00152559 9.45 3.86559e-06V3.86559e-06Z" fill="#475564"/>
<path d="M12.825 12.6C12.6303 12.6 12.4408 12.5368 12.285 12.42L8.685 9.72C8.57322 9.63617 8.4825 9.52746 8.42001 9.40249C8.35753 9.27752 8.325 9.13972 8.325 9V5.4C8.325 5.16131 8.41982 4.93239 8.5886 4.7636C8.75738 4.59482 8.9863 4.5 9.225 4.5C9.46369 4.5 9.69261 4.59482 9.86139 4.7636C10.0302 4.93239 10.125 5.16131 10.125 5.4V8.55L13.365 10.98C13.4595 11.0509 13.5392 11.1398 13.5994 11.2415C13.6596 11.3432 13.6992 11.4557 13.716 11.5727C13.7327 11.6897 13.7262 11.8089 13.6968 11.9234C13.6675 12.0379 13.6159 12.1454 13.545 12.24C13.4612 12.3518 13.3525 12.4425 13.2275 12.505C13.1025 12.5675 12.9647 12.6 12.825 12.6Z" fill="#3B98CC"/>
</svg>
