<svg width="24" height="24" viewBox="0 0 24 24" fill="none" xmlns="http://www.w3.org/2000/svg">
<path d="M19.3846 24H4.61538C3.39131 24 2.21737 23.5137 1.35181 22.6482C0.486262 21.7826 0 20.6087 0 19.3846V6.46154C0 5.23746 0.486262 4.06352 1.35181 3.19797C2.21737 2.33242 3.39131 1.84615 4.61538 1.84615H19.3846C20.6087 1.84615 21.7826 2.33242 22.6482 3.19797C23.5137 4.06352 24 5.23746 24 6.46154V19.3846C24 20.6087 23.5137 21.7826 22.6482 22.6482C21.7826 23.5137 20.6087 24 19.3846 24V24ZM4.61538 3.69231C3.88094 3.69231 3.17657 3.98406 2.65724 4.5034C2.13791 5.02273 1.84615 5.72709 1.84615 6.46154V19.3846C1.84615 20.1191 2.13791 20.8234 2.65724 21.3428C3.17657 21.8621 3.88094 22.1538 4.61538 22.1538H19.3846C20.1191 22.1538 20.8234 21.8621 21.3428 21.3428C21.8621 20.8234 22.1538 20.1191 22.1538 19.3846V6.46154C22.1538 5.72709 21.8621 5.02273 21.3428 4.5034C20.8234 3.98406 20.1191 3.69231 19.3846 3.69231H4.61538Z" fill="#808F9D"/>
<path d="M19.3846 20.3077H15.6923C15.4475 20.3077 15.2127 20.2104 15.0396 20.0373C14.8665 19.8642 14.7692 19.6294 14.7692 19.3846V15.6923C14.7692 15.4475 14.8665 15.2127 15.0396 15.0396C15.2127 14.8665 15.4475 14.7692 15.6923 14.7692H19.3846C19.6294 14.7692 19.8642 14.8665 20.0373 15.0396C20.2104 15.2127 20.3077 15.4475 20.3077 15.6923V19.3846C20.3077 19.6294 20.2104 19.8642 20.0373 20.0373C19.8642 20.2104 19.6294 20.3077 19.3846 20.3077ZM16.6154 18.4615H18.4615V16.6154H16.6154V18.4615Z" fill="#265ED7"/>
<path d="M23.0769 9.23077H0.923077C0.678262 9.23077 0.443473 9.13352 0.270363 8.96041C0.0972524 8.7873 0 8.55251 0 8.30769C0 8.06288 0.0972524 7.82809 0.270363 7.65498C0.443473 7.48187 0.678262 7.38462 0.923077 7.38462H23.0769C23.3217 7.38462 23.5565 7.48187 23.7296 7.65498C23.9027 7.82809 24 8.06288 24 8.30769C24 8.55251 23.9027 8.7873 23.7296 8.96041C23.5565 9.13352 23.3217 9.23077 23.0769 9.23077Z" fill="#808F9D"/>
<path d="M7.38462 5.53846C7.1398 5.53846 6.90501 5.44121 6.7319 5.2681C6.55879 5.09499 6.46154 4.8602 6.46154 4.61538V0.923077C6.46154 0.678262 6.55879 0.443473 6.7319 0.270363C6.90501 0.0972524 7.1398 0 7.38462 0C7.62943 0 7.86422 0.0972524 8.03733 0.270363C8.21044 0.443473 8.30769 0.678262 8.30769 0.923077V4.61538C8.30769 4.8602 8.21044 5.09499 8.03733 5.2681C7.86422 5.44121 7.62943 5.53846 7.38462 5.53846Z" fill="#808F9D"/>
<path d="M16.6154 5.53846C16.3706 5.53846 16.1358 5.44121 15.9627 5.2681C15.7896 5.09499 15.6923 4.8602 15.6923 4.61538V0.923077C15.6923 0.678262 15.7896 0.443473 15.9627 0.270363C16.1358 0.0972524 16.3706 0 16.6154 0C16.8602 0 17.095 0.0972524 17.2681 0.270363C17.4412 0.443473 17.5385 0.678262 17.5385 0.923077V4.61538C17.5385 4.8602 17.4412 5.09499 17.2681 5.2681C17.095 5.44121 16.8602 5.53846 16.6154 5.53846Z" fill="#808F9D"/>
</svg>
