<svg width="17" height="25" viewBox="0 0 17 25" fill="none" xmlns="http://www.w3.org/2000/svg">
<path fill-rule="evenodd" clip-rule="evenodd" d="M9.14846 10.4811C9.97967 11.3217 10.7008 11.644 11.9993 11.6147C12.2175 12.4246 12.4251 12.854 12.4257 13.8219C12.4284 19.7721 4.30058 21.7109 1.6902 16.0335C0.821404 14.1439 1.26312 12.3568 2.10697 10.7708C1.59607 10.4199 1.59673 10.544 1.13573 10.1009C0.319486 10.8783 -0.13254 13.1996 0.0344332 14.6435C0.22469 16.2906 0.965427 17.7116 1.85351 18.5384C2.99339 19.6001 3.67359 20.2038 5.53991 20.5747C7.9537 21.0544 8.86973 20.2501 10.1942 19.8287C10.9702 20.5484 13.5796 24.1746 14.1168 24.489C15.0384 25.0281 15.6192 24.3785 16.0606 23.981C17.6867 22.5145 16.1381 21.3318 15.2593 20.4852C14.3233 19.5832 13.3444 18.5754 12.4058 17.7278C12.6103 17.2559 12.9183 16.8807 13.1475 16.2989C14.1241 13.8219 13.5693 12.7898 13.1073 10.8663C13.3218 10.5287 13.5247 10.4632 13.7296 10.0158C14.3326 8.69864 13.6893 7.63925 13.4728 6.829C12.9107 4.72653 13.061 1.86503 11.3175 0.970286C10.7946 0.701865 9.50902 0.607069 8.88836 0.784686C8.07977 1.01619 8.02888 2.20862 8.70475 2.44943C9.92013 2.88217 9.61213 1.56068 10.5854 2.07723C11.2147 2.41118 11.4505 2.96865 11.6082 3.82048C11.7249 4.45278 12.14 6.7638 12.1084 7.34056C12.0698 8.04338 12.1759 7.91931 12.2967 8.49241C12.4806 9.36686 12.0183 10.1568 11.1319 9.83519C10.6825 9.6722 10.3036 9.17794 9.57987 8.71593C9.1009 8.41026 8.57304 7.8947 8.10837 7.51618C6.39174 6.1182 5.81032 5.86042 6.10336 4.35932C6.54374 4.22195 6.80285 4.28415 7.07127 3.92758C7.61177 3.21013 6.8554 1.56667 5.37992 3.2853C4.39304 4.43449 4.5344 6.10589 5.54922 7.12103L7.81001 9.05886C8.87106 9.95393 8.70941 10.0364 9.14979 10.4815L9.14846 10.4811Z" fill="#475564"/>
<path fill-rule="evenodd" clip-rule="evenodd" d="M4.21642 9.34058C4.88598 7.44001 1.92702 6.58851 1.39184 8.45084C0.863979 10.2865 3.56948 11.177 4.21642 9.34058Z" fill="#9BCDD6"/>
</svg>
