<svg width="20" height="22" viewBox="0 0 20 22" fill="none" xmlns="http://www.w3.org/2000/svg">
<circle cx="10.5" cy="12.5" r="9.5" fill="#A2BAEF"/>
<path d="M6.53125 17.9997C6.45252 17.9997 6.377 17.9659 6.32133 17.9056C6.26565 17.8453 6.23438 17.7635 6.23438 17.6783V14.464C6.23438 14.3788 6.26565 14.297 6.32133 14.2367C6.377 14.1764 6.45252 14.1426 6.53125 14.1426C6.60999 14.1426 6.6855 14.1764 6.74117 14.2367C6.79685 14.297 6.82813 14.3788 6.82813 14.464V17.6783C6.82813 17.7635 6.79685 17.8453 6.74117 17.9056C6.6855 17.9659 6.60999 17.9997 6.53125 17.9997Z" fill="#475564"/>
<path d="M3.85947 5.78585C3.46594 5.78534 3.08865 5.61586 2.81038 5.31457C2.53211 5.01328 2.37557 4.6048 2.3751 4.17871V3.53585C2.3751 3.10961 2.53149 2.70083 2.80986 2.39943C3.08824 2.09803 3.46579 1.92871 3.85947 1.92871C4.25315 1.92871 4.63071 2.09803 4.90908 2.39943C5.18746 2.70083 5.34385 3.10961 5.34385 3.53585V4.17871C5.34338 4.6048 5.18684 5.01328 4.90856 5.31457C4.63029 5.61586 4.25301 5.78534 3.85947 5.78585V5.78585ZM3.85947 2.57157C3.62326 2.57157 3.39673 2.67316 3.22971 2.854C3.06268 3.03484 2.96885 3.28011 2.96885 3.53585V4.17871C2.96885 4.43446 3.06268 4.67973 3.22971 4.86056C3.39673 5.0414 3.62326 5.143 3.85947 5.143C4.09568 5.143 4.32222 5.0414 4.48924 4.86056C4.65626 4.67973 4.7501 4.43446 4.7501 4.17871V3.53585C4.7501 3.28011 4.65626 3.03484 4.48924 2.854C4.32222 2.67316 4.09568 2.57157 3.85947 2.57157Z" fill="#475564"/>
<path d="M8.01553 18.0001C7.93679 18.0001 7.86128 17.9663 7.80561 17.906C7.74993 17.8457 7.71866 17.764 7.71866 17.6787V13.1787C7.71866 13.0935 7.68738 13.0117 7.6317 12.9514C7.57603 12.8911 7.50052 12.8573 7.42178 12.8573H6.82803C6.74929 12.8573 6.67378 12.8234 6.61811 12.7631C6.56243 12.7029 6.53116 12.6211 6.53116 12.5359V9.32157C6.53045 8.72507 6.31128 8.15321 5.92171 7.73142C5.53213 7.30963 5.00397 7.07233 4.45303 7.07157H3.26553C2.90116 7.07183 2.54326 7.17593 2.22783 7.3734C1.91239 7.57088 1.65052 7.85478 1.46854 8.19657C1.44905 8.23316 1.42309 8.26525 1.39215 8.29098C1.3612 8.31671 1.32588 8.3356 1.2882 8.34655C1.25051 8.35751 1.2112 8.36032 1.17251 8.35482C1.13383 8.34933 1.09652 8.33564 1.06272 8.31453C1.02892 8.29343 0.999285 8.26532 0.975516 8.23182C0.951748 8.19831 0.934307 8.16007 0.92419 8.11927C0.914073 8.07847 0.911477 8.03591 0.916551 7.99402C0.921625 7.95213 0.93427 7.91174 0.953763 7.87514C1.18793 7.43556 1.52484 7.07046 1.93065 6.81656C2.33645 6.56266 2.79684 6.42889 3.26553 6.42871H4.45303C5.16141 6.42956 5.84056 6.73462 6.34146 7.27695C6.84237 7.81928 7.12412 8.5546 7.12491 9.32157V12.2144H7.42178C7.65799 12.2144 7.88452 12.316 8.05155 12.4969C8.21857 12.6777 8.31241 12.923 8.31241 13.1787V17.6787C8.31241 17.764 8.28113 17.8457 8.22545 17.906C8.16978 17.9663 8.09427 18.0001 8.01553 18.0001Z" fill="#475564"/>
<path d="M5.04688 14.7863H0.890625C0.654417 14.7863 0.427883 14.6847 0.260858 14.5038C0.0938334 14.323 0 14.0777 0 13.822L0 8.67913C0 8.42338 0.0938334 8.17812 0.260858 7.99728C0.427883 7.81644 0.654417 7.71484 0.890625 7.71484H5.04688C5.28308 7.71484 5.50962 7.81644 5.67664 7.99728C5.84367 8.17812 5.9375 8.42338 5.9375 8.67913V13.822C5.9375 14.0777 5.84367 14.323 5.67664 14.5038C5.50962 14.6847 5.28308 14.7863 5.04688 14.7863V14.7863ZM0.890625 8.3577C0.811889 8.3577 0.736378 8.39157 0.680703 8.45184C0.625028 8.51212 0.59375 8.59388 0.59375 8.67913V13.822C0.59375 13.9072 0.625028 13.989 0.680703 14.0493C0.736378 14.1096 0.811889 14.1434 0.890625 14.1434H5.04688C5.12561 14.1434 5.20112 14.1096 5.2568 14.0493C5.31247 13.989 5.34375 13.9072 5.34375 13.822V8.67913C5.34375 8.59388 5.31247 8.51212 5.2568 8.45184C5.20112 8.39157 5.12561 8.3577 5.04688 8.3577H0.890625Z" fill="#475564"/>
<path d="M2.96872 17.9997C2.88998 17.9997 2.81447 17.9659 2.7588 17.9056C2.70312 17.8453 2.67184 17.7635 2.67184 17.6783V14.464C2.67184 14.3788 2.70312 14.297 2.7588 14.2367C2.81447 14.1764 2.88998 14.1426 2.96872 14.1426C3.04745 14.1426 3.12297 14.1764 3.17864 14.2367C3.23432 14.297 3.26559 14.3788 3.26559 14.464V17.6783C3.26559 17.7635 3.23432 17.8453 3.17864 17.9056C3.12297 17.9659 3.04745 17.9997 2.96872 17.9997Z" fill="#475564"/>
<path d="M6.82811 14.7854H4.74998C4.67125 14.7854 4.59574 14.7516 4.54006 14.6913C4.48439 14.631 4.45311 14.5493 4.45311 14.464C4.45311 14.3788 4.48439 14.297 4.54006 14.2367C4.59574 14.1764 4.67125 14.1426 4.74998 14.1426H6.82811C6.90685 14.1426 6.98236 14.1764 7.03803 14.2367C7.09371 14.297 7.12499 14.3788 7.12499 14.464C7.12499 14.5493 7.09371 14.631 7.03803 14.6913C6.98236 14.7516 6.90685 14.7854 6.82811 14.7854Z" fill="#475564"/>
<path d="M5.04684 17.9997C4.96811 17.9997 4.8926 17.9659 4.83692 17.9056C4.78125 17.8453 4.74997 17.7635 4.74997 17.6783V14.464C4.74997 14.3788 4.78125 14.297 4.83692 14.2367C4.8926 14.1764 4.96811 14.1426 5.04684 14.1426C5.12558 14.1426 5.20109 14.1764 5.25677 14.2367C5.31244 14.297 5.34372 14.3788 5.34372 14.464V17.6783C5.34372 17.7635 5.31244 17.8453 5.25677 17.9056C5.20109 17.9659 5.12558 17.9997 5.04684 17.9997Z" fill="#475564"/>
<path d="M3.85939 18.0003H2.07814C1.99941 18.0003 1.92389 17.9664 1.86822 17.9061C1.81255 17.8459 1.78127 17.7641 1.78127 17.6789C1.78127 17.5936 1.81255 17.5118 1.86822 17.4516C1.92389 17.3913 1.99941 17.3574 2.07814 17.3574H3.85939C3.93813 17.3574 4.01364 17.3913 4.06932 17.4516C4.12499 17.5118 4.15627 17.5936 4.15627 17.6789C4.15627 17.7641 4.12499 17.8459 4.06932 17.9061C4.01364 17.9664 3.93813 18.0003 3.85939 18.0003Z" fill="#475564"/>
<path d="M16.9218 11.5711H8.01555C7.93681 11.5711 7.8613 11.5373 7.80562 11.477C7.74995 11.4167 7.71867 11.335 7.71867 11.2497C7.71867 11.1645 7.74995 11.0827 7.80562 11.0224C7.8613 10.9622 7.93681 10.9283 8.01555 10.9283H16.6249V10.2854H8.01555C7.93681 10.2854 7.8613 10.2516 7.80562 10.1913C7.74995 10.131 7.71867 10.0493 7.71867 9.96401C7.71867 9.87876 7.74995 9.797 7.80562 9.73672C7.8613 9.67644 7.93681 9.64258 8.01555 9.64258H16.9218C17.0005 9.64258 17.076 9.67644 17.1317 9.73672C17.1874 9.797 17.2187 9.87876 17.2187 9.96401V11.2497C17.2187 11.335 17.1874 11.4167 17.1317 11.477C17.076 11.5373 17.0005 11.5711 16.9218 11.5711Z" fill="#475564"/>
<path d="M15.7343 16.7134H9.2031C9.12436 16.7134 9.04885 16.6796 8.99317 16.6193C8.9375 16.559 8.90622 16.4773 8.90622 16.392C8.90622 16.3068 8.9375 16.225 8.99317 16.1647C9.04885 16.1045 9.12436 16.0706 9.2031 16.0706H15.7343C15.8131 16.0706 15.8886 16.0367 15.9443 15.9764C15.9999 15.9162 16.0312 15.8344 16.0312 15.7492V11.2492C16.0312 11.1639 16.0625 11.0822 16.1182 11.0219C16.1738 10.9616 16.2494 10.9277 16.3281 10.9277C16.4068 10.9277 16.4823 10.9616 16.538 11.0219C16.5937 11.0822 16.625 11.1639 16.625 11.2492V15.7492C16.625 16.0049 16.5311 16.2502 16.3641 16.431C16.1971 16.6119 15.9706 16.7134 15.7343 16.7134V16.7134Z" fill="#475564"/>
<path d="M17.5156 5.14286H15.7344C15.6557 5.14286 15.5801 5.10899 15.5245 5.04871C15.4688 4.98843 15.4375 4.90668 15.4375 4.82143V3.85714H14.5469C14.4682 3.85714 14.3926 3.82328 14.337 3.763C14.2813 3.70272 14.25 3.62096 14.25 3.53571V1.60714C14.25 1.52189 14.2813 1.44014 14.337 1.37986C14.3926 1.31958 14.4682 1.28571 14.5469 1.28571H15.4375V0.321429C15.4375 0.23618 15.4688 0.154424 15.5245 0.0941443C15.5801 0.0338648 15.6557 0 15.7344 0H17.5156C17.5944 0 17.6699 0.0338648 17.7256 0.0941443C17.7812 0.154424 17.8125 0.23618 17.8125 0.321429V1.28571H18.7031C18.7819 1.28571 18.8574 1.31958 18.9131 1.37986C18.9687 1.44014 19 1.52189 19 1.60714V3.53571C19 3.62096 18.9687 3.70272 18.9131 3.763C18.8574 3.82328 18.7819 3.85714 18.7031 3.85714H17.8125V4.82143C17.8125 4.90668 17.7812 4.98843 17.7256 5.04871C17.6699 5.10899 17.5944 5.14286 17.5156 5.14286ZM16.0313 4.5H17.2188V3.53571C17.2188 3.45047 17.25 3.36871 17.3057 3.30843C17.3614 3.24815 17.4369 3.21429 17.5156 3.21429H18.4063V1.92857H17.5156C17.4369 1.92857 17.3614 1.89471 17.3057 1.83443C17.25 1.77415 17.2188 1.69239 17.2188 1.60714V0.642857H16.0313V1.60714C16.0313 1.69239 16 1.77415 15.9443 1.83443C15.8886 1.89471 15.8131 1.92857 15.7344 1.92857H14.8438V3.21429H15.7344C15.8131 3.21429 15.8886 3.24815 15.9443 3.30843C16 3.36871 16.0313 3.45047 16.0313 3.53571V4.5Z" fill="#475564"/>
<path d="M11.5781 4.5007C11.1846 4.50019 10.8073 4.3307 10.5291 4.02941C10.2508 3.72813 10.0942 3.31964 10.0938 2.89355V2.2507C10.0938 1.82446 10.2502 1.41567 10.5285 1.11428C10.8069 0.812878 11.1845 0.643555 11.5781 0.643555C11.9718 0.643555 12.3494 0.812878 12.6278 1.11428C12.9061 1.41567 13.0625 1.82446 13.0625 2.2507V2.89355C13.062 3.31964 12.9055 3.72813 12.6272 4.02941C12.349 4.3307 11.9717 4.50019 11.5781 4.5007V4.5007ZM11.5781 1.28641C11.3419 1.28641 11.1154 1.38801 10.9484 1.56884C10.7814 1.74968 10.6875 1.99495 10.6875 2.2507V2.89355C10.6875 3.1493 10.7814 3.39457 10.9484 3.57541C11.1154 3.75625 11.3419 3.85784 11.5781 3.85784C11.8144 3.85784 12.0409 3.75625 12.2079 3.57541C12.3749 3.39457 12.4688 3.1493 12.4688 2.89355V2.2507C12.4688 1.99495 12.3749 1.74968 12.2079 1.56884C12.0409 1.38801 11.8144 1.28641 11.5781 1.28641Z" fill="#475564"/>
<path d="M14.5469 10.2854C14.4681 10.2854 14.3926 10.2516 14.337 10.1913C14.2813 10.131 14.25 10.0493 14.25 9.96401V8.03544C14.2493 7.43893 14.0301 6.86708 13.6406 6.44529C13.251 6.0235 12.7228 5.7862 12.1719 5.78544H10.9844C10.4334 5.7862 9.90527 6.0235 9.5157 6.44529C9.12613 6.86708 8.90696 7.43893 8.90625 8.03544V9.96401C8.90625 10.0493 8.87498 10.131 8.8193 10.1913C8.76363 10.2516 8.68811 10.2854 8.60938 10.2854C8.53064 10.2854 8.45513 10.2516 8.39946 10.1913C8.34378 10.131 8.3125 10.0493 8.3125 9.96401V8.03544C8.31329 7.26846 8.59504 6.53315 9.09594 5.99082C9.59685 5.44848 10.276 5.14343 10.9844 5.14258H12.1719C12.8803 5.14343 13.5594 5.44848 14.0603 5.99082C14.5612 6.53315 14.843 7.26846 14.8438 8.03544V9.96401C14.8438 10.0493 14.8125 10.131 14.7568 10.1913C14.7011 10.2516 14.6256 10.2854 14.5469 10.2854Z" fill="#475564"/>
<path d="M9.79693 10.285C9.71819 10.285 9.64268 10.2512 9.587 10.1909C9.53133 10.1306 9.50005 10.0488 9.50005 9.96359V8.67787C9.50005 8.59263 9.53133 8.51087 9.587 8.45059C9.64268 8.39031 9.71819 8.35645 9.79693 8.35645C9.87566 8.35645 9.95117 8.39031 10.0068 8.45059C10.0625 8.51087 10.0938 8.59263 10.0938 8.67787V9.96359C10.0938 10.0488 10.0625 10.1306 10.0068 10.1909C9.95117 10.2512 9.87566 10.285 9.79693 10.285Z" fill="#475564"/>
<path d="M13.3593 10.285C13.2806 10.285 13.2051 10.2512 13.1494 10.1909C13.0937 10.1306 13.0625 10.0488 13.0625 9.96359V8.67787C13.0625 8.59263 13.0937 8.51087 13.1494 8.45059C13.2051 8.39031 13.2806 8.35645 13.3593 8.35645C13.4381 8.35645 13.5136 8.39031 13.5693 8.45059C13.6249 8.51087 13.6562 8.59263 13.6562 8.67787V9.96359C13.6562 10.0488 13.6249 10.1306 13.5693 10.1909C13.5136 10.2512 13.4381 10.285 13.3593 10.285Z" fill="#475564"/>
<path d="M15.7344 10.2859C15.6556 10.2859 15.5801 10.252 15.5245 10.1917C15.4688 10.1314 15.4375 10.0497 15.4375 9.96443V7.393C15.4375 7.30775 15.4062 7.22599 15.3505 7.16571C15.2949 7.10543 15.2194 7.07157 15.1406 7.07157H14.2262C14.1475 7.07157 14.072 7.0377 14.0163 6.97742C13.9607 6.91714 13.9294 6.83539 13.9294 6.75014C13.9294 6.66489 13.9607 6.58313 14.0163 6.52285C14.072 6.46258 14.1475 6.42871 14.2262 6.42871H15.1406C15.3768 6.42871 15.6034 6.5303 15.7704 6.71114C15.9374 6.89198 16.0312 7.13725 16.0312 7.393V9.96443C16.0312 10.0497 16 10.1314 15.9443 10.1917C15.8886 10.252 15.8131 10.2859 15.7344 10.2859Z" fill="#475564"/>
</svg>
