<svg width="25" height="25" viewBox="0 0 25 25" fill="none" xmlns="http://www.w3.org/2000/svg">
<path d="M12.7664 0.694061C6.13642 0.694061 0.772423 6.06406 0.772423 12.6941C0.772423 19.3241 6.13642 24.6941 12.7664 24.6941C19.3964 24.6941 24.7724 19.3241 24.7724 12.6941C24.7724 6.06406 19.3964 0.694061 12.7664 0.694061ZM12.7724 22.2941C7.46842 22.2941 3.17242 17.9981 3.17242 12.6941C3.17242 7.39006 7.46842 3.09406 12.7724 3.09406C18.0764 3.09406 22.3724 7.39006 22.3724 12.6941C22.3724 17.9981 18.0764 22.2941 12.7724 22.2941Z" fill="#808F9D"/>
<path d="M13.3724 6.69406H11.5724V13.8941L17.8664 17.6741L18.7724 16.1981L13.3724 12.9941V6.69406Z" fill="#265ED7"/>
</svg>
