<svg width="21" height="24" viewBox="0 0 21 24" fill="none" xmlns="http://www.w3.org/2000/svg">
<path d="M2.59772 7.81609C2.59772 12.1149 6.11496 15.6322 10.4138 15.6322C14.7127 15.6322 18.2299 12.1149 18.2299 7.81609C18.2299 3.51724 14.7127 0 10.4138 0C6.11496 0 2.59772 3.51724 2.59772 7.81609ZM16.3908 7.81609C16.3908 11.1034 13.7012 13.7931 10.4138 13.7931C7.12645 13.7931 4.4368 11.1034 4.4368 7.81609C4.4368 4.52874 7.12645 1.83908 10.4138 1.83908C13.7012 1.83908 16.3908 4.52874 16.3908 7.81609Z" fill="#3B98CC"/>
<path d="M1.31034 24C3.74713 21.5632 6.96552 20.2299 10.4138 20.2299C13.8621 20.2299 17.0805 21.5632 19.5172 24L20.8276 22.6897C18.046 19.931 14.3448 18.3908 10.4138 18.3908C6.48276 18.3908 2.78161 19.931 0 22.6897L1.31034 24Z" fill="#475564"/>
</svg>
