<svg width="17" height="24" viewBox="0 0 17 24" fill="none" xmlns="http://www.w3.org/2000/svg">
<path d="M15.9 10.494C16.3556 10.494 16.7322 10.8327 16.7918 11.2719L16.8 11.3941V11.9941C16.8 16.2653 13.494 19.7645 9.3012 20.0721L9.3 22.794C9.3 23.2911 8.89704 23.694 8.4 23.694C7.94436 23.694 7.5678 23.3554 7.50816 22.9162L7.5 22.794V20.0722C3.39988 19.772 0.147396 16.4197 0.00487175 12.2776L0 11.9941V11.3941C0 10.897 0.402948 10.494 0.9 10.494C1.35564 10.494 1.73219 10.8327 1.79178 11.2719L1.8 11.3941V11.9941C1.8 15.3865 4.48134 18.1526 7.84032 18.2888L8.1 18.294H8.7C12.0924 18.294 14.8585 15.6128 14.9947 12.2537L15 11.9941V11.3941C15 10.897 15.403 10.494 15.9 10.494Z" fill="#808F9D"/>
<rect x="5" y="1.69406" width="7" height="14.2222" rx="3.5" stroke="#9BCDD6" stroke-width="1.5" stroke-linejoin="round"/>
</svg>
