<svg class="svg-icon" style="width: 1em;height: 1em;vertical-align: middle;fill: currentColor;overflow: hidden;" viewBox="0 0 1024 1024" version="1.1" xmlns="http://www.w3.org/2000/svg"><path d="M935.424 454.656h-893.44c-14.336 0-25.6-11.264-25.6-25.6s11.264-25.6 25.6-25.6h893.44c12.8 0 18.944-6.144 20.48-9.728 0.512-1.024 1.024-3.584-4.608-7.68l-404.48-283.136c-11.776-8.192-14.336-24.064-6.144-35.84 8.192-11.776 24.064-14.336 35.84-6.144l404.48 283.136c22.528 15.872 31.744 40.448 24.064 65.024-8.704 27.136-36.864 45.568-69.632 45.568zM462.336 967.168c-5.12 0-10.24-1.536-14.848-4.608l-404.48-283.136c-22.528-15.872-31.744-40.448-24.064-65.024 8.704-27.136 36.352-45.568 69.12-45.568h893.44c14.336 0 25.6 11.264 25.6 25.6s-11.264 25.6-25.6 25.6h-893.44c-12.8 0-18.944 6.144-20.48 9.728-0.512 1.024-1.024 3.584 4.608 7.68l404.48 283.136c11.776 8.192 14.336 24.064 6.144 35.84-4.608 7.168-12.288 10.752-20.48 10.752z" fill="#012733" /></svg>