<svg width="35" height="24" viewBox="0 0 35 24" fill="none" xmlns="http://www.w3.org/2000/svg">
<path d="M33.42 3.75512C33.0274 2.27707 31.8708 1.1129 30.4022 0.717766C27.7404 2.83062e-07 17.0666 0 17.0666 0C17.0666 0 6.39289 2.83062e-07 3.73093 0.71784C2.26238 1.11297 1.10577 2.27707 0.713239 3.75519C-7.07655e-08 6.43429 0 12.0242 0 12.0242C0 12.0242 -7.07655e-08 17.6142 0.713239 20.2933C1.10577 21.7714 2.26238 22.887 3.73093 23.2822C6.39289 24 17.0666 24 17.0666 24C17.0666 24 27.7404 24 30.4022 23.2822C31.8708 22.887 33.0274 21.7713 33.42 20.2932C34.1332 17.6142 34.1332 12.0242 34.1332 12.0242C34.1332 12.0242 34.1332 6.43429 33.42 3.75512Z" fill="#FF0000"/>
<path d="M13.5757 17.0994V6.94897L22.4968 12.0243L13.5757 17.0994Z" fill="white"/>
</svg>
