<svg width="24" height="24" viewBox="0 0 24 24" fill="none" xmlns="http://www.w3.org/2000/svg">
<path fill-rule="evenodd" clip-rule="evenodd" d="M8.64637 6.09544C8.41369 5.53819 8.23725 5.517 7.88475 5.50275C7.76475 5.49581 7.63106 5.48888 7.48275 5.48888C7.02413 5.48888 6.54469 5.62294 6.25537 5.91919C5.90287 6.279 5.02819 7.11844 5.02819 8.83969C5.02819 10.5611 6.2835 12.2259 6.45281 12.459C6.62925 12.6915 8.90025 16.2754 12.4266 17.736C15.1841 18.8788 16.0024 18.7729 16.6299 18.639C17.5468 18.4416 18.6964 17.7639 18.9857 16.9459C19.2748 16.1274 19.2748 15.429 19.1901 15.2809C19.1055 15.1328 18.8726 15.0484 18.5201 14.8718C18.1676 14.6953 16.4537 13.8488 16.1293 13.7359C15.8119 13.6161 15.5087 13.6584 15.2691 13.9971C14.9304 14.4698 14.5991 14.9496 14.331 15.2387C14.1195 15.4644 13.7737 15.4927 13.4846 15.3727C13.0967 15.2107 12.0107 14.8294 10.6706 13.6373C9.63375 12.7133 8.92856 11.5635 8.72419 11.2177C8.51962 10.8651 8.703 10.6603 8.86519 10.47C9.04162 10.2512 9.21075 10.0961 9.387 9.89138C9.56344 9.68681 9.66206 9.58106 9.77494 9.34106C9.89494 9.10838 9.81019 8.86837 9.72562 8.69194C9.64087 8.51512 8.93569 6.79369 8.64637 6.09544ZM11.9964 0C5.38106 0 0 5.38256 0 11.9998C0 14.6241 0.846375 17.058 2.28506 19.0333L0.78975 23.4919L5.40225 22.0178C7.29938 23.2734 9.56325 24 12.0036 24C18.6189 24 24 18.6171 24 12.0002C24 5.38294 18.6189 0.000375 12.0036 0.000375H11.9966V0H11.9964Z" fill="#67C15E"/>
</svg>
