<svg width="24" height="24" viewBox="0 0 24 24" fill="none" xmlns="http://www.w3.org/2000/svg">
<path d="M19.8 0H4.2C1.8804 0 0 1.8804 0 4.2V19.8C0 22.1196 1.8804 24 4.2 24H19.8C22.1196 24 24 22.1196 24 19.8V4.2C24 1.8804 22.1196 0 19.8 0Z" fill="#007FB5"/>
<path d="M6.75747 8.82751H3.37122V21.0975H6.75747V8.82751Z" fill="white"/>
<path d="M18.075 8.82749C15.5775 7.87499 13.77 9.48749 12.9975 10.3875V8.82749H9.6225V21.0975H12.9975V14.625C12.9783 13.8046 13.2781 13.0088 13.8337 12.405C13.9924 12.2183 14.1878 12.0663 14.4078 11.9585C14.6279 11.8508 14.8677 11.7896 15.1125 11.7787C15.3862 11.7735 15.6582 11.8236 15.9121 11.9261C16.166 12.0285 16.3966 12.1812 16.59 12.375C17.0094 12.8133 17.2386 13.3997 17.2275 14.0062V21.0975H21.0375V13.5C21.0375 13.5 21.4612 10.095 18.075 8.82749Z" fill="white"/>
<path d="M5.06251 7.13247C6.23059 7.13247 7.17751 6.18555 7.17751 5.01747C7.17751 3.84938 6.23059 2.90247 5.06251 2.90247C3.89443 2.90247 2.94751 3.84938 2.94751 5.01747C2.94751 6.18555 3.89443 7.13247 5.06251 7.13247Z" fill="white"/>
</svg>
