<svg width="203" height="150" viewBox="0 0 203 150" fill="none" xmlns="http://www.w3.org/2000/svg">
<path d="M202.23 131.818H0.9198V131.918H202.23V131.818Z" fill="#EBEBEB"/>
<path d="M182.058 138.296H168.724V138.396H182.058V138.296Z" fill="#EBEBEB"/>
<path d="M134.275 139.391H130.777V139.492H134.275V139.391Z" fill="#EBEBEB"/>
<path d="M168.321 134.56H149.128V134.66H168.321V134.56Z" fill="#EBEBEB"/>
<path d="M31.5752 135.236H22.0412V135.337H31.5752V135.236Z" fill="#EBEBEB"/>
<path d="M45.5663 135.236H35.1586V135.337H45.5663V135.236Z" fill="#EBEBEB"/>
<path d="M79.8775 136.935H53.8522V137.036H79.8775V136.935Z" fill="#EBEBEB"/>
<path d="M96.3407 113.861H18.5988C17.9898 113.86 17.4061 113.617 16.9758 113.186C16.5456 112.755 16.3039 112.171 16.3039 111.562V2.27883C16.3092 1.6733 16.5532 1.09431 16.9829 0.667631C17.4126 0.240951 17.9933 0.0010373 18.5988 0H96.3407C96.9504 0 97.5351 0.242211 97.9663 0.673349C98.3974 1.10449 98.6396 1.68924 98.6396 2.29896V111.562C98.6396 112.172 98.3974 112.756 97.9663 113.188C97.5351 113.619 96.9504 113.861 96.3407 113.861ZM18.5988 0.0805242C18.0165 0.0815908 17.4584 0.313667 17.047 0.725813C16.6356 1.13796 16.4045 1.6965 16.4045 2.27883V111.562C16.4045 112.144 16.6356 112.703 17.047 113.115C17.4584 113.527 18.0165 113.759 18.5988 113.76H96.3407C96.9234 113.759 97.4819 113.527 97.8939 113.115C98.306 112.703 98.5379 112.145 98.539 111.562V2.27883C98.5379 1.69613 98.306 1.1376 97.8939 0.725568C97.4819 0.313536 96.9234 0.0815885 96.3407 0.0805242H18.5988Z" fill="#EBEBEB"/>
<path d="M183.431 113.861H105.685C105.076 113.86 104.492 113.617 104.061 113.186C103.63 112.755 103.388 112.171 103.387 111.562V2.27883C103.393 1.67293 103.638 1.09395 104.068 0.667379C104.498 0.24081 105.08 0.00102599 105.685 0H183.431C184.036 0.00209543 184.616 0.242477 185.045 0.669044C185.473 1.09561 185.717 1.67399 185.722 2.27883V111.562C185.722 112.17 185.481 112.754 185.052 113.185C184.622 113.616 184.04 113.859 183.431 113.861ZM105.685 0.0805242C105.103 0.0815885 104.544 0.313536 104.132 0.725568C103.72 1.1376 103.488 1.69613 103.487 2.27883V111.562C103.488 112.145 103.72 112.703 104.132 113.115C104.544 113.527 105.103 113.759 105.685 113.76H183.431C184.014 113.759 184.573 113.527 184.985 113.115C185.397 112.703 185.629 112.145 185.63 111.562V2.27883C185.629 1.69613 185.397 1.1376 184.985 0.725568C184.573 0.313536 184.014 0.0815885 183.431 0.0805242H105.685Z" fill="#EBEBEB"/>
<path d="M178.64 10.4681H115.038V131.818H178.64V10.4681Z" fill="#EBEBEB"/>
<path d="M173.909 14.4258H119.769V131.818H173.909V14.4258Z" fill="#F5F5F5"/>
<path d="M154.455 24.1612H139.232V28.3686H154.455V24.1612Z" fill="white"/>
<path d="M161.311 65.9571H169.569C169.911 65.9571 170.239 66.0929 170.48 66.3345C170.722 66.5761 170.857 66.9038 170.857 67.2455C170.857 67.5872 170.722 67.9149 170.48 68.1565C170.239 68.3981 169.911 68.5339 169.569 68.5339H161.311C160.97 68.5339 160.642 68.3981 160.4 68.1565C160.159 67.9149 160.023 67.5872 160.023 67.2455C160.023 66.9038 160.159 66.5761 160.4 66.3345C160.642 66.0929 160.97 65.9571 161.311 65.9571Z" fill="white"/>
<path d="M71.5554 23.3801H29.2562V57.4699H71.5554V23.3801Z" fill="#EBEBEB"/>
<path d="M69.2806 55.1991V25.6509L31.5229 25.6509V55.1991H69.2806Z" fill="#FAFAFA"/>
<path d="M64.88 40.8136V39.4004H35.9276V40.8136H64.88Z" fill="#E0E0E0"/>
<path d="M64.88 44.0305V42.6173H35.9276V44.0305H64.88Z" fill="#E0E0E0"/>
<path d="M64.88 47.2434V45.8302H35.9276V47.2434H64.88Z" fill="#E0E0E0"/>
<path d="M57.6207 50.4603V49.0471H43.1868V50.4603H57.6207Z" fill="#E0E0E0"/>
<path d="M35.9477 25.6509C35.9477 26.2312 35.833 26.8057 35.61 27.3415C35.3871 27.8772 35.0605 28.3636 34.6488 28.7726C34.2372 29.1816 33.7488 29.5052 33.2116 29.7247C32.6744 29.9442 32.0991 30.0552 31.5189 30.0515C30.7183 30.0535 29.9326 29.8348 29.2481 29.4194V23.3801H35.2874C35.7106 24.0626 35.9389 24.8479 35.9477 25.6509Z" fill="#EBEBEB"/>
<path d="M71.5554 23.3801V29.4194C70.7137 29.9257 69.7268 30.1359 68.7518 30.0164C67.7769 29.8969 66.8699 29.4547 66.1754 28.7601C65.4808 28.0656 65.0386 27.1586 64.9191 26.1837C64.7997 25.2087 65.0098 24.2218 65.5161 23.3801H71.5554Z" fill="#EBEBEB"/>
<path d="M35.9477 55.2032C35.9491 56.0019 35.7319 56.7858 35.3196 57.4699H29.2803V51.4306C29.9483 51.0306 30.7103 50.8149 31.4889 50.8053C32.2674 50.7957 33.0345 50.9927 33.7121 51.3761C34.3897 51.7595 34.9536 52.3157 35.3463 52.988C35.739 53.6602 35.9465 54.4246 35.9477 55.2032Z" fill="#EBEBEB"/>
<path d="M71.5554 51.4266V57.4659H65.5161C65.1007 56.7829 64.882 55.9985 64.884 55.1992C64.8849 54.4195 65.0924 53.6541 65.4855 52.9808C65.8787 52.3076 66.4433 51.7506 67.1219 51.3667C67.8004 50.9828 68.5686 50.7857 69.3482 50.7956C70.1278 50.8054 70.8908 51.0217 71.5595 51.4226L71.5554 51.4266Z" fill="#EBEBEB"/>
<path d="M54.1053 33.451C54.437 31.4075 53.0493 29.4821 51.0059 29.1504C48.9625 28.8187 47.0371 30.2063 46.7054 32.2498C46.3737 34.2932 47.7613 36.2186 49.8047 36.5503C51.8482 36.882 53.7736 35.4944 54.1053 33.451Z" fill="#E0E0E0"/>
<path d="M105.738 83.4027H22.0412V86.4143H105.738V83.4027Z" fill="#EBEBEB"/>
<path d="M105.013 86.4143H77.8202V131.818H105.013V86.4143Z" fill="#F5F5F5"/>
<path d="M50.2689 86.4143H23.076V131.818H50.2689V86.4143Z" fill="#F5F5F5"/>
<path d="M24.006 86.4143H23.076V131.818H24.006V86.4143Z" fill="#EBEBEB"/>
<path d="M78.7502 86.4143H77.8202V131.818H78.7502V86.4143Z" fill="#EBEBEB"/>
<path d="M37.3569 76.1434H32.3563L32.7589 83.4027H36.9542L37.3569 76.1434Z" fill="#F0F0F0"/>
<path d="M80.7713 80.2542H54.6454V83.4026H80.7713V80.2542Z" fill="#F0F0F0"/>
<path d="M80.7754 80.6246H68.729V83.0363H80.7754V80.6246Z" fill="#FAFAFA"/>
<path d="M101.575 150C144.688 150 179.639 147.959 179.639 145.442C179.639 142.925 144.688 140.885 101.575 140.885C58.4612 140.885 23.5108 142.925 23.5108 145.442C23.5108 147.959 58.4612 150 101.575 150Z" fill="#F5F5F5"/>
<path d="M138.096 117.251C145.141 117.251 150.851 111.54 150.851 104.496C150.851 97.4515 145.141 91.7409 138.096 91.7409C131.052 91.7409 125.341 97.4515 125.341 104.496C125.341 111.54 131.052 117.251 138.096 117.251Z" fill="white"/>
<path d="M138.096 117.408C135.542 117.409 133.046 116.652 130.922 115.234C128.798 113.815 127.142 111.799 126.164 109.44C125.186 107.081 124.93 104.484 125.428 101.979C125.926 99.4744 127.155 97.1733 128.961 95.3672C130.766 93.561 133.067 92.3308 135.572 91.8323C138.077 91.3337 140.673 91.5892 143.033 92.5664C145.392 93.5435 147.409 95.1985 148.828 97.322C150.247 99.4454 151.004 101.942 151.004 104.496C151.001 107.919 149.64 111.2 147.22 113.621C144.801 116.042 141.519 117.404 138.096 117.408ZM138.096 91.902C135.605 91.902 133.169 92.6409 131.097 94.0254C129.025 95.4098 127.41 97.3776 126.457 99.6798C125.504 101.982 125.254 104.515 125.741 106.959C126.227 109.403 127.427 111.648 129.19 113.409C130.952 115.171 133.197 116.371 135.641 116.856C138.085 117.342 140.618 117.092 142.92 116.138C145.222 115.184 147.189 113.568 148.573 111.496C149.957 109.424 150.695 106.988 150.694 104.496C150.691 101.156 149.363 97.954 147.001 95.5927C144.639 93.2315 141.436 91.9041 138.096 91.902V91.902Z" fill="#265ED7"/>
<path d="M140.15 97.2648H136.043V111.727H140.15V97.2648Z" fill="#265ED7"/>
<path d="M145.327 106.553V102.447H130.865V106.553H145.327Z" fill="#265ED7"/>
<path d="M51.6942 8.08058L51.4204 7.78667C53.2842 6.02482 55.6491 4.88526 58.1884 4.52545L58.2448 4.92807C55.7873 5.27465 53.4983 6.37627 51.6942 8.08058V8.08058Z" fill="#265ED7"/>
<path d="M48.7148 12.4812L48.3404 12.3363C48.7468 11.3106 49.2884 10.3438 49.9508 9.46158L50.2729 9.70315C49.6341 10.5569 49.1103 11.491 48.7148 12.4812V12.4812Z" fill="#265ED7"/>
<path d="M59.9479 27.9056C66.0495 27.9056 70.9958 22.9592 70.9958 16.8577C70.9958 10.7561 66.0495 5.80978 59.9479 5.80978C53.8463 5.80978 48.9 10.7561 48.9 16.8577C48.9 22.9592 53.8463 27.9056 59.9479 27.9056Z" fill="#265ED7"/>
<path d="M66.5468 11.8813C66.1213 11.4396 65.612 11.0871 65.0487 10.8446C64.4854 10.602 63.8794 10.4741 63.2661 10.4685C62.6528 10.4629 62.0445 10.5796 61.4768 10.8118C60.9092 11.044 60.3935 11.3871 59.96 11.8209C59.5268 11.3872 59.0115 11.0442 58.4441 10.8121C57.8768 10.5799 57.2689 10.4632 56.6559 10.4688C56.0429 10.4745 55.4372 10.6023 54.8742 10.8448C54.3113 11.0873 53.8023 11.4397 53.3771 11.8813C52.544 12.7826 52.0951 13.9732 52.1259 15.2002C52.1567 16.4272 52.6648 17.5938 53.5422 18.4521L58.7763 23.6861C58.9333 23.8432 59.1197 23.9678 59.3249 24.0527C59.5301 24.1377 59.75 24.1815 59.9721 24.1815C60.1941 24.1815 60.414 24.1377 60.6192 24.0527C60.8244 23.9678 61.0108 23.8432 61.1678 23.6861L66.4019 18.4521C67.2765 17.5911 67.7809 16.4231 67.808 15.1961C67.8351 13.9692 67.3826 12.78 66.5468 11.8813Z" fill="white"/>
<path d="M59.9479 21.6851C59.8667 21.6823 59.7883 21.6551 59.7229 21.6069C59.6575 21.5588 59.6082 21.492 59.5815 21.4153L57.2503 14.599L56.276 17.4495C56.2483 17.5287 56.1965 17.5973 56.128 17.6457C56.0594 17.6941 55.9774 17.7198 55.8935 17.7193H51.9921C51.8853 17.7193 51.7829 17.6769 51.7074 17.6014C51.6319 17.5258 51.5895 17.4234 51.5895 17.3167C51.5895 17.2099 51.6319 17.1075 51.7074 17.032C51.7829 16.9565 51.8853 16.914 51.9921 16.914H55.6157L56.8799 13.222C56.9073 13.1429 56.9586 13.0743 57.0268 13.0257C57.095 12.9772 57.1767 12.9511 57.2604 12.9511C57.3441 12.9511 57.4257 12.9772 57.4939 13.0257C57.5621 13.0743 57.6135 13.1429 57.6409 13.222L60.0123 20.1592L62.3153 14.7359C62.3444 14.6667 62.3922 14.6071 62.4534 14.5637C62.5146 14.5203 62.5867 14.4949 62.6615 14.4903C62.7369 14.4859 62.812 14.5029 62.8782 14.5392C62.9444 14.5755 62.9991 14.6297 63.036 14.6956L64.2519 16.91H67.9197C68.0265 16.91 68.1289 16.9524 68.2044 17.0279C68.2799 17.1034 68.3224 17.2059 68.3224 17.3126C68.3224 17.4194 68.2799 17.5218 68.2044 17.5973C68.1289 17.6728 68.0265 17.7153 67.9197 17.7153H64.0183C63.9463 17.7158 63.8755 17.6971 63.8131 17.661C63.7508 17.6249 63.6993 17.5727 63.664 17.5099L62.7098 15.8028L60.3183 21.4395C60.2875 21.5123 60.2359 21.5743 60.17 21.618C60.1042 21.6617 60.0269 21.685 59.9479 21.6851V21.6851Z" fill="#265ED7"/>
<path d="M121.247 131.335H79.2253C78.5406 131.342 77.8618 131.207 77.232 130.938C76.6023 130.669 76.0354 130.272 75.5673 129.773C75.0993 129.273 74.7404 128.681 74.5134 128.035C74.2864 127.389 74.1964 126.703 74.2489 126.02L81.0411 25.365C81.1598 23.9275 81.8085 22.5855 82.8614 21.5996C83.9142 20.6137 85.296 20.0544 86.7382 20.0303H128.768C129.454 20.0225 130.135 20.1579 130.766 20.428C131.397 20.6982 131.965 21.097 132.434 21.5991C132.902 22.1011 133.26 22.6954 133.486 23.3438C133.712 23.9923 133.799 24.6807 133.744 25.365L126.94 126.02C126.817 127.453 126.167 128.791 125.116 129.772C124.064 130.754 122.685 131.311 121.247 131.335Z" fill="#263238"/>
<path d="M130.563 61.021H129.504C129.313 61.0233 129.123 60.9856 128.946 60.9102C128.77 60.8348 128.611 60.7234 128.481 60.5832C128.35 60.4429 128.25 60.2769 128.187 60.0958C128.124 59.9147 128.1 59.7224 128.115 59.5313L129.416 40.2901C129.446 39.8877 129.626 39.5113 129.921 39.2354C130.215 38.9596 130.603 38.8043 131.006 38.8004H132.065C132.257 38.7981 132.447 38.8358 132.623 38.9112C132.799 38.9866 132.958 39.098 133.089 39.2382C133.22 39.3785 133.32 39.5445 133.383 39.7256C133.445 39.9067 133.47 40.099 133.454 40.2901L132.154 59.5313C132.123 59.9337 131.943 60.3101 131.649 60.586C131.354 60.8618 130.967 61.0171 130.563 61.021Z" fill="#263238"/>
<path d="M80.4291 48.1855H79.3742C79.2182 48.1876 79.0633 48.1572 78.9196 48.0963C78.7759 48.0355 78.6463 47.9454 78.5392 47.8318C78.4321 47.7183 78.3497 47.5837 78.2973 47.4367C78.2449 47.2897 78.2237 47.1333 78.2348 46.9776L78.7059 40.0284C78.7356 39.7022 78.8848 39.3984 79.1249 39.1755C79.3649 38.9526 79.6788 38.8262 80.0063 38.8206H81.0652C81.2208 38.8197 81.3749 38.8509 81.5179 38.9122C81.6609 38.9735 81.7896 39.0637 81.8962 39.177C82.0027 39.2904 82.0848 39.4245 82.1372 39.571C82.1895 39.7175 82.2111 39.8732 82.2006 40.0284L81.7296 46.9776C81.7007 47.3042 81.5518 47.6085 81.3115 47.8316C81.0713 48.0547 80.7569 48.1808 80.4291 48.1855V48.1855Z" fill="#265ED7"/>
<path d="M79.5916 60.5942H78.5327C78.377 60.5957 78.2226 60.565 78.0794 60.5038C77.9361 60.4427 77.8071 60.3526 77.7004 60.2391C77.5937 60.1256 77.5117 59.9912 77.4596 59.8445C77.4074 59.6977 77.3862 59.5417 77.3974 59.3864L77.8684 52.4372C77.8982 52.1109 78.0474 51.8072 78.2874 51.5842C78.5274 51.3613 78.8413 51.2349 79.1689 51.2293H80.2358C80.3914 51.2284 80.5455 51.2596 80.6885 51.3209C80.8314 51.3822 80.9602 51.4724 81.0668 51.5858C81.1733 51.6991 81.2554 51.8332 81.3077 51.9797C81.3601 52.1262 81.3817 52.2819 81.3712 52.4372L80.9001 59.3864C80.8711 59.7143 80.7211 60.0197 80.4791 60.243C80.2372 60.4663 79.9208 60.5915 79.5916 60.5942V60.5942Z" fill="#265ED7"/>
<path d="M120.357 131.335H78.3355C77.6508 131.342 76.972 131.207 76.3422 130.938C75.7125 130.669 75.1456 130.272 74.6775 129.773C74.2095 129.273 73.8506 128.681 73.6236 128.035C73.3966 127.389 73.3066 126.703 73.3591 126.02L80.1553 25.365C80.2781 23.927 80.9314 22.5861 81.9881 21.6031C83.0448 20.62 84.4294 20.0652 85.8725 20.0464H127.878C128.563 20.0388 129.242 20.1738 129.872 20.443C130.502 20.7121 131.069 21.1095 131.537 21.6098C132.005 22.11 132.364 22.7023 132.591 23.3488C132.818 23.9953 132.907 24.682 132.854 25.365L126.054 126.02C125.931 127.454 125.281 128.792 124.228 129.774C123.176 130.756 121.796 131.312 120.357 131.335V131.335Z" fill="#265ED7"/>
<path opacity="0.3" d="M73.802 124.893L80.4371 26.6695H132.399L125.764 124.893H73.802Z" fill="white"/>
<path opacity="0.1" d="M94.3154 124.893L112.86 26.6695H124.5L105.955 124.893H94.3154Z" fill="white"/>
<path opacity="0.1" d="M85.5222 124.893L104.067 26.6695H109.965L91.4206 124.893H85.5222Z" fill="white"/>
<path d="M101.631 22.5145H111.765C111.85 22.513 111.933 22.5294 112.011 22.5624C112.089 22.5955 112.159 22.6446 112.217 22.7064C112.275 22.7683 112.319 22.8416 112.346 22.9216C112.374 23.0016 112.384 23.0865 112.377 23.1707C112.363 23.3481 112.284 23.514 112.154 23.636C112.025 23.7581 111.854 23.8276 111.676 23.831H101.542C101.458 23.8319 101.374 23.815 101.296 23.7815C101.218 23.748 101.148 23.6986 101.09 23.6364C101.033 23.5742 100.989 23.5006 100.961 23.4205C100.934 23.3403 100.923 23.2552 100.93 23.1707C100.944 22.9937 101.024 22.8283 101.154 22.7069C101.283 22.5856 101.453 22.5169 101.631 22.5145Z" fill="white"/>
<path d="M99.5213 141.018L95.9702 141.356L94.6898 133.162L98.241 132.82L99.5213 141.018Z" fill="#FFB573"/>
<path d="M95.5636 139.62L99.2838 138.465C99.3479 138.443 99.4182 138.446 99.4798 138.475C99.5414 138.503 99.5895 138.555 99.6139 138.618L100.822 141.569C100.852 141.648 100.865 141.733 100.861 141.817C100.857 141.902 100.835 141.984 100.797 142.06C100.759 142.136 100.706 142.203 100.641 142.257C100.576 142.311 100.5 142.351 100.419 142.374C99.0744 142.777 97.7941 142.87 96.1715 143.582C94.2752 144.387 93.482 145.467 91.4407 145.467C89.9792 145.467 89.6491 144.126 90.2691 143.941C93.0874 143.087 92.717 142.386 94.7623 140.184C94.9751 139.929 95.2515 139.734 95.5636 139.62Z" fill="#263238"/>
<path opacity="0.2" d="M94.6898 133.162L95.3501 137.39L98.9053 137.048L98.245 132.82L94.6898 133.162Z" fill="black"/>
<path d="M97.2586 29.6328C92.6003 29.0852 87.9661 29.4516 83.3158 30.3535C82.5409 30.5039 81.8341 30.8972 81.2976 31.4763C80.7612 32.0554 80.4232 32.7903 80.3324 33.5744C79.8292 38.0274 79.2534 48.0084 81.5 62.8972L100.536 61.2868C100.572 58.5852 98.6516 46.2771 100.238 33.506C100.303 33.0552 100.277 32.5959 100.161 32.1553C100.046 31.7147 99.8433 31.3017 99.5656 30.9407C99.2879 30.5797 98.9407 30.2779 98.5444 30.0533C98.1482 29.8287 97.711 29.6857 97.2586 29.6328Z" fill="white"/>
<path d="M86.1745 33.4496L86.8549 34.8105C86.8867 34.8791 86.9371 34.9374 87.0005 34.9787C87.0639 35.02 87.1376 35.0427 87.2132 35.044L87.95 35.0842C88.0815 35.09 88.2109 35.0501 88.3164 34.9715L89.5847 34.0254L88.0185 32.8859L86.1745 33.4496Z" fill="#263238"/>
<path d="M87.9742 34.6937C87.7056 34.5693 87.4014 34.545 87.1166 34.6253C86.5167 36.739 85.8604 42.8065 85.792 45.496C87.6118 50.7985 88.2077 51.334 88.2077 51.334L89.1297 44.9525C89.1297 44.9525 88.0949 38.426 87.9742 34.6937Z" fill="#263238"/>
<path d="M93.2284 20.4531C92.7936 23.0781 92.4231 27.8733 94.3074 29.5684C92.9264 31.0178 91.1187 32.6967 88.0185 32.886C84.9183 33.0752 85.3974 30.9292 86.1825 29.7818C89.0774 29.0087 88.9365 26.8507 88.3688 24.8336L93.2284 20.4531Z" fill="#FFB573"/>
<path d="M95.0965 29.3389C94.877 29.2442 94.6493 29.1701 94.4161 29.1175C94.359 29.1024 94.2986 29.1064 94.2441 29.1289C94.1895 29.1515 94.1439 29.1913 94.1141 29.2423C93.8162 29.7496 92.9063 32.0163 88.0185 32.886C88.8237 33.3611 89.8906 34.8347 90.3496 35.5433C91.8152 34.7823 95.628 32.5075 95.2656 29.5644C95.2582 29.5157 95.2389 29.4697 95.2094 29.4304C95.1799 29.391 95.1411 29.3596 95.0965 29.3389Z" fill="#F5F5F5"/>
<path d="M86.2107 29.9025C86.221 29.8567 86.2197 29.8091 86.2069 29.7639C86.1941 29.7187 86.1702 29.6774 86.1374 29.6438C86.1046 29.6102 86.0639 29.5854 86.0191 29.5715C85.9742 29.5576 85.9266 29.5551 85.8806 29.5643C85.7113 29.5972 85.5445 29.6416 85.3813 29.6972C85.3436 29.7119 85.3083 29.7323 85.2766 29.7576C84.9022 30.1038 82.8609 33.051 84.7734 35.4345C85.176 34.7863 86.565 33.3167 88.0185 32.8859C86.6415 32.2659 85.9651 31.1104 86.2107 29.9025Z" fill="#F5F5F5"/>
<path opacity="0.2" d="M91.2475 22.2407L88.3728 24.8336C88.5114 25.3019 88.6084 25.7815 88.6627 26.2669C89.7739 26.0777 91.2676 24.8175 91.3481 23.6499C91.4026 23.178 91.3684 22.7001 91.2475 22.2407Z" fill="black"/>
<path d="M87.4065 12.5174C84.9264 13.4877 84.7653 15.525 84.9908 17.7515C85.2162 19.978 87.64 18.5044 88.1795 17.1113C88.719 15.7182 90.8408 11.1727 87.4065 12.5174Z" fill="#263238"/>
<path d="M95.318 16.9583C94.6295 20.4651 94.4 22.5467 92.395 24.1612C89.3713 26.5769 85.2766 24.4913 84.9143 20.8758C84.5882 17.6186 85.7678 12.4208 89.3793 11.4062C90.1669 11.1743 91.0014 11.1519 91.8003 11.3413C92.5992 11.5306 93.3349 11.9252 93.9346 12.4859C94.5344 13.0466 94.9774 13.7541 95.2201 14.5384C95.4627 15.3228 95.4964 16.1569 95.318 16.9583Z" fill="#FFB573"/>
<path d="M95.173 19.8612C92.2218 20.0183 92.8459 18.3434 93.3814 17.3811C93.9168 16.4188 92.8257 14.8285 93.5384 14.0031C92.2661 14.5104 90.9254 14.0917 89.2223 12.908C87.9017 11.986 86.2469 15.67 84.6365 13.8219C83.1146 12.0786 84.5278 9.4495 88.1835 9.02675C91.8393 8.604 92.5036 11.1888 94.9033 10.9593C97.3029 10.7298 96.4695 12.7067 95.9984 13.1093C98.0115 13.2422 99.1106 15.1667 95.173 19.8612Z" fill="#263238"/>
<path d="M95.5354 13.3549C95.9971 13.1016 96.3828 12.7296 96.6525 12.2773C96.9222 11.825 97.0661 11.3088 97.0693 10.7822C97.8665 12.1793 97.782 13.7656 95.5354 13.3549Z" fill="#263238"/>
<path d="M87.8856 20.7027C88.2064 20.7582 88.5351 20.7483 88.852 20.6736C89.1689 20.5988 89.4674 20.4608 89.7296 20.2678C89.7375 20.2603 89.7438 20.2513 89.7481 20.2412C89.7524 20.2312 89.7547 20.2204 89.7547 20.2095C89.7547 20.1985 89.7524 20.1877 89.7481 20.1777C89.7438 20.1677 89.7375 20.1586 89.7296 20.1511C89.7139 20.1361 89.693 20.1277 89.6712 20.1277C89.6495 20.1277 89.6286 20.1361 89.6128 20.1511C89.3192 20.3592 88.9813 20.4963 88.6256 20.5515C88.27 20.6067 87.9064 20.5785 87.5635 20.4691C87.5416 20.4637 87.5185 20.4664 87.4985 20.4768C87.4785 20.4872 87.4629 20.5045 87.4548 20.5255C87.4485 20.5469 87.4509 20.5698 87.4615 20.5894C87.472 20.609 87.4899 20.6237 87.5112 20.6302C87.6336 20.6655 87.7589 20.6898 87.8856 20.7027Z" fill="#263238"/>
<path d="M96.0306 20.9362C95.4793 21.6467 94.6711 22.1122 93.7799 22.2327C92.6083 22.3856 92.2178 21.2945 92.709 20.2759C93.1559 19.3579 94.3195 18.1742 95.3985 18.4923C96.4775 18.8104 96.707 20.0505 96.0306 20.9362Z" fill="#FFB573"/>
<path d="M94.867 97.1803C95.0079 86.6679 96.3527 61.629 96.3527 61.629L81.5121 62.8811C81.5121 62.8811 84.4633 88.685 86.2429 99.4108C88.0949 110.559 93.7759 136.677 93.7759 136.677L99.8152 136.162C99.8152 136.162 97.6088 105.309 94.867 97.1803Z" fill="#263238"/>
<path d="M93.4136 136.842L100.576 136.234L100.294 133.923L92.8298 134.423L93.4136 136.842Z" fill="#265ED7"/>
<path d="M90.0275 17.1677C89.9913 17.4536 89.8061 17.671 89.6249 17.6508C89.4438 17.6307 89.3189 17.3811 89.3592 17.0912C89.3995 16.8013 89.5806 16.5879 89.7618 16.6081C89.943 16.6282 90.0678 16.8818 90.0275 17.1677Z" fill="#263238"/>
<path d="M86.7422 16.91C86.7059 17.1999 86.5207 17.4133 86.3396 17.3931C86.1584 17.373 86.0336 17.1234 86.0738 16.8375C86.1141 16.5517 86.2953 16.3343 86.4764 16.3544C86.6576 16.3745 86.7824 16.608 86.7422 16.91Z" fill="#263238"/>
<path d="M87.6682 17.2482C87.1832 17.9933 86.601 18.6703 85.9369 19.2613C86.3637 19.7082 87.2454 19.5874 87.2454 19.5874L87.6682 17.2482Z" fill="#ED893E"/>
<path opacity="0.4" d="M84.6646 16.9825C84.6042 17.4415 85.0672 17.8239 85.7074 17.9045C86.3476 17.985 86.9394 17.6347 86.9958 17.1757" fill="#265ED7"/>
<path opacity="0.4" d="M88.4694 17.4093C88.3808 17.8642 88.8277 18.2749 89.4558 18.3957C90.0839 18.5165 90.6999 18.1944 90.7845 17.7434" fill="#265ED7"/>
<path d="M89.7054 18.5205C89.633 18.5245 89.5604 18.5245 89.488 18.5205C89.1786 18.4835 88.8878 18.3528 88.6546 18.1461C88.5528 18.0591 88.4734 17.949 88.423 17.825C88.3725 17.701 88.3526 17.5667 88.3647 17.4334C88.1604 17.3445 87.9427 17.29 87.7205 17.2724C87.4971 17.2166 87.2635 17.2166 87.0401 17.2724C86.9837 17.7636 86.3717 18.1018 85.6873 18.0172C85.3777 17.9834 85.0864 17.8539 84.8539 17.6468C84.7526 17.5594 84.6736 17.4493 84.6232 17.3254C84.5728 17.2015 84.5525 17.0674 84.564 16.9342L84.7572 16.9583C84.7491 17.0613 84.7657 17.1647 84.8056 17.2599C84.8455 17.3552 84.9076 17.4395 84.9867 17.5059C85.1895 17.6844 85.4428 17.7955 85.7114 17.824C86.2912 17.9005 86.8066 17.6307 86.8589 17.2281C86.8871 17.0026 87.3541 17.0187 87.7406 17.067C88.1272 17.1154 88.5861 17.2241 88.5459 17.4455C88.5374 17.5485 88.5538 17.652 88.5938 17.7473C88.6337 17.8426 88.696 17.9269 88.7754 17.9931C88.9807 18.1692 89.2331 18.2814 89.5014 18.3157C89.7697 18.35 90.0422 18.3051 90.2852 18.1863C90.379 18.1427 90.4609 18.0771 90.524 17.9951C90.587 17.9131 90.6294 17.8171 90.6476 17.7153V17.6186L95.6159 18.2588L95.5917 18.4521L90.8086 17.836C90.7738 17.9481 90.7167 18.0519 90.6405 18.1412C90.5644 18.2305 90.4709 18.3034 90.3657 18.3554C90.1622 18.4631 89.9357 18.5198 89.7054 18.5205Z" fill="#263238"/>
<path d="M91.2918 15.9035C91.3204 15.9036 91.3484 15.8952 91.3723 15.8793C91.4114 15.8566 91.4401 15.8194 91.4521 15.7757C91.4642 15.7321 91.4586 15.6854 91.4367 15.6458C91.3119 15.4116 91.1312 15.2119 90.9107 15.0644C90.6901 14.9169 90.4365 14.8262 90.1725 14.8003C90.1272 14.7981 90.0829 14.8137 90.049 14.8438C90.0151 14.874 89.9944 14.9161 89.9913 14.9614C89.9891 15.0056 90.0043 15.0489 90.0336 15.082C90.063 15.1151 90.1042 15.1354 90.1483 15.1385C90.3573 15.163 90.5571 15.2382 90.7304 15.3575C90.9037 15.4768 91.0453 15.6366 91.1428 15.823C91.158 15.8486 91.1799 15.8696 91.2062 15.8838C91.2324 15.898 91.262 15.9048 91.2918 15.9035Z" fill="#263238"/>
<path d="M85.6792 15.4485C85.7071 15.4512 85.7352 15.4472 85.7611 15.4366C85.7871 15.4261 85.8101 15.4095 85.8282 15.3881C85.9584 15.2176 86.1267 15.08 86.3197 14.9863C86.5127 14.8926 86.7249 14.8454 86.9394 14.8486C86.9617 14.8508 86.9841 14.8486 87.0055 14.8421C87.0268 14.8356 87.0467 14.8249 87.0639 14.8107C87.0811 14.7965 87.0954 14.779 87.1058 14.7592C87.1162 14.7395 87.1226 14.7178 87.1246 14.6956C87.1274 14.6739 87.1259 14.6518 87.1201 14.6307C87.1143 14.6096 87.1044 14.5899 87.0909 14.5727C87.0774 14.5554 87.0607 14.541 87.0416 14.5304C87.0225 14.5197 87.0014 14.5129 86.9797 14.5104C86.7092 14.5033 86.4409 14.5597 86.1962 14.6751C85.9514 14.7905 85.7372 14.9616 85.5705 15.1747C85.5418 15.2089 85.5278 15.2531 85.5316 15.2976C85.5354 15.3421 85.5566 15.3833 85.5907 15.4123C85.6169 15.4311 85.6473 15.4436 85.6792 15.4485Z" fill="#263238"/>
<path d="M107.231 95.4853C104.151 79.6543 103.459 67.2737 100.536 61.2626L86.1584 62.8731C86.1584 62.8731 94.7221 86.4626 98.9053 96.5321C103.25 107 111.825 124.885 111.825 124.885H119.008C119.008 124.885 112.304 102.696 107.231 95.4853Z" fill="#263238"/>
<path d="M61.6589 35.5553L60.1048 34.573C59.8526 34.4104 59.5517 34.3405 59.2536 34.375C58.9556 34.4095 58.6787 34.5463 58.4702 34.7622L57.4153 35.8734C57.3017 35.9934 57.2139 36.1353 57.1574 36.2905C57.1008 36.4457 57.0767 36.6109 57.0865 36.7758C57.0963 36.9407 57.1398 37.1019 57.2144 37.2493C57.289 37.3967 57.393 37.5273 57.52 37.6329L58.2729 38.2771C58.9278 38.832 59.6918 39.2435 60.5155 39.4849L62.7903 40.1573L64.284 38.5468C64.739 36.8679 61.6589 35.5553 61.6589 35.5553Z" fill="#FFB573"/>
<path d="M84.6646 34.8024C84.101 36.1794 83.5494 37.4597 82.9495 38.7682C82.3496 40.0767 81.7416 41.3691 81.0693 42.6535C80.3969 43.9379 79.6802 45.2142 78.8669 46.4945C78.4643 47.1306 78.0174 47.7668 77.5101 48.4069C76.9647 49.1128 76.3437 49.7568 75.658 50.3274C75.2053 50.6974 74.7058 51.0061 74.1724 51.2454C74.0033 51.3098 73.8463 51.3742 73.661 51.4306L73.3792 51.5071C73.2374 51.5419 73.0935 51.5675 72.9484 51.5836C72.4576 51.6389 71.9608 51.6034 71.4829 51.4789C70.8853 51.3117 70.3175 51.0522 69.7999 50.7099C69.4123 50.468 69.0423 50.1989 68.6927 49.9047C67.5308 48.8902 66.4597 47.7761 65.4919 46.575C64.5538 45.4477 63.668 44.3163 62.8185 43.1608C61.969 42.0053 61.1517 40.8699 60.3142 39.658L64.7672 36.7833C66.1724 39.0517 67.7273 41.224 69.4215 43.2856C70.2003 44.2406 71.0582 45.1281 71.9861 45.9389C72.1659 46.086 72.3556 46.2205 72.5538 46.3415C72.7028 46.4422 72.8518 46.4824 72.7471 46.4462C72.6055 46.4072 72.4573 46.399 72.3123 46.422C72.2537 46.4274 72.1957 46.4382 72.1391 46.4542H72.1069C72.0868 46.4542 72.0868 46.4542 72.0828 46.4542C72.1743 46.3944 72.2618 46.3285 72.3445 46.2569C72.712 45.9234 73.0451 45.5538 73.339 45.1538C73.6812 44.6948 74.0234 44.1794 74.3495 43.6439C75.0161 42.5306 75.6236 41.3829 76.1694 40.2056C76.733 38.9977 77.2766 37.7899 77.7798 36.5337C78.2831 35.2775 78.7622 34.0012 79.1689 32.7813L84.6646 34.8024Z" fill="#265ED7"/>
<g opacity="0.6">
<path opacity="0.6" d="M84.6646 34.8024C84.101 36.1794 83.5494 37.4597 82.9495 38.7682C82.3496 40.0767 81.7416 41.3691 81.0693 42.6535C80.3969 43.9379 79.6802 45.2142 78.8669 46.4945C78.4643 47.1306 78.0174 47.7668 77.5101 48.4069C76.9647 49.1128 76.3437 49.7568 75.658 50.3274C75.2053 50.6974 74.7058 51.0061 74.1724 51.2454C74.0033 51.3098 73.8463 51.3742 73.661 51.4306L73.3792 51.5071C73.2374 51.5419 73.0935 51.5675 72.9484 51.5836C72.4576 51.6389 71.9608 51.6034 71.4829 51.4789C70.8853 51.3117 70.3175 51.0522 69.7999 50.7099C69.4123 50.468 69.0423 50.1989 68.6927 49.9047C67.5308 48.8902 66.4597 47.7761 65.4919 46.575C64.5538 45.4477 63.668 44.3163 62.8185 43.1608C61.969 42.0053 61.1517 40.8699 60.3142 39.658L64.7672 36.7833C66.1724 39.0517 67.7273 41.224 69.4215 43.2856C70.2003 44.2406 71.0582 45.1281 71.9861 45.9389C72.1659 46.086 72.3556 46.2205 72.5538 46.3415C72.7028 46.4422 72.8518 46.4824 72.7471 46.4462C72.6055 46.4072 72.4573 46.399 72.3123 46.422C72.2537 46.4274 72.1957 46.4382 72.1391 46.4542H72.1069C72.0868 46.4542 72.0868 46.4542 72.0828 46.4542C72.1743 46.3944 72.2618 46.3285 72.3445 46.2569C72.712 45.9234 73.0451 45.5538 73.339 45.1538C73.6812 44.6948 74.0234 44.1794 74.3495 43.6439C75.0161 42.5306 75.6236 41.3829 76.1694 40.2056C76.733 38.9977 77.2766 37.7899 77.7798 36.5337C78.2831 35.2775 78.7622 34.0012 79.1689 32.7813L84.6646 34.8024Z" fill="white"/>
</g>
<path d="M95.2052 28.6222C93.6954 31.4405 88.3205 42.1784 87.6682 48.8055C85.2887 42.7662 85.8081 29.4073 85.8081 29.4073C84.1123 29.5726 82.4487 29.9793 80.868 30.6152C80.3585 30.8245 79.9169 31.1708 79.5922 31.6156C79.2674 32.0605 79.0721 32.5866 79.028 33.1356C78.5646 40.0479 78.783 46.989 79.6802 53.8584C81.3511 66.863 82.9012 87.0866 82.9012 87.0866C82.9012 87.0866 96.2078 86.531 106.475 84.3649C105.222 74.4242 100.939 57.7638 100.898 53.3028C100.85 47.5614 100.983 36.3364 101.164 31.6499C101.194 30.9883 100.987 30.3376 100.579 29.8155C100.172 29.2934 99.5908 28.9344 98.9416 28.8034C97.7099 28.5752 96.4532 28.5142 95.2052 28.6222Z" fill="#265ED7"/>
<path opacity="0.7" d="M95.2052 28.6222C93.6954 31.4405 88.3205 42.1784 87.6682 48.8055C85.2887 42.7662 85.8081 29.4073 85.8081 29.4073C84.1123 29.5726 82.4487 29.9793 80.868 30.6152C80.3585 30.8245 79.9169 31.1708 79.5922 31.6156C79.2674 32.0605 79.0721 32.5866 79.028 33.1356C78.5646 40.0479 78.783 46.989 79.6802 53.8584C81.3511 66.863 82.9012 87.0866 82.9012 87.0866C82.9012 87.0866 96.2078 86.531 106.475 84.3649C105.222 74.4242 100.939 57.7638 100.898 53.3028C100.85 47.5614 100.983 36.3324 101.164 31.6459C101.202 31.0044 101.013 30.37 100.629 29.8544C100.245 29.3389 99.6918 28.9752 99.0664 28.8275C97.7953 28.5784 96.4955 28.5093 95.2052 28.6222Z" fill="white"/>
<path d="M92.0688 84.9286C89.7578 72.1776 87.9259 53.4679 87.7769 51.2172H87.9822C88.1312 53.4679 89.9671 72.1534 92.2741 84.9044L92.0688 84.9286Z" fill="white"/>
<path d="M90.9173 62.245H78.6455C78.3977 62.2338 78.1602 62.1426 77.9685 61.9851C77.7769 61.8276 77.6415 61.6123 77.5826 61.3713L73.4799 42.2992C73.4498 42.1951 73.4449 42.0853 73.4656 41.979C73.4862 41.8726 73.5319 41.7727 73.5987 41.6874C73.6655 41.6021 73.7516 41.5338 73.85 41.4883C73.9483 41.4428 74.056 41.4213 74.1643 41.4255H86.4321C86.6806 41.4359 86.9191 41.5266 87.1115 41.6842C87.3039 41.8418 87.4399 42.0576 87.4991 42.2992L91.6018 61.3713C91.6318 61.4754 91.6367 61.5852 91.616 61.6915C91.5954 61.7979 91.5498 61.8979 91.483 61.9832C91.4161 62.0685 91.33 62.1367 91.2317 62.1822C91.1333 62.2277 91.0256 62.2492 90.9173 62.245Z" fill="white"/>
<path d="M90.5348 62.406H78.0536C77.8013 62.3943 77.5595 62.3013 77.3644 62.1409C77.1692 61.9806 77.0311 61.7615 76.9706 61.5162L72.7954 42.122C72.7655 42.0157 72.7611 41.9039 72.7827 41.7956C72.8042 41.6873 72.8511 41.5857 72.9194 41.4989C72.9877 41.4122 73.0755 41.3428 73.1757 41.2965C73.2759 41.2501 73.3856 41.2281 73.496 41.2322H85.9772C86.2295 41.244 86.4713 41.337 86.6664 41.4973C86.8616 41.6577 86.9997 41.8768 87.0602 42.122L91.2314 61.5162C91.2621 61.6222 91.2671 61.734 91.2462 61.8423C91.2252 61.9507 91.1788 62.0525 91.1108 62.1394C91.0428 62.2263 90.9551 62.2957 90.855 62.3421C90.7548 62.3885 90.6451 62.4104 90.5348 62.406Z" fill="#265ED7"/>
<path d="M91.9642 51.4628L88.86 51.3461C88.4867 51.3332 88.115 51.3991 87.7689 51.5393L86.1584 52.1835C86.0073 52.2434 85.8698 52.3331 85.7542 52.4473C85.6386 52.5615 85.5473 52.6979 85.4856 52.8483C85.424 52.9986 85.3933 53.1599 85.3954 53.3224C85.3976 53.4849 85.4325 53.6453 85.4981 53.794L86.1423 55.1871C86.2723 55.4572 86.4913 55.6744 86.7627 55.802C87.034 55.9296 87.341 55.9598 87.632 55.8876L89.4075 55.4447C89.4075 55.4447 92.7412 55.179 92.862 53.4316L91.9642 51.4628Z" fill="#FFB573"/>
<path d="M100.536 30.3495C101.305 31.5573 102.009 32.6605 102.702 33.8442C103.394 35.0279 104.075 36.1995 104.715 37.4235C105.355 38.6475 105.963 39.9117 106.515 41.2645C106.801 41.9729 107.046 42.6975 107.248 43.4346C107.507 44.3329 107.627 45.2659 107.602 46.2006V46.3576C107.603 46.3845 107.603 46.4113 107.602 46.4382C107.602 46.5831 107.562 46.728 107.533 46.873C107.505 47.0179 107.469 47.1307 107.429 47.2756C107.388 47.4205 107.344 47.497 107.3 47.6098C107.146 47.9581 106.948 48.2855 106.712 48.5841C106.383 48.9951 106.009 49.3679 105.597 49.6953C104.964 50.1942 104.29 50.6399 103.584 51.028C102.341 51.7076 101.061 52.3179 99.7508 52.8559C98.4825 53.3954 97.2183 53.8866 95.946 54.3496C94.6737 54.8126 93.4216 55.2596 92.097 55.7024L90.563 50.6294C91.7708 50.2993 93.0029 49.8926 94.2067 49.482C95.4105 49.0713 96.6224 48.6123 97.7659 48.1332C98.888 47.6696 99.9823 47.1413 101.043 46.5509C101.491 46.3027 101.918 46.0186 102.319 45.7014C102.425 45.6213 102.52 45.5279 102.601 45.4236C102.567 45.4626 102.539 45.5076 102.521 45.5564C102.521 45.5926 102.501 45.6168 102.481 45.6611C102.465 45.7084 102.453 45.7569 102.444 45.806C102.427 45.8679 102.417 45.9313 102.412 45.9953C102.412 46.0194 102.412 46.0235 102.412 46.0154V45.9872C102.384 45.6052 102.31 45.228 102.191 44.8639C102.03 44.3368 101.839 43.8193 101.619 43.3138C101.127 42.1994 100.57 41.1145 99.9521 40.0647C99.324 38.9857 98.6556 37.9066 97.939 36.8437C97.2223 35.7808 96.4895 34.7219 95.7528 33.7556L100.536 30.3495Z" fill="#265ED7"/>
<g opacity="0.7">
<path opacity="0.7" d="M100.536 30.3495C101.305 31.5573 102.009 32.6605 102.702 33.8442C103.394 35.0279 104.075 36.1995 104.715 37.4235C105.355 38.6475 105.963 39.9117 106.515 41.2645C106.801 41.9729 107.046 42.6975 107.248 43.4346C107.507 44.3329 107.627 45.2659 107.602 46.2006V46.3576C107.603 46.3845 107.603 46.4113 107.602 46.4382C107.602 46.5831 107.562 46.728 107.533 46.873C107.505 47.0179 107.469 47.1307 107.429 47.2756C107.388 47.4205 107.344 47.497 107.3 47.6098C107.146 47.9581 106.948 48.2855 106.712 48.5841C106.383 48.9951 106.009 49.3679 105.597 49.6953C104.964 50.1942 104.29 50.6399 103.584 51.028C102.341 51.7076 101.061 52.3179 99.7508 52.8559C98.4825 53.3954 97.2183 53.8866 95.946 54.3496C94.6737 54.8126 93.4216 55.2596 92.097 55.7024L90.563 50.6294C91.7708 50.2993 93.0029 49.8926 94.2067 49.482C95.4105 49.0713 96.6224 48.6123 97.7659 48.1332C98.888 47.6696 99.9823 47.1413 101.043 46.5509C101.491 46.3027 101.918 46.0186 102.319 45.7014C102.425 45.6213 102.52 45.5279 102.601 45.4236C102.567 45.4626 102.539 45.5076 102.521 45.5564C102.521 45.5926 102.501 45.6168 102.481 45.6611C102.465 45.7084 102.453 45.7569 102.444 45.806C102.427 45.8679 102.417 45.9313 102.412 45.9953C102.412 46.0194 102.412 46.0235 102.412 46.0154V45.9872C102.384 45.6052 102.31 45.228 102.191 44.8639C102.03 44.3368 101.839 43.8193 101.619 43.3138C101.127 42.1994 100.57 41.1145 99.9521 40.0647C99.324 38.9857 98.6556 37.9066 97.939 36.8437C97.2223 35.7808 96.4896 34.7219 95.7528 33.7556L100.536 30.3495Z" fill="white"/>
</g>
<path d="M96.4614 44.3204C96.4346 44.32 96.4083 44.3128 96.385 44.2994C96.3617 44.286 96.3423 44.2669 96.3285 44.2439C96.3167 44.2263 96.3086 44.2065 96.3046 44.1857C96.3007 44.1649 96.301 44.1435 96.3055 44.1228C96.31 44.1021 96.3186 44.0826 96.3309 44.0653C96.3432 44.0481 96.3588 44.0335 96.3769 44.0224L97.0049 43.6198C97.5912 43.2501 98.0514 42.7111 98.3246 42.0741C98.5978 41.4371 98.6711 40.7322 98.5349 40.0526L97.2707 33.6509C97.1781 33.1723 96.9268 32.7388 96.5574 32.4207C96.188 32.1026 95.7221 31.9184 95.235 31.8979C94.7479 31.8774 94.2681 32.0218 93.8733 32.3078C93.4785 32.5938 93.1917 33.0046 93.0593 33.4738L91.2676 39.7506C91.0719 40.4141 91.0827 41.1215 91.2984 41.7787C91.5142 42.436 91.9247 43.0121 92.4755 43.4306L93.0714 43.8815C93.1049 43.9077 93.1267 43.9462 93.132 43.9884C93.1373 44.0307 93.1256 44.0733 93.0995 44.107C93.0869 44.1234 93.0711 44.1373 93.0532 44.1476C93.0352 44.158 93.0153 44.1646 92.9947 44.1673C92.9741 44.1699 92.9532 44.1684 92.9332 44.1629C92.9132 44.1574 92.8944 44.1479 92.8781 44.1351L92.3144 43.6882C91.709 43.2323 91.2565 42.6031 91.017 41.884C90.7775 41.1649 90.7624 40.3899 90.9737 39.662L92.7694 33.3852C92.9235 32.8492 93.2533 32.3806 93.7057 32.0545C94.1581 31.7284 94.707 31.5637 95.2642 31.5869C95.8215 31.6101 96.3547 31.8199 96.7784 32.1825C97.2022 32.5451 97.4918 33.0396 97.6008 33.5865L98.8651 39.9922C99.0143 40.7346 98.9345 41.5049 98.6361 42.2009C98.3377 42.8969 97.8348 43.4858 97.1942 43.8895L96.5621 44.2922C96.5481 44.3034 96.5319 44.3117 96.5146 44.3166C96.4973 44.3214 96.4792 44.3227 96.4614 44.3204Z" fill="#263238"/>
<path d="M97.4277 33.7838L92.9063 33.5946C92.8851 33.5935 92.8644 33.5883 92.8452 33.5793C92.8261 33.5702 92.8089 33.5575 92.7947 33.5418C92.7805 33.526 92.7695 33.5077 92.7624 33.4877C92.7553 33.4678 92.7522 33.4466 92.7533 33.4255C92.7573 33.3835 92.7769 33.3445 92.8081 33.3162C92.8394 33.2879 92.8802 33.2723 92.9224 33.2725L97.4398 33.4617C97.4609 33.4627 97.4817 33.4679 97.5008 33.477C97.52 33.486 97.5371 33.4988 97.5513 33.5145C97.5656 33.5302 97.5765 33.5486 97.5836 33.5685C97.5907 33.5885 97.5938 33.6096 97.5928 33.6308C97.5922 33.6518 97.5875 33.6724 97.5789 33.6916C97.5703 33.7107 97.5579 33.7279 97.5425 33.7421C97.5271 33.7564 97.509 33.7674 97.4893 33.7746C97.4696 33.7817 97.4486 33.7849 97.4277 33.7838Z" fill="#263238"/>
<path d="M95.2294 31.9076C95.1877 31.9066 95.1479 31.8899 95.118 31.8607C95.0881 31.8316 95.0704 31.7922 95.0683 31.7506C95.0683 30.9453 94.8187 29.5482 94.0658 29.2422C94.045 29.2352 94.0258 29.2241 94.0094 29.2094C93.9931 29.1947 93.9799 29.1768 93.9707 29.1568C93.9616 29.1369 93.9566 29.1152 93.9561 29.0932C93.9556 29.0713 93.9596 29.0494 93.9678 29.0291C93.9761 29.0087 93.9884 28.9902 94.0041 28.9748C94.0197 28.9594 94.0384 28.9473 94.0589 28.9394C94.0794 28.9314 94.1013 28.9278 94.1233 28.9286C94.1452 28.9295 94.1668 28.9348 94.1866 28.9443C95.3019 29.4033 95.3945 31.505 95.3945 31.7626C95.3945 31.8051 95.3782 31.8459 95.349 31.8766C95.3198 31.9073 95.2798 31.9256 95.2374 31.9277L95.2294 31.9076Z" fill="#263238"/>
<path d="M81.3994 37.3792H81.3672C81.3256 37.3705 81.2892 37.3457 81.2658 37.3103C81.2425 37.2748 81.234 37.2316 81.2424 37.19C81.7738 34.5448 83.9721 30.3696 85.9087 29.1376C85.9264 29.1266 85.9461 29.1192 85.9666 29.1159C85.9872 29.1126 86.0082 29.1134 86.0284 29.1183C86.0486 29.1231 86.0677 29.132 86.0845 29.1443C86.1012 29.1566 86.1154 29.1721 86.1261 29.1899C86.1379 29.2072 86.1459 29.2266 86.1498 29.2471C86.1538 29.2676 86.1534 29.2887 86.1489 29.3091C86.1444 29.3294 86.1358 29.3486 86.1235 29.3655C86.1113 29.3824 86.0957 29.3967 86.0778 29.4073C84.2056 30.591 82.0718 34.6414 81.5564 37.2463C81.5498 37.2833 81.5305 37.3168 81.5019 37.3411C81.4732 37.3654 81.4369 37.3788 81.3994 37.3792Z" fill="#263238"/>
<path d="M82.72 37.7939C82.4704 38.4341 81.9147 38.8206 81.5121 38.6555C81.1095 38.4904 80.9525 37.8503 81.2021 37.194C81.4517 36.5377 82.0073 36.1673 82.41 36.3364C82.8126 36.5055 82.9736 37.1537 82.72 37.7939Z" fill="white"/>
<path d="M93.3491 44.0305C93.3491 44.3284 93.1639 44.566 92.9666 44.5579C92.7694 44.5499 92.6164 44.3002 92.6284 43.9983C92.6405 43.6963 92.8136 43.4588 93.0109 43.4708C93.2082 43.4829 93.3612 43.7285 93.3491 44.0305Z" fill="white"/>
<path d="M96.8197 44.1754C96.8197 44.4734 96.6385 44.7109 96.4372 44.7028C96.2359 44.6948 96.091 44.4452 96.1031 44.1432C96.1151 43.8412 96.2842 43.6077 96.5057 43.6158C96.7271 43.6238 96.8318 43.8855 96.8197 44.1754Z" fill="white"/>
<path d="M165.096 38.5911L164.693 38.567C164.76 37.7098 164.649 36.848 164.365 36.0364C164.081 35.2247 163.632 34.4809 163.045 33.8521C162.459 33.2233 161.748 32.7233 160.958 32.3837C160.168 32.0441 159.317 31.8724 158.457 31.8795V31.4768C159.372 31.4691 160.278 31.6515 161.119 32.0126C161.96 32.3737 162.716 32.9056 163.34 33.5745C163.965 34.2434 164.443 35.0348 164.745 35.8984C165.047 36.762 165.167 37.6789 165.096 38.5911V38.5911Z" fill="#265ED7"/>
<path d="M165.308 40.2792L165.075 43.6129L165.478 43.6411L165.711 40.3074L165.308 40.2792Z" fill="#265ED7"/>
<path d="M158.457 32.886H130.676C129.159 32.911 127.705 33.4993 126.598 34.5367C125.491 35.5741 124.809 36.9863 124.685 38.4985L124.431 42.2389C124.374 42.9586 124.467 43.6824 124.704 44.3642C124.942 45.046 125.319 45.6708 125.811 46.1989C126.304 46.7269 126.901 47.1465 127.564 47.4311C128.228 47.7156 128.944 47.8587 129.666 47.8514H157.446L162.833 51.173L163.687 38.4985C163.745 37.7791 163.653 37.0553 163.416 36.3735C163.179 35.6917 162.802 35.0668 162.31 34.5387C161.818 34.0106 161.221 33.5909 160.558 33.3064C159.894 33.0218 159.179 32.8786 158.457 32.886V32.886Z" fill="#265ED7"/>
<path d="M157.048 38.2449H131.316V39.179H157.048V38.2449Z" fill="white"/>
<path d="M156.822 41.5585H137.718V42.4925H156.822V41.5585Z" fill="white"/>
<path d="M116.665 52.8962H145.058C145.796 52.8882 146.528 53.0342 147.206 53.3249C147.885 53.6156 148.495 54.0446 148.999 54.5844C149.502 55.1243 149.888 55.7632 150.13 56.4604C150.373 57.1576 150.468 57.8977 150.409 58.6335L150.151 62.4584C150.023 64.0039 149.326 65.4468 148.194 66.507C147.063 67.5672 145.577 68.1691 144.027 68.1958H115.63L109.663 71.5979L110.541 58.6335C110.668 57.0878 111.365 55.6444 112.497 54.584C113.628 53.5236 115.114 52.922 116.665 52.8962Z" fill="white"/>
<path opacity="0.15" d="M116.665 52.8962H145.058C145.796 52.8882 146.528 53.0342 147.206 53.3249C147.885 53.6156 148.495 54.0446 148.999 54.5844C149.502 55.1243 149.888 55.7632 150.13 56.4604C150.373 57.1576 150.468 57.8977 150.409 58.6335L150.151 62.4584C150.023 64.0039 149.326 65.4468 148.194 66.507C147.063 67.5672 145.577 68.1691 144.027 68.1958H115.63L109.663 71.5979L110.541 58.6335C110.668 57.0878 111.365 55.6444 112.497 54.584C113.628 53.5236 115.114 52.922 116.665 52.8962V52.8962Z" fill="#265ED7"/>
<path opacity="0.5" d="M143.616 58.3759H117.301V59.3341H143.616V58.3759Z" fill="#265ED7"/>
<path opacity="0.5" d="M127.471 61.7619H117.072V62.7201H127.471V61.7619Z" fill="#265ED7"/>
<path opacity="0.5" d="M136.663 61.7619H130.02V62.7201H136.663V61.7619Z" fill="#265ED7"/>
</svg>
