<svg width="233" height="150" viewBox="0 0 233 150" fill="none" xmlns="http://www.w3.org/2000/svg">
<path d="M213.969 36.4927C210.791 36.4934 207.683 35.5513 205.04 33.7857C202.396 32.0201 200.336 29.5102 199.119 26.5735C197.902 23.6368 197.584 20.4053 198.204 17.2875C198.824 14.1697 200.354 11.3059 202.602 9.05811C204.85 6.81035 207.714 5.27968 210.831 4.6597C213.949 4.03972 217.181 4.35828 220.117 5.57508C223.054 6.79189 225.564 8.85227 227.33 11.4956C229.095 14.139 230.037 17.2466 230.037 20.4254C230.031 24.685 228.336 28.7685 225.324 31.7804C222.312 34.7924 218.229 36.487 213.969 36.4927ZM213.969 5.06971C210.932 5.069 207.963 5.969 205.437 7.65588C202.911 9.34276 200.943 11.7408 199.78 14.5466C198.617 17.3524 198.313 20.4401 198.905 23.419C199.497 26.398 200.959 29.1344 203.106 31.2823C205.254 33.4302 207.99 34.8931 210.969 35.4859C213.948 36.0787 217.035 35.7748 219.841 34.6126C222.647 33.4505 225.046 31.4823 226.733 28.957C228.421 26.4317 229.321 23.4627 229.321 20.4254C229.317 16.3549 227.698 12.4524 224.82 9.57379C221.942 6.69515 218.04 5.07539 213.969 5.06971Z" fill="#EBEBEB"/>
<path d="M213.168 38.7665C212.922 38.7665 212.679 38.7415 212.453 38.7201L212.511 38.005C212.743 38.0229 212.979 38.0372 213.226 38.0479L213.168 38.7665ZM215.725 38.7022L215.66 37.9871C215.893 37.9621 216.125 37.9371 216.358 37.9049L216.454 38.62C216.204 38.6521 215.964 38.6772 215.718 38.7022H215.725ZM209.908 38.3447C209.668 38.291 209.432 38.2338 209.193 38.1695L209.379 37.4795C209.604 37.5402 209.833 37.5974 210.062 37.6475L209.908 38.3447ZM218.96 38.1123L218.767 37.4258C218.993 37.3615 219.218 37.2935 219.439 37.222L219.661 37.9013C219.422 37.9621 219.189 38.0336 218.953 38.098L218.96 38.1123ZM206.776 37.3329C206.551 37.2363 206.325 37.1362 206.107 37.0325L206.411 36.3854C206.626 36.4855 206.84 36.5821 207.055 36.675L206.776 37.3329ZM222.035 36.9396L221.72 36.296C221.931 36.1924 222.139 36.0851 222.346 35.9743L222.704 36.6035C222.464 36.7072 222.246 36.818 222.028 36.9253L222.035 36.9396ZM203.873 35.7598C203.669 35.6239 203.469 35.4845 203.269 35.345L203.687 34.7623C203.876 34.8981 204.069 35.034 204.266 35.1627L203.873 35.7598ZM224.842 35.2199L224.42 34.6443C224.606 34.5036 224.792 34.3606 224.978 34.2152L225.421 34.7766C225.228 34.9267 225.035 35.0769 224.838 35.2199H224.842ZM201.299 33.7076C201.123 33.5395 200.941 33.3679 200.78 33.1927L201.291 32.6958C201.456 32.8638 201.624 33.0283 201.792 33.1927L201.299 33.7076ZM227.305 33.0426L226.787 32.5527C226.948 32.3811 227.105 32.1952 227.262 32.0308L227.798 32.5027C227.634 32.685 227.47 32.8674 227.301 33.0426H227.305ZM199.132 31.2335C198.989 31.0368 198.846 30.8402 198.71 30.6364L199.304 30.236C199.436 30.4326 199.572 30.6257 199.708 30.8152L199.132 31.2335ZM229.347 30.4612L228.749 30.0715C228.878 29.8749 229 29.6747 229.107 29.4744L229.722 29.832C229.615 30.0501 229.475 30.2574 229.343 30.4612H229.347ZM197.437 28.4162C197.334 28.1981 197.23 27.9764 197.133 27.7547L197.795 27.4616C197.888 27.6761 197.988 27.887 198.088 28.098L197.437 28.4162ZM230.895 27.5545L230.237 27.2792C230.326 27.0611 230.412 26.8431 230.494 26.6214L231.166 26.8752C231.077 27.104 230.984 27.3329 230.891 27.5545H230.895ZM196.275 25.3414C196.211 25.1055 196.15 24.8695 196.097 24.6264L196.79 24.4655C196.844 24.6943 196.905 24.9196 196.965 25.1448L196.275 25.3414ZM231.896 24.419L231.181 24.2617C231.231 24.0329 231.277 23.8041 231.316 23.5717L232.032 23.7004C231.992 23.9399 231.946 24.1795 231.892 24.419H231.896ZM195.685 22.0987C195.66 21.8591 195.646 21.616 195.632 21.3836L196.347 21.3479C196.347 21.5838 196.375 21.8162 196.397 22.0629L195.685 22.0987ZM232.314 21.1512L231.599 21.1226C231.599 20.8902 231.599 20.6579 231.599 20.4076V20.3325H232.314V20.4004C232.328 20.6686 232.321 20.9117 232.314 21.1548V21.1512ZM196.39 18.881L195.675 18.8166C195.696 18.5735 195.721 18.3304 195.75 18.1015L196.465 18.1909C196.436 18.409 196.411 18.6414 196.39 18.881ZM231.427 17.9013C231.395 17.6689 231.359 17.4365 231.316 17.2077L232.032 17.079C232.078 17.3186 232.117 17.5581 232.153 17.7941L231.427 17.9013ZM196.94 15.7562L196.25 15.5703C196.315 15.3343 196.386 15.0983 196.458 14.8552L197.141 15.0733C197.08 15.3057 197.005 15.5381 196.944 15.7633L196.94 15.7562ZM230.702 14.8159C230.626 14.5906 230.548 14.3725 230.466 14.1545L231.134 13.9006C231.22 14.1247 231.302 14.3535 231.381 14.5871L230.702 14.8159ZM198.049 12.803L197.405 12.4955C197.512 12.2739 197.62 12.0558 197.734 11.8413L198.367 12.1773C198.256 12.3811 198.152 12.5885 198.049 12.803ZM229.436 11.9306C229.322 11.7269 229.207 11.5231 229.078 11.3229L229.69 10.9653C229.816 11.1727 229.935 11.3836 230.047 11.5981L229.436 11.9306ZM199.668 10.0858L199.089 9.66751C199.232 9.47087 199.379 9.27423 199.532 9.08474L200.094 9.5245C199.94 9.70684 199.808 9.89275 199.668 10.0822V10.0858ZM227.67 9.31356C227.523 9.13122 227.373 8.95603 227.216 8.77369L227.752 8.30176C227.913 8.4841 228.07 8.65929 228.227 8.8595L227.67 9.31356ZM201.746 7.70112L201.249 7.18628C201.427 7.01824 201.606 6.8502 201.788 6.68932L202.26 7.22561C202.085 7.37577 201.914 7.53665 201.746 7.69754V7.70112ZM225.467 7.04327L224.924 6.59636L225.367 6.03504C225.56 6.18878 225.746 6.34252 225.932 6.5034L225.467 7.04327ZM204.23 5.72042L203.833 5.12335C204.037 4.99107 204.241 4.85878 204.452 4.73007L204.81 5.34144C204.588 5.463 204.406 5.59171 204.23 5.72042ZM222.911 5.20201C222.711 5.08045 222.507 4.96604 222.3 4.84448L222.636 4.21524C222.85 4.32965 223.065 4.45121 223.276 4.57277L222.911 5.20201ZM206.987 4.22239L206.704 3.56454C206.93 3.46801 207.155 3.37505 207.38 3.28925L207.638 3.95424C207.419 4.0329 207.201 4.12228 206.987 4.22239ZM220.033 3.86486C219.815 3.78263 219.59 3.70755 219.368 3.63605L219.586 2.95317C219.818 3.02825 220.051 3.10691 220.28 3.19271L220.033 3.86486ZM209.99 3.24277L209.829 2.54559C210.068 2.49077 210.306 2.44072 210.544 2.39543L210.673 3.11048C210.448 3.12836 210.219 3.17841 209.99 3.22847V3.24277ZM216.976 3.0497C216.747 3.01038 216.515 2.97462 216.283 2.94244L216.375 2.22739C216.619 2.25957 216.858 2.29532 217.091 2.33823L216.976 3.0497ZM213.122 2.79228L213.09 2.07723C213.333 2.07723 213.576 2.05936 213.805 2.05936V2.77441C213.59 2.79228 213.354 2.79228 213.122 2.79228Z" fill="#EBEBEB"/>
<path d="M211.502 30.3611H216.454V22.8924H223.926V17.9406H216.454V10.4719H211.502V17.9406H204.034V22.8924H211.502V30.3611Z" fill="#EBEBEB"/>
<path d="M28.5743 78.7737C25.8988 82.3557 22.4848 85.321 18.5636 87.4688C14.643 85.32 11.2292 82.3549 8.55285 78.7737C5.02764 74.1044 5.19925 66.793 10.2475 65.2128C15.8142 63.4645 18.5528 71.8663 18.5528 71.8663C18.5528 71.8663 21.3344 63.4108 26.8796 65.2128C31.9029 66.8502 32.1031 74.1044 28.5743 78.7737Z" fill="#EBEBEB"/>
<path d="M14.6129 83.7791L13.0934 77.4473L12.0995 79.6783H5.95361V78.9632H11.6347L13.2972 75.2271L14.4806 80.1681L16.161 69.9321L17.6411 78.0301L18.8102 74.6479L20.6551 80.1824L21.0627 78.9596H31.1592V79.6747H21.5775L20.6551 82.4384L18.7959 76.8717L17.4266 80.8331L16.1967 74.1187L14.6129 83.7791Z" fill="white"/>
<path d="M18.5671 90.4755C15.3885 90.4763 12.281 89.5343 9.63768 87.7689C6.99439 86.0034 4.934 83.4937 3.71709 80.5573C2.50018 77.6208 2.18141 74.3894 2.8011 71.2717C3.4208 68.154 4.95111 65.2902 7.19851 63.0423C9.4459 60.7944 12.3094 59.2634 15.427 58.643C18.5445 58.0226 21.776 58.3407 24.7127 59.5569C27.6495 60.7732 30.1596 62.833 31.9257 65.4759C33.6917 68.1188 34.6343 71.2261 34.6343 74.4047C34.6296 78.6649 32.9354 82.7493 29.9233 85.762C26.9113 88.7748 22.8273 90.4699 18.5671 90.4755ZM18.5671 59.0526C15.5297 59.0519 12.5604 59.952 10.0346 61.639C7.50879 63.326 5.54005 65.7242 4.37737 68.5303C3.21468 71.3363 2.91029 74.4242 3.50268 77.4032C4.09507 80.3823 5.55763 83.1187 7.70539 85.2665C9.85314 87.4142 12.5896 88.8768 15.5687 89.4692C18.5477 90.0616 21.6355 89.7572 24.4416 88.5945C27.2476 87.4318 29.6458 85.4631 31.3329 82.9373C33.0199 80.4115 33.92 77.4421 33.9193 74.4047C33.9136 70.3348 32.2943 66.4333 29.4165 63.5554C26.5386 60.6775 22.637 59.0583 18.5671 59.0526Z" fill="#EBEBEB"/>
<path d="M17.7591 92.7494L17.0441 92.7029L17.1013 91.9879C17.3372 92.0093 17.5696 92.0236 17.8163 92.0343L17.7591 92.7494ZM20.319 92.6815L20.2511 91.9664C20.4835 91.945 20.7194 91.9163 20.9661 91.8877L21.0591 92.6028C20.8195 92.6314 20.5621 92.66 20.319 92.6815ZM14.4985 92.3239C14.2625 92.2703 14.023 92.2095 13.7834 92.1487L13.9658 91.4587L14.6522 91.6267L14.4985 92.3239ZM23.551 92.0915L23.358 91.4015C23.5868 91.3372 23.8085 91.2692 24.0301 91.1977L24.2554 91.877C24.0373 91.9414 23.787 92.0129 23.551 92.0808V92.0915ZM11.3665 91.3121C11.1413 91.2156 10.9196 91.1155 10.698 91.0082L11.0054 90.3647C11.2176 90.4648 11.4321 90.5613 11.649 90.6543L11.3665 91.3121ZM26.6258 90.9153L26.3111 90.2753C26.5221 90.1716 26.7294 90.0644 26.9368 89.9535L27.2943 90.5828C27.0619 90.6865 26.8438 90.7973 26.6258 90.9045V90.9153ZM8.46701 89.7497C8.26322 89.6175 8.06301 89.478 7.86279 89.335L8.2811 88.7558C8.47059 88.8917 8.66723 89.024 8.86029 89.1527L8.46701 89.7497ZM29.4359 89.2134L29.014 88.6378C29.2023 88.4996 29.3882 88.3566 29.5718 88.2088L30.0187 88.7665C29.8292 88.9095 29.6325 89.0561 29.4359 89.2027V89.2134ZM5.89283 87.7011C5.71764 87.5331 5.5353 87.3615 5.37441 87.1863L5.88925 86.6893C6.05014 86.8574 6.21817 87.0218 6.38621 87.1827L5.89283 87.7011ZM31.9028 87.0254L31.3844 86.532C31.5453 86.3604 31.7026 86.1745 31.8564 86.0136L32.3962 86.4819C32.2353 86.6679 32.0709 86.8466 31.9028 87.0254ZM3.72622 85.2163C3.58321 85.0197 3.44377 84.8195 3.30791 84.6192L3.90141 84.2188C4.03012 84.4154 4.16598 84.6049 4.30541 84.7944L3.72622 85.2163ZM33.9407 84.4441L33.3437 84.0508C33.4724 83.8541 33.5975 83.6575 33.7191 83.4537L34.3304 83.8112C34.2053 84.0329 34.0766 84.2367 33.9407 84.4441ZM2.03512 82.399C1.92786 82.1809 1.82418 81.9592 1.72765 81.734L2.3855 81.448C2.47845 81.6625 2.57498 81.877 2.67867 82.088L2.03512 82.399ZM35.4781 81.5374L34.8202 81.2585C34.9096 81.044 34.999 80.8259 35.0812 80.6042L35.7498 80.8545C35.6747 81.0905 35.5854 81.3121 35.4781 81.5374ZM0.862435 79.3207C0.798081 79.0823 0.737301 78.844 0.680096 78.6056L1.37727 78.4412C1.4309 78.67 1.48811 78.8988 1.55246 79.1241L0.862435 79.3207ZM36.4792 78.3983L35.7641 78.2446C35.8142 78.0157 35.8606 77.7869 35.9036 77.5545L36.6186 77.6832C36.59 77.9228 36.5507 78.1623 36.4899 78.3983H36.4792ZM0.283244 76.0851C0.261792 75.8467 0.243915 75.6084 0.229614 75.37L0.944666 75.3343C0.944666 75.5667 0.973268 75.8026 0.99472 76.0493L0.283244 76.0851ZM36.9082 75.1377L36.1931 75.109C36.1931 74.8767 36.1931 74.6407 36.1931 74.394V74.3189H36.9082V74.3904C36.9261 74.655 36.9082 74.8945 36.9082 75.1377ZM0.987569 72.8674L0.272517 72.803C0.293969 72.5599 0.318996 72.3168 0.351173 72.088L1.06623 72.1773C1.03405 72.3919 1.00902 72.6242 0.987569 72.8674ZM36.0251 71.8877C35.9929 71.6518 35.9536 71.423 35.9107 71.1727L36.6258 71.044C36.6687 71.2835 36.708 71.5231 36.7437 71.759L36.0251 71.8877ZM1.53816 69.7426L0.848134 69.5531C0.912489 69.3171 0.980419 69.0847 1.0555 68.838L1.7348 69.0526C1.67044 69.2921 1.60609 69.5209 1.54531 69.7462L1.53816 69.7426ZM35.2958 68.7987C35.2207 68.577 35.142 68.3554 35.0598 68.1373L35.7284 67.8834C35.8142 68.1123 35.8964 68.3411 35.9751 68.5735L35.2958 68.7987ZM2.65007 66.7894L2.00294 66.4819C2.1102 66.2603 2.22103 66.0422 2.33544 65.8241L2.96469 66.1602C2.85743 66.3604 2.75017 66.5713 2.65007 66.7894ZM34.048 65.9099C33.9372 65.7025 33.8192 65.5023 33.6905 65.3021L34.3018 64.9446C34.4305 65.1555 34.5521 65.3665 34.6594 65.5774L34.048 65.9099ZM4.26608 64.0651L3.68689 63.6468C3.83348 63.4466 3.98006 63.2535 4.13022 63.0604L4.69154 63.5038C4.54495 63.6861 4.40552 63.8756 4.26608 64.0651ZM32.2604 63.2892C32.1102 63.1069 31.96 62.9317 31.8063 62.753L32.3426 62.281C32.5047 62.4645 32.662 62.6505 32.8145 62.8388L32.2604 63.2892ZM6.33258 61.6804L5.8392 61.162C6.01558 60.9951 6.19434 60.8307 6.37548 60.6686L6.87602 61.2013C6.68653 61.3586 6.5185 61.5159 6.34331 61.6804H6.33258ZM30.0544 61.0225C29.8757 60.8688 29.6969 60.7186 29.511 60.572L29.9579 60.0143C30.1474 60.1645 30.3369 60.3218 30.5228 60.4791L30.0544 61.0225ZM8.79951 59.6997L8.40266 59.1062C8.60645 58.9703 8.81024 58.8416 9.02118 58.7129L9.3787 59.3243C9.20352 59.4458 9.02118 59.571 8.81024 59.6997H8.79951ZM27.4838 59.1813C27.28 59.0633 27.0762 58.9489 26.8689 58.8237L27.2049 58.1909C27.4195 58.3089 27.634 58.4269 27.8449 58.5484L27.4838 59.1813ZM11.5882 58.2088L11.3022 57.551L11.9779 57.2757L12.2353 57.9442C12.0172 58.0122 11.8027 58.1015 11.5882 58.2088ZM24.6308 57.8513C24.4127 57.7726 24.191 57.694 23.9658 57.6225L24.1839 56.9432C24.4162 57.0182 24.6486 57.0969 24.8775 57.1791L24.6308 57.8513ZM14.5879 57.2328L14.427 56.5177L15.142 56.3675L15.2743 57.0826C15.0455 57.1112 14.8167 57.1577 14.5879 57.2113V57.2328ZM21.5775 57.0361C21.3451 56.9968 21.1127 56.9646 20.8624 56.9324L20.9554 56.2174C21.1985 56.2496 21.4381 56.2853 21.6704 56.3246L21.5775 57.0361ZM17.7198 56.7787L17.6876 56.0636C17.9307 56.0636 18.1738 56.0636 18.4205 56.0422V56.7572C18.1881 56.7787 17.9593 56.7787 17.7198 56.7787Z" fill="#EBEBEB"/>
<path d="M206.129 98.7165C205.952 94.2497 206.013 89.7767 206.311 85.3164C206.972 76.1191 208.376 66.9903 210.509 58.0193C211.681 52.9675 213.122 48.0086 214.624 43.039C214.67 42.8888 214.906 42.9317 214.867 43.089C210.219 60.5756 206.411 78.6235 206.672 96.8037C206.747 101.891 207.337 106.89 207.82 111.945C207.82 112.081 207.609 112.134 207.577 111.995C206.619 107.669 206.308 103.136 206.129 98.7165Z" fill="#EBEBEB"/>
<path d="M214.867 43.089C214.867 43.089 221.903 60.9475 220.319 65.1448C218.735 69.3422 215.496 70.2396 215.496 70.2396C215.496 70.2396 219.786 76.3854 216.794 82.1487C213.801 87.9121 207.101 87.6403 206.658 94.1759C206.665 94.1759 206.293 66.8466 214.867 43.089Z" fill="#EBEBEB"/>
<path d="M207.448 82.8781C207.436 82.8484 207.436 82.8149 207.448 82.7851C208.435 70.6293 210.591 58.5342 214.273 46.8574C214.273 46.8498 214.276 46.8425 214.282 46.8371C214.287 46.8318 214.294 46.8288 214.302 46.8288C214.309 46.8288 214.317 46.8318 214.322 46.8371C214.327 46.8425 214.33 46.8498 214.33 46.8574C212.936 52.0796 211.704 57.3317 210.634 62.6135C211.579 61.7174 212.735 61.0732 213.994 60.7401C213.999 60.7401 214.004 60.742 214.007 60.7453C214.01 60.7487 214.012 60.7532 214.012 60.758C214.012 60.7627 214.01 60.7673 214.007 60.7706C214.004 60.774 213.999 60.7759 213.994 60.7759C212.693 61.3372 211.449 61.9914 210.526 63.0926C210.323 64.1294 210.122 65.1627 209.929 66.1995C211.502 64.4441 213.683 63.5717 215.864 62.7422C215.896 62.7422 215.911 62.778 215.882 62.7923C213.608 63.7147 211.345 64.9089 209.804 66.8645C209.266 69.8296 208.789 72.809 208.374 75.8027C209.512 74.6122 210.969 73.7765 212.571 73.3965C212.622 73.3965 212.647 73.4573 212.596 73.4716C210.945 73.9498 209.467 74.896 208.342 76.1959C208.342 76.1959 208.342 76.1959 208.317 76.2174C208.174 77.2685 208.042 78.3161 207.92 79.3708C208.798 78.6217 209.79 78.0182 210.859 77.5832C210.887 77.5832 210.902 77.6153 210.859 77.6261C209.769 78.0963 208.772 78.7561 207.913 79.5746C207.913 79.5746 207.888 79.5746 207.874 79.5924C207.756 80.5899 207.641 81.591 207.537 82.5921C209.124 80.6786 211.182 79.2111 213.508 78.334C213.555 78.3161 213.576 78.384 213.533 78.4055C211.236 79.4163 209.217 80.9695 207.652 82.9317C207.634 82.9537 207.611 82.9699 207.584 82.9782C207.557 82.9864 207.529 82.9865 207.502 82.9782C207.352 84.5108 207.218 86.0494 207.101 87.5939C207.101 87.6153 207.066 87.6189 207.066 87.5939C207.18 86.0351 207.307 84.4631 207.448 82.8781Z" fill="#A6A6A6"/>
<path d="M213.083 58.9954C214.302 58.1552 215.854 57.7976 217.309 57.6761C217.313 57.6745 217.318 57.6739 217.322 57.6745C217.327 57.6751 217.331 57.6768 217.335 57.6794C217.339 57.6821 217.342 57.6856 217.344 57.6897C217.346 57.6937 217.347 57.6983 217.347 57.7029C217.347 57.7075 217.346 57.7121 217.344 57.7162C217.342 57.7202 217.339 57.7238 217.335 57.7264C217.331 57.729 217.327 57.7307 217.322 57.7313C217.318 57.7319 217.313 57.7313 217.309 57.7297C215.796 57.955 214.524 58.502 213.129 59.0955C213.117 59.0976 213.104 59.0955 213.093 59.0897C213.082 59.0839 213.073 59.0745 213.068 59.0632C213.062 59.0518 213.061 59.039 213.064 59.0267C213.066 59.0145 213.073 59.0035 213.083 58.9954Z" fill="#A6A6A6"/>
<path d="M212.228 77.9013C213.208 77.3445 214.286 76.9805 215.403 76.8288C215.439 76.8288 215.442 76.8824 215.403 76.886C214.31 77.1045 213.254 77.4752 212.264 77.9872C212.225 77.9979 212.185 77.9264 212.228 77.9013Z" fill="#A6A6A6"/>
<path d="M187.63 65.4344C190.607 67.4918 193.339 69.8812 195.775 72.5563C198.291 75.384 200.234 78.6733 201.495 82.2417C204.163 89.679 205.598 97.5022 205.743 105.402C205.83 109.779 205.409 114.151 204.488 118.43C204.478 118.459 204.458 118.483 204.432 118.498C204.406 118.513 204.376 118.518 204.346 118.512C204.317 118.506 204.29 118.49 204.272 118.467C204.253 118.443 204.243 118.414 204.245 118.384C205.393 110.834 205.349 103.15 204.116 95.6132C202.908 88.241 201.013 80.1895 196.311 74.1867C193.755 70.9153 190.566 68.3447 187.416 65.6847C187.248 65.5453 187.462 65.3164 187.63 65.4344Z" fill="#EBEBEB"/>
<path d="M204.706 100.086C203.012 97.3466 201.022 94.8023 198.771 92.4991C195.249 88.9775 192.285 86.4784 191.828 84.1509C191.37 81.8234 195.353 80.1108 195.353 80.1108C195.353 80.1108 190.483 80.9832 189.15 78.9382C187.816 76.8931 187.173 65.0554 187.173 65.0554C187.173 65.0554 196.036 71.3836 200.165 80.2503C204.295 89.1169 204.706 100.086 204.706 100.086Z" fill="#EBEBEB"/>
<path d="M190.34 76.1602C190.923 76.0775 191.513 76.0571 192.099 76.0994C192.171 76.0994 192.167 76.2245 192.099 76.2245C191.513 76.2424 190.93 76.1995 190.348 76.2245C190.287 76.2353 190.287 76.1673 190.34 76.1602Z" fill="#A6A6A6"/>
<path d="M196.722 87.6475C197.658 87.6693 198.582 87.8544 199.454 88.1945C199.475 88.1945 199.454 88.241 199.454 88.2338C198.549 88.0193 197.638 87.9335 196.726 87.7834C196.637 87.7691 196.64 87.6475 196.722 87.6475Z" fill="#A6A6A6"/>
<path d="M198.628 83.679C199.017 83.6759 199.404 83.7106 199.786 83.7827C199.826 83.7827 199.826 83.8542 199.786 83.8542C199.398 83.8739 199.009 83.8559 198.624 83.8005C198.616 83.8003 198.609 83.7985 198.601 83.7952C198.594 83.792 198.587 83.7873 198.582 83.7815C198.571 83.7697 198.565 83.7541 198.565 83.738C198.566 83.7219 198.573 83.7066 198.584 83.6955C198.596 83.6845 198.612 83.6785 198.628 83.679Z" fill="#A6A6A6"/>
<path d="M230.687 78.0015C227.808 78.9795 225.05 80.2809 222.464 81.8806C219.777 83.589 217.447 85.8025 215.603 88.3983C211.721 93.7991 208.748 99.7991 206.805 106.16C205.722 109.682 205.053 113.317 204.81 116.993C204.807 117.021 204.815 117.048 204.832 117.07C204.85 117.091 204.875 117.105 204.902 117.108C204.93 117.11 204.957 117.102 204.979 117.085C205 117.067 205.014 117.042 205.017 117.015C205.832 110.638 207.641 104.429 210.38 98.6128C213.068 92.9139 216.458 86.8502 221.649 83.0747C224.473 81.019 227.648 79.6747 230.816 78.2517C230.966 78.1766 230.848 77.9443 230.687 78.0015Z" fill="#EBEBEB"/>
<path d="M208.857 102.095C210.86 100.269 213.059 98.6696 215.414 97.3257C219.075 95.2914 222.053 93.9543 222.961 92.1774C223.869 90.4005 221.034 88.0908 221.034 88.0908C221.034 88.0908 224.774 89.9249 226.325 88.5771C227.877 87.2292 231.134 77.7977 231.134 77.7977C231.134 77.7977 222.5 80.8724 217.108 87.0933C211.717 93.3143 208.857 102.095 208.857 102.095Z" fill="#EBEBEB"/>
<path d="M209.304 100.15C213.623 92.0451 219.386 84.7122 227.28 79.8749C225.218 81.2006 223.284 82.7146 221.502 84.3976C223.111 84.3086 224.714 84.6466 226.15 85.3772C226.153 85.3786 226.156 85.3806 226.158 85.3831C226.161 85.3856 226.162 85.3885 226.164 85.3916C226.165 85.3948 226.165 85.3981 226.165 85.4015C226.165 85.4048 226.164 85.4081 226.163 85.4112C226.161 85.4142 226.159 85.417 226.157 85.4193C226.154 85.4216 226.152 85.4233 226.148 85.4245C226.145 85.4256 226.142 85.4262 226.138 85.426C226.135 85.4259 226.132 85.4251 226.129 85.4237C224.603 84.8529 222.981 84.5798 221.352 84.6193C221.332 84.6188 221.313 84.6112 221.299 84.5978C221.016 84.8624 220.741 85.1341 220.466 85.4058C221.3 85.4451 222.13 85.5552 222.947 85.7348C222.952 85.7348 222.956 85.7366 222.959 85.74C222.963 85.7433 222.965 85.7479 222.965 85.7526C222.965 85.7574 222.963 85.7619 222.959 85.7653C222.956 85.7686 222.952 85.7705 222.947 85.7705C222.083 85.6069 221.205 85.5338 220.326 85.5524C218.884 87.0174 217.524 88.562 216.254 90.1788C216.834 90.0963 217.425 90.139 217.988 90.3039C217.996 90.3039 218.005 90.3073 218.011 90.3134C218.017 90.3194 218.02 90.3276 218.02 90.3361C218.02 90.3446 218.017 90.3528 218.011 90.3589C218.005 90.3649 217.996 90.3683 217.988 90.3683C217.373 90.2992 216.753 90.2909 216.136 90.3433C215.9 90.6436 215.66 90.9439 215.421 91.2478C217.184 91.1403 218.953 91.3128 220.662 91.7591C220.687 91.7591 220.68 91.802 220.662 91.7984C218.897 91.4508 217.095 91.3306 215.299 91.4409C215.078 91.734 214.87 92.0344 214.652 92.3275C215.704 92.3016 216.755 92.4219 217.773 92.6851C217.782 92.6851 217.79 92.6885 217.796 92.6945C217.802 92.7005 217.806 92.7087 217.806 92.7172C217.806 92.7258 217.802 92.734 217.796 92.74C217.79 92.746 217.782 92.7494 217.773 92.7494C216.717 92.5195 215.635 92.4341 214.556 92.4956C213.626 93.7755 212.735 95.0805 211.881 96.4105C212.338 96.3284 212.807 96.3566 213.251 96.4927C213.255 96.4927 213.26 96.4946 213.263 96.4979C213.267 96.5013 213.269 96.5058 213.269 96.5106C213.269 96.5153 213.267 96.5199 213.263 96.5232C213.26 96.5266 213.255 96.5285 213.251 96.5285C212.756 96.4913 212.259 96.5153 211.771 96.6C211.001 97.7917 210.259 98.999 209.547 100.222C209.414 100.336 209.236 100.257 209.304 100.15Z" fill="#A6A6A6"/>
<path d="M216.029 93.4287C216.875 93.3693 217.724 93.4725 218.531 93.7326C218.553 93.7326 218.531 93.7755 218.531 93.7719C217.704 93.6323 216.868 93.5463 216.029 93.5145C215.975 93.5145 215.964 93.4323 216.029 93.4287Z" fill="#A6A6A6"/>
<path d="M223.555 83.5502C223.941 83.521 224.329 83.5438 224.709 83.6182C224.756 83.6182 224.742 83.6897 224.709 83.6861C224.33 83.6468 223.955 83.6575 223.576 83.6468C223.564 83.6475 223.552 83.644 223.543 83.6368C223.533 83.6297 223.527 83.6193 223.524 83.6077C223.521 83.596 223.523 83.5839 223.529 83.5733C223.534 83.5628 223.544 83.5546 223.555 83.5502Z" fill="#A6A6A6"/>
<path d="M197.72 129.031H217.209L214.431 108.677L213.719 103.457H201.209L200.498 108.677L197.72 129.031Z" fill="#DBDBDB"/>
<path d="M200.498 108.677H214.431L213.719 103.457H201.209L200.498 108.677Z" fill="#C7C7C7"/>
<path d="M199.422 106.067H215.51V101.648H199.422V106.067Z" fill="#DBDBDB"/>
<path d="M10.5479 129.031L36.9797 128.945L63.4116 128.913L116.279 128.852L169.146 128.913L195.578 128.945L222.01 129.031L195.578 129.12L169.146 129.149L116.279 129.21L63.4116 129.149L36.9797 129.117L10.5479 129.031Z" fill="#263238"/>
<path d="M116.279 150C174.894 150 222.411 145.795 222.411 140.608C222.411 135.421 174.894 131.216 116.279 131.216C57.6641 131.216 10.1474 135.421 10.1474 140.608C10.1474 145.795 57.6641 150 116.279 150Z" fill="#EBEBEB"/>
<path d="M199.557 0H33.0004V118.627H199.557V0Z" fill="#263238"/>
<path d="M191.506 7.71185H41.0519V92.896H191.506V7.71185Z" fill="white"/>
<path d="M199.557 101.126H33.0004V118.624H199.557V101.126Z" fill="#EBEBEB"/>
<path d="M150.276 135.524H82.2853V140.014H150.276V135.524Z" fill="#C7C7C7"/>
<path d="M142.178 135.527H90.3798L91.6955 127.737L91.7598 127.369L91.8814 126.639L91.9421 126.271L92.0709 125.538L92.0852 125.427L92.1316 125.173L92.2568 124.441L92.3176 124.072L93.2364 118.631H139.318L140.187 123.765L140.233 124.011L140.376 124.862L140.416 125.109L140.469 125.427L140.562 125.96L140.601 126.21L140.744 127.065L140.787 127.308L142.178 135.527Z" fill="#DBDBDB"/>
<path d="M191.506 7.71185H41.0519V12.3204H191.506V7.71185Z" fill="#455A64"/>
<path d="M44.713 10.0143C44.713 10.2407 44.6458 10.4621 44.5199 10.6503C44.394 10.8385 44.2151 10.9851 44.0059 11.0716C43.7966 11.1581 43.5664 11.1806 43.3444 11.1361C43.1223 11.0917 42.9185 10.9824 42.7586 10.822C42.5988 10.6617 42.4901 10.4575 42.4464 10.2353C42.4026 10.0131 42.4258 9.78298 42.5129 9.57399C42.6001 9.365 42.7473 9.18657 42.9359 9.06129C43.1245 8.936 43.346 8.86951 43.5725 8.87021C43.7225 8.87021 43.8711 8.89983 44.0097 8.95737C44.1483 9.01491 44.2742 9.09924 44.3802 9.20552C44.4861 9.31181 44.5701 9.43796 44.6272 9.57674C44.6843 9.71553 44.7134 9.86422 44.713 10.0143Z" fill="#C7C7C7"/>
<path d="M49.3786 10.0143C49.3786 10.2407 49.3114 10.4621 49.1856 10.6503C49.0597 10.8385 48.8808 10.9851 48.6715 11.0716C48.4623 11.1581 48.232 11.1806 48.01 11.1361C47.788 11.0917 47.5841 10.9824 47.4243 10.822C47.2644 10.6617 47.1557 10.4575 47.112 10.2353C47.0683 10.0131 47.0914 9.78298 47.1786 9.57399C47.2657 9.365 47.4129 9.18657 47.6015 9.06129C47.7901 8.936 48.0117 8.86951 48.2381 8.87021C48.3882 8.87021 48.5368 8.89983 48.6754 8.95737C48.814 9.01491 48.9399 9.09924 49.0458 9.20552C49.1518 9.31181 49.2357 9.43796 49.2928 9.57674C49.3499 9.71553 49.3791 9.86422 49.3786 10.0143Z" fill="white"/>
<path d="M54.0444 10.0143C54.0444 10.2407 53.9772 10.4621 53.8513 10.6503C53.7255 10.8385 53.5466 10.9851 53.3373 11.0716C53.128 11.1581 52.8978 11.1806 52.6758 11.1361C52.4538 11.0917 52.2499 10.9824 52.0901 10.822C51.9302 10.6617 51.8215 10.4575 51.7778 10.2353C51.734 10.0131 51.7572 9.78298 51.8443 9.57399C51.9315 9.365 52.0787 9.18657 52.2673 9.06129C52.4559 8.936 52.6775 8.86951 52.9039 8.87021C53.054 8.87021 53.2026 8.89983 53.3412 8.95737C53.4798 9.01491 53.6057 9.09924 53.7116 9.20552C53.8176 9.31181 53.9015 9.43796 53.9586 9.57674C54.0157 9.71553 54.0449 9.86422 54.0444 10.0143Z" fill="#9BCDD6"/>
<path d="M118.563 109.701C118.93 108.154 117.973 106.602 116.425 106.235C114.878 105.868 113.326 106.825 112.959 108.373C112.592 109.92 113.549 111.472 115.097 111.839C116.644 112.206 118.196 111.249 118.563 109.701Z" fill="#263238"/>
<path d="M140.469 125.427H92.0851L92.1316 125.173L92.2568 124.441L92.3175 124.072L93.2364 118.631H139.318L140.187 123.765L140.233 124.011L140.376 124.862L140.416 125.109L140.469 125.427Z" fill="#C7C7C7"/>
<path d="M191.51 12.3203H158.12V92.8995H191.51V12.3203Z" fill="#EBEBEB"/>
<path d="M166.379 45.4916H186.211V32.5742H166.379V45.4916Z" fill="#9BCDD6"/>
<path d="M183.855 34.8087H168.735V35.0554H183.855V34.8087Z" fill="white"/>
<path d="M176.293 36.1352H168.735V36.3819H176.293V36.1352Z" fill="white"/>
<path d="M180.859 38.7844H168.735V39.0311H180.859V38.7844Z" fill="white"/>
<path d="M183.855 40.1109H168.735V40.3575H183.855V40.1109Z" fill="white"/>
<path d="M183.855 41.4373H168.735V41.684H183.855V41.4373Z" fill="white"/>
<path d="M173.766 42.7601H168.735V43.0068H173.766V42.7601Z" fill="white"/>
<path d="M186.2 43.1212L187.566 47.5581L182.861 45.4773L186.2 43.1212Z" fill="#9BCDD6"/>
<path d="M183.258 17.6796H163.426V28.577H183.258V17.6796Z" fill="#263238"/>
<path d="M163.426 26.221L162.06 30.6614L166.765 28.5771L163.426 26.221Z" fill="#263238"/>
<path d="M174.86 19.6926H165.828V19.9392H174.86V19.6926Z" fill="white"/>
<path d="M180.948 21.019H165.828V21.2657H180.948V21.019Z" fill="white"/>
<path d="M180.948 22.3418H165.828V22.5885H180.948V22.3418Z" fill="white"/>
<path d="M178.063 23.6682H165.828V23.9149H178.063V23.6682Z" fill="white"/>
<path d="M180.948 24.9947H165.828V25.2414H180.948V24.9947Z" fill="white"/>
<path d="M171.438 26.3211H165.828V26.5678H171.438V26.3211Z" fill="white"/>
<path d="M183.258 49.1491H163.426V56.6071H183.258V49.1491Z" fill="#263238"/>
<path d="M163.426 54.251L162.06 58.6879L166.765 56.6071L163.426 54.251Z" fill="#263238"/>
<path d="M178.921 51.162H165.828V51.4087H178.921V51.162Z" fill="white"/>
<path d="M172.668 52.4884H165.828V52.7351H172.668V52.4884Z" fill="white"/>
<path d="M177.244 53.8112H165.828V54.0579H177.244V53.8112Z" fill="white"/>
<path d="M187.566 73.4501H162.06V78.148H187.566V73.4501Z" fill="white"/>
<path d="M186.451 75.8563C186.451 76.0857 186.384 76.3101 186.257 76.5012C186.13 76.6922 185.949 76.8412 185.737 76.9294C185.525 77.0175 185.292 77.0407 185.067 76.9961C184.842 76.9515 184.635 76.8411 184.473 76.6789C184.311 76.5167 184.2 76.31 184.156 76.0849C184.111 75.8599 184.135 75.6267 184.223 75.4149C184.311 75.2031 184.46 75.0222 184.651 74.8952C184.842 74.7682 185.066 74.7007 185.296 74.7015C185.602 74.7024 185.895 74.8244 186.111 75.0407C186.328 75.2571 186.45 75.5503 186.451 75.8563Z" fill="#9BCDD6"/>
<path d="M185.081 75.1877L185.796 75.8563L185.081 76.5249L184.935 76.3676L185.478 75.8563L184.935 75.345L185.081 75.1877Z" fill="white"/>
<path d="M163.379 74.3976H163.072V77.2006H163.379V74.3976Z" fill="#263238"/>
<path d="M191.506 81.1298H41.0519V92.8996H191.506V81.1298Z" fill="#9BCDD6"/>
<path d="M102.132 91.0583C104.365 91.0583 106.175 89.2479 106.175 87.0147C106.175 84.7814 104.365 82.9711 102.132 82.9711C99.8984 82.9711 98.088 84.7814 98.088 87.0147C98.088 89.2479 99.8984 91.0583 102.132 91.0583Z" fill="#A6A6A6"/>
<path d="M104.738 85.9742H104.552V88.0515H104.738V85.9742Z" fill="white"/>
<path d="M104.47 85.9742V88.0515L103.512 87.8084L103.233 87.7368V86.2889L103.955 86.1065L104.47 85.9742Z" fill="white"/>
<path d="M102.707 85.3522H100.044C99.7554 85.3522 99.5217 85.5859 99.5217 85.8742V88.1552C99.5217 88.4435 99.7554 88.6772 100.044 88.6772H102.707C102.996 88.6772 103.229 88.4435 103.229 88.1552V85.8742C103.229 85.5859 102.996 85.3522 102.707 85.3522Z" fill="white"/>
<path d="M130.426 91.0583C132.659 91.0583 134.47 89.2479 134.47 87.0147C134.47 84.7814 132.659 82.9711 130.426 82.9711C128.193 82.9711 126.383 84.7814 126.383 87.0147C126.383 89.2479 128.193 91.0583 130.426 91.0583Z" fill="#A6A6A6"/>
<path d="M130.43 89.8141C130.399 89.8141 130.37 89.802 130.349 89.7806C130.327 89.7591 130.315 89.73 130.315 89.6997V88.3661C130.315 88.3358 130.327 88.3067 130.349 88.2852C130.37 88.2638 130.399 88.2517 130.43 88.2517C130.46 88.2517 130.489 88.2638 130.511 88.2852C130.532 88.3067 130.544 88.3358 130.544 88.3661V89.6997C130.544 89.73 130.532 89.7591 130.511 89.7806C130.489 89.802 130.46 89.8141 130.43 89.8141Z" fill="white"/>
<path d="M131.159 89.8141H129.697C129.667 89.8141 129.637 89.8021 129.616 89.7806C129.595 89.7591 129.582 89.73 129.582 89.6997C129.583 89.6696 129.596 89.6411 129.617 89.6198C129.638 89.5985 129.667 89.5862 129.697 89.5853H131.159C131.189 89.5862 131.218 89.5985 131.239 89.6198C131.26 89.6411 131.273 89.6696 131.274 89.6997C131.274 89.73 131.262 89.7591 131.24 89.7806C131.219 89.8021 131.189 89.8141 131.159 89.8141Z" fill="white"/>
<path d="M131.367 85.1519V87.0933C131.372 87.309 131.303 87.5199 131.171 87.6904C131.039 87.861 130.852 87.9808 130.642 88.0295C130.432 88.0783 130.211 88.053 130.018 87.958C129.824 87.863 129.669 87.7041 129.579 87.508C129.514 87.3796 129.481 87.2373 129.482 87.0933V85.1519C129.49 84.9119 129.589 84.6838 129.76 84.5146C129.93 84.3453 130.159 84.2477 130.399 84.2418C130.639 84.2358 130.872 84.322 131.051 84.4826C131.23 84.6432 131.34 84.8661 131.359 85.1055L131.367 85.1519Z" fill="white"/>
<path d="M130.426 88.4805C130.065 88.4796 129.718 88.3352 129.463 88.0792C129.207 87.8232 129.064 87.4764 129.064 87.1148V86.296C129.061 86.2796 129.062 86.2626 129.066 86.2465C129.07 86.2303 129.078 86.2153 129.089 86.2024C129.1 86.1896 129.113 86.1793 129.128 86.1722C129.143 86.1651 129.16 86.1615 129.177 86.1615C129.193 86.1615 129.21 86.1651 129.225 86.1722C129.24 86.1793 129.254 86.1896 129.264 86.2024C129.275 86.2153 129.283 86.2303 129.287 86.2465C129.292 86.2626 129.292 86.2796 129.289 86.296V87.1148C129.29 87.269 129.321 87.4215 129.383 87.5629C129.444 87.7043 129.534 87.8317 129.647 87.9371C129.757 88.0439 129.889 88.1267 130.033 88.1802C130.177 88.2338 130.33 88.2569 130.483 88.2481C130.777 88.2246 131.052 88.0905 131.251 87.8729C131.45 87.6553 131.559 87.3703 131.556 87.0754V86.296C131.556 86.2657 131.568 86.2366 131.59 86.2151C131.611 86.1937 131.64 86.1816 131.67 86.1816C131.701 86.1816 131.73 86.1937 131.751 86.2151C131.773 86.2366 131.785 86.2657 131.785 86.296V87.0754C131.791 87.4319 131.659 87.7769 131.416 88.0382C131.174 88.2994 130.839 88.4567 130.483 88.4769L130.426 88.4805Z" fill="white"/>
<path d="M118.167 91.0547H114.259C113.727 91.0571 113.2 90.9543 112.707 90.7523C112.215 90.5504 111.768 90.2531 111.391 89.8777C111.014 89.5024 110.714 89.0562 110.51 88.5649C110.306 88.0735 110.201 87.5467 110.201 87.0147C110.201 85.9422 110.627 84.9137 111.385 84.1554C112.144 83.3971 113.172 82.9711 114.245 82.9711H118.152C119.225 82.9711 120.253 83.3971 121.012 84.1554C121.77 84.9137 122.196 85.9422 122.196 87.0147C122.195 88.084 121.771 89.1094 121.015 89.8666C120.26 90.6237 119.236 91.0509 118.167 91.0547Z" fill="#455A64"/>
<path d="M113.101 86.9432C113.108 86.8152 113.15 86.6918 113.222 86.5856L113.319 86.439L113.533 86.2245C113.615 86.1673 113.694 86.103 113.78 86.0493C114.12 85.8332 114.499 85.6861 114.895 85.6167C115.81 85.4326 116.752 85.4326 117.666 85.6167C118.058 85.6844 118.432 85.829 118.767 86.0422C118.853 86.0994 118.935 86.1637 119.021 86.2245L119.225 86.4283C119.345 86.5766 119.428 86.7521 119.464 86.9396H117.652C117.637 86.9408 117.622 86.9373 117.609 86.9296C117.596 86.9219 117.586 86.9104 117.58 86.8967C117.532 86.8008 117.458 86.7197 117.368 86.6619C117.277 86.604 117.173 86.5715 117.065 86.5678C116.538 86.5356 116.009 86.5356 115.482 86.5678C115.374 86.573 115.27 86.6064 115.18 86.6648C115.089 86.7232 115.016 86.8044 114.967 86.9003C114.967 86.9253 114.942 86.9432 114.906 86.9432H113.101Z" fill="white"/>
<path d="M113.097 87.9657V87.3508C113.097 87.3329 113.097 87.3186 113.097 87.3079H114.885C114.885 87.3508 114.885 87.3937 114.885 87.4402V87.9657C114.889 87.9969 114.887 88.0288 114.877 88.0587C114.867 88.0887 114.851 88.116 114.828 88.1383C114.806 88.1606 114.779 88.1773 114.749 88.1871C114.719 88.1969 114.687 88.1994 114.656 88.1945H113.319C113.288 88.1975 113.257 88.1935 113.229 88.1829C113.2 88.1724 113.174 88.1555 113.153 88.1335C113.131 88.1115 113.115 88.085 113.106 88.056C113.096 88.0269 113.093 87.9961 113.097 87.9657Z" fill="white"/>
<path d="M117.663 87.9764C117.663 87.7512 117.663 87.5259 117.68 87.3043H119.447C119.449 87.3173 119.449 87.3306 119.447 87.3436V87.9693C119.451 87.999 119.448 88.0293 119.438 88.0578C119.429 88.0863 119.413 88.1122 119.392 88.1336C119.371 88.155 119.345 88.1713 119.317 88.1812C119.289 88.1912 119.258 88.1945 119.228 88.1909H117.877C117.848 88.1937 117.819 88.1901 117.792 88.1803C117.764 88.1705 117.74 88.1547 117.719 88.1342C117.699 88.1137 117.683 88.089 117.673 88.0617C117.663 88.0344 117.66 88.0053 117.663 87.9764Z" fill="white"/>
<path d="M158.117 12.3203H122.822V46.8681H158.117V12.3203Z" fill="#DBDBDB"/>
<path d="M141.842 34.344C139.211 36.8466 133.808 39.2993 128.728 39.4172C125.868 39.4852 120.13 28.5449 119.039 26.1673C117.216 22.2024 124.32 21.2335 125.964 21.6232C128.013 22.1094 131.134 31.1405 132.264 32.0737C132.661 32.4026 138.21 31.6589 140.559 31.187C143.068 30.6793 143.197 33.0569 141.842 34.344Z" fill="#AD6359"/>
<path d="M119.171 26.4176C118.739 25.4988 117.13 21.1119 116.958 19.7927C116.787 18.4734 116.558 14.6336 117.555 14.3976C118.553 14.1616 118.71 15.2807 118.71 15.2807C118.71 15.2807 118.871 13.6432 119.897 13.4931C120.923 13.3429 121.109 15.0948 121.109 15.0948C121.109 15.0948 121.395 13.4287 122.428 13.3572C123.462 13.2857 123.354 15.0697 123.354 15.0697C123.354 15.0697 123.548 13.536 124.427 13.8327C125.482 14.1902 124.806 16.9861 125.106 18.4305C125.174 18.7558 126.969 24.9732 126.969 24.9732L119.171 26.4176Z" fill="#AD6359"/>
<path d="M123.362 14.9196C122.872 16.9753 123.004 17.9621 123.683 19.9249C123.683 19.9643 123.64 19.9929 123.623 19.9535C122.793 18.0837 122.436 16.8752 123.265 14.8874C123.304 14.7944 123.387 14.823 123.362 14.9196Z" fill="#263238"/>
<path d="M121.149 14.9482C120.827 17.1255 120.97 18.1945 121.506 20.3111C121.506 20.3433 121.463 20.3576 121.452 20.329C120.737 18.3018 120.412 17.0862 121.023 14.9661C121.066 14.8409 121.166 14.8374 121.149 14.9482Z" fill="#263238"/>
<path d="M118.742 15.3843C118.578 17.5295 118.685 18.695 119.486 20.6793C119.486 20.7258 119.436 20.758 119.414 20.715C118.403 18.7701 118.26 17.3007 118.674 15.3879C118.703 15.2556 118.749 15.2521 118.742 15.3843Z" fill="#263238"/>
<path d="M127.473 26.4712C127.473 26.4712 128.367 23.9685 128.517 22.7959C128.667 21.6232 127.613 17.0039 126.604 17.1756C125.303 17.3972 125.389 20.1788 125.607 21.5374C125.607 21.5374 122.593 22.0451 122.225 24.0401C121.856 26.035 127.473 26.4712 127.473 26.4712Z" fill="#AD6359"/>
<path d="M126.268 17.3543C125.224 18.4269 125.628 20.1752 125.743 21.5088C125.746 21.5282 125.744 21.548 125.737 21.5666C125.73 21.5851 125.719 21.6017 125.705 21.6151C125.691 21.6284 125.673 21.6381 125.654 21.6432C125.635 21.6484 125.615 21.6489 125.596 21.6446C124.345 21.9414 122.672 22.7172 122.175 23.9864C122.175 23.994 122.172 24.0013 122.166 24.0066C122.161 24.012 122.154 24.015 122.146 24.015C122.138 24.015 122.131 24.012 122.126 24.0066C122.12 24.0013 122.117 23.994 122.117 23.9864C122.475 22.5563 124.048 21.6589 125.435 21.4194C125.296 20.0536 124.97 18.2696 126.258 17.3615L126.268 17.3543Z" fill="#263238"/>
<path d="M128.41 24.2438C128.41 24.2438 120.823 30.0357 120.834 30.6793C120.834 30.6793 125.964 39.4172 128.342 39.596C131.917 39.8606 137.448 37.8441 140.705 35.6131C144.191 33.2249 144.423 30.3611 140.051 30.9439C135.346 31.5731 132.786 32.0164 132.325 31.6589C131.864 31.3014 128.792 24.3868 128.41 24.2438Z" fill="#9BCDD6"/>
<path d="M129.011 26.4569C128.4 26.841 127.809 27.2562 127.241 27.7011C126.662 28.1337 126.086 28.5735 125.525 29.0275C124.963 29.4816 124.398 29.9392 123.851 30.4112C123.304 30.8831 122.811 31.3479 122.285 31.8091C122.26 31.8305 122.285 31.8699 122.321 31.852C122.886 31.4051 123.469 30.9796 124.041 30.5399C124.613 30.1001 125.174 29.6496 125.746 29.2027C126.318 28.7558 126.876 28.3053 127.441 27.8513C128.006 27.3972 128.542 26.9825 129.05 26.5034C129.075 26.4784 129.039 26.4426 129.011 26.4569Z" fill="#263238"/>
<path opacity="0.1" d="M140.705 35.6132C137.448 37.8441 131.906 39.8606 128.342 39.596C128.198 39.5823 128.057 39.5461 127.924 39.4887L143.093 31.5231C143.809 32.424 142.897 34.1116 140.705 35.6132Z" fill="black"/>
<path d="M141.62 33.3822C142.807 33.8112 145.114 32.1845 146.111 30.7651C146.179 30.6686 146.143 29.5602 146.165 28.2088C146.183 27.3901 146.218 26.4748 146.315 25.6453L140.952 26.321C141.131 27.3921 141.179 28.4811 141.095 29.5638C141.082 29.6782 141.057 29.7909 141.02 29.8999C141.02 29.9178 141.02 29.9356 141.02 29.9571C140.837 30.5899 140.473 32.971 141.62 33.3822Z" fill="#AD6359"/>
<path d="M146.011 25.674C145.707 26.793 144.509 30.3039 141.549 30.0358C141.369 30.0194 141.191 29.9896 141.016 29.9464C141.016 29.9249 141.016 29.9071 141.016 29.8892C141.053 29.7802 141.078 29.6675 141.091 29.5531C141.176 28.4704 141.128 27.3814 140.948 26.3103L146.011 25.674Z" fill="#263238"/>
<path d="M146.912 18.956C147.538 20.7937 146.726 26.1888 145.442 27.4258C143.58 29.2134 140.437 29.4816 138.907 27.2256C137.409 25.0411 138.592 18.03 140.037 16.8967C142.157 15.227 145.989 16.2388 146.912 18.956Z" fill="#AD6359"/>
<path d="M142.593 22.4562C142.593 22.4562 142.622 22.4777 142.618 22.492C142.554 22.8495 142.539 23.2785 142.85 23.4466C142.85 23.4466 142.85 23.4716 142.85 23.468C142.453 23.3608 142.475 22.8138 142.593 22.4562Z" fill="#263238"/>
<path d="M142.975 22.1309C143.565 22.1702 143.44 23.35 142.893 23.3143C142.346 23.2785 142.478 22.0987 142.975 22.1309Z" fill="#263238"/>
<path d="M140.448 22.1559C140.448 22.1559 140.416 22.1559 140.416 22.1881C140.387 22.5456 140.294 22.9675 139.951 23.0533V23.0747C140.362 23.0604 140.48 22.5098 140.448 22.1559Z" fill="#263238"/>
<path d="M140.162 21.7412C139.579 21.6339 139.407 22.8138 139.947 22.9067C140.487 22.9997 140.648 21.8306 140.162 21.7412Z" fill="#263238"/>
<path d="M143.497 21.641C143.347 21.5802 143.2 21.5097 143.058 21.4301C142.893 21.3791 142.749 21.2747 142.65 21.1334C142.627 21.0824 142.622 21.0254 142.635 20.9711C142.648 20.9168 142.678 20.8683 142.722 20.833C142.817 20.7778 142.926 20.7487 143.036 20.7487C143.147 20.7487 143.255 20.7778 143.351 20.833C143.562 20.9179 143.734 21.0785 143.834 21.2835C143.854 21.3314 143.86 21.3841 143.851 21.4353C143.841 21.4865 143.818 21.5339 143.782 21.5718C143.746 21.6097 143.701 21.6364 143.65 21.6487C143.599 21.661 143.546 21.6583 143.497 21.641Z" fill="#263238"/>
<path d="M139.768 21.0976C139.925 21.0839 140.08 21.06 140.233 21.0261C140.407 21.0263 140.576 20.967 140.712 20.8581C140.748 20.8164 140.77 20.7641 140.773 20.7092C140.776 20.6542 140.761 20.5997 140.73 20.5542C140.655 20.473 140.559 20.4133 140.453 20.3812C140.347 20.3492 140.234 20.3459 140.126 20.3718C139.9 20.391 139.689 20.4944 139.536 20.6614C139.501 20.7018 139.479 20.752 139.473 20.8052C139.467 20.8584 139.477 20.9122 139.502 20.9595C139.527 21.0068 139.566 21.0453 139.614 21.0699C139.661 21.0946 139.715 21.1042 139.768 21.0976Z" fill="#263238"/>
<path d="M142.471 25.8313C142.371 25.9063 142.275 26.0136 142.139 26.0136C142.003 25.9954 141.873 25.9491 141.756 25.8777C141.756 25.8777 141.731 25.8777 141.738 25.8956C141.783 25.9733 141.847 26.0374 141.926 26.0808C142.004 26.1243 142.092 26.1456 142.182 26.1423C142.258 26.131 142.33 26.0971 142.387 26.0448C142.445 25.9926 142.485 25.9245 142.504 25.8491C142.504 25.8491 142.482 25.8205 142.471 25.8313Z" fill="#263238"/>
<path d="M142.203 24.6943C142.095 24.8296 141.96 24.941 141.807 25.0216C141.654 25.1022 141.486 25.1502 141.313 25.1627C141.162 25.1728 141.011 25.1632 140.863 25.1341H140.777L140.698 25.1126C140.68 25.1061 140.663 25.094 140.652 25.078C140.64 25.062 140.634 25.0429 140.634 25.0232C140.632 25.0114 140.632 24.9993 140.634 24.9875V24.9553C140.655 24.6729 140.727 24.2403 140.727 24.2403C140.619 24.2832 140.069 24.4619 140.094 24.3153C140.262 23.0505 140.558 21.8059 140.977 20.6006C140.977 20.5921 140.98 20.5839 140.986 20.5779C140.992 20.5719 141.001 20.5685 141.009 20.5685C141.018 20.5685 141.026 20.5719 141.032 20.5779C141.038 20.5839 141.041 20.5921 141.041 20.6006C140.895 21.7698 140.541 22.9067 140.373 24.0794C140.569 24.0118 140.773 23.9721 140.981 23.9614C141.02 23.9793 140.827 24.7801 140.827 24.9088C141.055 24.9561 141.29 24.9571 141.519 24.9116C141.747 24.8662 141.964 24.7753 142.157 24.6443C142.2 24.6407 142.228 24.6693 142.203 24.6943Z" fill="#263238"/>
<path d="M141.048 25.0554C141.191 25.2671 141.385 25.4383 141.613 25.5524C141.74 25.6079 141.881 25.6253 142.017 25.6025C142.314 25.5417 142.335 25.2735 142.296 25.0411C142.274 24.9183 142.238 24.7984 142.189 24.6836C141.858 24.926 141.458 25.0562 141.048 25.0554Z" fill="#263238"/>
<path d="M141.613 25.5524C141.74 25.6079 141.881 25.6253 142.017 25.6025C142.314 25.5417 142.335 25.2735 142.296 25.0411C142.141 25.0362 141.989 25.0841 141.865 25.177C141.741 25.2699 141.652 25.4023 141.613 25.5524Z" fill="#FF99BA"/>
<path d="M139.339 18.477C140.977 20.1037 143.898 18.6307 143.898 18.6307C143.982 19.0696 144.206 19.4696 144.535 19.7711C144.865 20.0726 145.284 20.2595 145.728 20.3039C145.728 20.3039 145.514 23.5431 146.35 23.6897C147.627 23.9149 148.814 19.6639 148.571 18.738C148.328 17.812 147.284 17.3972 147.284 17.3972C147.259 16.8574 147.032 16.3467 146.647 15.9671C145.9 15.152 142.736 15.4952 142.736 15.4952C142.637 15.0633 142.439 14.6604 142.157 14.3189C142.09 14.2338 142.006 14.1633 141.91 14.1115C141.815 14.0598 141.71 14.0279 141.602 14.0179C141.494 14.0078 141.385 14.0198 141.282 14.0532C141.179 14.0865 141.084 14.1404 141.002 14.2117C141.121 14.4753 141.177 14.7629 141.166 15.0519C141.145 16.0065 140.387 15.867 140.548 15.0268C140.596 14.7093 140.757 14.4199 141.002 14.2117C140.73 13.5932 140.151 13.3036 139.726 13.5288C138.95 13.94 137.974 17.1219 139.339 18.477Z" fill="#263238"/>
<path d="M145.904 23.3607C145.904 23.3607 147.098 21.6124 147.888 22.0379C148.678 22.4633 147.798 24.9875 146.876 25.3414C146.761 25.3945 146.636 25.4237 146.509 25.4275C146.383 25.4313 146.257 25.4095 146.138 25.3635C146.02 25.3174 145.913 25.2481 145.822 25.1595C145.731 25.0709 145.659 24.965 145.61 24.848L145.904 23.3607Z" fill="#AD6359"/>
<path d="M147.616 22.753V22.778C146.969 23.0497 146.637 23.6539 146.404 24.2796C146.441 24.2141 146.492 24.1574 146.553 24.1135C146.614 24.0695 146.684 24.0393 146.757 24.0251C146.831 24.0108 146.907 24.0127 146.98 24.0307C147.053 24.0488 147.121 24.0824 147.18 24.1294C147.18 24.1294 147.18 24.1688 147.162 24.1652C147.048 24.1302 146.925 24.1313 146.811 24.1684C146.697 24.2055 146.598 24.2768 146.526 24.3726C146.409 24.5345 146.31 24.7083 146.229 24.891C146.197 24.9482 146.093 24.9196 146.115 24.8517C146.1 24.0115 146.73 22.8459 147.616 22.753Z" fill="#263238"/>
<path d="M153.758 46.8717C151.817 40.4004 149.153 33.3035 146.583 31.237C146.34 30.8795 146.662 29.5495 146.49 29.4137C146.318 29.2778 140.82 29.503 140.659 29.6389C140.498 29.7748 140.659 30.5935 140.483 30.8044C139.345 32.6382 138.354 34.5594 137.52 36.5499C136.708 38.6092 135.825 42.7422 135.103 46.8717H153.758Z" fill="#9BCDD6"/>
<path d="M145.954 29.7784C145.892 30.1944 145.892 30.6173 145.954 31.0333C146.02 30.6176 146.02 30.194 145.954 29.7784Z" fill="#263238"/>
<path d="M145.26 29.7784C145.193 30.194 145.193 30.6176 145.26 31.0333C145.327 30.6176 145.327 30.194 145.26 29.7784Z" fill="#263238"/>
<path d="M144.574 29.7784C144.507 30.194 144.507 30.6176 144.574 31.0333C144.636 30.6173 144.636 30.1944 144.574 29.7784Z" fill="#263238"/>
<path d="M143.884 29.7784C143.822 30.1944 143.822 30.6173 143.884 31.0333C143.918 30.8265 143.935 30.6172 143.934 30.4076C143.933 30.1969 143.916 29.9865 143.884 29.7784Z" fill="#263238"/>
<path d="M143.197 29.7784C143.164 29.9865 143.148 30.1969 143.147 30.4076C143.146 30.6172 143.163 30.8265 143.197 31.0333C143.259 30.6173 143.259 30.1944 143.197 29.7784Z" fill="#263238"/>
<path d="M142.507 29.7784C142.445 30.1944 142.445 30.6173 142.507 31.0333C142.543 30.8267 142.56 30.6173 142.557 30.4076C142.558 30.1968 142.542 29.9863 142.507 29.7784Z" fill="#263238"/>
<path d="M141.821 29.7784C141.754 30.194 141.754 30.6176 141.821 31.0333C141.887 30.6176 141.887 30.194 141.821 29.7784Z" fill="#263238"/>
<path d="M141.134 29.7784C141.067 30.194 141.067 30.6176 141.134 31.0333C141.196 30.6173 141.196 30.1944 141.134 29.7784Z" fill="#263238"/>
<path d="M138.396 34.4298C138.185 34.7937 137.997 35.1698 137.831 35.556C137.831 35.4773 137.863 35.3951 137.877 35.3129C137.92 35.0984 137.977 34.8803 138.038 34.6693C138.038 34.6693 138.038 34.6693 138.02 34.6693C137.935 34.8759 137.866 35.0886 137.813 35.3057C137.773 35.4669 137.745 35.6305 137.727 35.7955C137.706 35.8456 137.681 35.8956 137.663 35.9493C137.464 36.4604 137.293 36.9819 137.151 37.5116C137.151 37.5474 137.194 37.5581 137.205 37.5116C137.595 36.4784 138.042 35.4702 138.424 34.4334C138.446 34.4226 138.403 34.4155 138.396 34.4298Z" fill="#263238"/>
<path d="M158.11 42.946C154.413 37.9407 149.529 33.1856 147.212 31.995C144.423 30.5649 146.579 35.9028 148.349 39.0132C149.779 41.5481 152.961 45.8062 152.757 45.9278C152.554 46.0494 151.874 44.344 150.827 44.1723C149.625 43.9721 144.524 44.1723 144.609 44.8874C144.642 45.1841 144.985 45.9063 145.564 46.8681H158.11V42.946Z" fill="#AD6359"/>
<path d="M158.11 46.8609V42.6385C155.526 39.3263 152.677 36.2306 149.59 33.3822C146.29 30.4862 144.32 30.3396 146.783 36.1959C148.214 39.6461 150.175 42.8513 152.596 45.6954C152.596 45.6954 149.082 46.3604 147.019 46.8645L158.11 46.8609Z" fill="#9BCDD6"/>
<path d="M146.329 36.9146C146.601 37.1113 146.859 37.3263 147.101 37.5581L147.305 37.7655C146.983 37.2185 146.669 36.6679 146.368 36.1101C146.364 36.1016 146.363 36.0917 146.366 36.0827C146.369 36.0736 146.376 36.0661 146.384 36.0619C146.393 36.0576 146.403 36.0569 146.412 36.0599C146.421 36.0629 146.428 36.0694 146.433 36.078C147.327 37.5081 148.22 38.9382 149.118 40.3289C150.015 41.7197 150.955 43.0926 151.885 44.4655C152.414 45.2449 152.922 46.0422 153.455 46.818C153.476 46.8466 153.426 46.8788 153.404 46.8502C152.893 46.1924 152.364 45.5488 151.874 44.8731C151.384 44.1974 150.93 43.5395 150.476 42.8602C149.544 41.4706 148.653 40.0548 147.802 38.6128L147.548 38.1838C147.477 38.1159 147.402 38.0551 147.33 37.9943C147.205 37.887 147.083 37.7762 146.973 37.6654C146.74 37.4407 146.521 37.2019 146.318 36.9503C146.318 36.9503 146.311 36.9003 146.329 36.9146Z" fill="#263238"/>
<path d="M152.704 42.9925C151.703 42.8638 151.249 43.8792 151.249 43.8792C151.249 43.8792 150.802 42.6314 149.776 42.6314C149.246 42.6314 148.785 43.4787 148.785 43.4787C148.656 43.2301 148.461 43.0216 148.221 42.876C147.982 42.7304 147.707 42.6532 147.427 42.6529C146.712 42.6993 146.354 43.5395 146.354 43.5395C146.354 43.5395 145.532 42.8888 144.806 43.182C143.333 43.7612 143.076 50.0143 145.342 51.0726C146.415 51.566 146.376 50.0358 146.376 50.0358C146.376 50.0358 146.937 52.231 148.224 52.3168C149.511 52.4026 149.364 50.4147 149.364 50.4147C149.364 50.4147 149.926 52.5349 151.27 52.4884C152.614 52.4419 152.182 50.4791 152.182 50.4791C152.182 50.4791 153.068 51.9092 154.087 51.6375C155.775 51.1906 153.866 48.2338 154.248 46.8717H157.752C157.752 46.8717 155.192 43.3214 152.704 42.9925Z" fill="#AD6359"/>
<path d="M144.617 44.798C143.208 45.0304 141.903 43.0855 140.526 43.1141C138.66 43.1498 139.847 46.3032 142.418 46.8574H144.609L144.617 44.798Z" fill="#AD6359"/>
<path d="M146.272 43.6646C146.272 43.6432 146.243 43.636 146.24 43.6646C145.624 45.7792 145.665 48.0309 146.358 50.1215C146.383 50.1859 146.501 50.1752 146.486 50.1001C146.103 47.9767 146.031 45.8089 146.272 43.6646Z" fill="#263238"/>
<path d="M148.775 43.4501C148.773 43.4455 148.769 43.4415 148.765 43.4387C148.761 43.4359 148.756 43.4344 148.751 43.4344C148.746 43.4344 148.741 43.4359 148.737 43.4387C148.733 43.4415 148.73 43.4455 148.728 43.4501C148.074 45.7872 148.275 48.2811 149.297 50.4827C149.336 50.5578 149.447 50.5899 149.407 50.4827C148.785 48.9668 148.517 45.4559 148.775 43.4501Z" fill="#263238"/>
<path d="M152.307 50.6078C151.327 48.4626 151.138 46.1888 151.277 43.8434C151.277 43.8112 151.238 43.8112 151.227 43.8434C150.848 44.9732 150.913 46.4784 151.066 47.6475C151.185 48.7334 151.587 49.7692 152.232 50.6507C152.257 50.6793 152.328 50.6543 152.307 50.6078Z" fill="#263238"/>
<path d="M143.873 44.7372C143.629 45.412 143.534 46.1316 143.594 46.8466C143.594 46.8788 143.648 46.886 143.651 46.8466C143.694 46.4891 143.798 45.3951 143.93 44.7444C143.937 44.7229 143.887 44.7086 143.873 44.7372Z" fill="#263238"/>
<path d="M69.1285 36.7251C68.6208 44.4619 68.2275 52.4312 68.9104 60.1609C69.4395 66.1852 71.9172 71.1655 78.156 72.7101C83.9408 74.1402 92.2068 74.1187 97.1549 70.3254C99.4574 68.5556 100.28 66.035 100.158 63.1963C99.9901 59.2635 97.0906 37.6332 96.2253 30.8938C95.7069 26.7859 95.2028 22.6242 93.9586 18.6486C91.3451 10.3075 87.2336 10.3325 86.6651 10.1609C86.1753 9.83912 83.0326 8.39829 78.5242 9.78192C77.3469 10.1424 76.2588 10.7471 75.331 11.5566C74.4032 12.3661 73.6566 13.3622 73.1399 14.4798C69.8399 21.1155 69.6111 29.4816 69.1285 36.7251Z" fill="#263238"/>
<path d="M87.9343 11.3264C92.8574 13.6897 93.9801 19.1026 95.1277 23.9578C96.7259 30.7151 98.206 37.5009 99.3573 44.3368C99.9114 47.6296 100.391 50.9367 100.787 54.251C101.145 57.4258 101.735 60.8152 101.502 64.0186C101.095 69.31 96.2217 71.6697 91.5203 72.374C91.4729 72.3825 91.424 72.3719 91.3845 72.3444C91.3449 72.3169 91.3179 72.2748 91.3093 72.2274C91.3008 72.18 91.3115 72.1311 91.3389 72.0916C91.3664 72.052 91.4085 72.025 91.4559 72.0165C94.1338 71.5159 96.8724 70.8009 98.8817 68.8381C101.463 66.3354 101.202 62.9961 100.934 59.689C100.48 54.0544 99.7041 48.4519 98.728 42.8853C97.752 37.3186 96.5828 31.7769 95.3172 26.2639C94.1159 21.0154 93.2757 14.108 87.9307 11.3944C87.8556 11.3729 87.8842 11.3014 87.9343 11.3264Z" fill="#263238"/>
<path d="M70.8017 19.0847C71.7849 15.0483 73.93 11.1262 78.2024 9.99643C72.6751 11.6947 71.27 17.6975 70.4835 22.7208C69.6588 28.0002 69.0283 33.3083 68.5921 38.645C68.1703 43.7719 67.8556 48.9382 67.9021 54.0865C67.9522 59.6389 68.9032 64.8516 72.1317 69.4601C72.1423 69.479 72.1461 69.501 72.1422 69.5223C72.1384 69.5436 72.1273 69.5629 72.1108 69.5769C72.0943 69.5909 72.0734 69.5986 72.0517 69.5989C72.0301 69.5991 72.009 69.5918 71.9922 69.5781C68.8031 65.842 67.7841 60.7329 67.5768 55.9564C67.3015 49.6639 67.777 43.2749 68.3347 37.0075C68.8674 31.069 69.3894 24.9017 70.8017 19.0847Z" fill="#263238"/>
<path d="M117.537 64.8552L114.581 85.3486C114.581 85.3486 99.1392 85.6168 93.1292 82.088C85.8428 77.7977 79.2714 51.2299 78.5063 46.9253C77.2479 39.857 78.7602 36.0386 82.2175 37.744C83.5618 38.3947 85.2028 39.8892 87.0834 42.3633C89.0534 44.9446 100.051 61.3336 103.869 64.7802C106.014 66.7072 117.537 64.8552 117.537 64.8552Z" fill="#EBEBEB"/>
<path d="M110.916 83.8613C111.274 80.8187 113.136 68.4233 113.723 65.7741C113.762 65.5881 113.887 65.5703 113.869 65.7741C113.051 74.9124 111.531 80.9117 111.038 83.8756C111.034 83.9507 110.916 83.9507 110.916 83.8613Z" fill="#263238"/>
<path d="M108.088 85.1806C103.129 84.8874 96.5793 84.108 93.1363 82.088C85.8499 77.7977 79.2786 51.2299 78.5135 46.9253C77.255 39.857 78.7673 36.0386 82.2246 37.744C82.3348 37.7956 82.4422 37.8529 82.5464 37.9157L108.088 85.1806Z" fill="#263238"/>
<path d="M89.318 81.1262L88.392 65.7848C88.392 65.7848 92.5178 61.2192 91.6097 57.0969C91.1485 55.0089 84.0266 39.1348 83.3294 38.4841C80.5228 35.8706 75.7892 36.911 73.8478 38.3804C63.0863 46.5141 55.4996 63.9685 51.86 81.1262H89.318Z" fill="#9BCDD6"/>
<path d="M89.318 81.1262L88.392 65.7848C88.392 65.7848 92.5178 61.2192 91.6097 57.0969C91.1485 55.0089 84.0266 39.1348 83.3294 38.4841C80.5228 35.8706 75.7892 36.911 73.8478 38.3804C63.0863 46.5141 55.4996 63.9685 51.86 81.1262H89.318Z" fill="#9BCDD6"/>
<path d="M88.3919 65.7884L89.3072 81.1298H51.8635C55.4996 63.9686 63.0863 46.5142 73.8478 38.3804C73.9872 38.2768 74.141 38.1767 74.3054 38.0766L74.5843 37.9192C74.6916 37.8585 74.806 37.8048 74.9418 37.7476L75.1206 37.669L85.7963 63.7076L83.3616 38.4949C83.9515 39.1241 88.3669 48.8274 90.5121 54.0508C90.522 54.0635 90.5293 54.0781 90.5335 54.0937L90.866 54.9268C90.9054 55.0269 90.9447 55.127 90.984 55.2199C91.0412 55.3737 91.0984 55.5238 91.1521 55.6597C91.3386 56.1273 91.4998 56.6047 91.6347 57.0898C92.5285 61.2192 88.3919 65.7884 88.3919 65.7884Z" fill="#EBEBEB"/>
<path d="M74.5843 37.9192C73.6726 40.4576 72.7216 42.9818 71.7921 45.5131L71.6347 45.2735L77.1085 45.4058H77.466L77.3194 45.7419L75.471 50.0036L75.4352 49.7033L80.7767 56.8145L83.4474 60.3718L86.0931 63.9471L85.4746 64.1259L86.0824 56.5213C86.2754 53.9828 86.5114 51.4516 86.7295 48.9167L86.776 49.074L84.2018 45.4773L84.0659 45.2807L84.284 45.1984L85.9608 44.5549L85.8786 44.7515C85.0312 42.6671 84.1732 40.5864 83.3473 38.4912C84.2983 40.5327 85.2207 42.5849 86.1539 44.6335L86.2146 44.773L86.0716 44.8338L84.4199 45.5488L84.4985 45.2699L87.1585 48.8059L87.2086 48.8738V48.9632C87.0477 51.5016 86.9011 54.04 86.708 56.5785L86.1646 64.1902L86.1002 65.1019L85.5496 64.3868L82.8861 60.8116L80.244 57.2363L74.9633 50.0858L74.8561 49.9428L74.9311 49.7855L76.8832 45.5667L77.0977 45.9242L71.6312 45.6596H71.3773L71.4738 45.4344C72.5071 42.896 73.5225 40.4004 74.5843 37.9192Z" fill="#DBDBDB"/>
<path d="M83.1756 37.3472C83.1756 37.3472 83.2865 42.9603 82.2639 43.0247C79.1177 43.2249 75.7498 38.8023 75.5782 38.1123C75.5353 37.9371 75.9178 33.5896 76.2217 30.2145C76.4184 28.0408 76.5793 26.2818 76.5793 26.2818L84.4591 31.1012L83.2543 36.9289L83.1756 37.3472Z" fill="#EB9481"/>
<path d="M84.4592 31.1012L83.2543 36.9289C81.6792 36.3643 80.2403 35.4747 79.0312 34.318C77.8222 33.1612 76.8698 31.7632 76.2361 30.2145C76.4327 28.0408 76.5936 26.2818 76.5936 26.2818L77.5875 26.8466L84.4592 31.1012Z" fill="#263238"/>
<path d="M93.0005 22.0164C94.3698 32.3847 88.324 34.3618 86.0895 34.655C84.0623 34.9195 77.1263 35.5667 74.6951 25.4094C72.2639 15.252 76.6436 11.3443 81.2414 10.4898C85.8392 9.63531 91.6311 11.6625 93.0005 22.0164Z" fill="#EB9481"/>
<path d="M90.8946 20.6936C90.6544 20.6733 90.4157 20.6387 90.1796 20.5899C89.9204 20.5895 89.6688 20.5027 89.4645 20.3432C89.4083 20.2822 89.3751 20.2035 89.3705 20.1207C89.366 20.0378 89.3904 19.956 89.4395 19.8892C89.5504 19.769 89.6915 19.6808 89.848 19.6336C90.0046 19.5865 90.171 19.5821 90.3298 19.621C90.6661 19.6468 90.9803 19.7988 91.2093 20.0465C91.2585 20.1047 91.2898 20.1759 91.2993 20.2516C91.3088 20.3272 91.2961 20.404 91.2628 20.4725C91.2295 20.5411 91.1769 20.5985 91.1116 20.6378C91.0462 20.677 90.9708 20.6964 90.8946 20.6936Z" fill="#263238"/>
<path d="M83.8764 21.3622C84.1121 21.3104 84.3448 21.246 84.5736 21.1691C84.8275 21.1356 85.0635 21.0201 85.2457 20.8402C85.2913 20.7718 85.3132 20.6904 85.308 20.6084C85.3029 20.5263 85.2709 20.4483 85.2171 20.3862C85.0914 20.2801 84.9397 20.2094 84.7777 20.1811C84.6156 20.1528 84.4489 20.1681 84.2947 20.2253C83.9657 20.2941 83.6747 20.4843 83.4795 20.758C83.4371 20.8222 83.4144 20.8974 83.4142 20.9743C83.4141 21.0513 83.4366 21.1266 83.4788 21.1909C83.5211 21.2552 83.5812 21.3057 83.6519 21.3362C83.7226 21.3666 83.8006 21.3757 83.8764 21.3622Z" fill="#263238"/>
<path d="M85.7677 23.7683C85.7677 23.7397 85.7141 23.8077 85.7177 23.8363C85.8035 24.5513 85.7785 25.3665 85.1564 25.6561C85.1385 25.6561 85.1564 25.699 85.1564 25.6954C85.9394 25.5166 85.9608 24.4226 85.7677 23.7683Z" fill="#263238"/>
<path d="M85.0741 23.0819C83.9264 23.0819 84.0301 25.3843 85.0741 25.3772C86.1181 25.37 86.0323 23.0711 85.0741 23.0819Z" fill="#263238"/>
<path d="M84.6272 23.2249C84.4341 23.3608 84.2482 23.5824 84.0087 23.6361C83.7691 23.6897 83.5081 23.4466 83.3151 23.2213C83.2936 23.1999 83.2758 23.2213 83.2758 23.2499C83.2758 23.6897 83.4795 24.133 83.9515 24.1795C84.4234 24.226 84.6665 23.822 84.7666 23.3679C84.7809 23.2857 84.7059 23.1713 84.6272 23.2249Z" fill="#263238"/>
<path d="M89.6683 23.3786C89.6683 23.35 89.7255 23.4108 89.7255 23.4394C89.7255 24.1545 89.8542 24.9661 90.5085 25.177C90.5123 25.1787 90.5156 25.1814 90.5179 25.1849C90.5202 25.1884 90.5214 25.1925 90.5214 25.1967C90.5214 25.2008 90.5202 25.2049 90.5179 25.2084C90.5156 25.2119 90.5123 25.2147 90.5085 25.2163C89.7148 25.1341 89.5575 24.0544 89.6683 23.3786Z" fill="#263238"/>
<path d="M90.2761 22.61C91.413 22.4812 91.5918 24.7551 90.5371 24.891C89.4824 25.0268 89.3179 22.7208 90.2761 22.61Z" fill="#263238"/>
<path d="M90.7624 22.7243C90.9554 22.8316 91.1485 23.039 91.3666 23.0354C91.5847 23.0318 91.7849 22.7708 91.9279 22.5206C91.9279 22.4955 91.9601 22.5206 91.9637 22.5456C92.0101 22.9818 91.8993 23.4466 91.4846 23.5645C91.0698 23.6825 90.7981 23.3178 90.6587 22.8888C90.6337 22.8137 90.6873 22.6814 90.7624 22.7243Z" fill="#263238"/>
<path d="M85.832 29.3386C86.0036 29.5066 86.1895 29.7354 86.4327 29.7569C86.6964 29.7529 86.9562 29.6919 87.1942 29.5781C87.2192 29.5781 87.2407 29.5781 87.2264 29.6139C87.1254 29.754 86.9882 29.8639 86.8295 29.932C86.6707 30 86.4965 30.0235 86.3254 30C86.1798 29.9629 86.0486 29.8832 85.9486 29.7711C85.8486 29.659 85.7844 29.5196 85.7641 29.3708C85.7534 29.3314 85.807 29.3171 85.832 29.3386Z" fill="#263238"/>
<path d="M88.653 26.6035C88.653 26.6035 88.8603 27.6547 88.8889 28.1552C88.8889 28.2017 88.7709 28.2303 88.6029 28.2517C88.1777 28.3549 87.7323 28.3391 87.3155 28.206C86.8986 28.073 86.5265 27.8278 86.2397 27.4974C86.2039 27.4509 86.2647 27.3937 86.3112 27.4223C86.9733 27.8222 87.7474 27.9966 88.5171 27.9192C88.5457 27.7798 88.1024 26.1316 88.181 26.1316C88.5715 26.1433 88.9587 26.207 89.3323 26.3211C88.9747 24.1187 88.2597 21.9915 87.9022 19.7927C87.8996 19.7765 87.9029 19.7599 87.9116 19.746C87.9203 19.732 87.9337 19.7217 87.9494 19.7169C87.9651 19.7121 87.982 19.7132 87.9969 19.7199C88.0119 19.7266 88.024 19.7385 88.0309 19.7533C88.9426 21.9271 89.4216 24.4548 89.8614 26.7215C89.9079 26.9932 88.8568 26.675 88.653 26.6035Z" fill="#263238"/>
<path d="M88.0344 28.1373C87.7887 28.466 87.4624 28.7258 87.087 28.8917C86.8805 28.9756 86.6531 28.993 86.4363 28.9417C85.9608 28.8238 85.9429 28.3911 86.0251 28.0193C86.0761 27.8251 86.1505 27.6378 86.2468 27.4616C86.7563 27.8701 87.3821 28.1067 88.0344 28.1373Z" fill="#263238"/>
<path d="M87.0942 28.8917C86.8877 28.9756 86.6603 28.9931 86.4435 28.9418C85.968 28.8238 85.9501 28.3912 86.0323 28.0193C86.2813 28.0253 86.5211 28.1145 86.7135 28.2726C86.906 28.4307 87.04 28.6486 87.0942 28.8917Z" fill="#FF99BA"/>
<path d="M75.2707 24.7766C77.6876 24.7158 77.5338 20.9081 77.5338 20.9081C77.5338 20.9081 80.2653 20.5506 80.3118 16.1352C80.3118 16.1352 81.7419 18.7594 85.453 19.1741C86.2432 19.2635 83.5403 17.315 83.5403 17.315C83.5403 17.315 86.7938 20.0644 92.6143 18.7773C93.029 18.6843 91.9314 12.5349 87.2514 10.5864C82.5714 8.63785 78.4813 9.97857 75.7391 12.9782C75.7391 12.9782 72.4212 14.6443 72.1638 17.8477C71.9064 21.0511 74.3304 24.798 75.2707 24.7766Z" fill="#263238"/>
<path d="M84.2375 27.5367C83.6271 27.5329 83.0301 27.3578 82.5143 27.0314C81.9985 26.705 81.5847 26.2404 81.3199 25.6904C81.0551 25.1404 80.9501 24.5272 81.0167 23.9204C81.0832 23.3137 81.3188 22.7378 81.6965 22.2583C82.0743 21.7788 82.579 21.415 83.1533 21.2082C83.7276 21.0015 84.3484 20.9601 84.9451 21.0887C85.5418 21.2174 86.0904 21.5109 86.5284 21.936C86.9665 22.361 87.2765 22.9005 87.4231 23.493C87.5416 23.975 87.5486 24.4777 87.4437 24.9628C87.3387 25.4478 87.1245 25.9026 86.8174 26.2925C86.5102 26.6824 86.1182 26.9971 85.6712 27.2127C85.2241 27.4283 84.7338 27.5391 84.2375 27.5367ZM84.2768 21.4587C84.0419 21.456 83.8075 21.4837 83.5796 21.541C82.8819 21.7132 82.2761 22.1449 81.8856 22.7481C81.495 23.3514 81.3491 24.0809 81.4775 24.7879C81.606 25.495 81.9991 26.1266 82.5769 26.5539C83.1547 26.9813 83.8737 27.1723 84.5874 27.0881C85.3011 27.0039 85.9558 26.6509 86.4183 26.1008C86.8808 25.5508 87.1163 24.8451 87.0767 24.1275C87.0371 23.41 86.7255 22.7345 86.2053 22.2386C85.6851 21.7428 84.9955 21.4639 84.2768 21.4587Z" fill="#9BCDD6"/>
<path d="M91.6669 26.6714C90.4191 26.6714 89.2965 25.3808 89.1106 23.6897C89.0049 22.883 89.1563 22.0636 89.5432 21.3479C89.6898 21.0301 89.916 20.7556 90.2 20.551C90.4839 20.3464 90.8159 20.2187 91.1638 20.1802C91.5116 20.1417 91.8635 20.1938 92.1853 20.3314C92.5071 20.4689 92.7879 20.6873 93.0005 20.9653C93.5366 21.5837 93.8633 22.3559 93.9336 23.1713C94.1338 24.9589 93.2185 26.532 91.8814 26.6786C91.8099 26.6738 91.7384 26.6714 91.6669 26.6714ZM91.3773 20.5935C91.3225 20.5898 91.2676 20.5898 91.2128 20.5935C90.9373 20.6358 90.676 20.744 90.4513 20.909C90.2266 21.0739 90.0451 21.2907 89.9222 21.5409C89.5818 22.1767 89.4493 22.9032 89.5432 23.6182C89.7148 25.1663 90.7373 26.3282 91.8349 26.2067C92.9325 26.0851 93.6726 24.7265 93.501 23.1784C93.4361 22.4607 93.1472 21.7815 92.6751 21.2371C92.5147 21.0471 92.3164 20.8927 92.0929 20.7838C91.8695 20.6748 91.6257 20.6137 91.3773 20.6042V20.5935Z" fill="#9BCDD6"/>
<path d="M87.3551 23.8863L87.0405 23.586C87.4838 23.1176 88.56 22.4348 89.4466 23.1963L89.1606 23.5252C88.3705 22.8388 87.3944 23.8363 87.3551 23.8863Z" fill="#9BCDD6"/>
<path d="M73.0183 26.3139L72.6143 26.1566C72.6858 25.9671 73.3508 24.2939 74.3018 24.0329C75.1921 23.7862 81.0591 23.6754 81.3058 23.6754V24.1115C79.6254 24.1401 75.0991 24.2545 74.4127 24.444C73.7799 24.6264 73.1864 25.8563 73.0183 26.3139Z" fill="#9BCDD6"/>
<path d="M76.447 25.9886C76.447 25.9886 74.023 22.8352 72.5822 23.7111C71.1413 24.5871 73.0648 29.2349 74.8274 29.7891C75.0499 29.8774 75.288 29.9196 75.5273 29.9131C75.7666 29.9066 76.0021 29.8515 76.2194 29.7512C76.4368 29.6509 76.6315 29.5075 76.7917 29.3296C76.9519 29.1517 77.0743 28.9431 77.1514 28.7165L76.447 25.9886Z" fill="#EB9481"/>
<path d="M73.1649 25.0304C73.1603 25.0323 73.1563 25.0355 73.1535 25.0396C73.1507 25.0437 73.1492 25.0486 73.1492 25.0536C73.1492 25.0586 73.1507 25.0635 73.1535 25.0677C73.1563 25.0718 73.1603 25.075 73.1649 25.0769C74.4055 25.5166 75.0955 26.6142 75.5961 27.7619C75.2135 27.3293 74.7094 27.104 74.1267 27.5617C74.1215 27.5678 74.1183 27.5753 74.1175 27.5833C74.1167 27.5912 74.1184 27.5992 74.1223 27.6062C74.1261 27.6132 74.1321 27.6189 74.1392 27.6224C74.1464 27.6259 74.1545 27.6272 74.1624 27.626C74.373 27.5461 74.6034 27.5346 74.821 27.593C75.0385 27.6514 75.2321 27.7768 75.3744 27.9514C75.612 28.2422 75.8181 28.5574 75.9894 28.8917C76.0501 28.9989 76.2468 28.931 76.1967 28.8094V28.7808C76.1395 27.2292 74.8381 25.1126 73.1649 25.0304Z" fill="#263238"/>
<path d="M75.7855 29.2993C75.7855 29.37 75.7646 29.4391 75.7253 29.4979C75.686 29.5567 75.6302 29.6025 75.5648 29.6296C75.4995 29.6566 75.4276 29.6637 75.3583 29.6499C75.2889 29.6361 75.2252 29.6021 75.1752 29.5521C75.1252 29.5021 75.0912 29.4384 75.0774 29.369C75.0636 29.2997 75.0707 29.2278 75.0977 29.1624C75.1248 29.0971 75.1706 29.0413 75.2294 29.002C75.2882 28.9627 75.3573 28.9417 75.428 28.9417C75.5228 28.9417 75.6138 28.9794 75.6808 29.0465C75.7479 29.1135 75.7855 29.2044 75.7855 29.2993Z" fill="white"/>
<path d="M74.7523 28.6843C74.7523 28.7459 74.7278 28.805 74.6843 28.8486C74.6407 28.8922 74.5816 28.9167 74.5199 28.9167C74.4583 28.9167 74.3992 28.8922 74.3556 28.8486C74.312 28.805 74.2875 28.7459 74.2875 28.6843C74.2875 28.6227 74.312 28.5636 74.3556 28.52C74.3992 28.4764 74.4583 28.4519 74.5199 28.4519C74.5816 28.4519 74.6407 28.4764 74.6843 28.52C74.7278 28.5636 74.7523 28.6227 74.7523 28.6843Z" fill="white"/>
<path d="M82.5893 51.4516C82.5893 51.4516 80.1403 48.2338 82.4749 46.7322C84.8095 45.2306 86.7116 48.8237 86.7116 48.8237L82.5893 51.4516Z" fill="#455A64"/>
<path d="M101.956 72.7136L102.296 76.6643L102.418 77.9657L101.274 77.3186L97.8342 75.3414L82.5071 51.3157L86.6329 48.6843L101.96 72.7136H101.956Z" fill="#455A64"/>
<path d="M102.3 76.6679L102.418 77.9728L101.274 77.3221L102.3 76.6679Z" fill="#37474F"/>
<path d="M86.8884 48.341L82.0751 51.4122L82.6847 52.3676L87.4981 49.2964L86.8884 48.341Z" fill="#263238"/>
<path d="M87.5611 49.4013L82.7477 52.4725L83.3574 53.428L88.1707 50.3568L87.5611 49.4013Z" fill="#263238"/>
<path d="M83.358 53.4215L84.9096 52.4276L89.6004 61.6661L89.0069 61.9986L83.358 53.4215Z" fill="#263238"/>
<path d="M67.1228 44.2367C55.1421 56.936 41.4417 78.4913 47.0012 83.2714C52.0745 87.6403 71.0305 83.9864 82.9862 79.5996C85.2636 78.763 76.5293 58.5985 74.2018 59.739C71.7444 60.9676 69.213 62.0423 66.6222 62.9567C65.968 63.1176 69.3287 55.4201 73.4545 46.0851C78.0595 35.6847 73.9837 36.9753 67.1228 44.2367Z" fill="#EB9481"/>
<path d="M103.05 58.856C103.015 61.1799 97.2979 60.6007 97.2979 60.6007C98.1207 61.1695 98.7189 62.008 98.989 62.9711C99.3858 64.6908 96.8438 66.0673 96.8438 66.0673C97.5762 66.8352 98.0608 67.8056 98.2346 68.8524C98.4456 70.5363 96.0895 72.2882 96.0895 72.2882C96.3697 73.3651 96.2543 74.5069 95.7641 75.5059C94.334 78.1195 89.772 78.0801 86.9332 78.6128C83.7539 79.2802 80.6334 80.202 77.6018 81.3694L72.7895 60.404C72.7895 60.404 85.1992 53.3858 88.6207 53.6111C91.5417 53.8184 103.115 55.3093 103.05 58.856Z" fill="#EB9481"/>
<path d="M97.2586 60.5363C94.2411 59.5888 91.009 59.3672 87.8843 59.1848C87.8128 59.1848 87.8092 59.2921 87.8843 59.2921C90.9947 59.4387 94.141 60.4147 97.2371 60.6829C97.2549 60.6825 97.272 60.6759 97.2854 60.6641C97.2987 60.6524 97.3075 60.6363 97.31 60.6187C97.3126 60.6011 97.3089 60.5831 97.2994 60.568C97.29 60.553 97.2755 60.5417 97.2586 60.5363Z" fill="#263238"/>
<path d="M96.7903 65.8312C96.0858 65.6805 95.3644 65.624 94.6451 65.6632C93.88 65.6632 93.1185 65.6632 92.3534 65.6846C90.8279 65.7252 89.3025 65.8026 87.777 65.917C87.7091 65.917 87.6984 66.0243 87.777 66.0243C89.3001 65.9885 90.8231 65.9742 92.3462 66.0028C93.1065 66.0171 93.8681 66.0374 94.6308 66.0636C95.3446 66.135 96.0641 66.1266 96.776 66.0386C96.7994 66.0343 96.8207 66.0223 96.8366 66.0046C96.8525 65.9868 96.862 65.9642 96.8637 65.9405C96.8653 65.9167 96.859 65.893 96.8457 65.8733C96.8324 65.8535 96.8129 65.8387 96.7903 65.8312Z" fill="#263238"/>
<path d="M96.0609 72.2846C95.4674 72.0951 94.7309 72.2131 94.1195 72.2417C93.4235 72.2727 92.7275 72.3001 92.0315 72.3239C90.6372 72.374 89.2464 72.4205 87.8556 72.4205C87.8433 72.4236 87.8324 72.4308 87.8246 72.4408C87.8168 72.4508 87.8126 72.4632 87.8126 72.4759C87.8126 72.4886 87.8168 72.5009 87.8246 72.5109C87.8324 72.521 87.8433 72.5281 87.8556 72.5313C89.2857 72.5313 90.6872 72.5635 92.0995 72.5599C92.7966 72.5599 93.4902 72.5599 94.1838 72.5384C94.7773 72.5384 95.5138 72.5849 96.0716 72.3561C96.0781 72.3521 96.0833 72.3462 96.0866 72.3392C96.0898 72.3322 96.0909 72.3244 96.0898 72.3168C96.0887 72.3092 96.0853 72.3021 96.0802 72.2964C96.075 72.2906 96.0683 72.2865 96.0609 72.2846Z" fill="#263238"/>
<path d="M73.0183 38.6557C64.4377 43.5788 41.7813 73.4644 45.4888 82.0057C49.1964 90.547 76.6687 82.1595 76.6687 82.1595L75.0026 59.2349C75.0026 59.2349 67.7305 63.0211 67.4946 62.6528C67.2586 62.2846 71.7849 51.9843 73.6011 47.7941C75.4173 43.6039 77.5839 36.0422 73.0183 38.6557Z" fill="#EBEBEB"/>
<path d="M73.2686 80.7544C72.8646 77.719 71.6562 65.2449 71.5775 62.5206C71.5775 62.3311 71.6919 62.281 71.7205 62.4777C73.1506 71.541 73.1506 77.7262 73.3902 80.7115C73.3937 80.808 73.2793 80.8331 73.2686 80.7544Z" fill="#263238"/>
<path d="M74.8345 59.2492C74.0334 59.5166 73.2541 59.8453 72.5035 60.2324C71.8206 60.547 71.1377 60.8617 70.462 61.187C68.989 61.9021 67.5339 62.6171 66.0823 63.3822C64.6308 64.1473 63.1899 64.8945 61.7598 65.6811C60.3297 66.4677 58.9497 67.3329 57.5231 68.123C57.4588 68.1588 57.5231 68.2553 57.5839 68.2195C59.0355 67.4544 60.5371 66.7894 62.0029 66.0744L66.3183 63.9292C67.7484 63.2142 69.1999 62.517 70.6336 61.7841C71.3487 61.4265 72.0387 61.069 72.7395 60.7115C73.5086 60.3654 74.2529 59.9664 74.9668 59.5174C74.9884 59.4934 75.0023 59.4636 75.0067 59.4317C75.0112 59.3998 75.0059 59.3673 74.9917 59.3384C74.9774 59.3095 74.9548 59.2856 74.9268 59.2697C74.8988 59.2538 74.8667 59.2466 74.8345 59.2492Z" fill="#263238"/>
<path d="M72.6608 52.61C72.2067 53.157 71.7562 53.7076 71.3272 54.276C71.2486 54.3797 71.1771 54.4905 71.0984 54.5978L71.4559 53.7111C71.9252 52.6898 72.3369 51.643 72.6894 50.5756C72.6894 50.5256 72.6322 50.5041 72.6072 50.5435C72.0387 51.5707 71.5267 52.6282 71.0734 53.7111C70.5943 54.748 70.1045 55.7848 69.6433 56.8288C69.1821 57.8727 68.7066 58.9203 68.2668 59.9786C67.7928 61.0014 67.3948 62.0577 67.0762 63.1391C67.0762 63.2035 67.1477 63.2285 67.1835 63.1784C67.7858 62.1717 68.3116 61.1212 68.7566 60.0358C69.2321 58.9918 69.6754 57.9371 70.1331 56.8895C70.3261 56.4498 70.5085 56.0065 70.6944 55.5631L70.9232 55.2664C71.1377 54.9947 71.3379 54.7122 71.5346 54.4298C71.9386 53.8399 72.314 53.2392 72.6858 52.6421C72.6883 52.6384 72.6896 52.6339 72.6895 52.6294C72.6893 52.6249 72.6877 52.6206 72.685 52.617C72.6822 52.6134 72.6784 52.6108 72.674 52.6096C72.6697 52.6083 72.665 52.6084 72.6608 52.61Z" fill="#263238"/>
<path d="M80.4799 56.4212L79.8685 56.7179L74.9561 50.0608L74.8489 49.9178L74.9239 49.7605L76.7116 45.867L71.6097 45.6203H71.3558L71.4524 45.3951C72.4928 42.8924 73.5081 40.4076 74.57 37.9264C73.6869 40.3862 72.7824 42.8352 71.8635 45.2878L77.0941 45.413H77.4516L77.3051 45.749L75.5174 49.8499L80.4799 56.4212Z" fill="#DBDBDB"/>
<path d="M71.6347 45.2735H71.8778L71.792 45.5059L71.6347 45.2735Z" fill="#DBDBDB"/>
<path d="M75.4352 49.7104L75.5389 49.8499L75.471 50.0107L75.4352 49.7104Z" fill="#DBDBDB"/>
<path d="M76.8761 45.5488L77.0906 45.892L76.7259 45.8742L76.8761 45.5488Z" fill="#DBDBDB"/>
<path d="M113.701 85.5167L89.6862 87.2578L98.6637 55.6418L122.675 53.9006L113.701 85.5167Z" fill="white"/>
<path d="M115.342 85.3987L91.3308 87.1398L100.308 55.5238L124.32 53.7791L115.342 85.3987Z" fill="#455A64"/>
<path d="M102.861 55.3486C102.799 55.6207 102.684 55.8779 102.523 56.1055C102.362 56.3331 102.157 56.5267 101.921 56.675C101.703 56.8144 101.617 56.5213 101.835 56.389C102.138 56.1884 102.363 55.8909 102.475 55.5452C102.494 55.4894 102.509 55.432 102.518 55.3736C102.57 55.1804 102.57 54.9769 102.518 54.7837C102.494 54.7016 102.442 54.6306 102.371 54.5835C102.365 54.5846 102.359 54.5846 102.353 54.5835C102.353 54.5835 102.328 54.5835 102.325 54.5835H102.278C102.221 54.5744 102.162 54.5831 102.11 54.6085C102.008 54.6525 101.917 54.7199 101.846 54.8051C101.758 54.9138 101.686 55.0341 101.631 55.1627C101.595 55.2199 101.57 55.2807 101.538 55.345V55.3879C101.525 55.4073 101.517 55.4293 101.513 55.4523C101.512 55.4665 101.512 55.4809 101.513 55.4952L101.174 55.5202C101.238 55.3019 101.333 55.0937 101.456 54.9017C101.548 54.7364 101.674 54.5925 101.825 54.4797C101.977 54.3669 102.151 54.2877 102.335 54.2474C102.471 54.2351 102.606 54.2754 102.712 54.3599C102.819 54.4445 102.889 54.5668 102.908 54.7015C102.942 54.9179 102.926 55.1393 102.861 55.3486Z" fill="#9BCDD6"/>
<path d="M104.738 55.2056C104.612 55.7534 104.275 56.2297 103.801 56.532C103.58 56.6714 103.497 56.3783 103.716 56.246C104.018 56.0454 104.244 55.7479 104.356 55.4022C104.356 55.3486 104.388 55.2842 104.398 55.227C104.451 55.0351 104.451 54.8327 104.398 54.6407C104.375 54.5567 104.321 54.4842 104.248 54.4369H104.216H104.17C104.114 54.4276 104.056 54.4364 104.005 54.4619C103.902 54.5049 103.811 54.5724 103.741 54.6586C103.653 54.7608 103.581 54.8752 103.526 54.9982C103.489 55.0559 103.458 55.117 103.433 55.1805V55.2234C103.423 55.2443 103.415 55.2658 103.408 55.2878C103.408 55.2878 103.408 55.3164 103.408 55.3271L103.068 55.3522C103.134 55.1352 103.229 54.9283 103.351 54.7372C103.44 54.5703 103.566 54.4251 103.718 54.3121C103.87 54.199 104.045 54.1208 104.23 54.0829C104.366 54.0706 104.501 54.1109 104.607 54.1955C104.714 54.28 104.784 54.4023 104.802 54.537C104.836 54.7618 104.814 54.9913 104.738 55.2056Z" fill="#9BCDD6"/>
<path d="M106.626 55.0662C106.499 55.6159 106.162 56.0937 105.685 56.3962C105.467 56.5356 105.385 56.2388 105.603 56.1066C105.906 55.9073 106.132 55.611 106.243 55.2664C106.243 55.2092 106.275 55.1484 106.286 55.0912C106.336 54.899 106.336 54.6971 106.286 54.5048C106.261 54.4217 106.208 54.3498 106.136 54.3011H106.107H106.061C106.004 54.292 105.945 54.3007 105.893 54.3261C105.79 54.3679 105.7 54.4357 105.632 54.5227C105.545 54.6251 105.472 54.738 105.414 54.8588C105.378 54.916 105.353 54.9804 105.321 55.0447V55.0876C105.309 55.1077 105.301 55.1294 105.296 55.152C105.296 55.152 105.296 55.1806 105.296 55.1913L104.938 55.2163C105.007 55.0006 105.102 54.7941 105.221 54.6014C105.311 54.4352 105.437 54.2907 105.589 54.1777C105.74 54.0648 105.915 53.9861 106.1 53.9471C106.235 53.9346 106.37 53.9743 106.477 54.0581C106.584 54.1418 106.655 54.2633 106.676 54.3976C106.712 54.6213 106.695 54.8504 106.626 55.0662Z" fill="#9BCDD6"/>
<path d="M108.499 54.9303C108.373 55.48 108.035 55.9578 107.559 56.2603C107.341 56.3997 107.255 56.103 107.473 55.9707C107.776 55.7715 108.001 55.4751 108.113 55.1305C108.132 55.0734 108.147 55.0148 108.156 54.9553C108.21 54.7636 108.21 54.5606 108.156 54.369C108.133 54.2855 108.081 54.2132 108.009 54.1652H107.991C107.991 54.1652 107.966 54.1652 107.963 54.1652C107.947 54.1676 107.932 54.1676 107.916 54.1652C107.859 54.1592 107.801 54.1691 107.748 54.1938C107.645 54.2355 107.554 54.3032 107.484 54.3904C107.397 54.4923 107.325 54.6053 107.269 54.7265C107.234 54.7837 107.209 54.848 107.176 54.9124V54.9553C107.164 54.9737 107.156 54.9944 107.151 55.0161C107.15 55.0303 107.15 55.0447 107.151 55.059L106.812 55.084C106.877 54.8668 106.972 54.6598 107.094 54.4691C107.185 54.3029 107.31 54.1584 107.462 54.0454C107.614 53.9324 107.788 53.8538 107.974 53.8148C108.108 53.8024 108.243 53.8422 108.349 53.926C108.456 54.0098 108.526 54.1312 108.546 54.2653C108.583 54.4875 108.567 54.7154 108.499 54.9303Z" fill="#9BCDD6"/>
<path d="M110.376 54.7944C110.251 55.3435 109.914 55.8213 109.44 56.1244C109.218 56.2638 109.136 55.9671 109.354 55.8348C109.656 55.6356 109.882 55.3393 109.994 54.9946C109.994 54.9374 110.026 54.8766 110.037 54.8194C110.089 54.6263 110.089 54.4227 110.037 54.2295C110.012 54.1469 109.959 54.0758 109.886 54.0293C109.886 54.0293 109.861 54.0293 109.854 54.0293C109.839 54.0317 109.823 54.0317 109.808 54.0293C109.751 54.0231 109.694 54.033 109.643 54.0579C109.54 54.0997 109.449 54.1674 109.379 54.2546C109.29 54.3549 109.218 54.4683 109.164 54.5906C109.128 54.6496 109.096 54.7118 109.071 54.7765V54.8194C109.061 54.839 109.053 54.8594 109.046 54.8802C109.046 54.8802 109.046 54.9088 109.046 54.9231L108.707 54.9482C108.772 54.731 108.867 54.524 108.989 54.3332C109.079 54.1663 109.204 54.0211 109.356 53.9081C109.508 53.795 109.683 53.7168 109.869 53.6789C110.003 53.6665 110.138 53.7063 110.244 53.7901C110.351 53.8739 110.421 53.9954 110.441 54.1294C110.474 54.353 110.451 54.5813 110.376 54.7944Z" fill="#9BCDD6"/>
<path d="M112.257 54.6586C112.131 55.2077 111.795 55.6854 111.32 55.9886C111.098 56.128 111.016 55.8313 111.234 55.699C111.537 55.4998 111.763 55.2034 111.874 54.8588C111.874 54.8016 111.906 54.7373 111.917 54.6836C111.967 54.4902 111.967 54.2871 111.917 54.0937C111.891 54.0122 111.838 53.9417 111.767 53.8935H111.749C111.749 53.8935 111.724 53.8935 111.72 53.8935H111.674C111.617 53.8844 111.558 53.8931 111.506 53.9185C111.404 53.963 111.314 54.0317 111.245 54.1187C111.157 54.22 111.083 54.3331 111.027 54.4548C110.991 54.512 110.966 54.5764 110.934 54.6407V54.6801C110.923 54.7002 110.914 54.7219 110.909 54.7444C110.909 54.7444 110.909 54.773 110.909 54.7873L110.551 54.8123C110.62 54.5954 110.715 54.3877 110.834 54.1938C110.925 54.0285 111.051 53.8847 111.203 53.7724C111.354 53.6601 111.529 53.5819 111.713 53.5431C111.849 53.5297 111.984 53.5691 112.091 53.653C112.199 53.7369 112.269 53.8589 112.289 53.9936C112.331 54.2147 112.32 54.4426 112.257 54.6586Z" fill="#9BCDD6"/>
<path d="M114.134 54.5227C114.007 55.0724 113.67 55.5502 113.194 55.8527C112.975 55.9921 112.89 55.6954 113.108 55.5631C113.41 55.3639 113.636 55.0675 113.748 54.7229C113.767 54.6658 113.781 54.6072 113.791 54.5477C113.845 54.3548 113.845 54.1507 113.791 53.9578C113.766 53.8765 113.714 53.806 113.644 53.7576C113.638 53.7587 113.632 53.7587 113.626 53.7576C113.626 53.7576 113.601 53.7576 113.598 53.7576H113.551C113.494 53.7485 113.435 53.7572 113.383 53.7826C113.281 53.8267 113.19 53.894 113.118 53.9793C113.032 54.0824 112.96 54.1966 112.904 54.3189C112.868 54.3761 112.843 54.4405 112.811 54.5048V54.5442C112.798 54.5635 112.79 54.5855 112.786 54.6085C112.784 54.6228 112.784 54.6372 112.786 54.6514L112.446 54.6764C112.511 54.4581 112.606 54.2499 112.729 54.0579C112.82 53.8926 112.946 53.7488 113.097 53.6365C113.249 53.5242 113.423 53.446 113.608 53.4072C113.743 53.3939 113.878 53.4334 113.985 53.5174C114.092 53.6013 114.162 53.7233 114.18 53.8577C114.217 54.0799 114.201 54.3078 114.134 54.5227Z" fill="#9BCDD6"/>
<path d="M116.014 54.3869C115.888 54.9347 115.552 55.411 115.078 55.7133C114.856 55.8527 114.774 55.5596 114.992 55.4273C115.295 55.2267 115.52 54.9292 115.632 54.5835C115.632 54.5299 115.664 54.4655 115.675 54.4119C115.727 54.2187 115.727 54.0152 115.675 53.822C115.65 53.7393 115.597 53.6682 115.525 53.6218C115.525 53.6218 115.5 53.6218 115.492 53.6218H115.446C115.39 53.6125 115.332 53.6212 115.281 53.6468C115.179 53.6908 115.089 53.7582 115.017 53.8434C114.929 53.9456 114.857 54.0601 114.802 54.1831C114.768 54.242 114.737 54.3029 114.709 54.3654V54.4083C114.7 54.4291 114.691 54.4507 114.684 54.4727C114.684 54.4727 114.684 54.5013 114.684 54.5156L114.327 54.5406C114.392 54.3223 114.487 54.1141 114.609 53.9221C114.701 53.7565 114.826 53.6124 114.978 53.4996C115.13 53.3867 115.304 53.3077 115.489 53.2678C115.624 53.2555 115.759 53.2958 115.866 53.3803C115.972 53.4649 116.042 53.5872 116.061 53.7219C116.1 53.944 116.084 54.1723 116.014 54.3869Z" fill="#9BCDD6"/>
<path d="M117.895 54.251C117.769 54.7988 117.432 55.2751 116.958 55.5774C116.737 55.7169 116.654 55.4237 116.872 55.2914C117.175 55.0909 117.401 54.7933 117.512 54.4477C117.512 54.394 117.545 54.3297 117.555 54.276C117.606 54.0826 117.606 53.8795 117.555 53.6861C117.529 53.6035 117.476 53.5319 117.405 53.4823H117.387C117.387 53.4823 117.362 53.4823 117.359 53.4823H117.312C117.255 53.4732 117.196 53.482 117.144 53.5074C117.043 53.5519 116.954 53.6192 116.883 53.704C116.796 53.807 116.722 53.9212 116.665 54.0437C116.629 54.1009 116.604 54.1616 116.572 54.226V54.2689C116.561 54.289 116.552 54.3107 116.547 54.3332C116.547 54.3332 116.547 54.3618 116.547 54.3761L116.19 54.3976C116.258 54.1818 116.353 53.9753 116.472 53.7827C116.563 53.6169 116.689 53.4727 116.841 53.3598C116.992 53.247 117.167 53.168 117.352 53.1284C117.487 53.116 117.623 53.1562 117.73 53.2406C117.837 53.3251 117.908 53.4475 117.927 53.5824C117.969 53.8047 117.958 54.0338 117.895 54.251Z" fill="#9BCDD6"/>
<path d="M119.776 54.1151C119.648 54.6635 119.311 55.1399 118.835 55.4415C118.617 55.581 118.535 55.2878 118.749 55.1555C119.052 54.955 119.278 54.6574 119.389 54.3118C119.409 54.2548 119.424 54.1962 119.432 54.1366C119.487 53.9449 119.487 53.7419 119.432 53.5502C119.41 53.4668 119.358 53.3944 119.286 53.3464C119.286 53.3464 119.286 53.3464 119.268 53.3464H119.239H119.193C119.136 53.3373 119.077 53.3461 119.025 53.3715C118.921 53.4132 118.83 53.4809 118.76 53.5681C118.675 53.6705 118.603 53.7835 118.546 53.9042C118.51 53.965 118.485 54.0257 118.453 54.0901V54.133C118.44 54.1524 118.431 54.1743 118.428 54.1973C118.428 54.1973 118.428 54.226 118.428 54.2367L118.088 54.2617C118.154 54.0448 118.249 53.8379 118.371 53.6468C118.461 53.4806 118.587 53.336 118.738 53.2231C118.89 53.1101 119.065 53.0315 119.25 52.9925C119.385 52.9802 119.52 53.0205 119.627 53.105C119.733 53.1895 119.803 53.3119 119.822 53.4465C119.86 53.6699 119.844 53.8991 119.776 54.1151Z" fill="#9BCDD6"/>
<path d="M121.642 53.9757C121.516 54.5248 121.18 55.0025 120.705 55.3057C120.483 55.4451 120.401 55.1484 120.619 55.0161C120.922 54.8169 121.148 54.5205 121.259 54.1759C121.259 54.1187 121.292 54.0579 121.302 54.0007C121.354 53.8087 121.354 53.6063 121.302 53.4144C121.279 53.3304 121.225 53.2579 121.152 53.2106C121.152 53.2106 121.127 53.2106 121.12 53.2106C121.104 53.213 121.089 53.213 121.073 53.2106C121.017 53.2044 120.96 53.2143 120.909 53.2392C120.805 53.2809 120.714 53.3486 120.644 53.4358C120.558 53.5373 120.485 53.6504 120.43 53.7719C120.395 53.8316 120.364 53.8938 120.337 53.9578V54.0007C120.327 54.0215 120.319 54.043 120.312 54.0651C120.312 54.0651 120.312 54.0937 120.312 54.1044L119.972 54.1294C120.037 53.9122 120.132 53.7052 120.255 53.5145C120.345 53.348 120.47 53.2032 120.622 53.0902C120.774 52.9772 120.949 52.8987 121.134 52.8602C121.269 52.8478 121.404 52.8876 121.51 52.9714C121.616 53.0552 121.687 53.1766 121.706 53.3107C121.739 53.5343 121.717 53.7625 121.642 53.9757Z" fill="#9BCDD6"/>
<path d="M123.533 53.8398C123.408 54.389 123.071 54.8667 122.596 55.1698C122.375 55.3093 122.293 55.0125 122.511 54.8802C122.813 54.681 123.039 54.3847 123.151 54.0401C123.151 53.9829 123.183 53.9221 123.194 53.8649C123.244 53.6714 123.244 53.4684 123.194 53.275C123.167 53.1934 123.114 53.123 123.043 53.0747C123.043 53.0747 123.018 53.0747 123.015 53.0747C122.999 53.0771 122.984 53.0771 122.968 53.0747C122.911 53.0688 122.853 53.0787 122.8 53.1033C122.698 53.1452 122.608 53.213 122.539 53.3C122.451 53.4012 122.378 53.5144 122.321 53.6361C122.285 53.6933 122.26 53.7576 122.228 53.822V53.8649C122.217 53.8841 122.209 53.9045 122.203 53.9256C122.203 53.9256 122.203 53.9543 122.203 53.9686L121.846 53.9936C121.914 53.7776 122.009 53.571 122.128 53.3786C122.219 53.2125 122.344 53.0679 122.496 52.955C122.648 52.842 122.822 52.7633 123.008 52.7244C123.143 52.711 123.278 52.7503 123.386 52.8342C123.493 52.9181 123.564 53.0401 123.583 53.1748C123.619 53.3974 123.602 53.6252 123.533 53.8398Z" fill="#9BCDD6"/>
<path d="M123.14 60.8903C124.409 63.4895 127.573 66.7001 127.852 68.8309C127.94 69.3543 127.857 69.8922 127.616 70.3648C127.374 70.8375 126.987 71.2198 126.511 71.4552C126.511 71.4552 128.657 72.492 128.592 74.4691C128.56 75.4845 126.905 76.3282 126.905 76.3282C126.905 76.3282 128.585 77.2328 128.421 78.9882C128.288 80.3861 126.651 81.019 126.651 81.019C126.651 81.019 127.856 82.6421 127.266 84.0222C126.068 86.8216 114.016 86.9611 112.103 82.5456C111.209 80.4863 114.155 80.6114 114.155 80.6114C114.155 80.6114 109.965 79.4065 109.865 76.9217C109.765 74.4369 113.59 74.8338 113.59 74.8338C113.59 74.8338 109.536 73.6325 109.7 71.0476C109.872 68.3554 113.633 69.403 113.633 69.403C113.633 69.403 110.934 67.6153 111.513 65.6668C112.468 62.4491 117.591 66.4248 120.23 65.7633L121.642 61.3801L123.14 60.8903Z" fill="#EB9481"/>
<path d="M125.6 64.6443C124.609 62.0773 127.766 58.8595 127.173 56.2675C126.372 52.7637 122.457 56.2675 121.638 61.3658L121.699 65.4452L125.6 64.6443Z" fill="#EB9481"/>
<path d="M126.408 81.1584C126.414 81.1606 126.419 81.1647 126.423 81.1701C126.427 81.1756 126.429 81.1821 126.429 81.1888C126.429 81.1954 126.427 81.202 126.423 81.2074C126.419 81.2129 126.414 81.217 126.408 81.2192C122.453 82.2309 117.802 82.1308 113.984 80.6221C113.859 80.572 113.884 80.3468 114.034 80.3754C118.274 81.1798 122.096 81.5552 126.408 81.1584Z" fill="#263238"/>
<path d="M126.962 76.3497C127.008 76.3497 127.019 76.4248 126.962 76.4355C122.882 77.458 117.645 77.2006 113.447 74.9446C113.304 74.8659 113.254 74.6514 113.426 74.7301C116.336 76.0172 123.072 76.7287 126.962 76.3497Z" fill="#263238"/>
<path d="M113.376 69.142C117.484 71.1512 121.821 71.6446 126.347 71.5052C126.408 71.5052 126.404 71.5839 126.347 71.6017C124.152 72.2703 121.256 72.0594 119.018 71.7018C116.932 71.4099 114.96 70.5766 113.297 69.285C113.24 69.2349 113.287 69.099 113.376 69.142Z" fill="#263238"/>
<path d="M103.387 30.1895H100.884V27.4795H98.1738V24.9768H100.884V22.2668H103.387V24.9589H106.097V27.4616H103.387V30.1895ZM101.241 29.832H103.029V27.122H105.739V25.3343H103.029V22.6243H101.241V25.3165H98.5314V27.1041H101.241V29.832Z" fill="#9BCDD6"/>
<path d="M53.0147 54.5155H50.512V51.8055H47.802V49.3028H50.4942V46.5892H52.9969V49.3028H55.7105V51.8055H52.9969L53.0147 54.5155ZM50.8696 54.158H52.6572V51.448H55.3708V49.6603H52.6572V46.9467H50.8696V49.6603H48.1595V51.448H50.8517L50.8696 54.158Z" fill="#9BCDD6"/>
<path d="M204.734 140.683H164.048V87.0826H204.734V140.683Z" fill="#455A64"/>
<path d="M200.877 90.5184H167.906V137.243H200.877V90.5184Z" fill="white"/>
<path d="M180.258 90.5184H167.906V137.243H180.258V90.5184Z" fill="#EBEBEB"/>
<path d="M176.011 99.975C175.716 100.158 175.394 100.292 175.056 100.372C174.205 100.579 173.306 100.44 172.557 99.9859C171.807 99.5315 171.269 98.7986 171.059 97.9478C170.914 97.3554 170.936 96.7344 171.122 96.1535C171.308 95.5726 171.651 95.0545 172.113 94.6565C172.575 94.2584 173.139 93.9959 173.741 93.898C174.343 93.8001 174.96 93.8705 175.524 94.1016C176.089 94.3327 176.579 94.7154 176.939 95.2074C177.3 95.6994 177.517 96.2814 177.567 96.8893C177.618 97.4972 177.499 98.1071 177.224 98.6517C176.95 99.1962 176.53 99.6542 176.011 99.975Z" fill="#A6A6A6"/>
<path d="M175.271 96.7823C175.271 96.9819 175.213 97.1771 175.103 97.3434C174.992 97.5097 174.835 97.6395 174.651 97.7163C174.467 97.7932 174.264 97.8137 174.068 97.7752C173.872 97.7367 173.692 97.6409 173.551 97.5001C173.409 97.3592 173.313 97.1796 173.274 96.9839C173.235 96.7882 173.254 96.5853 173.331 96.4009C173.407 96.2164 173.536 96.0588 173.702 95.9478C173.868 95.8369 174.063 95.7777 174.262 95.7776C174.529 95.7776 174.785 95.8834 174.974 96.0717C175.163 96.26 175.27 96.5155 175.271 96.7823Z" fill="white"/>
<path d="M176.011 99.5603V99.975C175.716 100.158 175.394 100.292 175.056 100.372C174.63 100.478 174.187 100.497 173.753 100.429C173.32 100.36 172.904 100.204 172.532 99.9714V99.5603C172.521 99.3252 172.559 99.0905 172.641 98.8701C172.724 98.6498 172.85 98.4485 173.013 98.2784C173.175 98.1083 173.371 97.9729 173.587 97.8804C173.803 97.7879 174.036 97.7402 174.271 97.7402C174.507 97.7402 174.74 97.7879 174.956 97.8804C175.172 97.9729 175.368 98.1083 175.53 98.2784C175.693 98.4485 175.819 98.6498 175.902 98.8701C175.984 99.0905 176.022 99.3252 176.011 99.5603Z" fill="white"/>
<path d="M191.338 94.4691H182.439V95.0841H191.338V94.4691Z" fill="#EBEBEB"/>
<path d="M197.816 96.1709H182.439V96.7859H197.816V96.1709Z" fill="#EBEBEB"/>
<path d="M194.388 97.8692H182.439V98.4841H194.388V97.8692Z" fill="#EBEBEB"/>
<path d="M189.336 101.269H182.439V101.884H189.336V101.269Z" fill="#EBEBEB"/>
<path d="M194.388 102.971H182.439V103.586H194.388V102.971Z" fill="#EBEBEB"/>
<path d="M197.816 104.673H182.439V105.288H197.816V104.673Z" fill="#EBEBEB"/>
<path d="M191.338 106.371H182.439V106.986H191.338V106.371Z" fill="#EBEBEB"/>
<path d="M197.816 109.775H182.439V110.39H197.816V109.775Z" fill="#EBEBEB"/>
<path d="M193.594 111.473H182.439V112.088H193.594V111.473Z" fill="#EBEBEB"/>
<path d="M190.723 113.175H182.439V113.79H190.723V113.175Z" fill="#EBEBEB"/>
<path d="M196.29 114.877H182.439V115.492H196.29V114.877Z" fill="#EBEBEB"/>
<path d="M193.594 118.277H182.439V118.892H193.594V118.277Z" fill="#EBEBEB"/>
<path d="M197.816 119.979H182.439V120.594H197.816V119.979Z" fill="#EBEBEB"/>
<path d="M196.29 123.379H182.439V123.994H196.29V123.379Z" fill="#EBEBEB"/>
<path d="M190.644 125.08H182.439V125.695H190.644V125.08Z" fill="#EBEBEB"/>
<path d="M197.816 126.779H182.439V127.394H197.816V126.779Z" fill="#EBEBEB"/>
<path d="M193.594 130.182H182.439V130.797H193.594V130.182Z" fill="#EBEBEB"/>
<path d="M197.816 131.881H182.439V132.496H197.816V131.881Z" fill="#EBEBEB"/>
<path d="M196.29 133.582H182.439V134.197H196.29V133.582Z" fill="#EBEBEB"/>
<path d="M175.049 102.971H170.966V103.586H175.049V102.971Z" fill="#A6A6A6"/>
<path d="M177.763 104.673H170.966V105.288H177.763V104.673Z" fill="#A6A6A6"/>
<path d="M176.647 106.371H170.966V106.986H176.647V106.371Z" fill="#A6A6A6"/>
<path d="M177.763 109.775H170.966V110.39H177.763V109.775Z" fill="#A6A6A6"/>
<path d="M178.188 111.473H170.966V112.088H178.188V111.473Z" fill="#A6A6A6"/>
<path d="M176.032 113.175H170.966V113.79H176.032V113.175Z" fill="#A6A6A6"/>
<path d="M176.951 114.877H170.966V115.492H176.951V114.877Z" fill="#A6A6A6"/>
<path d="M194.702 83.9686H174.08V91.2764H194.702V83.9686Z" fill="#A6A6A6"/>
<path d="M191.728 86.8038H177.055V81.1334H191.728V86.8038Z" fill="#A6A6A6"/>
<path d="M47.0941 102.517H23.2114V138.341H47.0941V102.517Z" fill="#9BCDD6"/>
<path d="M49.9793 92.8996H20.3297V102.517H49.9793V92.8996Z" fill="#455A64"/>
<path d="M43.1041 112.828H27.2049V128.727H43.1041V112.828Z" fill="white"/>
<path opacity="0.1" d="M23.2114 102.517V105.306L36.6579 110.393V138.341H43.1041V102.517H23.2114Z" fill="black"/>
<path d="M15.8141 137.522C15.816 136.726 16.1342 135.962 16.6986 135.4C17.2631 134.837 18.0277 134.522 18.8245 134.523H24.7809C25.5771 134.523 26.3408 134.839 26.9045 135.401C27.4682 135.963 27.7858 136.726 27.7877 137.522C27.7858 138.319 27.4684 139.083 26.9049 139.646C26.3415 140.21 25.5778 140.527 24.7809 140.529H18.8281C18.03 140.529 17.2645 140.213 16.6994 139.649C16.1344 139.085 15.816 138.32 15.8141 137.522Z" fill="#455A64"/>
<path d="M15.8142 137.522C15.816 136.726 16.1342 135.962 16.6986 135.4C17.2631 134.837 18.0277 134.522 18.8245 134.523H21.8063V140.54H18.8245C18.4287 140.539 18.0369 140.461 17.6714 140.309C17.3059 140.157 16.9739 139.935 16.6944 139.655C16.4148 139.374 16.1932 139.042 16.0422 138.676C15.8912 138.31 15.8137 137.918 15.8142 137.522Z" fill="#9BCDD6"/>
<path d="M56.6794 137.519C56.6775 138.316 56.3593 139.079 55.7949 139.642C55.2304 140.204 54.4658 140.519 53.669 140.518H47.7126C47.3182 140.519 46.9276 140.442 46.5631 140.291C46.1985 140.141 45.8672 139.92 45.588 139.641C45.3088 139.363 45.0871 139.032 44.9358 138.668C44.7844 138.304 44.7063 137.913 44.7058 137.519C44.7068 136.722 45.0238 135.957 45.5875 135.394C46.1512 134.83 46.9154 134.513 47.7126 134.512H53.669C54.4665 134.513 55.2311 134.83 55.7953 135.394C56.3596 135.957 56.6775 136.721 56.6794 137.519Z" fill="#455A64"/>
<path d="M56.6793 137.519C56.6774 138.316 56.3593 139.079 55.7949 139.642C55.2304 140.204 54.4658 140.519 53.669 140.518H50.6872V134.512H53.669C54.4665 134.513 55.2311 134.83 55.7953 135.394C56.3596 135.957 56.6774 136.721 56.6793 137.519Z" fill="#9BCDD6"/>
<path d="M63.4366 138.745C63.1577 139.024 62.8266 139.245 62.4622 139.396C62.0978 139.547 61.7073 139.625 61.3129 139.625C60.9185 139.625 60.5279 139.547 60.1635 139.396C59.7991 139.245 59.468 139.024 59.1892 138.745L54.9775 134.533C54.6986 134.255 54.4774 133.923 54.3264 133.559C54.1755 133.195 54.0978 132.804 54.0978 132.41C54.0978 132.015 54.1755 131.625 54.3264 131.26C54.4774 130.896 54.6986 130.565 54.9775 130.286C55.5424 129.723 56.3074 129.407 57.1048 129.407C57.9022 129.407 58.6672 129.723 59.2321 130.286L63.4437 134.498C64.0034 135.063 64.3168 135.827 64.3155 136.623C64.3141 137.419 63.9982 138.181 63.4366 138.745Z" fill="#455A64"/>
<path d="M63.4366 138.745C63.1577 139.024 62.8266 139.245 62.4622 139.396C62.0978 139.547 61.7073 139.625 61.3129 139.625C60.9185 139.625 60.5279 139.547 60.1635 139.396C59.7991 139.245 59.4681 139.024 59.1892 138.745L57.0798 136.636L61.3343 132.381L63.4437 134.491C64.0056 135.056 64.3204 135.822 64.319 136.619C64.3177 137.417 64.0004 138.181 63.4366 138.745Z" fill="#9BCDD6"/>
<path d="M36.1931 143.536C36.195 142.739 36.5131 141.976 37.0776 141.413C37.642 140.851 38.4067 140.535 39.2035 140.536H45.1599C45.5543 140.536 45.9449 140.613 46.3094 140.764C46.674 140.914 47.0053 141.135 47.2845 141.413C47.5637 141.692 47.7853 142.023 47.9367 142.387C48.088 142.751 48.1662 143.142 48.1667 143.536C48.1667 144.334 47.85 145.099 47.2862 145.663C46.7224 146.228 45.9576 146.545 45.1599 146.546H39.2035C38.4054 146.545 37.6402 146.228 37.0759 145.664C36.5115 145.099 36.1941 144.334 36.1931 143.536Z" fill="#455A64"/>
<path d="M36.1931 143.536C36.195 142.739 36.5131 141.976 37.0776 141.413C37.642 140.851 38.4067 140.535 39.2035 140.536H42.1853V146.553H39.2035C38.8077 146.553 38.4159 146.475 38.0504 146.323C37.6849 146.171 37.3529 145.948 37.0734 145.668C36.7938 145.388 36.5722 145.055 36.4212 144.69C36.2701 144.324 36.1926 143.932 36.1931 143.536Z" fill="#9BCDD6"/>
</svg>
