<svg width="171" height="150" viewBox="0 0 171 150" fill="none" xmlns="http://www.w3.org/2000/svg">
<path d="M85.3509 150C107.7 150 125.817 147.127 125.817 143.584C125.817 140.04 107.7 137.167 85.3509 137.167C63.0022 137.167 44.8851 140.04 44.8851 143.584C44.8851 147.127 63.0022 150 85.3509 150Z" fill="#EBEBEB"/>
<path d="M40.4658 145.718C62.8145 145.718 80.9317 142.845 80.9317 139.301C80.9317 135.758 62.8145 132.885 40.4658 132.885C18.1172 132.885 0 135.758 0 139.301C0 142.845 18.1172 145.718 40.4658 145.718Z" fill="#EBEBEB"/>
<path d="M130.236 145.718C152.585 145.718 170.702 142.845 170.702 139.301C170.702 135.758 152.585 132.885 130.236 132.885C107.887 132.885 89.7701 135.758 89.7701 139.301C89.7701 142.845 107.887 145.718 130.236 145.718Z" fill="#EBEBEB"/>
<path d="M130.625 114.848C130.625 114.848 130.625 130.855 130.625 130.866C130.625 133.93 130.599 136.614 130.451 138C130.453 138.007 130.453 138.015 130.451 138.022C130.45 138.351 130.374 138.676 130.229 138.97C130.23 138.976 130.23 138.983 130.229 138.989C129.321 139.61 104.947 140.446 104.087 140.19C103.228 139.933 103.891 137.45 104.828 136.662C105.765 135.874 114.941 131.361 114.941 131.361L115.097 115.376L130.625 114.848Z" fill="#DD6A57"/>
<path d="M130.621 127.58V130.866C130.621 133.93 130.595 136.614 130.447 138C130.449 138.008 130.449 138.015 130.447 138.022C130.411 138.346 130.336 138.664 130.225 138.97C130.227 138.977 130.227 138.983 130.225 138.989C129.317 139.61 104.943 140.446 104.084 140.19C103.224 139.933 103.887 137.45 104.825 136.662C105.762 135.874 114.937 131.361 114.937 131.361L114.893 128.015L130.621 127.58Z" fill="#455A64"/>
<path d="M104.065 140.19C104.925 140.45 129.299 139.61 130.206 138.989C130.555 138.755 130.64 135.186 130.621 130.866V130.733L114.893 131.104V131.372C114.893 131.372 105.706 135.878 104.78 136.669C103.854 137.461 103.202 139.933 104.065 140.19Z" fill="#C7C7C7"/>
<path d="M104.31 139.231C108.414 138.989 124.994 138.402 129.069 138.487C129.103 138.487 129.103 138.509 129.069 138.513C124.994 138.84 108.421 139.294 104.31 139.312C104.243 139.309 104.221 139.238 104.31 139.231Z" fill="#263238"/>
<path d="M113.585 131.458C115.189 131.086 117.175 131.279 118.449 132.394C118.501 132.435 118.449 132.506 118.386 132.491C116.823 132.044 115.218 131.766 113.596 131.662C113.572 131.659 113.55 131.647 113.533 131.63C113.517 131.612 113.507 131.589 113.506 131.564C113.505 131.54 113.512 131.516 113.526 131.497C113.541 131.477 113.562 131.463 113.585 131.458Z" fill="#263238"/>
<path d="M112.441 132.201C114.048 131.829 116.034 132.026 117.308 133.138C117.356 133.182 117.308 133.253 117.241 133.238C115.68 132.79 114.076 132.511 112.455 132.405C112.431 132.403 112.409 132.392 112.392 132.374C112.375 132.357 112.364 132.334 112.363 132.309C112.361 132.285 112.368 132.261 112.382 132.241C112.396 132.221 112.417 132.207 112.441 132.201Z" fill="#263238"/>
<path d="M111.281 132.948C112.889 132.576 114.874 132.77 116.149 133.885C116.2 133.93 116.149 133.997 116.086 133.982C114.523 133.535 112.917 133.257 111.296 133.153C111.272 133.15 111.249 133.139 111.232 133.122C111.215 133.104 111.205 133.081 111.203 133.057C111.201 133.032 111.208 133.008 111.222 132.988C111.237 132.968 111.257 132.954 111.281 132.948Z" fill="#263238"/>
<path d="M132.022 55.4921L131.414 103.339L131.055 131.543L113.993 131.201L117.33 54.5367L117.501 45.7599H131.907L132.022 55.4921Z" fill="#265ED7"/>
<path d="M114.708 128.342C117.371 128.32 116.604 128.29 119.271 128.298C120.572 128.298 129.14 128.327 130.355 128.547C130.361 128.547 130.368 128.55 130.373 128.554C130.378 128.559 130.381 128.566 130.381 128.573C130.381 128.58 130.378 128.586 130.373 128.591C130.368 128.596 130.361 128.599 130.355 128.599C129.136 128.788 120.568 128.599 119.268 128.58C116.604 128.521 117.367 128.51 114.704 128.42C114.696 128.417 114.689 128.412 114.684 128.405C114.679 128.397 114.677 128.389 114.677 128.38C114.677 128.371 114.681 128.363 114.686 128.356C114.692 128.349 114.699 128.344 114.708 128.342Z" fill="#263238"/>
<path d="M122.309 58.4474C122.309 58.4395 122.306 58.4319 122.3 58.4264C122.295 58.4208 122.287 58.4177 122.279 58.4177C122.271 58.4177 122.264 58.4208 122.258 58.4264C122.253 58.4319 122.25 58.4395 122.25 58.4474C122.25 62.9269 122.109 67.4027 122.001 71.8784C121.894 76.3542 121.764 80.8263 121.631 85.302C121.39 94.2499 121.031 103.19 120.701 112.131C120.516 117.147 120.285 122.161 120.008 127.175C120.008 127.208 120.06 127.205 120.064 127.175C120.709 118.253 121.331 109.305 121.683 100.354C122.035 91.4023 122.29 82.4656 122.335 73.5141C122.368 68.4881 122.298 63.4733 122.309 58.4474Z" fill="#263238"/>
<path d="M132.022 55.4921L131.414 103.339L119.979 45.7599H131.907L132.022 55.4921Z" fill="#263238"/>
<path d="M134.022 115.328C134.022 115.328 136.063 130.569 136.063 130.595C136.081 133.658 136.152 136.342 136.319 137.725C136.317 137.732 136.317 137.74 136.319 137.747C136.321 138.076 136.401 138.4 136.552 138.692C136.552 138.692 136.552 138.71 136.552 138.714C137.467 139.324 161.849 139.881 162.704 139.614C163.56 139.346 162.867 136.87 161.941 136.093C161.015 135.316 151.765 130.911 151.765 130.911L149.206 114.926L134.022 115.328Z" fill="#DD6A57"/>
<path d="M135.796 127.32C135.955 129.231 136.063 130.584 136.063 130.595C136.081 133.658 136.152 136.342 136.318 137.725C136.317 137.732 136.317 137.74 136.318 137.747C136.357 138.071 136.436 138.388 136.552 138.692C136.552 138.692 136.552 138.71 136.552 138.714C137.467 139.324 161.849 139.881 162.704 139.614C163.56 139.346 162.867 136.87 161.941 136.093C161.015 135.316 151.765 130.911 151.765 130.911L151.462 127.536L135.796 127.32Z" fill="#455A64"/>
<path d="M162.723 139.614C161.867 139.881 137.485 139.324 136.57 138.71C136.219 138.483 136.093 134.915 136.063 130.599V130.461L151.799 130.643V130.911C151.799 130.911 161.037 135.312 161.975 136.093C162.912 136.874 163.582 139.346 162.723 139.614Z" fill="#C7C7C7"/>
<path d="M162.471 138.658C158.363 138.461 141.775 138.063 137.7 138.186C137.667 138.186 137.667 138.208 137.7 138.212C141.775 138.495 158.355 138.755 162.467 138.725C162.556 138.725 162.556 138.662 162.471 138.658Z" fill="#263238"/>
<path d="M153.547 130.729C151.936 130.391 149.954 130.591 148.691 131.721C148.643 131.766 148.691 131.833 148.758 131.818C150.314 131.353 151.916 131.056 153.536 130.933C153.56 130.93 153.582 130.919 153.599 130.901C153.615 130.883 153.625 130.86 153.627 130.836C153.628 130.811 153.621 130.787 153.606 130.768C153.592 130.748 153.571 130.735 153.547 130.729Z" fill="#263238"/>
<path d="M154.699 131.461C153.088 131.123 151.106 131.327 149.843 132.454C149.795 132.498 149.843 132.565 149.91 132.55C151.466 132.085 153.068 131.788 154.688 131.666C154.712 131.663 154.734 131.651 154.751 131.633C154.768 131.615 154.777 131.592 154.779 131.568C154.78 131.544 154.773 131.52 154.758 131.5C154.744 131.481 154.723 131.467 154.699 131.461Z" fill="#263238"/>
<path d="M155.851 132.194C154.24 131.855 152.254 132.06 150.995 133.186C150.947 133.231 150.995 133.298 151.062 133.283C152.618 132.817 154.22 132.521 155.84 132.398C155.864 132.395 155.887 132.383 155.903 132.366C155.92 132.348 155.929 132.325 155.931 132.3C155.932 132.276 155.925 132.252 155.91 132.233C155.896 132.213 155.875 132.199 155.851 132.194Z" fill="#263238"/>
<path d="M118.964 45.745C119.027 46.0424 120.034 50.7338 121.079 54.7634C121.838 57.7076 122.62 60.295 123.068 60.5626C123.576 60.8637 126.05 61.9641 126.88 62.3098L130.666 98.6476L135.73 131.353L152.769 130.461L140.623 56.0385L138.693 45.745H118.964Z" fill="#265ED7"/>
<path d="M135.83 128.231C138.489 128.06 137.722 128.071 140.382 127.926C141.686 127.855 150.239 127.402 151.465 127.554C151.491 127.554 151.495 127.606 151.465 127.61C150.258 127.866 141.697 128.171 140.393 128.22C137.734 128.309 138.497 128.253 135.833 128.316C135.828 128.317 135.822 128.316 135.817 128.314C135.812 128.312 135.807 128.309 135.803 128.305C135.798 128.301 135.795 128.297 135.793 128.292C135.79 128.287 135.789 128.281 135.789 128.275C135.789 128.27 135.789 128.264 135.791 128.259C135.793 128.254 135.796 128.249 135.8 128.245C135.804 128.24 135.808 128.237 135.813 128.235C135.818 128.232 135.824 128.231 135.83 128.231Z" fill="#263238"/>
<path d="M145.59 118.915C145.172 116.58 144.757 114.242 144.327 111.911C143.473 107.24 142.608 102.572 141.734 97.9078C139.983 88.5622 138.255 79.2141 136.548 69.8636C135.592 64.5812 135.618 65.0793 134.781 59.7745C134.781 59.7374 134.715 59.7448 134.722 59.7745C135.522 64.4845 135.144 63.4511 135.9 68.1722C136.656 72.8933 137.448 77.514 138.282 82.1757C139.956 91.5399 141.712 100.889 143.468 110.235C143.962 112.852 144.467 115.47 144.983 118.09C145.505 120.759 146.094 123.409 146.642 126.075C146.642 126.134 146.75 126.127 146.739 126.075C146.365 123.696 146.013 121.298 145.59 118.915Z" fill="#263238"/>
<path d="M140.979 60.1277C140.53 60.0162 140.056 59.979 139.601 59.9046C139.23 59.8489 138.86 59.782 138.489 59.7039C137.793 59.5764 137.133 59.2972 136.556 58.8861C135.926 58.3916 135.607 57.6482 135.3 56.9307C135.122 56.5032 134.929 56.0794 134.744 55.6593C134.655 55.4536 134.563 55.2492 134.466 55.046C134.337 54.8051 134.222 54.5569 134.122 54.3025C134.122 54.269 134.051 54.3025 134.066 54.3025C134.129 54.4749 134.181 54.6512 134.222 54.8304C134.285 55.0348 134.344 55.243 134.407 55.4474C134.518 55.8192 134.629 56.1909 134.748 56.5441C134.932 57.2129 135.193 57.8579 135.526 58.466C136.196 59.5403 137.396 59.953 138.6 60.124C138.945 60.1686 139.289 60.1946 139.638 60.2132C140.074 60.2522 140.513 60.2522 140.949 60.2132C140.957 60.2096 140.963 60.2045 140.969 60.1983C140.975 60.192 140.979 60.1847 140.982 60.1767C140.984 60.1687 140.986 60.1603 140.985 60.1519C140.984 60.1434 140.982 60.1352 140.979 60.1277Z" fill="#263238"/>
<path d="M121.753 59.9195C123.514 60.5645 125.216 61.3618 126.839 62.3024C126.906 62.3395 126.861 62.4399 126.795 62.4102C125.076 61.6667 123.324 60.9604 121.646 60.124C121.632 60.1169 121.621 60.1072 121.611 60.0955C121.601 60.0839 121.594 60.0704 121.589 60.0559C121.585 60.0414 121.583 60.0262 121.585 60.0111C121.586 59.9959 121.591 59.9813 121.598 59.9678C121.605 59.9544 121.614 59.9425 121.626 59.9328C121.638 59.9231 121.651 59.9158 121.665 59.9113C121.68 59.9068 121.695 59.9053 121.71 59.9067C121.725 59.9081 121.74 59.9124 121.753 59.9195Z" fill="#263238"/>
<path d="M121.238 48.1092C121.238 48.0498 121.346 48.0349 121.346 48.1092C121.344 50.0336 121.441 51.9568 121.635 53.8712C121.712 54.7597 122.427 59.6704 123.961 59.3098C124.217 59.2504 124.331 58.9976 124.391 58.6072C124.381 58.1053 124.313 57.6062 124.187 57.1203C124.016 56.0943 123.879 55.0645 123.791 54.0237C123.611 52.0911 123.633 50.1452 123.853 48.2171C123.853 48.2042 123.859 48.1919 123.868 48.1829C123.877 48.1738 123.889 48.1687 123.902 48.1687C123.914 48.1687 123.927 48.1738 123.936 48.1829C123.945 48.1919 123.95 48.2042 123.95 48.2171C123.906 50.8967 124.064 53.5758 124.42 56.2318C124.609 57.5106 125.25 59.4325 123.92 59.6295C122.59 59.8266 121.698 56.6073 121.523 55.73C121.097 53.2131 121.001 50.6511 121.238 48.1092Z" fill="#263238"/>
<path d="M123.92 59.4325C124.055 59.7647 124.17 60.1049 124.265 60.4511C124.364 60.7186 124.413 61.0022 124.409 61.2875C124.407 61.2991 124.401 61.3098 124.393 61.3182C124.385 61.3267 124.374 61.3324 124.363 61.3348C124.351 61.3372 124.339 61.3361 124.329 61.3317C124.318 61.3272 124.308 61.3196 124.302 61.3098C124.139 61.0585 124.014 60.7841 123.931 60.4957C123.813 60.1797 123.691 59.8675 123.583 59.5515C123.575 59.5293 123.572 59.5057 123.573 59.4822C123.575 59.4587 123.58 59.4357 123.591 59.4144C123.601 59.3932 123.615 59.3742 123.632 59.3585C123.65 59.3428 123.67 59.3307 123.692 59.3229C123.714 59.315 123.738 59.3117 123.761 59.313C123.785 59.3142 123.808 59.3202 123.829 59.3303C123.85 59.3405 123.869 59.3548 123.885 59.3723C123.9 59.3898 123.912 59.4103 123.92 59.4325Z" fill="#263238"/>
<path d="M117.33 54.5515L121.083 54.7932L132.025 55.4921L140.623 56.0385L138.693 45.745H118.964H117.482L117.33 54.5515Z" fill="#263238"/>
<path d="M124.091 24.63C123.431 27.3363 118.127 39.6782 118.164 40.6149C118.164 40.8306 119.245 40.7748 119.353 41.1168C119.801 42.4922 115.597 52.6928 114.044 53.0646C109.473 54.098 103.987 54.8564 104.069 51.0944C104.198 45.1911 113.967 30.3958 119.256 25.2286C122.764 21.8383 124.739 21.9572 124.091 24.63Z" fill="#AD6359"/>
<path d="M124.005 27.0427C122.75 30.4218 120.997 35.3622 120.997 35.3622L117.293 34.6485L111.333 33.4961C111.333 33.4961 116.497 26.7341 121.242 23.1877C123.661 21.381 124.676 21.4405 124.946 22.3513C125.235 23.3252 124.643 25.3215 124.005 27.0427Z" fill="#265ED7"/>
<path d="M124.005 27.0426C122.75 30.4218 120.997 35.3622 120.997 35.3622L117.293 34.6485L124.943 22.355C125.235 23.3252 124.643 25.3215 124.005 27.0426Z" fill="#263238"/>
<path d="M121.261 33.1281C118.652 32.5222 116.006 32.0901 113.341 31.8344C113.304 31.8344 113.3 31.8864 113.341 31.8902C114.082 31.9757 117.786 32.7675 121.261 33.1913C121.283 33.195 121.301 33.1392 121.261 33.1281Z" fill="#263238"/>
<path d="M141.919 53.4363C141.86 53.5032 116.234 53.5813 115.989 53.3174C115.663 52.9456 121.449 25.0836 124.079 21.6412C124.643 20.8978 126.498 20.7007 128.076 20.8978C128.488 20.9447 128.895 21.0281 129.291 21.1468H129.332C129.653 21.2405 129.955 21.3889 130.225 21.5855C134.615 25.1022 135.781 28.5259 136.893 31.3809C137.704 33.4961 138.671 37.0983 139.534 40.7897C140.967 46.8974 142.131 53.2096 141.919 53.4363Z" fill="#265ED7"/>
<path opacity="0.1" d="M127.791 32.8864H132.377V32.143H127.791V32.8864Z" fill="#263238"/>
<path d="M139.538 40.8157L128.088 20.9126C128.499 20.9596 128.906 21.043 129.303 21.1617H129.343C129.664 21.2553 129.966 21.4037 130.236 21.6003C134.626 25.117 135.793 28.5408 136.904 31.3957C137.708 33.5221 138.693 37.1243 139.538 40.8157Z" fill="#263238"/>
<path d="M130.747 25.4404C132.433 27.6709 141.734 35.7079 142.064 36.5629C142.394 37.418 139.504 40.5517 139.545 40.9086C139.708 42.3584 142.679 51.6631 143.909 50.6483C145.527 49.3174 152.984 40.0425 151.903 36.0499C150.821 32.0574 134.266 22.7936 131.655 22.0167C129.043 21.2397 129.08 23.2546 130.747 25.4404Z" fill="#AD6359"/>
<path d="M138.582 53.0646C137.715 52.3211 139.093 51.7189 139.093 51.7189C139.093 51.7189 136.904 52.0906 136.307 50.9754C135.711 49.8602 137.419 49.2319 137.545 49.1836C137.43 49.2022 135.407 49.4959 134.926 48.31C134.444 47.1241 136.233 46.7041 136.348 46.6781C136.233 46.6781 134.715 46.4178 134.552 45.4327C134.274 43.7376 138.678 44.0647 139.738 43.1725C139.738 43.1725 139.567 40.9421 139.541 40.8937C139.765 41.4106 140.157 41.8363 140.653 42.1019C141.567 42.4737 142.405 42.7376 142.734 43.2394C142.887 43.4584 142.967 43.7205 142.961 43.9878C142.956 44.2551 142.866 44.5138 142.705 44.7264C142.705 44.7264 143.916 44.7264 144.327 45.652C144.538 46.1242 143.957 46.8825 143.957 46.8825C144.232 46.8956 144.498 46.9853 144.725 47.1416C144.952 47.2978 145.131 47.5145 145.242 47.7673C145.494 48.4401 144.872 49.0981 144.872 49.0981C144.872 49.0981 145.787 49.5702 145.824 50.3434C145.935 51.927 140.441 54.6817 138.582 53.0646Z" fill="#AD6359"/>
<path d="M144.016 46.9123C144.035 46.9123 144.057 46.9308 144.038 46.9494C142.209 48.4819 139.894 49.3085 137.511 49.2803C137.426 49.2803 137.356 49.1873 137.452 49.1873C139.063 49.1316 142.319 47.9494 144.016 46.9123Z" fill="#263238"/>
<path d="M136.181 46.6297C138.511 46.6297 140.608 45.8863 142.653 44.8194C142.683 44.8194 142.697 44.8417 142.679 44.8602C141.819 45.6595 140.456 46.2097 139.345 46.5442C138.324 46.8758 137.235 46.9335 136.185 46.7115C136.141 46.7004 136.133 46.6297 136.181 46.6297Z" fill="#263238"/>
<path d="M144.99 49.1278C145.202 48.955 145.363 48.7268 145.453 48.4683C145.544 48.2099 145.562 47.9312 145.505 47.6632C145.425 47.4083 145.257 47.1907 145.031 47.0498C144.755 46.9171 144.452 46.8521 144.146 46.8602C144.34 46.6419 144.465 46.3698 144.503 46.0794C144.542 45.7889 144.492 45.4936 144.361 45.232C144.205 45.0047 143.972 44.8432 143.705 44.7785C143.396 44.7133 143.079 44.6895 142.764 44.7078C142.905 44.5679 143.012 44.3971 143.077 44.2089C143.142 44.0207 143.163 43.82 143.138 43.6223C143.105 43.4041 143.02 43.1969 142.891 43.0179C142.763 42.8389 142.593 42.6931 142.397 42.5926C141.937 42.3654 141.452 42.1908 140.953 42.0722C140.694 42.0041 140.446 41.9042 140.212 41.7748C140.004 41.6484 139.712 41.403 139.682 41.154C139.682 41.1019 139.601 41.1354 139.626 41.154C139.749 41.3138 139.823 41.4997 139.96 41.6484C140.1 41.7996 140.26 41.932 140.434 42.0424C140.873 42.2698 141.329 42.4637 141.797 42.6224C142.204 42.7847 142.548 43.0757 142.775 43.4513C142.874 43.649 142.917 43.8706 142.898 44.0912C142.879 44.3118 142.799 44.5227 142.668 44.7004C142.668 44.7004 142.668 44.7487 142.697 44.7487C142.978 44.7786 143.255 44.8435 143.52 44.942C143.741 45.0285 143.931 45.1801 144.064 45.377C144.181 45.6173 144.233 45.8843 144.215 46.1511C144.197 46.4179 144.109 46.6752 143.96 46.8974C144.26 46.9579 144.547 47.0699 144.809 47.2282C144.978 47.3587 145.107 47.5355 145.179 47.7375C145.26 47.9684 145.275 48.2174 145.223 48.4564C145.17 48.6954 145.053 48.9151 144.883 49.0907C144.882 49.0936 144.881 49.0968 144.881 49.1C144.881 49.1032 144.882 49.1063 144.883 49.1093C144.883 49.1093 145.175 49.2728 145.19 49.2765C145.205 49.2803 145.19 49.2765 145.19 49.2579C145.126 49.2114 145.059 49.168 144.99 49.1278Z" fill="#263238"/>
<path d="M145.446 29.4478L138.323 35.4329C138.323 35.4329 133.322 29.4144 131.181 26.5111C129.11 23.7044 126.958 19.7342 132.662 22.0501C138.141 24.2509 145.446 29.4478 145.446 29.4478Z" fill="#265ED7"/>
<path d="M143.616 28.5296C141.491 30.1692 139.476 31.9461 137.582 33.8492C137.552 33.8753 137.582 33.9162 137.622 33.8901C138.163 33.3623 141.127 30.9943 143.657 28.578C143.69 28.5519 143.646 28.5296 143.616 28.5296Z" fill="#263238"/>
<path d="M123.428 22.1319C123.479 22.6737 123.579 23.2098 123.724 23.7341C123.851 24.2589 124.017 24.7733 124.22 25.2732C124.403 25.7661 124.673 26.2219 125.017 26.6189C125.099 26.7047 125.192 26.7785 125.295 26.8382C125.342 26.8661 125.393 26.8874 125.446 26.9014H125.491H125.558C125.8 26.8284 126.033 26.7261 126.25 26.5966C127.174 26.0519 128.024 25.3882 128.777 24.6226C129.162 24.243 129.525 23.8422 129.866 23.4219C130.236 23.0092 130.544 22.5706 130.862 22.1282C130.353 23.1018 129.721 24.0062 128.984 24.8196C128.249 25.6507 127.388 26.3596 126.432 26.92C126.18 27.066 125.911 27.1796 125.632 27.2583C125.586 27.2623 125.54 27.2623 125.495 27.2583C125.441 27.2578 125.389 27.2478 125.339 27.2285C125.262 27.204 125.187 27.1716 125.117 27.1319C124.979 27.0556 124.854 26.9577 124.746 26.8419C124.38 26.4058 124.106 25.9 123.939 25.3549C123.578 24.32 123.404 23.2283 123.428 22.1319Z" fill="#263238"/>
<path d="M131.525 23.552C131.273 21.3996 128.562 21.1022 126.924 21.1171C124.854 21.1394 123.12 21.5892 122.479 23.7193C121.838 25.8494 121.805 28.1542 121.827 30.3326C121.819 30.4109 121.782 30.4834 121.723 30.5361C121.665 30.5887 121.589 30.6178 121.511 30.6178C121.432 30.6178 121.356 30.5887 121.298 30.5361C121.239 30.4834 121.202 30.4109 121.194 30.3326C121.172 27.8233 120.886 23.1022 123.109 21.4108C125.332 19.7193 131.71 19.8903 132.136 23.5371C132.184 23.9386 131.555 23.9535 131.507 23.5371L131.525 23.552Z" fill="#37474F"/>
<path d="M122.998 31.5866C123.028 30.7844 122.404 30.1098 121.605 30.0798C120.805 30.0498 120.133 30.6758 120.103 31.478C120.073 32.2802 120.697 32.9548 121.497 32.9848C122.296 33.0148 122.968 32.3888 122.998 31.5866Z" fill="#A6A6A6"/>
<path d="M120.686 31.5556C120.69 31.7292 120.745 31.8978 120.844 32.0401C120.944 32.1823 121.083 32.2918 121.244 32.3546C121.405 32.4174 121.582 32.4308 121.75 32.3931C121.919 32.3553 122.073 32.2681 122.193 32.1424C122.312 32.0168 122.392 31.8584 122.422 31.6874C122.451 31.5163 122.43 31.3402 122.36 31.1814C122.29 31.0227 122.174 30.8883 122.028 30.7955C121.882 30.7026 121.711 30.6553 121.538 30.6597C121.424 30.6621 121.311 30.6872 121.206 30.7336C121.101 30.78 121.006 30.8467 120.927 30.93C120.848 31.0132 120.786 31.1113 120.744 31.2187C120.703 31.3261 120.683 31.4406 120.686 31.5556Z" fill="#EBEBEB"/>
<path d="M130.618 30.6114C130.162 36.8715 130.677 38.2841 131.299 38.8789C131.762 39.2868 132.312 39.5831 132.907 39.7451L133.014 39.3176L132.959 39.5295L133.014 39.3176C132.495 39.1777 132.013 38.9238 131.603 38.5741C131.151 38.1429 130.606 36.8566 131.055 30.656L130.618 30.6114Z" fill="#EBEBEB"/>
<path d="M132.332 39.254L132.296 39.3634C132.225 39.5797 132.341 39.8132 132.557 39.8849L133.222 40.106C133.437 40.1777 133.67 40.0605 133.741 39.8442L133.777 39.7348C133.849 39.5184 133.732 39.285 133.516 39.2132L132.852 38.9922C132.636 38.9205 132.404 39.0377 132.332 39.254Z" fill="#A6A6A6"/>
<path d="M134.526 30.0166C136.544 34.2916 137.289 36.7079 136.867 37.5964C136.616 38.0753 136.261 38.4919 135.83 38.8157L136.081 39.1875C136.579 38.8209 136.984 38.3438 137.267 37.7934C137.767 36.7303 137.089 34.4255 134.922 29.8419L134.526 30.0166Z" fill="#EBEBEB"/>
<path d="M135.275 39.4887L135.348 39.5776C135.493 39.7533 135.752 39.778 135.927 39.6329L136.467 39.1854C136.642 39.0403 136.667 38.7802 136.522 38.6045L136.449 38.5156C136.304 38.34 136.045 38.3152 135.87 38.4603L135.33 38.9078C135.155 39.0529 135.131 39.313 135.275 39.4887Z" fill="#A6A6A6"/>
<path d="M135.037 29.6225C134.653 28.6646 134.211 27.7311 133.714 26.827C133.448 26.4356 133.081 26.1246 132.651 25.9274C132.562 25.9274 132.459 25.1839 132.388 24.5408C132.325 23.9869 132.266 23.3438 132.103 23.1914C132.012 23.1246 131.898 23.0959 131.787 23.1111C131.675 23.1263 131.573 23.1844 131.503 23.2732C131.384 23.4628 131.503 24.1022 131.581 24.6523C131.673 25.2769 131.773 26.0389 131.688 26.0575C131.352 26.3759 131.098 26.7714 130.947 27.2099C130.708 28.2396 130.547 29.286 130.466 30.34C130.447 31.0054 130.673 31.0463 130.866 31.0835C131.14 31.1206 131.273 30.9162 131.344 30.169C131.455 28.9869 131.51 27.0241 132.288 26.8828C133.074 26.8159 133.77 28.7415 134.214 29.8233C134.5 30.4924 134.659 30.5296 134.915 30.4218C135.096 30.3363 135.274 30.221 135.037 29.6225Z" fill="#A6A6A6"/>
<path d="M125.583 25.7155C126.009 25.7155 128.917 23.6449 129.847 21.9721C129.91 21.8569 129.751 20.6375 129.621 19.1431C129.547 18.2398 129.488 17.2287 129.499 16.303C129.499 16.1134 128.851 16.4554 128.851 16.4554L127.654 16.7305L123.698 17.645C124.014 18.8066 124.186 20.0026 124.213 21.2063C124.209 21.3311 124.195 21.4554 124.172 21.578C124.17 21.5991 124.17 21.6202 124.172 21.6412C124.035 22.3699 124.894 25.7118 125.583 25.7155Z" fill="#AD6359"/>
<path d="M124.172 21.5855C124.17 21.6065 124.17 21.6277 124.172 21.6487C124.368 21.6782 124.566 21.6919 124.765 21.6896C128.662 21.645 129.21 16.6822 129.21 16.6822L127.669 16.7305L123.713 17.645C124.028 18.8066 124.201 20.0026 124.228 21.2063C124.219 21.334 124.201 21.4608 124.172 21.5855Z" fill="#263238"/>
<path d="M129.692 8.45556C130.54 10.4332 130.11 16.4629 128.802 17.9424C126.91 20.0836 123.487 20.645 121.594 18.2881C119.742 16.0019 120.453 8.15445 121.942 6.76413C124.135 4.73814 128.443 5.53739 129.692 8.45556Z" fill="#AD6359"/>
<path d="M125.072 12.6637C125.072 12.6637 125.106 12.686 125.102 12.7046C125.061 13.1098 125.083 13.5782 125.443 13.738C125.443 13.738 125.443 13.764 125.443 13.7603C124.987 13.6599 124.987 13.0428 125.072 12.6637Z" fill="#263238"/>
<path d="M125.465 12.2659C126.117 12.2659 126.084 13.5744 125.465 13.5782C124.846 13.5819 124.917 12.2696 125.465 12.2659Z" fill="#263238"/>
<path d="M122.724 12.6674C122.724 12.6674 122.69 12.6674 122.69 12.7008C122.69 13.1098 122.627 13.5744 122.257 13.7008C122.257 13.7008 122.257 13.7269 122.257 13.7231C122.709 13.6599 122.79 13.054 122.724 12.6674Z" fill="#263238"/>
<path d="M122.372 12.2325C121.724 12.1655 121.631 13.4741 122.238 13.5373C122.846 13.6005 122.92 12.2882 122.372 12.2325Z" fill="#263238"/>
<path d="M125.998 11.6786C125.827 11.6235 125.659 11.559 125.495 11.4853C125.308 11.4437 125.141 11.3403 125.02 11.1916C124.991 11.138 124.98 11.076 124.989 11.0153C124.998 10.9547 125.028 10.899 125.072 10.857C125.173 10.7861 125.291 10.7438 125.413 10.7347C125.536 10.7255 125.659 10.7498 125.769 10.805C126.007 10.8807 126.209 11.0422 126.335 11.2585C126.362 11.3092 126.373 11.3667 126.368 11.4238C126.362 11.4809 126.34 11.5351 126.305 11.5798C126.269 11.6245 126.221 11.6576 126.166 11.6752C126.112 11.6927 126.053 11.6939 125.998 11.6786Z" fill="#263238"/>
<path d="M121.887 11.5559C122.068 11.5299 122.231 11.4778 122.409 11.4369C122.599 11.4187 122.778 11.3392 122.92 11.2102C122.958 11.1618 122.978 11.1023 122.978 11.041C122.978 10.9797 122.958 10.9202 122.92 10.8719C122.831 10.7881 122.721 10.7301 122.601 10.7039C122.482 10.6777 122.358 10.6844 122.242 10.7232C121.994 10.7632 121.77 10.896 121.616 11.0949C121.585 11.1414 121.568 11.1956 121.567 11.2514C121.565 11.3072 121.579 11.3622 121.608 11.4103C121.636 11.4584 121.677 11.4975 121.726 11.5233C121.776 11.549 121.831 11.5603 121.887 11.5559Z" fill="#263238"/>
<path d="M124.954 15.2213C124.846 15.3799 124.707 15.5146 124.545 15.617C124.383 15.7193 124.202 15.7871 124.013 15.816C123.848 15.8384 123.681 15.8384 123.516 15.816C123.484 15.8199 123.452 15.8199 123.42 15.816H123.335C123.313 15.8114 123.294 15.7998 123.279 15.7831C123.264 15.7663 123.255 15.7453 123.253 15.7231C123.252 15.7095 123.252 15.6958 123.253 15.6822V15.645C123.253 15.3328 123.298 14.857 123.298 14.857C123.183 14.9127 122.594 15.1581 122.605 14.9945C122.68 13.5831 122.899 12.183 123.257 10.8161C123.257 10.8063 123.261 10.7968 123.268 10.7898C123.275 10.7829 123.284 10.7789 123.294 10.7789C123.304 10.7789 123.313 10.7829 123.32 10.7898C123.327 10.7968 123.331 10.8063 123.331 10.8161C123.268 12.1209 122.979 13.4183 122.894 14.7157C123.105 14.6268 123.327 14.5667 123.553 14.5373C123.598 14.5373 123.453 15.4555 123.465 15.593C123.72 15.6262 123.98 15.6071 124.229 15.5368C124.477 15.4665 124.708 15.3466 124.909 15.1841C124.946 15.1469 124.987 15.1915 124.954 15.2213Z" fill="#263238"/>
<path d="M123.705 15.6711C123.87 15.8993 124.091 16.0811 124.346 16.1989C124.488 16.2575 124.644 16.2717 124.794 16.2398C125.12 16.1618 125.135 15.8681 125.083 15.6079C125.055 15.4715 125.011 15.3391 124.95 15.2138C124.594 15.4956 124.158 15.6559 123.705 15.6711Z" fill="#263238"/>
<path d="M124.346 16.1989C124.488 16.2575 124.644 16.2717 124.794 16.2398C125.12 16.1618 125.135 15.8681 125.083 15.6079C124.912 15.6092 124.747 15.6682 124.613 15.7754C124.479 15.8826 124.385 16.0317 124.346 16.1989Z" fill="#FF99BA"/>
<path d="M129.432 13.0131C128.05 12.9499 127.887 10.4109 127.887 10.4109C127.887 10.4109 125.532 9.92022 125.261 8.11355C125.261 8.11355 122.95 9.46297 121.186 8.74179C119.423 8.02062 119.897 6.02808 120.112 5.60801C120.327 5.18794 121.283 6.03551 121.283 6.03551C121.283 6.03551 121.442 4.92029 121.749 4.80133C122.057 4.68237 122.357 5.39984 122.357 5.39984C123.783 5.00657 125.261 4.82989 126.739 4.87568C128.806 5.02066 129.743 7.15818 129.743 7.15818C129.743 7.15818 130.855 7.4407 131.166 8.23623C131.477 9.03176 130.306 13.054 129.432 13.0131Z" fill="#263238"/>
<path d="M128.439 10.463C126.587 10.6303 125.428 9.34774 125.235 7.57825H125.202C125.202 9.22135 126.639 11.1172 128.454 10.5522C128.466 10.5502 128.477 10.5436 128.484 10.5339C128.49 10.5241 128.493 10.512 128.491 10.5001C128.489 10.4883 128.483 10.4777 128.473 10.4708C128.463 10.4638 128.451 10.461 128.439 10.463Z" fill="#263238"/>
<path d="M129.703 7.12471C129.68 7.12471 129.669 7.15073 129.703 7.15817C130.206 7.4221 130.788 7.62284 131.129 8.10983C131.54 8.69346 131.414 9.43694 131.225 10.0726C130.914 11.0577 130.351 12.3365 129.432 12.8867C129.424 12.8941 129.418 12.9043 129.416 12.9154C129.415 12.9265 129.417 12.9379 129.422 12.9477C129.428 12.9574 129.437 12.9647 129.448 12.9686C129.458 12.9724 129.47 12.9723 129.48 12.9685C130.592 12.3811 131.266 10.738 131.466 9.55218C131.688 8.24365 130.914 7.45928 129.703 7.12471Z" fill="#263238"/>
<path d="M123.224 8.55591C122.787 8.78701 122.295 8.89359 121.802 8.8641C121.309 8.83461 120.834 8.67017 120.427 8.38863C119.49 7.67117 119.742 6.56338 120.201 5.65261C120.223 5.608 120.157 5.55596 120.127 5.59685C119.519 6.39238 119.419 7.63399 120.183 8.37004C120.946 9.10609 122.383 9.16929 123.298 8.66744C123.376 8.62655 123.302 8.51131 123.224 8.55591Z" fill="#263238"/>
<path d="M128.962 13.4146C128.962 13.4146 130.125 11.3812 131.032 11.7789C131.94 12.1767 131.184 15.0465 130.203 15.5186C130.081 15.5876 129.946 15.631 129.807 15.6464C129.668 15.6618 129.527 15.6487 129.393 15.6081C129.26 15.5675 129.135 15.5001 129.028 15.4099C128.921 15.3198 128.833 15.2089 128.769 15.0837L128.962 13.4146Z" fill="#AD6359"/>
<path d="M130.795 12.5967C130.814 12.5967 130.818 12.5967 130.795 12.6228C130.11 12.9945 129.791 13.6748 129.591 14.3848C129.627 14.3097 129.678 14.2432 129.742 14.1898C129.805 14.1365 129.879 14.0975 129.959 14.0756C130.039 14.0537 130.123 14.0494 130.204 14.063C130.286 14.0766 130.364 14.1078 130.432 14.1543C130.432 14.1543 130.432 14.1952 130.432 14.1915C130.303 14.1633 130.169 14.1757 130.047 14.2269C129.925 14.2781 129.821 14.3657 129.751 14.4778C129.635 14.6667 129.539 14.8673 129.466 15.0763C129.44 15.1432 129.321 15.1209 129.34 15.0428C129.236 14.1172 129.829 12.7752 130.795 12.5967Z" fill="#263238"/>
<path d="M125.429 30.58L110.956 34.2847L115.761 53.1884L130.234 49.4837L125.429 30.58Z" fill="#455A64"/>
<path d="M114.986 34.4365L121.843 32.6722L121.31 30.5873L114.453 32.3516L114.986 34.4365Z" fill="#EBEBEB"/>
<path d="M116.011 31.9534L116.856 31.734L116.612 30.7712L118.664 30.2433L118.908 31.2062L119.753 30.9905L119.305 29.2359L115.552 30.2024L116.011 31.9534Z" fill="#EBEBEB"/>
<path d="M121.179 38.7674C121.399 38.9936 121.544 39.2819 121.596 39.5936C121.648 39.9053 121.603 40.2254 121.468 40.5109C121.992 40.62 122.463 40.9092 122.798 41.3287C123.35 42.0945 122.394 43.3026 122.394 43.3026C122.914 43.5286 123.355 43.9069 123.657 44.3881C124.113 45.1725 123.324 46.5294 123.324 46.5294C123.687 47.0026 123.868 47.591 123.835 48.1873C123.683 49.7747 121.509 50.8602 120.131 51.5665C118.753 52.2728 114.204 52.9828 113.344 53.2058L108.762 44.3918C108.762 44.3918 114.026 39.47 115.76 38.8715C117.208 38.3659 120.305 37.9347 121.179 38.7674Z" fill="#AD6359"/>
<path d="M121.335 40.403C119.653 40.5666 118.112 41.2171 116.537 41.7822C116.504 41.7822 116.537 41.8491 116.56 41.8342C118.119 41.258 119.771 40.9978 121.353 40.4811C121.362 40.4772 121.369 40.4704 121.373 40.4619C121.377 40.4533 121.378 40.4436 121.376 40.4344C121.374 40.4252 121.368 40.417 121.361 40.4113C121.353 40.4056 121.344 40.4027 121.335 40.403Z" fill="#263238"/>
<path d="M122.305 43.2023C121.927 43.2776 121.561 43.4026 121.216 43.574C120.838 43.7351 120.468 43.8987 120.105 44.0647C119.364 44.4017 118.623 44.7586 117.882 45.1353C117.853 45.1353 117.882 45.206 117.904 45.1911C118.645 44.8516 119.394 44.5294 120.149 44.2246C120.52 44.0721 120.89 43.9234 121.286 43.7785C121.654 43.6613 122.008 43.5056 122.342 43.3138C122.355 43.3073 122.365 43.2965 122.37 43.2833C122.375 43.2702 122.376 43.2556 122.371 43.2421C122.367 43.2286 122.358 43.2172 122.346 43.2099C122.333 43.2026 122.319 43.1999 122.305 43.2023Z" fill="#263238"/>
<path d="M123.29 46.5442C122.95 46.6096 122.624 46.7355 122.327 46.916L121.316 47.3918C120.642 47.7078 119.968 48.0238 119.282 48.3137C119.277 48.3158 119.272 48.3196 119.268 48.3246C119.265 48.3296 119.263 48.3355 119.263 48.3416C119.263 48.3477 119.265 48.3536 119.268 48.3586C119.272 48.3636 119.277 48.3674 119.282 48.3695C119.979 48.0758 120.683 47.7933 121.375 47.4959L122.398 47.0498C122.721 46.942 123.023 46.7785 123.29 46.5665C123.29 46.5665 123.305 46.5405 123.29 46.5442Z" fill="#263238"/>
<path d="M112.804 40.7971C112.466 40.9811 112.149 41.199 111.855 41.4477C111.548 41.6818 111.248 41.9235 110.951 42.1651C110.362 42.6409 109.777 43.1279 109.225 43.6521C108.673 44.1762 108.136 44.7041 107.614 45.2469L107.243 45.6186L107.084 45.7227C106.858 45.8714 106.64 46.0238 106.432 46.1911C106.029 46.5188 105.648 46.8727 105.291 47.2505C105.288 47.2562 105.286 47.2629 105.287 47.2696C105.288 47.2762 105.291 47.2824 105.296 47.2871C105.3 47.2918 105.306 47.2948 105.313 47.2956C105.32 47.2964 105.326 47.2949 105.332 47.2914C105.713 46.9316 106.12 46.601 106.551 46.3026L106.717 46.1874C106.514 46.4141 106.314 46.6483 106.128 46.89C105.628 47.5308 105.167 48.2025 104.75 48.9011C104.732 48.9345 104.78 48.9606 104.802 48.9308C105.569 47.6929 106.654 46.6706 107.714 45.6744C108.773 44.6781 109.833 43.5666 110.922 42.5443C111.233 42.2506 111.552 41.9644 111.877 41.6893C112.215 41.4289 112.539 41.151 112.848 40.8566C112.881 40.8194 112.841 40.7971 112.804 40.7971Z" fill="#263238"/>
<path d="M39.6398 114.848C39.6398 114.848 39.6398 130.855 39.6398 130.866C39.6398 133.93 39.662 136.614 39.8139 138C39.8122 138.008 39.8122 138.015 39.8139 138.022C39.8138 138.351 39.8886 138.675 40.0325 138.97C40.0325 138.97 40.0325 138.97 40.0325 138.989C40.9363 139.61 65.3143 140.446 66.1737 140.19C67.0331 139.933 66.3664 137.45 65.4329 136.662C64.4994 135.874 55.3461 131.361 55.3461 131.361L55.1905 115.376L39.6398 114.848Z" fill="#DD6A57"/>
<path d="M39.6398 127.58C39.6398 127.58 39.6398 130.855 39.6398 130.866C39.6398 133.93 39.662 136.614 39.8139 138C39.8122 138.008 39.8122 138.015 39.8139 138.022C39.8499 138.346 39.9233 138.664 40.0325 138.97C40.0325 138.97 40.0325 138.97 40.0325 138.989C40.9363 139.61 65.3143 140.446 66.1737 140.19C67.0331 139.933 66.3664 137.45 65.4329 136.662C64.4994 135.874 55.3461 131.361 55.3461 131.361L55.3905 128.015L39.6398 127.58Z" fill="#455A64"/>
<path d="M66.1997 140.19C65.3366 140.45 40.966 139.61 40.0584 138.989C39.7102 138.755 39.6213 135.186 39.6435 130.866V130.733L55.3757 131.104V131.372C55.3757 131.372 64.5624 135.878 65.4885 136.669C66.4145 137.461 67.0591 139.933 66.1997 140.19Z" fill="#C7C7C7"/>
<path d="M65.9552 139.231C61.8508 138.989 45.2704 138.402 41.1919 138.487C41.1586 138.487 41.1586 138.509 41.1919 138.513C45.2667 138.84 61.8397 139.294 65.9515 139.312C66.0404 139.309 66.0404 139.238 65.9552 139.231Z" fill="#263238"/>
<path d="M56.6796 131.458C55.0719 131.086 53.0864 131.279 51.8121 132.394C51.764 132.435 51.8121 132.506 51.8788 132.491C53.4401 132.044 55.0446 131.766 56.6648 131.662C56.689 131.659 56.7116 131.648 56.7286 131.631C56.7456 131.613 56.7559 131.59 56.7576 131.566C56.7594 131.542 56.7525 131.517 56.7383 131.497C56.724 131.478 56.7032 131.464 56.6796 131.458Z" fill="#263238"/>
<path d="M57.8243 132.201C56.2166 131.829 54.2311 132.026 52.9568 133.138C52.9049 133.182 52.9568 133.253 53.0198 133.238C54.5823 132.79 56.1879 132.511 57.8094 132.405C57.8337 132.403 57.8563 132.392 57.8733 132.374C57.8903 132.357 57.9005 132.334 57.9023 132.309C57.9041 132.285 57.8972 132.261 57.8829 132.241C57.8687 132.221 57.8479 132.207 57.8243 132.201Z" fill="#263238"/>
<path d="M58.9652 132.948C57.3612 132.576 55.372 132.77 54.0977 133.885C54.0496 133.93 54.0977 133.996 54.1644 133.982C55.7269 133.534 57.3326 133.257 58.9541 133.153C58.9781 133.15 59.0003 133.138 59.0169 133.12C59.0334 133.102 59.0432 133.079 59.0445 133.055C59.0458 133.031 59.0386 133.007 59.0241 132.987C59.0096 132.968 58.9888 132.954 58.9652 132.948Z" fill="#263238"/>
<path d="M56.2721 131.201L39.2101 131.543L39.5805 99.7888L39.5954 98.6624L39.6324 95.5064L40.0954 55.4921L40.2103 45.7599H54.6163L54.7867 54.5367L55.5646 94.6959L56.2721 131.201Z" fill="#265ED7"/>
<path d="M55.5572 128.342C52.8938 128.32 53.6569 128.29 50.9935 128.298C49.6896 128.298 41.1215 128.327 39.9065 128.547C39.8997 128.547 39.8931 128.549 39.8882 128.554C39.8833 128.559 39.8806 128.566 39.8806 128.573C39.8806 128.58 39.8833 128.586 39.8882 128.591C39.8931 128.596 39.8997 128.599 39.9065 128.599C41.1252 128.788 49.6896 128.599 50.9935 128.58C53.6569 128.521 52.8901 128.51 55.5535 128.42C55.562 128.418 55.5695 128.413 55.575 128.407C55.5805 128.4 55.5837 128.391 55.5841 128.383C55.5845 128.374 55.5821 128.365 55.5773 128.358C55.5724 128.351 55.5654 128.345 55.5572 128.342Z" fill="#263238"/>
<path d="M50.5564 48.7858C50.3786 58.9381 50.4008 69.0978 50.4119 79.2687C50.423 89.4395 50.4453 99.5286 50.4971 109.659C50.5231 115.372 50.4971 121.09 50.6231 126.8C50.6231 127.038 50.9935 127.015 50.9935 126.777C51.0268 121.688 50.9713 116.595 50.9528 111.502C50.9342 106.41 50.9305 101.32 50.9157 96.2275C50.891 86.0988 50.8589 75.9701 50.8194 65.8414C50.7898 60.1574 50.7712 54.4772 50.6601 48.7933C50.6564 48.7115 50.5564 48.7189 50.5564 48.7858Z" fill="#263238"/>
<path d="M52.7456 45.7599L39.5805 99.7888L40.2103 45.7599H52.7456Z" fill="#263238"/>
<path d="M36.243 115.328C36.243 115.328 34.2019 130.569 34.2019 130.595C34.1797 133.658 34.1093 136.342 33.9426 137.725C33.9443 137.732 33.9443 137.74 33.9426 137.747C33.9408 138.076 33.8621 138.399 33.7129 138.692C33.7129 138.692 33.7129 138.71 33.7129 138.714C32.8017 139.324 8.41992 139.881 7.56052 139.614C6.70112 139.346 7.39753 136.87 8.32731 136.093C9.25709 135.316 18.4993 130.911 18.4993 130.911L21.059 114.926L36.243 115.328Z" fill="#DD6A57"/>
<path d="M34.4649 127.32C34.3093 129.231 34.2019 130.584 34.2019 130.595C34.1797 133.658 34.1093 136.342 33.9426 137.725C33.9443 137.732 33.9443 137.74 33.9426 137.747C33.9042 138.07 33.8271 138.387 33.7129 138.692C33.7129 138.692 33.7129 138.71 33.7129 138.714C32.8017 139.324 8.41992 139.881 7.56052 139.614C6.70112 139.346 7.39753 136.87 8.32731 136.093C9.25709 135.316 18.4993 130.911 18.4993 130.911L18.8068 127.536L34.4649 127.32Z" fill="#455A64"/>
<path d="M7.53828 139.614C8.39768 139.881 32.7794 139.324 33.6944 138.71C34.0426 138.483 34.1722 134.915 34.1982 130.599V130.461L18.466 130.643V130.911C18.466 130.911 9.23856 135.312 8.30137 136.093C7.36418 136.874 6.67888 139.346 7.53828 139.614Z" fill="#C7C7C7"/>
<path d="M7.79389 138.658C11.902 138.461 28.4861 138.063 32.5609 138.186C32.5942 138.186 32.5942 138.208 32.5609 138.212C28.4861 138.495 11.902 138.755 7.79018 138.725C7.70869 138.725 7.70498 138.662 7.79389 138.658Z" fill="#263238"/>
<path d="M16.7176 130.729C18.3252 130.391 20.3107 130.591 21.5702 131.721C21.6221 131.766 21.5702 131.833 21.5072 131.818C19.9504 131.353 18.3484 131.056 16.7287 130.933C16.7046 130.93 16.6824 130.919 16.6659 130.901C16.6493 130.883 16.6396 130.86 16.6382 130.836C16.6369 130.811 16.6441 130.787 16.6586 130.768C16.6731 130.748 16.694 130.735 16.7176 130.729Z" fill="#263238"/>
<path d="M15.5655 131.461C17.1732 131.123 19.1587 131.327 20.4219 132.454C20.47 132.498 20.4219 132.565 20.3552 132.55C18.7984 132.085 17.1964 131.788 15.5767 131.666C15.5526 131.663 15.5304 131.651 15.5138 131.633C15.4973 131.615 15.4875 131.592 15.4862 131.568C15.4849 131.544 15.4921 131.52 15.5066 131.5C15.5211 131.481 15.5419 131.467 15.5655 131.461Z" fill="#263238"/>
<path d="M14.4135 132.194C16.0248 131.855 18.0066 132.06 19.2698 133.186C19.318 133.231 19.2698 133.298 19.2031 133.283C17.6464 132.817 16.0443 132.521 14.4246 132.398C14.4005 132.395 14.3783 132.383 14.3617 132.366C14.3452 132.348 14.3354 132.325 14.3341 132.3C14.3328 132.276 14.34 132.252 14.3545 132.233C14.369 132.213 14.3899 132.199 14.4135 132.194Z" fill="#263238"/>
<path d="M53.1531 45.745C53.0901 46.0424 52.0826 50.7338 51.0379 54.7635C50.2786 57.7077 49.497 60.295 49.0487 60.5626C48.5412 60.8637 46.0668 61.9641 45.237 62.3098L40.0917 95.4692L39.5991 98.6476L34.5242 131.339L17.4843 130.446L23.9113 96.2907L31.494 56.0385L33.4351 45.7301L53.1531 45.745Z" fill="#265ED7"/>
<path d="M34.4353 128.231C31.7756 128.06 32.5424 128.071 29.8827 127.926C28.5787 127.855 20.0255 127.402 18.7994 127.554C18.7734 127.554 18.7697 127.606 18.7994 127.61C20.007 127.866 28.5676 128.171 29.8716 128.22C32.5349 128.309 31.7719 128.253 34.4353 128.316C34.4797 128.313 34.4834 128.235 34.4353 128.231Z" fill="#263238"/>
<path d="M37.6284 49.1241C36.7431 54.1278 35.7466 59.1165 34.8279 64.1165C33.9093 69.1164 32.9758 74.1163 32.0497 79.1162C30.205 89.069 28.3392 99.0156 26.4525 108.956C25.3894 114.554 24.304 120.145 23.2779 125.751C23.2483 125.907 23.4853 125.971 23.5187 125.811C25.5635 115.852 27.4267 105.852 29.3085 95.8558C31.1903 85.8596 33.0128 75.9527 34.7798 65.9863C35.7799 60.3767 36.6838 54.7486 37.6839 49.139C37.6914 49.1018 37.6358 49.0869 37.6284 49.1241Z" fill="#263238"/>
<path d="M50.3601 59.9195C48.5941 60.5638 46.8874 61.3611 45.2592 62.3024C45.2468 62.3099 45.2375 62.3217 45.2331 62.3356C45.2288 62.3494 45.2296 62.3645 45.2356 62.3778C45.2415 62.3911 45.2521 62.4017 45.2653 62.4077C45.2786 62.4137 45.2935 62.4145 45.3074 62.4102C47.0262 61.6667 48.7783 60.9604 50.4527 60.124C50.4797 60.1116 50.5007 60.0891 50.5112 60.0612C50.5216 60.0333 50.5205 60.0024 50.5082 59.9753C50.496 59.9482 50.4735 59.9271 50.4457 59.9166C50.4179 59.9061 50.3871 59.9072 50.3601 59.9195Z" fill="#263238"/>
<path d="M50.8787 48.1093C50.8787 48.0498 50.7675 48.0349 50.7712 48.1093C50.7712 50.1576 50.6527 51.9605 50.4823 53.8713C50.4008 54.7597 49.6896 59.6704 48.156 59.3099C47.8967 59.2504 47.7671 58.9976 47.7263 58.6073C47.7339 58.1051 47.8023 57.6058 47.93 57.1203C48.1004 56.0943 48.2375 55.0646 48.3264 54.0237C48.5037 52.0911 48.4826 50.1453 48.2634 48.2171C48.2604 48.2061 48.2539 48.1964 48.2449 48.1895C48.2358 48.1826 48.2248 48.1788 48.2134 48.1788C48.2021 48.1788 48.191 48.1826 48.182 48.1895C48.1729 48.1964 48.1664 48.2061 48.1634 48.2171C48.21 50.8967 48.054 53.5759 47.6967 56.2318C47.504 57.5106 46.8632 59.4325 48.193 59.6296C49.5229 59.8266 50.4156 56.6073 50.5934 55.73C51.016 53.2128 51.1119 50.6512 50.8787 48.1093Z" fill="#263238"/>
<path d="M48.1967 59.4325C48.0582 59.7635 47.9431 60.1039 47.8522 60.4511C47.7532 60.7186 47.7043 61.0022 47.7078 61.2875C47.7078 61.3396 47.7856 61.347 47.8152 61.3098C47.9784 61.0585 48.1032 60.7841 48.1856 60.4957C48.3005 60.1797 48.4264 59.8675 48.5338 59.5515C48.5416 59.5293 48.545 59.5057 48.5437 59.4822C48.5424 59.4587 48.5365 59.4357 48.5264 59.4145C48.5162 59.3932 48.502 59.3742 48.4845 59.3585C48.4671 59.3428 48.4467 59.3307 48.4246 59.3229C48.4024 59.3151 48.379 59.3117 48.3555 59.313C48.3321 59.3143 48.3092 59.3202 48.288 59.3304C48.2669 59.3405 48.2479 59.3548 48.2323 59.3723C48.2166 59.3899 48.2045 59.4103 48.1967 59.4325Z" fill="#263238"/>
<path d="M55.5646 94.6997L40.088 95.4878L39.6324 95.5101L23.9224 96.3093L31.494 56.0385L33.4351 45.7301H53.1531H54.6348L54.8052 54.507L55.5646 94.6997Z" fill="#263238"/>
<path d="M57.902 92.5622C57.6687 92.8261 23.452 92.5622 23.3927 92.5064C23.3334 92.4506 23.7076 90.2276 24.3706 86.6552C26.934 72.8301 33.8351 38.6782 36.9208 30.1504C38.2692 26.407 40.1769 23.4591 42.3995 21.7676C42.5844 21.6308 42.7846 21.5161 42.9959 21.4256C44.6147 20.7082 47.7522 20.4814 48.6672 21.5706C49.3858 22.4219 51.4973 28.8865 52.7086 34.0091C58.228 57.3099 58.1836 92.2462 57.902 92.5622Z" fill="#265ED7"/>
<path d="M42.9959 21.4145C42.4884 23.3289 28.275 73.0048 24.3707 86.6552C26.934 72.8301 33.8352 38.6782 36.9209 30.1504C38.2692 26.407 40.1769 23.4591 42.3995 21.7676C42.5839 21.6269 42.7841 21.5084 42.9959 21.4145Z" fill="#263238"/>
<path d="M49.2673 23.0204C49.8526 24.8791 52.0937 31.3437 53.2457 35.9645C54.0162 39.0685 54.2311 41.6447 54.3977 42.3287C54.3977 42.3287 47.3225 39.5704 45.6963 39.47C43.1959 39.3139 38.8693 44.3026 39.8139 45.0461C41.2956 46.1613 48.4449 51.3657 54.3533 52.4326C59.2096 53.3137 64.0919 50.3695 63.8363 45.7599C63.5807 41.1503 55.5646 28.288 52.6456 24.6784C51.1305 22.7974 48.5523 20.7714 49.2673 23.0204Z" fill="#DD6A57"/>
<path d="M64.103 46.771C62.9917 52.0869 58.5021 52.8267 56.1203 52.8304C52.0122 52.8304 44.0183 49.8565 42.0957 48.4215C40.1732 46.9866 40.4807 45.5368 40.4807 45.5368L45.2296 38.8455C46.0697 38.7377 46.9226 38.7946 47.7411 39.0128C48.7894 39.3845 54.1866 42.2172 54.4089 42.3101C54.3496 42.061 52.753 34.1727 51.9862 31.5296C51.9455 31.3846 51.8973 31.2359 51.8529 31.0798C51.6306 30.3363 51.3232 29.3884 50.9824 28.3475C50.7935 27.7713 50.612 27.1691 50.3971 26.5743C49.5377 23.9981 48.6968 21.5446 48.6968 21.5446C50.0896 21.8606 51.4343 22.6859 53.5717 25.2248C55.7091 27.7638 65.2143 41.4551 64.103 46.771Z" fill="#265ED7"/>
<path d="M55.8239 52.8639C55.5424 52.7932 55.2498 52.7635 54.9682 52.6929C54.6867 52.6222 54.3459 52.5404 54.0348 52.4735C53.4606 52.3471 52.8938 52.2133 52.3271 52.0609C51.1528 51.7449 49.9896 51.3843 48.8302 51.0126C47.6708 50.6408 46.5187 50.2691 45.3704 49.8973C44.2763 49.5622 43.2322 49.0808 42.2662 48.4661C41.7597 48.1417 41.3247 47.7166 40.9882 47.2171C40.7901 46.9458 40.6498 46.6364 40.5759 46.3084C40.5019 45.9803 40.496 45.6405 40.5585 45.3101C40.5585 45.2729 40.5066 45.258 40.4992 45.3101C40.3927 45.8276 40.4131 46.3634 40.5585 46.8714C40.7381 47.3735 41.0265 47.8293 41.4031 48.2059C42.2419 49.0026 43.241 49.6098 44.3332 49.9866C45.5037 50.4512 46.715 50.8118 47.9115 51.1947C49.108 51.5776 50.3786 51.9977 51.6158 52.3434C52.29 52.5293 52.9753 52.6966 53.668 52.8192C53.9987 52.8826 54.3326 52.9272 54.6682 52.9531C55.0376 52.9871 55.4086 52.9995 55.7795 52.9902C55.7877 52.9932 55.7965 52.9944 55.8053 52.994C55.814 52.9935 55.8226 52.9913 55.8305 52.9875C55.8384 52.9837 55.8455 52.9784 55.8514 52.9718C55.8572 52.9653 55.8618 52.9577 55.8647 52.9494C55.8676 52.9411 55.8689 52.9323 55.8684 52.9235C55.8679 52.9147 55.8657 52.9061 55.8619 52.8981C55.8582 52.8902 55.8529 52.8831 55.8463 52.8772C55.8398 52.8713 55.8322 52.8668 55.8239 52.8639Z" fill="#263238"/>
<path d="M58.8281 44.3807C57.7835 43.8503 56.7339 43.3262 55.6794 42.8082C55.9165 42.8454 56.1573 42.8789 56.3944 42.9235C56.8401 42.9988 57.2762 43.1235 57.6946 43.2952C57.7012 43.2969 57.7081 43.2963 57.7143 43.2935C57.7205 43.2907 57.7255 43.2858 57.7286 43.2797C57.7316 43.2736 57.7324 43.2667 57.731 43.26C57.7295 43.2534 57.7258 43.2474 57.7205 43.2432C56.9796 42.9123 56.1202 42.5517 55.2757 42.6112L53.3976 41.6856C52.5011 41.2432 51.6121 40.7971 50.7231 40.3436C49.9072 39.8979 49.0647 39.5031 48.2004 39.1614C47.2585 38.7907 46.2321 38.6915 45.237 38.8752C45.2074 38.8752 45.2148 38.9347 45.237 38.931C47.1262 38.7748 48.8376 39.7674 50.4712 40.5889C52.2085 41.47 53.9532 42.3436 55.735 43.1316C56.7463 43.5777 57.765 44.0201 58.7911 44.429C58.8355 44.4402 58.8614 44.3956 58.8281 44.3807Z" fill="#263238"/>
<path d="M45.4815 48.4438C44.574 47.9581 43.7068 47.3999 42.8885 46.7747C42.5518 46.4957 42.2418 46.1858 41.9624 45.8491C41.8076 45.6591 41.6653 45.4592 41.5364 45.2506C41.4845 45.1651 41.429 45.0759 41.3808 44.9866C41.3808 44.9643 41.1622 44.5183 41.2289 44.522C41.2956 44.5257 41.266 44.4699 41.2289 44.4662C40.9807 44.4365 41.3697 45.2097 41.4178 45.3212C41.6626 45.8003 41.9885 46.233 42.381 46.6C43.2871 47.3931 44.3236 48.022 45.4444 48.4587C45.4444 48.4587 45.4963 48.4513 45.4815 48.4438Z" fill="#263238"/>
<path d="M48.6968 41.7674C48.0318 41.2477 47.3097 40.8061 46.5446 40.4514C46.1706 40.3076 45.7796 40.2127 45.3815 40.1689C44.9532 40.1471 44.5238 40.1682 44.0998 40.2321C44.0627 40.2321 44.0627 40.2953 44.0998 40.2915C44.534 40.2635 44.97 40.2935 45.3963 40.3808C45.7826 40.439 46.1632 40.531 46.5335 40.6559C46.922 40.7892 47.2946 40.9649 47.6448 41.18C47.9688 41.4244 48.3192 41.6314 48.6894 41.7971C48.6894 41.7971 48.7116 41.7748 48.6968 41.7674Z" fill="#263238"/>
<path d="M46.8261 40.1131C46.0853 39.8454 45.2926 39.5146 44.4998 39.8194C44.4935 39.8227 44.4886 39.8281 44.486 39.8346C44.4833 39.8412 44.483 39.8485 44.4853 39.8553C44.4875 39.862 44.4921 39.8677 44.4982 39.8714C44.5042 39.875 44.5114 39.8764 44.5184 39.8752C45.2814 39.6112 46.0853 39.9532 46.8224 40.1428C46.8521 40.1466 46.8595 40.1205 46.8261 40.1131Z" fill="#263238"/>
<path d="M45.763 44.9829C45.6844 44.8546 45.5991 44.7305 45.5074 44.6112C45.3966 44.4841 45.2724 44.3695 45.137 44.2692C45.3795 44.4486 45.5679 44.6918 45.6815 44.9718C45.3333 45.0238 45.0444 44.745 44.7925 44.5406C44.5406 44.3361 44.2776 44.1093 44.0294 43.8863C43.5294 43.4396 43.0568 42.9629 42.6144 42.4588C42.6093 42.4555 42.6033 42.4539 42.5973 42.4541C42.5912 42.4543 42.5854 42.4564 42.5805 42.46C42.5757 42.4637 42.5721 42.4687 42.5702 42.4745C42.5683 42.4802 42.5682 42.4864 42.5699 42.4923C43.0036 43.1053 43.5003 43.671 44.0516 44.18C44.3147 44.4278 44.5971 44.6541 44.8962 44.8565C45.0113 44.9593 45.1511 45.0302 45.3018 45.0621C45.4525 45.0941 45.609 45.086 45.7556 45.0387C45.7637 45.0321 45.769 45.0227 45.7704 45.0123C45.7718 45.0019 45.7691 44.9914 45.763 44.9829Z" fill="#263238"/>
<path d="M46.1927 42.496C45.4236 41.818 44.4653 41.3936 43.4478 41.2804C43.44 41.2804 43.4324 41.2835 43.4269 41.2891C43.4213 41.2947 43.4182 41.3022 43.4182 41.3101C43.4182 41.318 43.4213 41.3256 43.4269 41.3311C43.4324 41.3367 43.44 41.3398 43.4478 41.3398C44.4278 41.5549 45.3572 41.9576 46.1853 42.5257C46.189 42.5406 46.2112 42.5108 46.1927 42.496Z" fill="#263238"/>
<path d="M56.8685 43.4253L54.3978 42.3287C54.3385 42.0796 52.7419 34.1912 51.9751 31.5482C51.9344 31.4032 51.8862 31.2545 51.8418 31.0984C51.6195 30.3549 51.3121 29.4069 50.9713 28.3661L56.8685 43.4253Z" fill="#263238"/>
<path d="M54.52 42.3807C53.8792 42.351 52.3567 41.9718 51.764 42.4699C48.1375 45.5108 47.0929 44.7896 46.3372 45.1688C40.4881 48.0944 32.4535 52.9754 29.7567 52.8267C25.682 52.6148 22.9297 48.9717 23.8039 45.7636C25.5301 39.4142 36.4874 26.0129 40.5955 22.9163C42.7736 21.2769 42.4477 23.9275 41.4216 26.7676C40.8178 28.433 39.788 30.9013 38.7434 33.3214C37.8173 35.4775 35.3762 40.983 35.3317 41.128C35.3317 41.128 35.3317 41.1465 35.3761 41.128C35.5577 41.1057 40.5288 39.1094 45.4667 38.154C47.204 37.8157 49.5155 37.7191 50.7935 38.299C53.9532 39.7451 54.52 42.3807 54.52 42.3807Z" fill="#EBEBEB"/>
<path d="M41.7809 38.9161C42.2073 38.7769 42.6514 38.6993 43.0996 38.6856L46.5298 45.0982C46.4892 45.7593 46.1928 46.3782 45.7038 46.8231C44.9258 47.4439 33.061 52.849 30.1679 52.9754C27.2748 53.1018 23.252 50.6074 23.4149 46.9792C23.6409 41.8789 33.824 29.1356 38.2692 24.6747C40.3103 22.6227 42.6292 21.1803 43.1737 21.5706C43.8183 22.0316 42.4328 24.6858 41.692 26.6784C40.2844 30.3623 36.0466 40.864 36.0466 40.864C36.0466 40.864 40.6918 39.2135 41.7809 38.9161Z" fill="#265ED7"/>
<path d="M44.874 38.273C42.4322 38.8283 40.0221 39.5157 37.6543 40.3324L37.5506 40.3659C36.317 40.7934 35.5503 41.1094 35.3687 41.1391L35.3317 41.1131C35.2187 41.0225 35.0941 40.9475 34.9613 40.89C34.6242 40.7525 31.3533 40.2023 31.4792 39.1838C31.6052 38.1652 32.9387 38.2953 33.135 38.3176C32.9239 38.2618 31.1569 37.7674 31.7756 36.8975C32.2127 36.2804 33.9759 36.4477 34.1537 36.4626C33.9759 36.3957 32.3571 35.7897 32.9609 34.9013C33.3906 34.2656 35.3613 34.4329 35.5873 34.4812C35.4058 34.4031 33.9537 34.1095 34.6686 33.3362C35.165 32.8084 38.8545 33.5221 40.4733 34.418C42.8811 35.7489 44.874 38.273 44.874 38.273Z" fill="#EBEBEB"/>
<path d="M37.6543 40.3324L37.5506 40.3659C36.2506 39.4118 34.7711 38.7326 33.2017 38.3696C33.098 38.3511 33.0943 38.2916 33.2017 38.3027C34.858 38.5059 36.4122 39.2144 37.6543 40.3324Z" fill="#263238"/>
<path d="M34.2315 36.5295C36.5504 37.0946 37.5876 37.6447 39.5435 39.0239C39.5731 39.0425 39.6065 39.0016 39.5805 38.9793C37.7617 37.4923 36.6171 36.7488 34.2537 36.47C34.15 36.4589 34.1278 36.5035 34.2315 36.5295Z" fill="#263238"/>
<path d="M35.6577 34.5295C37.8802 35.221 39.0397 35.7897 40.7881 37.3362C40.8289 37.3696 40.8844 37.3362 40.8474 37.2804C39.2101 35.5518 37.7654 34.8306 35.6836 34.4663C35.5428 34.444 35.5206 34.4775 35.6577 34.5295Z" fill="#263238"/>
<path d="M47.0966 23.6487C46.7039 23.8085 43.8961 23.9312 42.7848 22.3662C42.707 22.2583 42.7403 21.0279 42.707 19.5335C42.6848 18.6227 42.6366 17.6116 42.5255 16.6934C42.5033 16.5038 43.1848 16.7752 43.1848 16.7752L44.4036 16.9201L48.4376 17.4071C48.2456 18.5953 48.2008 19.8027 48.3042 21.0019C48.3186 21.1282 48.3459 21.2528 48.3857 21.3736C48.3857 21.3736 48.3857 21.4108 48.3857 21.4368C48.6042 22.1394 47.8819 23.3252 47.0966 23.6487Z" fill="#DD6A57"/>
<path d="M48.3857 21.3736C48.3857 21.3736 48.3857 21.4108 48.3857 21.4368C48.192 21.4841 47.9951 21.5177 47.7967 21.5372C43.9183 21.9089 42.8477 17.0354 42.8477 17.0354L44.385 16.9201L48.419 17.4071C48.2271 18.5953 48.1823 19.8027 48.2857 21.0018C48.3061 21.1289 48.3396 21.2535 48.3857 21.3736Z" fill="#263238"/>
<path d="M40.7622 8.55593C40.1325 10.6117 41.203 16.5595 42.6588 17.8904C44.7703 19.816 48.2153 20.0056 49.8637 17.4592C51.4454 14.9908 49.9155 7.26227 48.2894 6.05411C45.8927 4.27347 41.692 5.51509 40.7622 8.55593Z" fill="#DD6A57"/>
<path d="M45.8038 12.2399C45.8038 12.2399 45.7742 12.2622 45.7779 12.2808C45.8594 12.6785 45.889 13.1507 45.5519 13.3477C45.5519 13.3477 45.5519 13.3737 45.5519 13.37C45.989 13.2287 45.9446 12.6042 45.8038 12.2399Z" fill="#263238"/>
<path d="M45.3704 11.883C44.7221 11.9462 44.8962 13.251 45.5 13.1916C46.1038 13.1321 45.9186 11.831 45.3704 11.883Z" fill="#263238"/>
<path d="M48.1375 11.9871C48.1375 11.9871 48.1745 11.9871 48.1745 12.0206C48.2153 12.4258 48.3338 12.883 48.7153 12.9685V12.9908C48.2597 12.9871 48.1152 12.3774 48.1375 11.9871Z" fill="#263238"/>
<path d="M48.4412 11.5187C49.0821 11.3812 49.308 12.6748 48.7153 12.8012C48.1227 12.9276 47.9041 11.634 48.4412 11.5187Z" fill="#263238"/>
<path d="M44.7814 11.3589C44.9518 11.2882 45.0963 11.1953 45.2593 11.1098C45.44 11.0481 45.5951 10.9278 45.7001 10.7678C45.7225 10.711 45.726 10.6484 45.71 10.5894C45.6939 10.5304 45.6593 10.4782 45.6112 10.4407C45.5038 10.3812 45.3825 10.3518 45.2599 10.3558C45.1373 10.3597 45.0181 10.3967 44.9148 10.463C44.6838 10.5625 44.4986 10.7457 44.3962 10.976C44.3757 11.0298 44.3712 11.0885 44.3833 11.1449C44.3955 11.2012 44.4236 11.2528 44.4645 11.2934C44.5053 11.334 44.557 11.3618 44.6132 11.3734C44.6695 11.385 44.7279 11.38 44.7814 11.3589Z" fill="#263238"/>
<path d="M48.8524 10.7938C48.6737 10.7819 48.4956 10.7609 48.319 10.7306C48.1282 10.7356 47.9414 10.6753 47.7893 10.5596C47.7473 10.5147 47.7216 10.457 47.7162 10.3956C47.7109 10.3343 47.7262 10.2729 47.7597 10.2213C47.8401 10.1291 47.9437 10.0602 48.0596 10.0216C48.1755 9.98307 48.2996 9.9763 48.419 10.002C48.6698 10.0156 48.9064 10.1231 49.0821 10.3031C49.1192 10.3466 49.143 10.3999 49.1506 10.4566C49.1582 10.5134 49.1494 10.5711 49.1252 10.6229C49.1009 10.6747 49.0623 10.7184 49.0139 10.7487C48.9655 10.779 48.9095 10.7947 48.8524 10.7938Z" fill="#263238"/>
<path d="M47.4855 15.08C47.3443 15.3252 47.1428 15.53 46.9002 15.6748C46.7667 15.7476 46.6141 15.7775 46.4631 15.7603C46.1298 15.7194 46.0927 15.4257 46.0927 15.1655C46.1064 15.0262 46.1362 14.889 46.1816 14.7566C46.5699 15.0032 47.0275 15.1167 47.4855 15.08Z" fill="#263238"/>
<path d="M46.9002 15.6748C46.7667 15.7476 46.6141 15.7775 46.4631 15.7603C46.1298 15.7194 46.0927 15.4257 46.0927 15.1655C46.2655 15.1414 46.4413 15.1792 46.589 15.2724C46.7367 15.3656 46.847 15.5081 46.9002 15.6748Z" fill="#FF99BA"/>
<path d="M41.0252 13.9648C42.2069 13.7715 42.6996 11.9834 42.7181 10.6749C42.7366 9.70462 42.3699 7.76413 43.3145 7.10243C44.2591 6.44073 45.3481 7.1396 46.5002 6.92399C46.9891 6.83105 47.3818 6.09872 47.9041 6.02809C48.4264 5.95746 49.208 7.41841 49.208 7.41841C49.208 7.41841 49.0006 5.29576 46.3224 5.13219C43.6442 4.96863 41.166 6.24742 40.577 8.40724C39.8139 11.1767 41.0252 13.9648 41.0252 13.9648Z" fill="#263238"/>
<path d="M41.2438 12.5447C41.2438 12.5447 42.5255 9.81614 43.5849 8.8682C44.2591 8.26597 46.6521 7.61171 47.4855 7.51134C48.0671 7.43699 49.208 7.42584 49.208 7.42584C49.3428 7.26203 49.4665 7.08941 49.5785 6.90912C49.7398 6.64252 49.8325 6.33977 49.848 6.02823C49.8635 5.71669 49.8014 5.40618 49.6674 5.12476C49.1932 4.15451 47.8374 4.1731 47.1633 3.78277C46.4891 3.39244 44.5962 2.66754 43.4849 3.03928C41.8439 3.5969 40.9845 4.77904 40.5918 5.03925C39.2249 5.94259 38.0618 6.92399 37.7877 8.34404C37.4728 10.002 37.9618 11.121 37.9062 11.7789C37.7988 12.9945 38.3248 14.1953 39.2249 14.619C39.7005 14.8569 40.2235 14.984 40.7548 14.9908L41.2438 12.5447Z" fill="#265ED7"/>
<path d="M42.0105 13.4035C42.0105 13.4035 40.6363 11.5039 39.788 11.9983C38.9397 12.4927 39.9843 15.2659 41.0104 15.6265C41.1389 15.6824 41.2774 15.7117 41.4175 15.7124C41.5576 15.7132 41.6964 15.6855 41.8255 15.6309C41.9546 15.5764 42.0714 15.4961 42.1688 15.3951C42.2662 15.294 42.3421 15.1742 42.3921 15.0428L42.0105 13.4035Z" fill="#DD6A57"/>
<path d="M40.1065 12.7864V12.8124C40.8289 13.0912 41.2178 13.7492 41.4956 14.4369C41.4526 14.3655 41.3947 14.3042 41.3258 14.2575C41.2569 14.2108 41.1787 14.1796 41.0966 14.1661C41.0145 14.1527 40.9305 14.1573 40.8504 14.1797C40.7703 14.2021 40.6959 14.2416 40.6325 14.2956C40.6325 14.2956 40.6325 14.3365 40.6548 14.3328C40.7795 14.2903 40.9143 14.2879 41.0404 14.3259C41.1666 14.3638 41.2778 14.4403 41.3586 14.5447C41.4957 14.7192 41.6125 14.9087 41.7068 15.1097C41.7401 15.1729 41.855 15.1358 41.8327 15.0614C41.8179 14.1283 41.0882 12.8607 40.1065 12.7864Z" fill="#263238"/>
<path d="M43.3738 17.9424C42.3389 17.5653 41.4267 16.9109 40.7363 16.0502C40.222 15.4154 39.8641 14.6678 39.6917 13.8681C39.7938 14.1841 39.9344 14.4863 40.1103 14.7677C40.2901 15.0542 40.5197 15.306 40.7882 15.5112C41.408 16.5106 42.3237 17.2905 43.4071 17.7417C43.5108 17.8086 43.4923 17.9796 43.3738 17.9424Z" fill="#EBEBEB"/>
<path d="M42.218 14.08C42.0328 13.8681 41.4401 12.7715 40.9363 12.3737C40.8596 12.3026 40.7792 12.2356 40.6955 12.173C40.5609 12.066 40.4038 11.991 40.2362 11.9537C40.368 11.8922 40.5153 11.8728 40.6585 11.8979C41.3993 12.002 41.9883 13.4741 42.2884 14.028C42.3032 14.0651 42.2476 14.1172 42.218 14.08Z" fill="#EBEBEB"/>
<path d="M42.0883 13.9016C41.9624 13.6191 44.0331 16.0949 47.1151 16.0986C47.8064 16.1099 48.4889 15.9412 49.0959 15.6089C49.7029 15.2766 50.2138 14.7921 50.5786 14.2027C50.7564 13.9425 50.6934 16.7268 49.9452 17.9573C49.361 18.7281 48.5071 19.2476 47.5559 19.4108C46.5214 19.5851 45.4593 19.4761 44.4814 19.0954C43.5035 18.7146 42.646 18.0761 41.9994 17.2473C41.6586 16.8198 43.1552 16.2621 42.0883 13.9016Z" fill="#EBEBEB"/>
<path d="M42.8663 15.1469C43.4514 15.4778 44.0563 15.772 44.6777 16.0279C45.2896 16.2887 45.9318 16.4711 46.5891 16.5707C47.2458 16.6532 47.9126 16.5767 48.5338 16.3476C49.1652 16.125 49.7352 15.7556 50.1971 15.2696C49.779 15.8123 49.2221 16.2311 48.5857 16.4815C47.9463 16.7412 47.2521 16.8358 46.5669 16.7566C45.8941 16.6484 45.2396 16.447 44.6221 16.1581C44.0052 15.8796 43.4171 15.5409 42.8663 15.1469Z" fill="white"/>
<path d="M42.8663 15.8495C43.4514 16.1804 44.0563 16.4746 44.6777 16.7305C45.2894 16.9925 45.9316 17.1761 46.5891 17.277C47.2461 17.3563 47.9125 17.2786 48.5338 17.0502C49.1652 16.8276 49.7352 16.4582 50.1971 15.9722C49.779 16.5149 49.2221 16.9337 48.5857 17.1841C47.9463 17.4438 47.2521 17.5384 46.5669 17.4592C45.8941 17.351 45.2396 17.1496 44.6221 16.8607C44.0052 16.5822 43.4171 16.2435 42.8663 15.8495Z" fill="white"/>
<path d="M42.8663 16.5595C43.4218 16.9409 44.0152 17.2636 44.6369 17.5223C45.2488 17.788 45.8991 17.9536 46.5632 18.013C47.225 18.0686 47.8909 17.9798 48.5153 17.7528C49.1489 17.5273 49.7238 17.1613 50.1971 16.6822C49.7679 17.2196 49.2059 17.6349 48.5672 17.8866C47.9268 18.144 47.2362 18.2508 46.5483 18.1989C45.8664 18.1307 45.2011 17.9459 44.5814 17.6524C43.9615 17.3704 43.3842 17.0025 42.8663 16.5595Z" fill="white"/>
<path d="M42.6514 17.158C43.2019 17.5821 43.8014 17.9378 44.4369 18.2175C45.0668 18.4994 45.739 18.674 46.4261 18.7342C47.111 18.7895 47.7998 18.7009 48.4486 18.474C49.1067 18.246 49.7045 17.8711 50.1971 17.3774C49.747 17.9268 49.1605 18.3473 48.4968 18.5967C47.8324 18.851 47.1206 18.9563 46.4113 18.9052C45.7054 18.8381 45.0176 18.6428 44.3813 18.329C43.748 18.0305 43.1644 17.6355 42.6514 17.158Z" fill="white"/>
<path d="M46.5891 45.061C46.5865 45.0527 46.5813 45.0454 46.5743 45.0402C46.5673 45.0351 46.5589 45.0323 46.5502 45.0323C46.5415 45.0323 46.5331 45.0351 46.5261 45.0402C46.5191 45.0454 46.5139 45.0527 46.5113 45.061C46.4928 46.2208 45.4889 46.9197 44.5554 47.3955C43.5479 47.9085 42.5181 48.3806 41.4883 48.849C39.3509 49.823 37.1802 50.7077 34.9946 51.5553C34.3908 51.7932 33.7833 52.0237 33.1758 52.2542C32.5683 52.4847 31.9089 52.7635 31.2607 52.9456C31.2236 52.9456 31.2607 53.0125 31.2607 53.0014C31.8423 52.7858 32.4461 52.6297 33.035 52.4512C33.624 52.2728 34.213 52.0795 34.7983 51.875C35.9429 51.4847 37.069 51.0497 38.1914 50.5999C39.3138 50.1501 40.4807 49.6594 41.6105 49.1576C42.6811 48.678 43.759 48.2022 44.7925 47.652C45.7519 47.1502 46.7669 46.258 46.5891 45.061Z" fill="#263238"/>
<path d="M45.7149 43.6855C45.6611 43.9567 45.5622 44.2169 45.4222 44.455C45.3366 44.6264 45.2413 44.7927 45.137 44.9532C44.9011 45.3063 44.6265 45.6318 44.3183 45.9234C43.6899 46.4838 43.0088 46.9818 42.2847 47.4104C42.2847 47.4104 42.2847 47.4104 42.2847 47.4104C43.0571 46.9906 43.7845 46.4924 44.4554 45.9234C44.7724 45.6396 45.0502 45.3145 45.2815 44.9569C45.3958 44.7739 45.4937 44.5811 45.5741 44.3807C45.6667 44.1502 45.6815 43.9049 45.7667 43.6744C45.7741 43.6558 45.7149 43.6409 45.7149 43.6855Z" fill="#263238"/>
<path d="M45.0444 42.3436C44.4146 42.6187 43.8108 42.9718 43.1922 43.2841C42.5736 43.5963 41.9179 43.9197 41.2771 44.2283C41.2771 44.2283 41.2771 44.2469 41.2771 44.2283C41.9068 43.9507 42.5329 43.6608 43.1552 43.3584C43.8068 43.0668 44.4423 42.7405 45.0592 42.3807C45.0962 42.377 45.0777 42.3287 45.0444 42.3436Z" fill="#263238"/>
<path d="M45.1815 42.7265C44.9327 42.9946 44.6486 43.2272 44.3369 43.4179C44.0109 43.6484 43.6849 43.8826 43.3515 44.1093C43.3219 44.1316 43.3515 44.18 43.3812 44.1577C43.722 43.9123 44.0665 43.6707 44.411 43.4328C44.7188 43.2566 44.9903 43.0232 45.2111 42.745C45.2111 42.745 45.1963 42.7116 45.1815 42.7265Z" fill="#263238"/>
<path d="M43.9701 40.4811C43.6102 40.3694 43.2355 40.313 42.8588 40.3138C42.4934 40.3394 42.1338 40.4196 41.792 40.5517C41.0141 40.812 40.2436 41.0871 39.462 41.3324C39.4557 41.3357 39.4508 41.341 39.4481 41.3476C39.4454 41.3542 39.4452 41.3615 39.4474 41.3682C39.4497 41.375 39.4542 41.3807 39.4603 41.3843C39.4664 41.388 39.4735 41.3893 39.4805 41.3882C40.2214 41.1428 40.9622 40.9272 41.7031 40.7004C42.062 40.5702 42.435 40.4829 42.8144 40.4402C43.1973 40.4413 43.5798 40.4686 43.959 40.522C43.9923 40.5257 43.9923 40.4885 43.9701 40.4811Z" fill="#263238"/>
<path d="M43.1218 38.7191C42.6218 38.6113 42.2847 38.7897 41.7994 38.9161C41.3141 39.0425 40.7437 39.2023 40.2214 39.3547C39.1953 39.6559 38.1766 39.9718 37.169 40.3213C35.8947 40.7624 34.6439 41.2581 33.4166 41.8082C33.101 41.8797 32.7894 41.9678 32.4831 42.0722C32.1003 42.1911 31.7225 42.325 31.3496 42.4737C30.6087 42.7599 29.9308 43.1131 29.2344 43.4588C29.2011 43.4588 29.2344 43.5257 29.264 43.5071C29.9626 43.1506 30.684 42.8414 31.4236 42.5815C31.7756 42.4514 32.1275 42.3324 32.4831 42.2097L32.5905 42.18C32.1608 42.3807 31.7348 42.5889 31.3162 42.8045C30.2439 43.3492 29.2049 43.9575 28.2046 44.626C28.2046 44.626 28.2046 44.6558 28.2046 44.6484C30.0148 43.5671 31.906 42.6287 33.8611 41.8417C35.8021 41.061 37.7691 40.3547 39.762 39.7302C40.3214 39.5518 40.8733 39.3845 41.4475 39.2061C42.0217 39.0276 42.4921 38.7079 43.1144 38.7748C43.1218 38.7785 43.1218 38.7228 43.1218 38.7191Z" fill="#263238"/>
<path d="M75.253 65.0384C74.9603 66.4213 75.7123 68.4844 74.6677 68.5774C73.7379 68.6592 73.3564 67.1796 73.3564 67.1796C73.3564 67.1796 73.249 68.9863 72.2266 68.7893C71.2042 68.5922 71.1153 66.8859 71.1153 66.8859C71.1153 66.8859 71.093 68.3952 70.0855 68.1238C69.0779 67.8525 68.7371 66.4175 68.7371 66.4175C68.7371 66.4175 68.4371 66.8451 67.8073 66.332C66.9109 65.5886 66.9553 63.0905 67.285 61.7856C67.6147 60.4808 69.7965 55.9493 70.141 55.2616L78.5054 57.3322C78.5054 57.3322 78.9795 59.9344 79.061 61.2689C79.1425 62.6035 78.1868 67.1201 77.057 66.9566C75.9272 66.793 76.6569 63.6109 76.6865 62.8079C76.7162 62.005 76.5087 61.8526 76.2198 62.2169C76.0087 62.4548 75.3863 64.4287 75.253 65.0384Z" fill="#EB9481"/>
<path d="M73.3749 67.1015C73.0045 65.0012 73.1786 64.0161 73.9565 62.0644C73.9565 62.0236 73.9194 61.9938 73.9009 62.031C72.9637 63.8897 72.5451 65.0756 73.2749 67.1239C73.3082 67.2242 73.3934 67.1908 73.3749 67.1015Z" fill="#263238"/>
<path d="M71.1486 66.9714C70.9375 64.741 71.1486 63.6815 71.8006 61.5775C71.8006 61.5477 71.7598 61.5291 71.7487 61.5589C70.9263 63.57 70.5337 64.7782 71.0375 66.964C71.0597 67.0644 71.1597 67.0718 71.1486 66.9714Z" fill="#263238"/>
<path d="M68.7482 66.3915C68.6964 64.2317 68.8668 63.0459 69.7743 61.0868C69.7767 61.0778 69.776 61.0683 69.7724 61.0598C69.7687 61.0512 69.7622 61.0442 69.754 61.0399C69.7458 61.0356 69.7364 61.0342 69.7273 61.0359C69.7182 61.0377 69.7099 61.0425 69.7039 61.0496C68.5926 62.9566 68.363 64.4325 68.6853 66.3841C68.7038 66.5179 68.7519 66.5254 68.7482 66.3915Z" fill="#263238"/>
<path d="M80.5131 28.5668C75.9235 35.9161 70.5967 53.2096 70.004 55.6519C69.6002 57.3136 78.2868 59.6444 78.3942 58.4772C78.5276 56.9902 81.7726 38.1986 82.2319 31.2731C82.4875 27.4516 81.4577 27.0427 80.5131 28.5668Z" fill="#EB9481"/>
<path d="M82.5134 32.9905C82.3689 39.2841 79.1314 57.0868 79.1314 57.0868L72.5599 55.4474L69.2446 54.6185C69.2446 54.6185 76.1605 36.4031 79.2462 30.2582C79.487 29.7861 79.7092 29.3772 79.9204 29.0315C81.9541 25.6932 82.6245 28.1318 82.5134 32.9905Z" fill="#EBEBEB"/>
<path d="M79.2536 55.1872C75.3159 53.875 70.9782 53.0943 70.2336 52.9047C70.2258 52.9047 70.2182 52.9079 70.2127 52.9135C70.2071 52.919 70.204 52.9266 70.204 52.9345C70.204 52.9424 70.2071 52.9499 70.2127 52.9555C70.2182 52.9611 70.2258 52.9642 70.2336 52.9642C70.9745 53.1092 75.8383 54.5404 79.2573 55.2467C79.2833 55.2579 79.2944 55.1984 79.2536 55.1872Z" fill="#263238"/>
<path d="M82.5134 32.9905C82.369 39.2841 79.1314 57.0868 79.1314 57.0868L72.56 55.4474L79.9352 29.0315C81.9541 25.6932 82.6246 28.1318 82.5134 32.9905Z" fill="#263238"/>
<path d="M89.1478 53.5479L86.9401 86.8336L85.7213 105.201L83.7803 134.498H68.0814L68.0963 134.316L69.3372 119.253L70.5485 104.506L74.7418 53.5479H89.1478Z" fill="#EB9481"/>
<path d="M57.2871 143.257C58.1206 143.528 82.5505 143.16 83.4469 142.569C83.5543 142.502 83.5728 140.286 83.5395 137.249L84.7286 119.209L69.2705 119.253L68.0518 134.866C68.0518 134.866 64.5846 136.472 61.7211 137.877C60.4699 138.448 59.2539 139.094 58.0798 139.811C57.1574 140.584 56.4573 142.989 57.2871 143.257Z" fill="#EB9481"/>
<path d="M57.2871 143.257C58.1206 143.528 82.5505 143.16 83.4469 142.569C83.5543 142.502 83.5729 140.286 83.5395 137.249C77.5052 138.599 61.4137 140.785 60.9432 139.517C60.758 139.008 61.1396 138.431 61.7137 137.9C60.4625 138.47 59.2465 139.116 58.0724 139.833C57.1574 140.584 56.4573 142.989 57.2871 143.257Z" fill="#263238"/>
<path d="M107.932 135.045H107.929L92.1298 134.379H92.1113L88.9552 105.35L86.9401 86.8336L83.321 53.5479H97.9011L104.365 106.06L106.01 119.439H106.014L106.654 124.655L107.932 135.045Z" fill="#EB9481"/>
<path d="M118.586 143.903C117.749 144.16 93.33 143.379 92.441 142.788C92.3372 142.721 92.3558 140.506 92.441 137.469L90.6073 119.391L106.01 119.454L107.966 135.365C107.966 135.365 111.407 137.026 114.245 138.48C115.485 139.072 116.69 139.738 117.852 140.472C118.76 141.231 119.431 143.651 118.586 143.903Z" fill="#EB9481"/>
<path d="M118.586 143.903C117.749 144.16 93.33 143.379 92.4409 142.788C92.3372 142.721 92.3557 140.506 92.4409 137.469C98.4493 138.918 114.5 141.376 114.996 140.115C115.189 139.614 114.815 139.026 114.256 138.487C115.496 139.08 116.701 139.745 117.864 140.48C118.76 141.231 119.431 143.651 118.586 143.903Z" fill="#263238"/>
<path d="M104.365 106.06L88.9552 105.35L86.94 86.8336L85.7213 105.201L70.5485 104.506L74.7418 53.5479H97.9011L104.365 106.06Z" fill="#263238"/>
<path d="M74.4751 53.5479H98.6605L104.787 103.506H69.3409L74.4751 53.5479Z" fill="#455A64"/>
<path d="M76.0531 43.3993L74.2899 55.5478C74.2899 55.5478 94.0227 55.8415 98.9198 55.4958C98.9198 55.4958 94.9229 32.7824 89.659 27.0427C87.0253 24.1728 83.9322 24.3884 81.9615 26.3958C81.4614 26.9014 75.5123 34.7972 74.8826 37.812C74.338 40.4588 76.0531 43.3993 76.0531 43.3993Z" fill="#265ED7"/>
<path d="M88.8885 26.0278C88.9663 25.8568 85.4695 31.8307 83.6321 31.6039C82.2171 31.4255 81.7466 26.5966 82.0726 26.2806C84.1841 24.2583 86.4844 24.4665 88.8885 26.0278Z" fill="#EB9481"/>
<path d="M87.3216 10.9946C86.4918 10.318 86.2288 7.72695 87.3216 6.46674C88.8255 4.73071 92.4039 6.32919 91.8668 8.86076C91.3297 11.3923 87.9624 11.515 87.3216 10.9946Z" fill="#263238"/>
<path d="M90.637 6.22511C89.9809 5.85663 89.2439 5.65736 88.4922 5.6452C88.1401 5.64507 87.7958 5.74987 87.5031 5.94631C87.2196 6.15217 86.9999 6.43444 86.8697 6.76042C86.7297 7.09828 86.635 7.4533 86.5882 7.81617C86.5309 8.18496 86.5147 8.55901 86.54 8.93139C86.5885 9.6856 86.8607 10.408 87.3216 11.0057C86.7321 10.4765 86.3521 9.75208 86.2511 8.96485C86.1992 8.57004 86.1992 8.17009 86.2511 7.77528C86.2938 7.37717 86.391 6.98688 86.54 6.61544C86.7009 6.22759 86.973 5.89639 87.3216 5.66378C87.6761 5.44278 88.0906 5.33878 88.507 5.36639C89.2883 5.42501 90.0324 5.72499 90.637 6.22511Z" fill="#263238"/>
<path d="M87.0252 26.0278C86.8808 26.3995 84.6878 28.63 82.9505 28.2991C82.3838 28.1913 82.8431 25.0538 82.8431 25.0538L82.8246 24.8159L82.5653 21.4702L86.7141 19.5744L87.3105 19.329C87.3105 19.329 87.3105 20.2509 87.3105 21.3959V21.5595C87.3105 21.6227 87.3105 21.6859 87.3105 21.7453C87.3105 21.9163 87.3105 22.0911 87.3105 22.2658C87.3105 22.4405 87.3105 22.5297 87.3105 22.6673V23.0836C87.2831 24.0704 87.1878 25.0542 87.0252 26.0278Z" fill="#EB9481"/>
<path d="M87.3179 21.3922C86.8606 22.2556 86.2215 23.0088 85.4449 23.5994C84.6683 24.19 83.7729 24.6039 82.8209 24.8122L82.5616 21.4665L86.7104 19.5706L87.3068 19.3253C87.3068 19.3253 87.3179 20.2472 87.3179 21.3922Z" fill="#263238"/>
<path d="M78.3905 16.4815C77.846 22.3513 81.2873 23.3438 82.5468 23.4591C83.6951 23.5669 87.6068 23.7788 88.7515 17.9982C89.8961 12.2176 87.3512 10.1061 84.7471 9.72693C82.143 9.34775 78.9351 10.6117 78.3905 16.4815Z" fill="#EB9481"/>
<path d="M80.0723 15.3179C80.2069 15.3003 80.3404 15.2755 80.4724 15.2436C80.6164 15.2375 80.7544 15.1839 80.865 15.0912C80.8929 15.0543 80.9081 15.0092 80.9081 14.9629C80.9081 14.9166 80.8929 14.8715 80.865 14.8347C80.7999 14.7691 80.7186 14.7221 80.6294 14.6986C80.5402 14.675 80.4463 14.6758 80.3575 14.7008C80.169 14.7236 79.9959 14.8165 79.8723 14.961C79.846 14.9957 79.8304 15.0373 79.8274 15.0807C79.8244 15.1241 79.8342 15.1675 79.8554 15.2054C79.8767 15.2434 79.9086 15.2742 79.9471 15.2942C79.9856 15.3142 80.0291 15.3224 80.0723 15.3179Z" fill="#263238"/>
<path d="M83.984 15.4183C83.8515 15.3948 83.7204 15.3638 83.5914 15.3254C83.4529 15.3093 83.3232 15.2494 83.2209 15.1544C83.193 15.1175 83.1779 15.0724 83.1779 15.0261C83.1779 14.9798 83.193 14.9347 83.2209 14.8979C83.2898 14.8361 83.3736 14.7937 83.464 14.7747C83.5544 14.7558 83.6481 14.7611 83.7358 14.7901C83.9223 14.8194 84.0906 14.9192 84.2063 15.0689C84.2323 15.1051 84.2469 15.1483 84.2481 15.193C84.2494 15.2376 84.2372 15.2816 84.2133 15.3193C84.1894 15.3569 84.1547 15.3865 84.1138 15.4041C84.0729 15.4218 84.0277 15.4267 83.984 15.4183Z" fill="#263238"/>
<path d="M83.1691 16.8904C83.1691 16.8904 83.1987 16.8904 83.1987 16.9238C83.1654 17.3253 83.1987 17.79 83.5691 17.9387C83.5691 17.9387 83.5691 17.9647 83.5691 17.961C83.1283 17.8792 83.0765 17.2621 83.1691 16.8904Z" fill="#263238"/>
<path d="M83.5432 16.4852C84.1877 16.4852 84.1803 17.764 83.5839 17.7826C82.9875 17.8012 83.0024 16.5038 83.5432 16.4852Z" fill="#263238"/>
<path d="M83.7988 16.5558C83.9099 16.6302 84.021 16.7603 84.1692 16.7751C84.3174 16.79 84.447 16.6562 84.5397 16.5298H84.5619C84.5619 16.7751 84.4656 17.0316 84.1914 17.0651C83.9173 17.0986 83.7766 16.8755 83.7173 16.6264C83.7136 16.5967 83.7506 16.5261 83.7988 16.5558Z" fill="#263238"/>
<path d="M80.8131 16.8049C80.8131 16.8049 80.7835 16.8235 80.7835 16.8421C80.7835 17.2435 80.7428 17.7045 80.3797 17.8383V17.8606C80.8242 17.7974 80.9057 17.1841 80.8131 16.8049Z" fill="#263238"/>
<path d="M80.4575 16.3848C79.813 16.3365 79.7611 17.6339 80.3575 17.6785C80.9539 17.7231 80.9946 16.4257 80.4575 16.3848Z" fill="#263238"/>
<path d="M80.1834 16.4592C80.0797 16.5261 79.9722 16.645 79.85 16.6487C79.7278 16.6525 79.6092 16.5112 79.524 16.3699H79.5055C79.5055 16.619 79.5611 16.8792 79.7944 16.935C80.0278 16.9907 80.1649 16.7789 80.2464 16.5372C80.2575 16.5075 80.2241 16.4331 80.1834 16.4592Z" fill="#263238"/>
<path d="M82.9505 20.0836C82.8579 20.184 82.7653 20.3141 82.6208 20.3327C82.4719 20.3357 82.3242 20.3065 82.1874 20.2472C82.1874 20.2472 82.1615 20.2472 82.1874 20.2695C82.2473 20.3463 82.3268 20.4052 82.4176 20.4399C82.5083 20.4746 82.6068 20.4838 82.7023 20.4665C82.7838 20.4421 82.8561 20.3936 82.9096 20.3272C82.9632 20.2609 82.9955 20.1799 83.0024 20.0948C83.0039 20.0879 83.0025 20.0807 82.9987 20.0748C82.9949 20.0688 82.9889 20.0647 82.982 20.0632C82.9751 20.0617 82.968 20.063 82.962 20.0669C82.9561 20.0707 82.952 20.0767 82.9505 20.0836Z" fill="#263238"/>
<path d="M81.3058 18.6004C81.2577 18.8922 81.2243 19.1862 81.2058 19.4814C81.2058 19.5074 81.2725 19.5223 81.3688 19.5298C81.6098 19.5792 81.8598 19.5609 82.0911 19.4769C82.3225 19.393 82.5263 19.2466 82.6801 19.0539C82.6986 19.0279 82.6801 18.9982 82.6357 19.013C82.2727 19.2548 81.8405 19.3697 81.4058 19.3402C81.4058 19.2621 81.6022 18.3253 81.5577 18.3179C81.3393 18.3349 81.1239 18.3799 80.9169 18.4517C81.0761 17.2026 81.4318 15.9871 81.5725 14.7343C81.5731 14.7257 81.5707 14.7171 81.5657 14.7101C81.5606 14.703 81.5533 14.698 81.545 14.6958C81.5367 14.6936 81.5278 14.6944 81.52 14.698C81.5122 14.7016 81.5059 14.7079 81.5021 14.7157C81.0772 16.0063 80.7819 17.3363 80.6205 18.6859C80.6057 18.8643 81.191 18.6487 81.3058 18.6004Z" fill="#263238"/>
<path d="M88.707 18.0279C88.0365 17.9722 86.3288 16.0763 86.3474 12.8235C86.3474 12.8235 86.5326 15.7529 86.74 16.1692C86.9475 16.5856 85.788 15.1023 85.7658 12.4741C84.9295 13.0489 84.015 13.4996 83.0505 13.8124C81.8059 14.1321 81.0502 14.1023 80.965 14.0094C80.8798 13.9165 82.7097 13.3849 83.2135 12.8273C83.2135 12.8273 79.8796 14.2882 78.372 14.3663C78.1979 14.3663 78.0682 10.7529 80.4464 9.2734C82.8246 7.79387 86.4992 9.53362 87.4846 10.5225C87.4846 10.5225 88.6514 10.7195 89.885 12.4853C91.1185 14.251 89.4256 18.0874 88.707 18.0279Z" fill="#263238"/>
<path d="M87.0216 10.463C86.5818 10.1789 86.1267 9.91955 85.6584 9.68604C85.2008 9.44748 84.7267 9.24248 84.2396 9.07266C83.7608 8.89467 83.2639 8.77 82.7579 8.70092C82.6356 8.67895 82.5117 8.66776 82.3875 8.66746C82.2615 8.66746 82.1356 8.66746 82.017 8.66746C81.7667 8.67898 81.5183 8.71762 81.2762 8.7827C81.0377 8.84394 80.8067 8.9312 80.5872 9.04292C80.3702 9.16951 80.1622 9.31112 79.9649 9.46671C79.7672 9.6223 79.5837 9.79522 79.4166 9.98343C79.2548 10.1776 79.1063 10.3825 78.9721 10.5968C78.7055 11.0354 78.5057 11.5115 78.3794 12.0094C78.2417 12.5136 78.1683 13.0332 78.1609 13.5559C78.0298 12.489 78.2263 11.4074 78.7239 10.4555C78.9699 9.97257 79.3115 9.54503 79.7278 9.19906C79.9365 9.0226 80.1609 8.86581 80.3983 8.73066C80.6426 8.59983 80.9012 8.49755 81.1688 8.42583C81.7006 8.29247 82.254 8.26969 82.7949 8.35892C83.3252 8.43847 83.843 8.58589 84.3359 8.79757C85.3127 9.20781 86.219 9.76983 87.0216 10.463Z" fill="#263238"/>
<path d="M87.781 18.3625C87.781 18.3625 89.0738 16.5298 89.9035 16.9945C90.7333 17.4592 89.7516 20.1208 88.7737 20.4777C88.6513 20.5328 88.519 20.5625 88.3849 20.5649C88.2507 20.5673 88.1174 20.5424 87.9931 20.4917C87.8688 20.441 87.7561 20.3655 87.6617 20.2698C87.5673 20.1741 87.4932 20.0602 87.4439 19.935L87.781 18.3625Z" fill="#EB9481"/>
<path d="M89.6035 17.7491C89.6035 17.7491 89.6035 17.7714 89.6035 17.7751C88.9145 18.0502 88.5515 18.6859 88.2922 19.3439C88.3324 19.2752 88.387 19.2161 88.4522 19.1706C88.5175 19.1252 88.5917 19.0945 88.67 19.0808C88.7482 19.067 88.8284 19.0704 88.9052 19.0908C88.9819 19.1112 89.0534 19.1481 89.1145 19.1989C89.133 19.1989 89.1145 19.2398 89.096 19.2361C88.9759 19.1966 88.8467 19.1954 88.7259 19.2327C88.6052 19.27 88.499 19.3439 88.4218 19.4443C88.2954 19.6152 88.1862 19.7982 88.0958 19.9907C88.0662 20.0502 87.9551 20.0167 87.9773 19.9461C87.981 19.0539 88.6848 17.8309 89.6035 17.7491Z" fill="#263238"/>
<path d="M87.6513 25.3401C87.6513 25.3401 85.3509 88.67 86.5734 91.6774C87.7958 94.6848 104.787 96.9896 104.787 96.9896C104.787 96.9896 100.75 52.3397 95.8675 38.5667C91.3408 25.8271 87.6513 25.3401 87.6513 25.3401Z" fill="#EBEBEB"/>
<path d="M99.7977 65.2912C98.1337 65.5198 96.4577 65.6501 94.7784 65.6815C92.4299 65.6815 90.0999 65.4547 89.4257 65.4436C89.3664 65.4436 89.3331 65.6443 89.3775 65.6481C91.1568 65.8632 92.9458 65.9872 94.7376 66.0198C96.3779 66.0081 98.014 65.8527 99.6273 65.5551C99.6273 66.0532 99.6273 66.4436 99.6273 66.9417C97.9715 67.2651 94.7784 67.819 89.6257 67.1536C89.6257 66.9417 89.6257 65.8339 89.5961 65.5291C89.5961 65.4808 89.396 65.4733 89.3886 65.5291C89.3479 65.8302 89.2256 68.503 89.2219 69.0421C89.2219 70.3803 89.2997 74.1609 89.6331 74.8933C90.374 76.5512 93.6004 76.555 94.4895 76.5624C95.3785 76.5698 98.2493 76.659 99.3273 75.6033C99.9015 75.042 100.024 71.9751 99.9385 69.2837C99.857 67.9975 99.857 65.3321 99.7977 65.2912ZM94.7265 76.2464C92.5558 76.1981 90.6518 75.6516 90.2073 75.0568C89.6961 74.3617 89.6516 73.1535 89.6146 71.819C89.585 70.7707 89.6146 67.4845 89.6146 67.4175C91.2704 67.7558 95.6452 68.2131 99.6162 67.2837C99.6162 68.8413 99.6162 70.0866 99.6162 71.6442C99.6162 72.7595 99.5458 74.6628 98.9754 75.3208C98.4938 75.8709 96.7639 76.2947 94.708 76.2464H94.7265Z" fill="#263238"/>
<path d="M75.1678 92.2648C74.1491 94.6774 68.0814 96.313 68.0814 96.313L75.7197 43.4625C74.7495 41.874 74.3703 39.9923 74.6492 38.1503C75.1641 35.1764 81.4651 26.4627 82.2393 26.1096C81.2819 30.5672 80.6015 35.0801 80.2019 39.6224C78.4979 58.1946 76.2754 89.6403 75.1678 92.2648Z" fill="#EBEBEB"/>
<path d="M82.3319 26.0315C81.8985 26.8122 81.4577 27.5891 81.0058 28.3549C80.5538 29.1207 80.1056 29.8939 79.6426 30.6523L79.6167 30.4478C80.0501 30.8493 80.4761 31.2545 80.9021 31.6634L81.0354 31.7898L80.9095 31.9236L79.4277 33.4812L79.4759 33.3363C79.6167 34.4887 79.7401 35.6411 79.8463 36.7935C79.9612 37.9496 80.0649 39.1057 80.1427 40.2655C79.9352 39.1206 79.7722 37.9756 79.5907 36.8269C79.4092 35.6782 79.2573 34.5296 79.1092 33.3809V33.2954L79.1647 33.2322L80.6465 31.6709V31.9274C80.2242 31.5184 79.8019 31.1021 79.387 30.6857L79.2907 30.5891L79.3611 30.4813C79.8389 29.7378 80.3353 28.9943 80.8243 28.2508C81.3132 27.5073 81.8207 26.7639 82.3319 26.0315Z" fill="#A6A6A6"/>
<path d="M75.0185 36.3044L74.4011 55.8036L89.3293 56.2796L89.9467 36.7804L75.0185 36.3044Z" fill="#263238"/>
<path d="M86.1174 35.6454L79.0422 35.4124L78.9719 37.5636L86.047 37.7967L86.1174 35.6454Z" fill="#C7C7C7"/>
<path d="M84.5063 35.6002L83.6358 35.5704L83.6654 34.5779L81.5503 34.5109L81.5169 35.4998L80.6464 35.4738L80.7057 33.6634L84.5767 33.7935L84.5063 35.6002Z" fill="#C7C7C7"/>
<path d="M92.578 29.1207C100.064 37.0388 106.217 53.5032 102.617 55.0497C99.3235 56.4623 88.8885 55.1575 84.5989 54.1315C83.3395 53.8304 85.8769 44.0312 87.2253 44.3509C88.8552 44.7413 93.0188 45.3435 93.1855 45.3286C93.5559 45.3063 89.5405 33.8046 88.3181 29.5854C86.6141 23.7267 89.7627 26.1467 92.578 29.1207Z" fill="#EB9481"/>
<path d="M74.238 42.1019C74.0777 42.3735 74.0039 42.6878 74.0264 43.0027C74.0489 43.3176 74.1667 43.6181 74.3639 43.864C73.8745 44.0933 73.4811 44.4881 73.2527 44.9792C72.8822 45.8565 74.1121 46.8007 74.1121 46.8007C73.6585 47.1442 73.3189 47.6171 73.1378 48.1576C72.8822 49.0312 73.9713 50.1576 73.9713 50.1576C73.7303 50.7036 73.6922 51.3181 73.8639 51.8899C74.3862 53.3954 76.7532 53.9382 78.2572 54.295C79.7611 54.6519 84.3508 54.2616 85.2361 54.2727L87.6142 44.6075C87.6142 44.6075 81.3169 41.0759 79.5092 40.89C77.9942 40.7711 74.8974 41.0833 74.238 42.1019Z" fill="#EB9481"/>
<path d="M74.4788 43.7264C76.1494 43.4848 77.8127 43.7525 79.4648 43.9272C79.4705 43.9293 79.4754 43.9331 79.4788 43.9381C79.4823 43.9431 79.4841 43.949 79.4841 43.9551C79.4841 43.9611 79.4823 43.9671 79.4788 43.972C79.4754 43.977 79.4705 43.9808 79.4648 43.9829C77.8127 43.7934 76.1309 43.9309 74.4862 43.8082C74.4344 43.8045 74.4343 43.7339 74.4788 43.7264Z" fill="#263238"/>
<path d="M74.1935 46.6743C74.579 46.6576 74.9651 46.6914 75.3419 46.7747C75.7456 46.8379 76.1457 46.9048 76.5458 46.9829C77.3496 47.1353 78.1497 47.3026 78.9425 47.4959C78.9795 47.4959 78.9721 47.5628 78.9425 47.5554C78.1423 47.4067 77.3422 47.2691 76.5347 47.1502L75.3234 46.9866C74.9392 46.9626 74.559 46.8953 74.1898 46.7859C74.1786 46.7813 74.1691 46.7733 74.1625 46.7631C74.1559 46.7529 74.1526 46.741 74.153 46.7288C74.1534 46.7167 74.1575 46.7049 74.1647 46.6952C74.172 46.6854 74.1821 46.6782 74.1935 46.6743Z" fill="#263238"/>
<path d="M74.0269 50.1576C74.3744 50.1452 74.7215 50.193 75.053 50.2988L76.1643 50.5256C76.9051 50.6706 77.6237 50.8156 78.3572 50.9345C78.3651 50.9345 78.3726 50.9376 78.3782 50.9432C78.3837 50.9488 78.3868 50.9564 78.3868 50.9643C78.3868 50.9721 78.3837 50.9797 78.3782 50.9853C78.3726 50.9909 78.3651 50.994 78.3572 50.994C77.6163 50.875 76.8755 50.7672 76.1161 50.6223C75.7457 50.5628 75.3752 50.4996 75.0048 50.4327C74.6665 50.4046 74.3356 50.3178 74.0269 50.1762C74.0269 50.1762 74.012 50.1576 74.0269 50.1576Z" fill="#263238"/>
<path d="M92.8003 45.0127C93.3152 44.574 89.096 33.7377 87.9847 29.0278C86.8734 24.3178 88.1847 24.4999 92.0594 28.3549C95.9341 32.2099 102.357 41.9049 103.747 51.139C104.184 54.0237 104.769 56.0831 98.1197 55.9716C94.2547 55.9276 90.3986 55.5896 86.5845 54.9605L88.0366 44.4104C88.0366 44.4104 92.6521 45.1428 92.8003 45.0127Z" fill="#EBEBEB"/>
<path d="M88.9367 54.8824C89.7849 50.7115 90.0479 46.1985 90.1517 45.4141C90.1517 45.377 90.0961 45.3732 90.0924 45.4141C90.0331 46.1874 89.1737 51.3137 88.87 54.8861C88.8663 54.9233 88.9255 54.9233 88.9367 54.8824Z" fill="#263238"/>
<path d="M97.8566 45.8379C97.4452 45.7195 97.0254 45.6325 96.6009 45.5777L95.4303 45.3621L94.9228 45.2766H94.971L95.6526 45.1799C95.8785 45.1465 96.1008 45.0944 96.3305 45.0759C96.3675 45.0759 96.3638 45.0164 96.3305 45.0201C96.1082 45.0498 95.8785 45.0461 95.6526 45.061L94.945 45.113C94.7376 45.113 94.5339 45.1539 94.3264 45.1762C93.956 45.113 93.5856 45.0536 93.1929 45.0015C93.0299 44.258 92.7669 43.5145 92.5372 42.7711C92.3076 42.0276 92.052 41.2432 91.7964 40.4848C91.5408 39.7265 91.2704 38.9979 90.9851 38.2544C90.8444 37.8827 90.6962 37.5109 90.5517 37.1392C90.3801 36.7672 90.2352 36.3833 90.1183 35.9905C90.1183 35.9533 90.048 35.9905 90.0665 36.0165C90.2337 36.4028 90.3699 36.8018 90.4739 37.2098C90.5888 37.5815 90.6999 37.9533 90.8147 38.325C91.0444 39.0685 91.2766 39.8182 91.5112 40.5741C91.7482 41.3175 91.9853 42.061 92.2187 42.8231C92.4335 43.5108 92.615 44.2171 92.8595 44.8937C92.0853 44.7896 91.3074 44.7004 90.5332 44.6037L89.3441 44.4625C88.9181 44.4142 88.4736 44.4142 88.055 44.3398C88.018 44.3398 88.0069 44.3919 88.055 44.3956C88.4699 44.4439 88.8922 44.574 89.3108 44.6484L90.4814 44.8528C91.3111 44.9941 92.1372 45.1428 92.9669 45.2729C93.7967 45.403 94.608 45.4922 95.4303 45.5851C95.8415 45.6335 96.2527 45.6744 96.6638 45.7264C97.0622 45.7894 97.4645 45.8229 97.8677 45.8268C97.8652 45.8277 97.8629 45.8292 97.861 45.8311C97.859 45.833 97.8576 45.8354 97.8566 45.8379Z" fill="#263238"/>
<path d="M99.6866 55.9865C96.1045 55.8601 89.6553 55.3694 86.6697 54.9679C86.6289 54.9679 86.6215 55.02 86.6697 55.0274C90.9469 55.9475 95.3237 56.316 99.694 56.124C99.7093 56.1196 99.7227 56.1101 99.732 56.0971C99.7413 56.0841 99.7459 56.0683 99.745 56.0523C99.7441 56.0363 99.7379 56.0211 99.7273 56.0091C99.7167 55.9972 99.7023 55.9892 99.6866 55.9865Z" fill="#263238"/>
<path d="M90.5999 32.7824L90.7222 32.8716L90.6592 33.0017C90.148 34.0797 89.6516 35.1578 89.1182 36.2247L88.8626 36.7377H88.6144L88.8811 36.1206C89.3294 35.0686 89.8109 34.0388 90.274 32.998C89.7183 32.6262 89.1627 32.221 88.6107 31.827L88.4255 31.6931L88.5959 31.5445L90.3851 29.9831C89.9295 29.2731 89.4961 28.5296 89.0552 27.7861C88.6144 27.0427 88.1366 26.2471 87.6921 25.4665C88.2181 26.21 88.7293 26.9311 89.2331 27.6746C89.7368 28.4181 90.2443 29.1616 90.7148 29.9051L90.7889 30.0203L90.6851 30.1132L88.9886 31.6374C89.5405 32.024 90.0702 32.4069 90.5999 32.7824Z" fill="#A6A6A6"/>
<path d="M108.614 7.23251C108.615 8.55996 108.248 9.86152 107.554 10.9918C106.861 12.1221 105.868 13.0366 104.686 13.6332C103.504 14.2298 102.181 14.4849 100.863 14.3702C99.5449 14.2554 98.2848 13.7753 97.2232 12.9834L93.7263 13.8793L95.1821 10.6116C94.6701 9.65142 94.3829 8.58667 94.3425 7.49834C94.3021 6.41001 94.5095 5.32676 94.9489 4.33096C95.3884 3.33515 96.0483 2.45301 96.8785 1.75159C97.7087 1.05018 98.6873 0.547972 99.74 0.283145C100.793 0.0183181 101.892 -0.00215261 102.953 0.223291C104.015 0.448734 105.012 0.914155 105.867 1.58417C106.723 2.25418 107.415 3.11114 107.891 4.0899C108.367 5.06865 108.614 6.14343 108.614 7.23251Z" fill="white"/>
<path d="M108.614 7.23252C108.619 8.55837 108.26 9.86007 107.577 10.9946C107.4 11.2756 107.206 11.5451 106.995 11.8012C106.783 12.0627 106.556 12.311 106.314 12.5447C105.83 12.9885 105.287 13.3637 104.702 13.6599C104.119 13.9669 103.495 14.1909 102.85 14.3254C102.525 14.3899 102.196 14.4321 101.865 14.4518C101.533 14.4778 101.2 14.4778 100.868 14.4518C99.5315 14.3495 98.2492 13.8772 97.1639 13.0875L97.2751 13.1098L93.7671 14.0317L93.4411 14.1172L93.5782 13.8049L95.0191 10.5299V10.6897C94.4914 9.7073 94.1965 8.61602 94.1574 7.50065C94.1182 6.38529 94.3357 5.27587 94.7932 4.25859C95.2536 3.25256 95.9334 2.36324 96.7824 1.6564C97.8385 0.782731 99.12 0.227967 100.478 0.0566457C101.836 -0.114675 103.214 0.104491 104.453 0.688647C105.692 1.2728 106.74 2.19793 107.475 3.35639C108.21 4.51486 108.603 5.85903 108.607 7.23252H108.614ZM108.614 7.23252C108.617 6.14846 108.371 5.07828 107.895 4.10489C107.42 3.13149 106.728 2.28099 105.872 1.61928C105.016 0.957564 104.02 0.502386 102.961 0.289C101.902 0.0756139 100.808 0.109747 99.7644 0.388756C98.7317 0.664901 97.7753 1.17341 96.9676 1.87573C96.1763 2.57929 95.5446 3.44512 95.1154 4.41472C94.6922 5.38866 94.4935 6.44587 94.5339 7.50761C94.5848 8.56156 94.8642 9.59168 95.3525 10.5262L95.397 10.6042L95.3525 10.686L93.8708 13.9462L93.6819 13.7194L97.2047 12.8533H97.2677L97.3158 12.8904C98.351 13.6835 99.5867 14.1703 100.883 14.2956C101.207 14.3235 101.533 14.3235 101.857 14.2956C102.182 14.2863 102.505 14.2528 102.824 14.1953C103.468 14.0806 104.091 13.874 104.676 13.5819C105.268 13.2946 105.813 12.9185 106.291 12.4667C106.535 12.2471 106.764 12.0111 106.977 11.7603C107.183 11.5059 107.373 11.239 107.547 10.9611C108.236 9.8395 108.605 8.54989 108.614 7.23252Z" fill="#263238"/>
<path d="M102.272 3.77161H100.498V10.6972H102.272V3.77161Z" fill="#265ED7"/>
<path d="M97.9381 6.34407V8.12471H104.839V6.34407H97.9381Z" fill="#265ED7"/>
</svg>
