<svg width="24" height="24" viewBox="0 0 24 24" fill="none" xmlns="http://www.w3.org/2000/svg">
<path d="M18.4048 4.15552C16.4848 4.21438 16.4853 6.97664 18.4048 7.03499C20.3248 6.97613 20.3242 4.21388 18.4048 4.15552Z" fill="#DD2A7B"/>
<path d="M12 5.82239C8.59709 5.82239 5.83862 8.58818 5.83862 11.9999C6.16325 20.1945 17.8378 20.1922 18.1612 11.9999C18.1614 8.58818 15.4027 5.82239 12 5.82239ZM12 16.0099C9.79127 16.0099 8.00063 14.2145 8.00063 11.9999C8.21132 6.68082 15.7897 6.68209 15.9997 11.9999C15.9994 14.2148 14.2088 16.0099 12 16.0099Z" fill="#DD2A7B"/>
<path d="M23.9262 7.05295C23.8373 2.84237 21.1584 0.161969 16.9468 0.073801C15.9355 -0.0237141 8.06509 -0.0254826 7.05305 0.073801C2.84247 0.162727 0.162064 2.84161 0.0738962 7.05321C-0.023619 8.06297 -0.02564 15.9359 0.0738962 16.947C0.152464 21.1439 2.8556 23.8478 7.05305 23.9261C8.06433 24.0246 15.9348 24.0246 16.9468 23.9261C18.2238 23.8677 19.0962 23.6649 19.8594 23.3683C22.534 22.2999 23.8408 19.9234 23.9262 16.9467C24.0237 15.9354 24.0255 8.06499 23.9262 7.05295ZM16.8483 21.7664C15.8532 21.8614 8.14744 21.8629 7.15158 21.7664C5.9819 21.7131 5.34653 21.5175 4.92363 21.3533C1.27338 19.6602 2.40516 16.2363 2.23312 11.5366C2.23691 10.445 2.23085 8.24335 2.23338 7.15173C2.37914 3.89735 3.91185 2.39067 7.15158 2.23353C8.14795 2.13855 15.8516 2.13703 16.8483 2.23353C20.1037 2.3793 21.6088 3.91201 21.7665 7.15148C21.8309 7.92933 21.8776 12.1755 21.7665 14.3244C21.8865 18.3604 21.7026 21.5297 16.8483 21.7664Z" fill="#DD2A7B"/>
</svg>
