<svg width="154" height="150" viewBox="0 0 154 150" fill="none" xmlns="http://www.w3.org/2000/svg">
<path d="M76.9599 150C118.698 150 152.534 146.083 152.534 141.252C152.534 136.421 118.698 132.504 76.9599 132.504C35.2213 132.504 1.38547 136.421 1.38547 141.252C1.38547 146.083 35.2213 150 76.9599 150Z" fill="#FEFEFE"/>
<path d="M23.3811 59.2351H18.5645V54.0558H13.3967V49.2544H18.5645V44.0714H23.3659V49.2544H28.5451V54.0558H23.3811V59.2351ZM19.2629 58.5519H22.6979V53.3727H27.8772V49.9376H22.6979V44.7546H19.2629V49.9376H14.0798V53.3727H19.2629V58.5519Z" fill="#3B98CC"/>
<path d="M139.802 93.4709H134.997V88.2916H129.817V83.4902H134.997V78.3071H139.802V83.4902H144.981V88.2916H139.802V93.4709ZM135.684 92.7877H139.119V87.6084H144.298V84.1734H139.119V78.998H135.684V84.181H130.501V87.6161H135.684V92.7877Z" fill="#3B98CC"/>
<path d="M114.57 5.17926V9.98066H109.39V15.1637H104.589V9.98066H99.4059V5.17926H104.589V0H109.39V5.17926H114.57Z" fill="#3B98CC"/>
<path d="M68.2235 6.16781C69.2197 6.13727 73.3913 4.96555 76.8416 8.37386C80.1087 11.599 82.83 22.5682 83.788 24.9002C84.746 27.2322 87.9864 27.0909 89.1734 29.7626C90.2039 32.0794 88.5856 33.2511 88.6848 35.0526C88.765 36.4533 90.4825 38.2968 89.5512 40.5334C88.7077 42.5676 86.6353 42.4989 85.5132 43.2737C84.3911 44.0485 84.0857 46.9759 81.9598 48.0942C79.8339 49.2125 77.5248 47.4797 76.334 47.682C75.1432 47.8843 74.315 51.7659 70.3761 52.0674C66.4373 52.3689 64.7885 49.2583 63.0786 48.8652C61.3687 48.4721 57.5177 50.2392 55.3574 48.5255C53.1972 46.8118 52.4529 44.1859 51.4644 43.3348C50.4759 42.4837 48.7698 42.915 47.3767 40.7967C45.9836 38.6784 47.8691 36.8922 47.8538 34.8656C47.8538 33.4534 46.4149 32.3809 46.9378 30.1367C47.6592 27.0528 51.3003 27.1062 52.1781 23.9155C52.8651 21.4155 53.4338 10.9387 59.1627 7.4464C63.132 5.06096 68.2235 6.16781 68.2235 6.16781Z" fill="#263238"/>
<path d="M83.578 24.3353C83.8943 24.8132 84.3228 25.2063 84.8261 25.4803L86.265 26.3696C87.2379 26.8985 88.1215 27.5772 88.8833 28.381C89.2378 28.7645 89.4988 29.225 89.6458 29.7262C89.7928 30.2274 89.8218 30.7559 89.7306 31.2702C89.6082 31.7917 89.4061 32.2912 89.1314 32.7511C88.8122 33.256 88.5691 33.8051 88.41 34.3808C88.3566 35.0146 88.515 35.6482 88.8604 36.1823C89.1237 36.6937 89.4062 37.1746 89.6428 37.6708C90.1199 38.6479 90.3756 39.728 90.0245 40.7242C89.8703 41.219 89.5545 41.6478 89.1275 41.9417C88.671 42.2308 88.163 42.4291 87.6314 42.5257C87.0894 42.6516 86.5322 42.7241 85.9711 42.8195C85.3993 42.8678 84.8553 43.0873 84.4101 43.4493C84.8848 43.1513 85.4336 42.9926 85.994 42.9913C86.5551 42.9417 87.1199 42.9188 87.6886 42.8348C88.2726 42.7617 88.8366 42.5749 89.3489 42.2852C89.8748 41.961 90.2777 41.4708 90.4939 40.8921C90.9786 39.7471 90.6504 38.4418 90.1695 37.4151C89.9328 36.8884 89.6504 36.3884 89.4061 35.8884C89.131 35.4707 88.9972 34.9757 89.0245 34.4762C89.2153 33.5373 90.0893 32.5679 90.2878 31.3694C90.3923 30.7694 90.3508 30.153 90.1668 29.5724C89.9827 28.9917 89.6616 28.464 89.2306 28.0336C88.3973 27.2376 87.4426 26.5792 86.4024 26.0833L84.8757 25.32C84.3769 25.0897 83.9341 24.7537 83.578 24.3353Z" fill="#263238"/>
<path d="M54.4414 14.0875C53.6552 15.9615 53.2964 17.9729 52.7544 19.9041C52.4796 20.8698 52.2392 21.8468 51.8957 22.7781C51.7416 23.234 51.5381 23.6717 51.2888 24.0834C51.2384 24.1788 51.1727 24.2652 51.0942 24.3391C51.0248 24.4227 50.9438 24.4959 50.8537 24.5567C50.6629 24.7017 50.4721 24.8353 50.2469 24.9651C49.374 25.4922 48.5282 26.0629 47.7126 26.6749C46.8501 27.3121 46.2072 28.2018 45.8729 29.2207C45.7172 29.7425 45.6962 30.2953 45.8119 30.8275C45.9518 31.338 46.1875 31.8173 46.5065 32.2397C47.1134 33.0527 47.6935 33.8694 47.8843 34.8808C47.8462 33.8503 47.2813 32.9191 46.7699 32.0679C46.5034 31.665 46.3144 31.2158 46.2126 30.7436C46.1401 30.2801 46.1874 29.8057 46.35 29.3657C46.6991 28.4704 47.2995 27.695 48.079 27.133C48.8905 26.5485 49.7312 26.0058 50.598 25.507C50.8117 25.3658 51.0255 25.2208 51.2354 25.0567C51.4536 24.8813 51.6352 24.6647 51.7697 24.4193C52.0378 23.9639 52.2542 23.48 52.4148 22.9766C52.7378 22.0091 53.0003 21.0225 53.201 20.0224L53.7811 17.0454C53.9433 16.0474 54.1637 15.0597 54.4414 14.0875Z" fill="#263238"/>
<path d="M50.4186 42.8234C50.9339 43.3272 51.1094 44.0638 51.3804 44.7317C51.6514 45.3997 51.9033 46.0829 52.201 46.7508C52.4904 47.432 52.8512 48.0806 53.2773 48.6858C53.7143 49.3252 54.2997 49.849 54.9834 50.2125C56.4834 50.8652 58.0787 50.5026 59.4337 50.0255C60.1245 49.7812 60.7886 49.5026 61.468 49.2622C62.1293 48.9885 62.8462 48.876 63.5595 48.9339C62.8437 48.7496 62.0919 48.7575 61.3802 48.9568C60.6665 49.1248 59.9795 49.3385 59.2848 49.537C57.9337 49.9186 56.4605 50.1591 55.2582 49.6133C54.665 49.2949 54.154 48.8428 53.7659 48.2927C53.3443 47.7272 52.969 47.1286 52.6438 46.5027C52.3003 45.8729 51.9911 45.2241 51.6667 44.5943C51.4987 44.2699 51.327 43.9493 51.14 43.6364C50.9726 43.3084 50.7243 43.0286 50.4186 42.8234Z" fill="#263238"/>
<path d="M87.8948 130.176H54.8345L52.8689 89.284H82.4102L87.8948 130.176Z" fill="#37474F"/>
<path d="M73.1585 89.284L69.6662 116.978L69.6624 117.02L69.5861 117.596L69.4448 118.73L69.2845 119.993L69.2273 120.444L69.1815 120.806L68.0021 130.176H54.8345L52.8689 89.284H73.1585Z" fill="#263238"/>
<path d="M81.1812 130.176H80.3072C80.2614 129.813 80.2194 129.455 80.1736 129.092C78.998 119.55 77.8569 110.009 76.8645 100.467C76.7729 99.5929 76.6813 98.715 76.5935 97.841C76.5935 97.7036 76.8149 97.6769 76.834 97.8143C76.9141 98.4021 76.9981 98.9898 77.0744 99.5776C78.4866 109.768 79.8301 119.974 81.1812 130.176Z" fill="#263238"/>
<path d="M79.4103 89.2534C79.4115 89.2636 79.4115 89.2738 79.4103 89.284C79.3225 89.6923 78.3568 94.1731 77.0821 99.589C77.0134 99.8829 76.9447 100.181 76.8721 100.478C76.3073 102.841 75.6928 105.341 75.0707 107.73C73.7272 112.917 72.3494 117.566 71.4105 119.096C71.3082 119.286 71.1663 119.451 70.9944 119.581C70.6891 119.76 70.0403 120.081 69.2349 120.459L68.7006 120.707L68.2426 120.917C66.4106 121.756 64.2083 122.718 63.1893 123.142V123.222L62.8343 130.184H31.6939L34.9915 110.337L38.9723 89.2725L79.4103 89.2534Z" fill="#37474F"/>
<path d="M73.6852 118.218C70.0623 119.537 66.5607 121.168 63.2198 123.092C63.1943 123.107 63.1752 123.131 63.1664 123.159C63.1575 123.187 63.1595 123.218 63.1719 123.244C63.1843 123.271 63.2063 123.292 63.2336 123.304C63.2608 123.315 63.2913 123.316 63.3191 123.306C66.8419 121.779 70.4372 120.344 73.8722 118.638C73.9279 118.613 73.9714 118.568 73.9933 118.511C74.0151 118.454 74.0134 118.39 73.9886 118.335C73.9638 118.279 73.9179 118.236 73.861 118.214C73.8041 118.192 73.7409 118.194 73.6852 118.218Z" fill="#263238"/>
<path d="M74.7463 94.0816C74.7463 93.9595 74.5249 93.9328 74.5249 94.0816C74.5516 98.28 74.2844 101.944 73.9333 105.856C73.7692 107.669 72.3112 117.688 69.1624 116.97C68.6357 116.848 68.3647 116.329 68.2846 115.535C68.1854 114.577 68.5441 113.409 68.7006 112.459C69.0517 110.36 69.3304 108.261 69.5097 106.131C69.8782 102.182 69.836 98.2052 69.3838 94.2648C69.3792 94.2413 69.3666 94.2202 69.3482 94.205C69.3297 94.1898 69.3066 94.1815 69.2827 94.1815C69.2588 94.1815 69.2356 94.1898 69.2171 94.205C69.1987 94.2202 69.1861 94.2413 69.1815 94.2648C69.1815 99.7456 69.0403 105.215 68.2235 110.646C67.8419 113.253 66.5136 117.18 69.2426 117.585C71.9715 117.989 73.8226 111.413 74.1585 109.612C75.105 104.57 75.1432 99.1654 74.7463 94.0816Z" fill="#263238"/>
<path d="M69.2464 117.226C68.9643 117.902 68.7272 118.595 68.5365 119.302C68.3358 119.85 68.2362 120.429 68.2426 121.012C68.2426 121.123 68.4029 121.134 68.4602 121.058C68.7879 120.545 69.035 119.985 69.193 119.398C69.4334 118.753 69.6853 118.115 69.9067 117.467C69.9386 117.379 69.9344 117.282 69.895 117.198C69.8556 117.113 69.7843 117.048 69.6968 117.016C69.6092 116.984 69.5126 116.988 69.4281 117.028C69.3436 117.067 69.2783 117.139 69.2464 117.226Z" fill="#263238"/>
<path d="M45.9531 119.31C45.6401 122.936 45.2699 126.562 44.8806 130.176H44.5409C44.9226 126.55 45.3577 122.924 45.8271 119.306C45.8386 119.226 45.9607 119.226 45.9531 119.31Z" fill="#263238"/>
<path d="M67.3228 52.6857C70.1738 61.9832 82.5132 95.1923 90.7878 100.253C96.2037 103.562 123.405 105.444 128.638 103.017C131.543 101.665 130.638 79.6965 127.214 79.5744C122.944 79.4217 101.948 78.8568 99.6235 77.7462C97.2991 76.6355 81.6163 55.6628 75.6393 49.308C65.3381 38.3464 65.422 46.4951 67.3228 52.6857Z" fill="#FFBE9D"/>
<path d="M120.707 77.9255L116.829 104.795C116.829 104.795 94.7381 105.444 88.7154 100.516C80.1316 93.5014 67.8228 58.0061 66.4258 52.4528C63.1168 39.2852 70.4906 41.4836 76.292 47.8728C80.0591 52.033 94.8793 73.3149 100.368 77.2346C101.925 78.3606 120.707 77.9255 120.707 77.9255Z" fill="#FEFEFE"/>
<path d="M111.387 103.478C111.841 99.4899 114.295 83.2498 115.062 79.7652C115.115 79.5247 115.283 79.498 115.26 79.7652C114.188 91.7458 112.207 99.612 111.547 103.497C111.528 103.589 111.375 103.581 111.387 103.478Z" fill="#263238"/>
<path d="M82.4216 79.3071L86.1124 104.688C86.1124 104.688 44.747 105.299 34.4763 104.577C34.4763 104.577 42.8539 57.1245 53.8956 45.1324C59.4184 39.1364 65.903 39.5868 70.0364 43.7775C71.0822 44.8386 83.559 61.3343 84.872 67.6281C86.017 73.1852 82.4216 79.3071 82.4216 79.3071Z" fill="#3B98CC"/>
<path d="M66.3037 76.4752C68.5091 76.2762 70.7262 76.2392 72.9371 76.3645C74.0325 76.4447 75.1203 76.5706 76.208 76.7233C76.75 76.7996 77.2958 76.8569 77.8377 76.9103C78.4081 76.9809 78.9849 76.9809 79.5553 76.9103C79.6049 76.9103 79.6163 76.979 79.5553 76.9904C79.027 77.1112 78.4916 77.1979 77.9523 77.25C77.4287 77.2862 76.9033 77.2862 76.3798 77.25C75.2653 77.1813 74.1546 77.063 73.0402 76.9828C70.7959 76.8225 68.5517 76.6584 66.2999 76.6622C66.2045 76.6622 66.2006 76.4866 66.3037 76.4752Z" fill="#263238"/>
<path d="M61.3115 79.3797C63.0681 78.8682 64.8521 78.4553 66.6548 78.1431C67.5556 77.9904 68.4601 77.8912 69.3723 77.8148C69.8036 77.7805 70.2425 77.75 70.6776 77.7271C71.1127 77.7042 71.6395 77.7271 72.1165 77.7271C72.1662 77.7271 72.1814 77.7996 72.1165 77.8072C71.6662 77.8492 71.2196 77.9675 70.7731 78.04L69.4219 78.2461C68.525 78.3873 67.6281 78.54 66.7235 78.6736C64.9221 78.9369 63.1282 79.2194 61.3344 79.5476C61.2199 79.5362 61.2046 79.3988 61.3115 79.3797Z" fill="#263238"/>
<path d="M61.0748 130.176H28.4382C32.2549 106.2 36.835 81.643 41.2432 69.2846C50.7316 42.6402 58.4756 41.6212 58.4756 41.6212V41.6517C58.5176 42.7776 59.6206 72.9791 60.4679 104.921C60.697 113.387 60.9069 121.974 61.0748 130.176Z" fill="#FEFEFE"/>
<path d="M55.6857 115.867C55.6857 114.936 55.4796 110.524 55.3956 109.635C55.3956 109.532 55.3574 109.326 55.2734 109.326C54.0559 109.326 49.8308 109.757 45.5752 109.757C42.5322 109.7 39.4951 109.463 36.48 109.047C36.3388 109.089 36.3388 113.936 36.2625 116.28C36.1098 121.169 36.335 126.699 37.377 127.73C39.3235 129.638 44.5104 129.474 46.1554 129.459C47.8004 129.443 53.5979 129.44 54.9605 126.447C55.5406 125.108 55.7009 118.283 55.6857 115.867ZM54.9223 120.829C54.8536 123.241 54.7773 125.409 53.8498 126.68C53.056 127.753 50.8156 128.833 45.6592 128.829C41.9341 128.829 38.7891 128.146 37.9304 127.153C36.8999 125.966 36.7854 122.554 36.7854 120.516C36.7854 117.703 36.7854 115.455 36.7854 112.646C43.9875 114.318 51.9109 113.493 54.9147 112.887C54.9261 113.005 54.991 118.94 54.9338 120.829H54.9223ZM54.9414 112.432C45.5867 113.635 39.7967 112.631 36.7968 112.051C36.7968 111.15 36.7968 110.448 36.7968 109.543C38.083 109.867 42.4112 110.383 45.6554 110.383C48.6744 110.383 53.1094 109.963 54.991 109.738C54.9376 110.478 54.9757 112.089 54.9528 112.428L54.9414 112.432Z" fill="#FEFEFE"/>
<path d="M57.4948 54.1475C55.6589 61.7465 46.2164 88.7764 43.8691 91.1198C41.0715 93.9137 28.8733 102.505 24.6215 91.0664C21.6751 83.1467 41.6974 55.3841 51.159 46.411C55.7772 42.0562 60.5672 41.415 57.4948 54.1475Z" fill="#FEFEFE"/>
<path d="M54.2659 67.9945C53.6933 69.0517 53.0636 70.0784 52.4453 71.1089C52.5903 70.7272 52.7315 70.3455 52.8689 69.9639C53.4643 68.3189 54.014 66.6548 54.6208 65.0022C54.6437 64.9487 54.5597 64.9296 54.5368 64.9793C53.8995 66.4105 53.2239 67.8303 52.6018 69.273C51.9796 70.7158 51.4568 72.105 50.8919 73.5363C49.7812 76.4179 48.6553 79.2957 47.6248 82.2078C47.015 83.8171 46.4926 85.4581 46.06 87.1237C46.06 87.1695 46.1172 87.2039 46.1401 87.1581C46.8233 85.7803 47.3614 84.3299 47.9111 82.8948C48.4607 81.4598 49.0103 80.04 49.5446 78.6049C50.0789 77.1698 50.6476 75.6851 51.2125 74.2309C51.4949 73.4981 51.7888 72.773 52.0751 72.044C52.9516 70.7714 53.6971 69.4134 54.3002 67.9906C54.3078 67.9906 54.2735 67.9754 54.2659 67.9945Z" fill="#263238"/>
<path d="M58.1321 41.6554C57.1144 43.803 56.1271 45.9657 55.1704 48.1438C54.2162 50.3193 53.2315 52.4796 52.3079 54.6704L52.1934 54.9452L52.4414 55.1131L56.4452 57.8191L56.3497 57.2428C55.262 58.8687 54.2086 60.5137 53.1475 62.1549L53.0445 62.3152L53.1017 62.4908C54.1742 65.8151 55.2086 69.1509 56.3345 72.46C57.4604 75.7691 58.5634 79.082 59.7466 82.3834C58.8382 79.0043 57.8866 75.6418 56.8917 72.2959C55.9299 68.9372 54.8765 65.609 53.8613 62.2656L53.8155 62.6015C54.8918 60.9717 55.9757 59.3458 57.0291 57.697L57.2467 57.3535L56.9146 57.1359L52.8613 54.5024L52.9987 54.9452C53.9071 52.7506 54.7467 50.5292 55.6246 48.3232C56.5024 46.1171 57.3154 43.8844 58.1321 41.6554Z" fill="#FEFEFE"/>
<path d="M90.1008 130.176H78.3148C77.6164 121.921 76.8988 113.291 76.1889 104.807C75.1775 92.6809 74.1775 80.8491 73.2463 70.8112C72.414 61.47 70.9437 52.1967 68.8456 43.0562C68.7922 42.8234 68.7578 42.6745 68.7502 42.6554C68.7426 42.6363 68.7502 42.6554 68.7502 42.6554C69.2216 42.949 69.643 43.3163 69.9982 43.7432C70.01 43.7568 70.0228 43.7696 70.0364 43.7813L70.1624 43.9226C70.1963 43.9563 70.2281 43.9919 70.2578 44.0294C72.2844 46.2546 75.6737 50.8041 78.6889 55.4795C81.5972 59.9832 84.162 64.5976 84.7956 67.338L84.8299 67.4907C84.849 67.5785 84.8643 67.6624 84.8795 67.7464C85.0042 68.473 85.0743 69.2078 85.0895 69.9448C85.1178 72.9562 84.3389 75.9201 82.8338 78.5286C82.8239 78.551 82.8124 78.5726 82.7994 78.5935C82.7002 78.7614 82.6391 78.8492 82.6391 78.8492V78.8912L86.5016 105.333L90.1008 130.176Z" fill="#FEFEFE"/>
<path d="M80.7995 59.3496C79.6545 57.51 78.4599 55.6894 77.3263 53.8345C77.292 53.7811 77.3759 53.72 77.4141 53.7696C78.5591 55.2963 79.7041 56.823 80.8148 58.3764C80.4331 57.5481 80.0858 56.7161 79.7537 55.8688C79.7156 55.7734 79.8492 55.6932 79.895 55.7887C80.4102 56.8764 80.872 57.9833 81.33 59.0977C82.3269 60.4795 83.2101 61.9397 83.9712 63.464C85.5475 66.7044 86.2269 70.2463 85.3719 73.7882C85.1402 74.7668 84.7943 75.7147 84.3414 76.6126C84.0361 77.2232 83.0399 78.5514 83.0475 78.5896C83.6964 82.2078 84.1926 85.868 84.6925 89.5092C85.1925 93.1503 85.7307 96.8754 86.162 100.578C86.4024 102.669 86.5436 104.776 86.8642 106.864C86.8642 106.94 86.7574 106.971 86.7459 106.894C86.4826 105.077 86.0895 103.28 85.765 101.471C85.4406 99.6616 85.1391 97.8525 84.8452 96.0357C84.2574 92.3717 83.7307 88.6924 83.2002 85.0169C82.9025 82.9406 82.5743 80.8605 82.3376 78.7728C82.3109 78.5438 83.2498 77.0629 83.5284 76.4828C83.8996 75.7141 84.2035 74.9147 84.4368 74.0935C84.9146 72.4244 85.0624 70.6781 84.8719 68.9524C84.4712 65.4334 82.6468 62.2999 80.7995 59.3496Z" fill="#263238"/>
<path d="M68.8456 43.0562C70.0619 44.9035 71.2997 46.7343 72.5593 48.5485C73.8264 50.3576 75.063 52.1896 76.3531 53.9796L76.3798 53.5522L73.2806 56.8002L73.0249 57.0673L73.2959 57.3307C74.6012 58.594 75.9294 59.8344 77.2538 61.0787L77.1431 60.7581C76.6622 64.1244 76.147 67.4831 75.7195 70.8571C75.292 74.231 74.8378 77.6012 74.4676 80.9828C75.1088 77.6393 75.6928 74.2921 76.2538 70.9372C76.8149 67.5823 77.3378 64.2236 77.8721 60.8688L77.9026 60.6779L77.7614 60.5443C76.4523 59.2848 75.1432 58.0215 73.8149 56.7849V57.3154L76.8683 54.0102L77.0591 53.8041L76.895 53.5827C75.5935 51.8003 74.2233 50.0561 72.9104 48.2889C71.5974 46.5218 70.2234 44.789 68.8456 43.0562Z" fill="#FEFEFE"/>
<path d="M53.9453 47.3461C53.6361 42.8309 59.1054 41.0371 62.487 40.5715C66.4907 40.0219 69.1586 40.3539 71.086 44.2393C73.1165 48.3346 74.1814 53.0864 74.9791 57.571C75.1279 58.4069 76.4332 58.197 76.2844 57.3573C75.3646 52.1933 74.044 42.5561 68.8991 39.7547C64.1626 37.1708 52.1056 39.9073 52.6399 47.556C52.6972 48.4071 54.0025 48.1896 53.9453 47.3461Z" fill="#455A64"/>
<path d="M79.0286 59.4451C79.1288 60.0421 79.0493 60.6556 78.8001 61.2074C78.551 61.7592 78.1434 62.2244 77.6291 62.544C77.1149 62.8636 76.5173 63.0231 75.9122 63.0022C75.3071 62.9814 74.7219 62.7811 74.2309 62.4268C73.7399 62.0726 73.3653 61.5804 73.1547 61.0127C72.9441 60.4451 72.907 59.8276 73.0482 59.2389C73.1893 58.6501 73.5023 58.1166 73.9474 57.7061C74.3924 57.2957 74.9495 57.0268 75.5478 56.9337C75.9412 56.8699 76.3434 56.8843 76.7313 56.976C77.1192 57.0677 77.4852 57.235 77.8085 57.4682C78.1317 57.7014 78.4059 57.996 78.6152 58.3352C78.8246 58.6744 78.965 59.0516 79.0286 59.4451Z" fill="#263238"/>
<path d="M77.834 59.6397C77.889 59.9967 77.8371 60.3619 77.6848 60.6894C77.5324 61.0168 77.2866 61.2918 76.9781 61.4797C76.6697 61.6676 76.3125 61.7599 75.9516 61.745C75.5908 61.7301 75.2424 61.6086 74.9505 61.3959C74.6586 61.1833 74.4363 60.8889 74.3115 60.55C74.1867 60.2111 74.1651 59.8428 74.2494 59.4916C74.3337 59.1404 74.5201 58.8221 74.7852 58.5767C75.0502 58.3314 75.382 58.17 75.7386 58.113C75.9766 58.0745 76.2198 58.0835 76.4543 58.1395C76.6887 58.1955 76.9098 58.2975 77.1046 58.4394C77.2995 58.5814 77.4642 58.7606 77.5894 58.9666C77.7146 59.1726 77.7977 59.4014 77.834 59.6397Z" fill="#FEFEFE"/>
<path d="M58.5367 61.4908C61.8763 74.1737 61.3611 77.2729 60.3077 78.7308C59.5136 79.7508 58.4949 80.5737 57.3307 81.1354L56.949 80.2995L57.1398 80.7155L56.949 80.2995C57.966 79.8 58.8591 79.0803 59.5634 78.1927C60.3268 77.1393 60.9527 74.2844 57.6551 61.7236L58.5367 61.4908Z" fill="#C7C7C7"/>
<path d="M55.3195 81.0689L55.8594 82.0439C55.9728 82.2485 56.2306 82.3226 56.4353 82.2092L58.4853 81.0738C58.69 80.9604 58.764 80.7026 58.6507 80.4979L58.1107 79.523C57.9973 79.3183 57.7395 79.2443 57.5348 79.3576L55.4848 80.4931C55.2801 80.6064 55.2061 80.8642 55.3195 81.0689Z" fill="#263238"/>
<path d="M50.243 61.8229C47.7278 71.3646 47.121 76.6164 48.3347 78.2919C49.0389 79.1787 49.932 79.8972 50.9491 80.3949L50.5674 81.2346C49.4033 80.6729 48.3845 79.8501 47.5904 78.8301C46.1477 76.8378 46.6591 71.8417 49.3576 61.5901L50.243 61.8229Z" fill="#C7C7C7"/>
<path d="M49.7959 79.6193L49.2566 80.5946C49.1434 80.7994 49.2176 81.0572 49.4223 81.1704L51.4731 82.3044C51.6779 82.4176 51.9357 82.3434 52.0489 82.1386L52.5882 81.1633C52.7014 80.9586 52.6272 80.7008 52.4224 80.5876L50.3716 79.4536C50.1669 79.3404 49.9091 79.4146 49.7959 79.6193Z" fill="#263238"/>
<path d="M49.0484 61.174C49.4681 59.0584 50.0175 56.9705 50.6934 54.9223C51.0935 54.0181 51.7288 53.2378 52.5331 52.6628C52.7163 52.6437 52.6361 51.0331 52.5331 49.7201C52.4491 48.5751 52.327 47.2087 52.6056 46.8347C52.7664 46.6618 52.9883 46.5583 53.2241 46.5462C53.4599 46.5341 53.6912 46.6143 53.8689 46.7698C54.1857 47.1095 54.2048 48.4682 54.2506 49.6323C54.2964 50.9491 54.388 52.5559 54.5712 52.5559C55.3848 53.0836 56.0591 53.7997 56.5368 54.6437C57.4265 56.6651 58.1614 58.7512 58.7352 60.884C59.0291 62.2427 58.5825 62.4106 58.1932 62.548C57.6436 62.7351 57.2925 62.3572 56.8612 60.8534C56.1742 58.4718 55.3078 54.4605 53.6475 54.4719C52.0025 54.6398 51.3346 58.8878 50.8079 61.258C50.4759 62.7427 50.1629 62.8839 49.5942 62.7541C49.1973 62.6587 48.7889 62.4908 49.0484 61.174Z" fill="#263238"/>
<path d="M69.1166 41.8959C69.1166 41.8959 69.4983 49.2507 68.1395 49.3728C64.0213 49.7545 59.4413 44.0905 59.1894 43.1936C59.1245 42.9646 59.4565 37.2548 59.7275 32.816C59.8993 29.9611 60.0481 27.6329 60.0481 27.6329L70.5708 33.6633L69.2158 41.3463L69.1166 41.8959Z" fill="#FFBE9D"/>
<path d="M70.5707 33.6633L69.2158 41.3463C67.1238 40.6707 65.1976 39.5619 63.5628 38.0921C61.9279 36.6223 60.6211 34.8246 59.7275 32.816C59.8993 29.9611 60.0481 27.6329 60.0481 27.6329L61.3725 28.3352L70.5707 33.6633Z" fill="#263238"/>
<path d="M81.4026 21.4269C83.5972 34.9456 75.7462 37.7853 72.8302 38.2547C70.1853 38.6822 61.1206 39.8005 57.5406 26.5794C53.9605 13.3584 59.552 8.06845 65.5556 6.77077C71.5593 5.47309 79.208 7.90815 81.4026 21.4269Z" fill="#FFBE9D"/>
<path d="M78.1049 19.759C77.7889 19.7393 77.4742 19.7024 77.1622 19.6484C76.8267 19.6558 76.498 19.5526 76.2271 19.3545C76.1544 19.2754 76.1098 19.1747 76.1002 19.0677C76.0905 18.9608 76.1163 18.8537 76.1737 18.7629C76.3139 18.604 76.4937 18.485 76.6948 18.418C76.8959 18.3509 77.1111 18.3383 77.3187 18.3812C77.76 18.402 78.1772 18.5888 78.4866 18.9041C78.55 18.9787 78.591 19.0697 78.6048 19.1666C78.6187 19.2635 78.6049 19.3624 78.565 19.4518C78.5251 19.5411 78.4607 19.6174 78.3793 19.6718C78.2979 19.7262 78.2028 19.7564 78.1049 19.759Z" fill="#263238"/>
<path d="M68.9449 20.9346C69.2617 20.8659 69.5403 20.7514 69.8456 20.656C70.1787 20.6024 70.4848 20.44 70.7158 20.1941C70.7733 20.1032 70.7989 19.9957 70.7885 19.8885C70.7781 19.7814 70.7324 19.6808 70.6586 19.6026C70.4909 19.468 70.29 19.3811 70.0772 19.3509C69.8643 19.3207 69.6472 19.3483 69.4487 19.4308C69.0196 19.5332 68.6441 19.7917 68.3953 20.156C68.3442 20.2427 68.3193 20.3423 68.3235 20.4428C68.3277 20.5433 68.3607 20.6405 68.4187 20.7227C68.4768 20.8049 68.5573 20.8686 68.6506 20.9062C68.7439 20.9438 68.8461 20.9536 68.9449 20.9346Z" fill="#263238"/>
<path d="M71.5135 24.0146C71.5135 23.9802 71.4486 24.0642 71.4524 24.1024C71.5898 25.026 71.5898 26.1061 70.7845 26.5107C70.7616 26.5107 70.7845 26.568 70.7845 26.5603C71.8036 26.3008 71.7921 24.8657 71.5135 24.0146Z" fill="#263238"/>
<path d="M70.5746 23.1406C69.0746 23.1979 69.2998 26.194 70.6929 26.1482C72.086 26.1024 71.8341 23.091 70.5746 23.1406Z" fill="#263238"/>
<path d="M69.9982 23.3429C69.7502 23.5337 69.5135 23.8543 69.2006 23.9078C68.8876 23.9612 68.5364 23.6788 68.2769 23.3925C68.2502 23.3658 68.2235 23.3925 68.2273 23.4345C68.2616 24.007 68.5288 24.5795 69.1509 24.6215C69.7731 24.6635 70.086 24.1177 70.1853 23.5261C70.2043 23.4192 70.0898 23.2742 69.9982 23.3429Z" fill="#263238"/>
<path d="M76.624 23.3238C76.624 23.2856 76.7004 23.362 76.7004 23.4001C76.7347 24.3314 76.9294 25.3924 77.7919 25.6443C77.8187 25.6443 77.8187 25.7016 77.7919 25.6978C76.75 25.6253 76.5057 24.2093 76.624 23.3238Z" fill="#263238"/>
<path d="M77.3874 22.2933C78.8759 22.0796 79.1965 25.0719 77.8187 25.2704C76.4408 25.4688 76.1393 22.4765 77.3874 22.2933Z" fill="#263238"/>
<path d="M78.0324 22.423C78.2881 22.5566 78.5515 22.8047 78.8377 22.8047C79.124 22.8047 79.3721 22.423 79.5476 22.1101C79.5667 22.0757 79.5934 22.1101 79.5972 22.1368C79.6774 22.7093 79.5514 23.3238 79.0133 23.4917C78.4751 23.6596 78.1011 23.194 77.9026 22.6406C77.8683 22.5414 77.9293 22.3696 78.0324 22.423Z" fill="#263238"/>
<path d="M72.2883 31.2893C72.5173 31.4992 72.7501 31.7931 73.0898 31.8122C73.4366 31.7951 73.776 31.7054 74.086 31.5489C74.0921 31.5457 74.0992 31.5447 74.106 31.5461C74.1128 31.5474 74.119 31.5511 74.1234 31.5564C74.1279 31.5618 74.1304 31.5685 74.1305 31.5754C74.1306 31.5824 74.1284 31.5892 74.1241 31.5947C73.9987 31.7787 73.8265 31.9259 73.6252 32.0212C73.424 32.1164 73.2009 32.1563 72.9791 32.1366C72.7867 32.094 72.6113 31.9949 72.4753 31.8522C72.3394 31.7094 72.249 31.5294 72.2158 31.3351C72.1852 31.2893 72.2539 31.2893 72.2883 31.2893Z" fill="#263238"/>
<path d="M75.8798 27.6024C75.8798 27.6024 76.1928 28.9726 76.2615 29.629C76.2615 29.6901 76.1088 29.7321 75.8798 29.7664C75.8798 29.7664 75.8798 29.7664 75.8569 29.7664C75.3044 29.9187 74.7205 29.9155 74.1697 29.7573C73.6188 29.599 73.1223 29.2918 72.7348 28.8695C72.6814 28.8085 72.7577 28.7359 72.8226 28.7703C73.7072 29.2671 74.7285 29.4652 75.7348 29.3352C75.7653 29.152 75.1203 27.007 75.2233 26.9917C75.7393 26.9892 76.2531 27.0586 76.75 27.1978C76.1813 24.3238 75.1546 21.5644 74.6317 18.6942C74.6302 18.6739 74.6354 18.6537 74.6466 18.6368C74.6578 18.6198 74.6743 18.607 74.6935 18.6005C74.7127 18.5939 74.7336 18.5939 74.7528 18.6006C74.772 18.6072 74.7885 18.62 74.7997 18.637C76.0783 21.4537 76.8072 24.7437 77.4714 27.6978C77.5401 28.0642 76.1508 27.6902 75.8798 27.6024Z" fill="#263238"/>
<path d="M75.1356 29.6366C74.8283 30.0782 74.4113 30.432 73.9257 30.6633C73.6577 30.784 73.3582 30.8161 73.0707 30.7549C72.4448 30.6213 72.4066 30.0526 72.4982 29.5603C72.5486 29.2969 72.6306 29.0406 72.7425 28.7969C73.4289 29.3273 74.2683 29.6218 75.1356 29.6366Z" fill="#263238"/>
<path d="M73.9257 30.6634C73.6577 30.7841 73.3582 30.8162 73.0707 30.755C72.4448 30.6214 72.4066 30.0527 72.4982 29.5604C73.1623 29.6023 73.8417 30.0222 73.9257 30.6634Z" fill="#FF99BA"/>
<path d="M57.5406 27.091C58.4219 26.6684 59.1782 26.0241 59.7356 25.2212C60.2929 24.4183 60.6321 23.4844 60.7199 22.5109C63.1173 21.4739 65.1949 19.8165 66.7388 17.7095C66.6472 17.992 65.9755 20.0262 65.5938 21.0491C74.2806 19.469 76.9981 12.8394 76.9981 12.8394C79.8034 15.6599 80.3568 17.4614 80.7575 18.3584C80.7575 18.3584 80.8491 13.015 78.124 9.454C77.2079 8.21806 75.9496 7.27774 74.5047 6.74932C73.0598 6.22089 71.4918 6.12753 69.9944 6.48079C67.9498 5.77461 65.7421 5.68765 63.6482 6.23082C61.5543 6.77398 59.6673 7.9231 58.2237 9.53415C52.5559 15.6409 57.5406 27.091 57.5406 27.091Z" fill="#263238"/>
<path d="M72.2043 19.6636C70.8066 20.4197 69.3042 20.9638 67.7464 21.2781C67.7464 21.2781 67.7273 21.2781 67.7464 21.2781C70.1887 20.6226 72.4008 19.3012 74.1356 17.4614C74.8723 16.6747 75.5058 15.7974 76.021 14.8507C76.6255 13.8369 77.0237 12.7137 77.1927 11.5455C77.1963 11.5305 77.2049 11.5171 77.217 11.5076C77.2291 11.498 77.2441 11.4929 77.2595 11.4929C77.2749 11.4929 77.2899 11.498 77.302 11.5076C77.3141 11.5171 77.3227 11.5305 77.3263 11.5455C77.286 12.7221 77.0473 13.8834 76.6202 14.9805C76.1474 16.0362 75.4865 16.9971 74.6699 17.8163C73.938 18.5454 73.1066 19.1674 72.2005 19.6636" fill="#263238"/>
<path d="M69.8189 28.9993C69.019 29.0176 68.23 28.8112 67.5417 28.4033C66.8533 27.9954 66.2932 27.4026 65.9252 26.6921C65.5571 25.9817 65.3958 25.1822 65.4597 24.3847C65.5235 23.5871 65.8099 22.8235 66.2863 22.1806C66.7626 21.5378 67.4098 21.0416 68.1543 20.7484C68.8987 20.4552 69.7105 20.3768 70.4973 20.5221C71.2841 20.6675 72.0143 21.0307 72.6049 21.5706C73.1954 22.1104 73.6226 22.8051 73.8379 23.5758C74.1417 24.668 73.9997 25.8361 73.4429 26.8236C72.8862 27.8112 71.9602 28.5374 70.8685 28.8428C70.5263 28.9374 70.1738 28.99 69.8189 28.9993ZM69.6357 21.0224C69.327 21.0291 69.0204 21.0753 68.7235 21.1598C67.8179 21.4149 67.0435 22.0055 66.558 22.8115C66.0726 23.6175 65.9126 24.5781 66.1106 25.4979C66.3086 26.4177 66.8497 27.2275 67.6238 27.7623C68.3978 28.2972 69.3466 28.5169 70.277 28.3768C71.2074 28.2366 72.0494 27.7472 72.6315 27.008C73.2137 26.2689 73.4923 25.3357 73.4105 24.3984C73.3288 23.4611 72.8929 22.5901 72.1916 21.9629C71.4903 21.3357 70.5763 20.9994 69.6357 21.0224Z" fill="#3B98CC"/>
<path d="M79.5247 27.5872C77.8912 27.6253 76.3683 25.9841 76.0554 23.7705C75.8894 22.7175 76.0576 21.639 76.5363 20.6866C76.7182 20.2672 77.0047 19.9015 77.3684 19.6245C77.7321 19.3475 78.1608 19.1685 78.6134 19.1046C79.0661 19.0406 79.5276 19.0939 79.9538 19.2593C80.38 19.4246 80.7566 19.6966 81.0476 20.0492C81.7713 20.8337 82.2305 21.8256 82.3605 22.885C82.6888 25.217 81.5438 27.3162 79.8034 27.5604C79.7114 27.5771 79.6182 27.586 79.5247 27.5872ZM78.9103 19.6484C78.8378 19.6446 78.7652 19.6446 78.6927 19.6484C78.334 19.7167 77.9969 19.8698 77.7094 20.0949C77.4219 20.3199 77.1924 20.6105 77.0401 20.9423C76.6193 21.7887 76.4738 22.7456 76.624 23.6789C76.9065 25.7017 78.2958 27.1864 79.7232 26.9841C81.1507 26.7818 82.0781 24.9727 81.7957 22.9537C81.6829 22.016 81.2829 21.1362 80.6507 20.4347C80.4319 20.189 80.1639 19.992 79.864 19.8565C79.5642 19.7211 79.2393 19.6502 78.9103 19.6484Z" fill="#3B98CC"/>
<path d="M73.7653 24.091L73.3379 23.7093C73.9065 23.0796 75.2882 22.1483 76.4752 23.1063L76.1164 23.5528C75.0516 22.6903 73.815 24.0376 73.7653 24.091Z" fill="#3B98CC"/>
<path d="M55.0559 27.8543L54.5178 27.6634C54.6055 27.4115 55.4147 25.194 56.6475 24.8124C57.7925 24.4574 65.4908 24.0987 65.8076 24.0872L65.8343 24.6559C63.632 24.7551 57.7009 25.0834 56.8116 25.3582C56.0025 25.5948 55.2697 27.2283 55.0559 27.8543Z" fill="#3B98CC"/>
<path d="M59.8573 27.2704C59.8573 27.2704 56.5597 23.2285 54.7009 24.4384C52.8422 25.6483 55.5482 31.671 57.8764 32.3313C58.1694 32.4387 58.4812 32.4857 58.7929 32.4695C59.1045 32.4533 59.4097 32.3741 59.69 32.2369C59.9703 32.0996 60.2199 31.907 60.4238 31.6707C60.6276 31.4344 60.7816 31.1592 60.8763 30.8619L59.8573 27.2704Z" fill="#FFBE9D"/>
<path d="M55.5215 26.1405C55.5134 26.1405 55.5057 26.1438 55.4999 26.1495C55.4942 26.1552 55.491 26.163 55.491 26.1711C55.491 26.1792 55.4942 26.187 55.4999 26.1927C55.5057 26.1984 55.5134 26.2016 55.5215 26.2016C57.1589 26.7283 58.1093 28.1443 58.8115 29.6366C58.2925 29.0832 57.6245 28.8084 56.8765 29.4305C56.8383 29.4649 56.8765 29.526 56.9261 29.5145C57.1993 29.4044 57.5 29.3819 57.7865 29.4503C58.0731 29.5187 58.3312 29.6745 58.5253 29.8962C58.849 30.268 59.1318 30.6737 59.3688 31.1061C59.4527 31.2435 59.7046 31.1481 59.6397 30.9878V30.9496C59.5062 28.9077 57.7161 26.1825 55.5215 26.1405Z" fill="#263238"/>
<path d="M59.1207 31.6329C59.1288 31.6986 59.1233 31.7652 59.1044 31.8287C59.0856 31.8922 59.0539 31.951 59.0112 32.0017C58.9686 32.0523 58.9159 32.0936 58.8566 32.1229C58.7972 32.1523 58.7325 32.1691 58.6664 32.1722C58.6002 32.1754 58.5342 32.1649 58.4723 32.1413C58.4104 32.1178 58.3541 32.0817 58.3068 32.0354C58.2595 31.989 58.2223 31.9334 58.1975 31.872C58.1727 31.8107 58.1609 31.7448 58.1627 31.6787C58.166 31.5574 58.215 31.4419 58.2999 31.3553C58.3848 31.2687 58.4993 31.2173 58.6204 31.2115C58.7416 31.2057 58.8604 31.2459 58.9532 31.3241C59.046 31.4022 59.1058 31.5125 59.1207 31.6329Z" fill="white"/>
<path d="M57.739 30.8694C57.741 30.909 57.7352 30.9487 57.7219 30.986C57.7086 31.0233 57.6881 31.0577 57.6615 31.0871C57.6349 31.1165 57.6028 31.1404 57.567 31.1574C57.5312 31.1744 57.4924 31.1842 57.4528 31.1862C57.4132 31.1882 57.3736 31.1824 57.3362 31.1691C57.2989 31.1558 57.2645 31.1353 57.2351 31.1087C57.2057 31.0821 57.1818 31.05 57.1648 31.0142C57.1478 30.9784 57.138 30.9396 57.136 30.9C57.1319 30.82 57.1598 30.7417 57.2135 30.6823C57.2672 30.6229 57.3423 30.5872 57.4222 30.5832C57.5022 30.5791 57.5805 30.607 57.6399 30.6607C57.6993 30.7144 57.735 30.7895 57.739 30.8694Z" fill="white"/>
<path d="M69.1204 42.2661L66.8304 48.266L59.2886 40.873L57.2391 43.331C57.2391 43.331 64.7045 55.1627 64.7389 54.6208L67.0938 49.4415L70.7044 52.9452L70.2464 43.9874L69.1204 42.2661Z" fill="#3B98CC"/>
<path d="M70.7387 48.5026C70.6166 47.0256 70.5288 45.537 70.357 44.0676C70.357 44.0142 70.2654 43.9913 70.254 44.0676C69.9868 45.4989 70.4944 51.1438 70.5135 52.4987C70.3647 52.346 67.1701 49.4186 67.1395 49.4683C66.6243 50.2927 64.8953 54.0483 64.777 54.4071C63.5976 52.5292 58.5978 45.1248 57.2085 43.3386C57.2014 43.327 57.19 43.3186 57.1768 43.3154C57.1635 43.3122 57.1495 43.3144 57.1379 43.3215C57.1262 43.3285 57.1179 43.34 57.1147 43.3532C57.1115 43.3664 57.1136 43.3804 57.1207 43.3921C58.1703 45.3806 64.6358 55.1513 64.7236 55.1208C65.6375 53.3399 66.4592 51.5131 67.1853 49.6476C67.7273 50.2888 70.9562 53.5979 70.9639 53.3804C70.9752 51.7516 70.9 50.1234 70.7387 48.5026Z" fill="#263238"/>
<path d="M69.6548 61.6702C69.6548 61.6702 66.7044 57.7771 69.5212 55.9795C72.3379 54.1818 74.6241 58.4985 74.6241 58.4985L69.6548 61.6702Z" fill="#455A64"/>
<path d="M92.99 87.2879L93.3984 92.0473L93.5435 93.6198L92.1656 92.8374L88.0283 90.4481L69.5593 61.5023L74.521 58.3306L92.99 87.2879Z" fill="#455A64"/>
<path d="M93.4099 92.055L93.5473 93.6236L92.1733 92.8412L93.4099 92.055Z" fill="#37474F"/>
<path d="M74.8394 57.9158L69.0382 61.6173L69.7731 62.7692L75.5744 59.0677L74.8394 57.9158Z" fill="#263238"/>
<path d="M75.6479 59.1932L69.8467 62.8947L70.5817 64.0466L76.3829 60.3451L75.6479 59.1932Z" fill="#263238"/>
<path d="M70.5822 64.0404L72.4524 62.8458L78.1049 73.9791L77.3912 74.376L70.5822 64.0404Z" fill="#263238"/>
<path d="M59.0215 71.8875C61.8573 71.3265 70.4716 95.5701 66.3304 96.5968C47.9492 101.177 32.9 98.2914 29.3352 96.5968C24.6597 94.3564 24.2704 88.3528 26.2246 85.5818C29.6329 80.7766 54.6246 72.7616 59.0215 71.8875Z" fill="#FFBE9D"/>
<path d="M94.3221 70.6013C94.2763 73.399 87.3872 72.7043 87.3872 72.7043C88.3817 73.3886 89.1043 74.4003 89.4291 75.563C89.9062 77.6355 86.8681 79.2919 86.8681 79.2919C87.749 80.2174 88.3314 81.3862 88.5398 82.6468C88.7955 84.6773 85.9673 86.7841 85.9673 86.7841C86.3102 88.0806 86.1747 89.4571 85.5857 90.6619C83.8796 93.8145 64.8419 96.8602 62.4717 97.2915L57.8917 72.4829C57.8917 72.4829 72.8493 64.0251 76.9752 64.3076C80.4446 64.5175 94.3908 66.3152 94.3221 70.6013Z" fill="#FFBE9D"/>
<path d="M87.3337 72.6127C83.7002 71.4677 79.7996 71.2043 76.0363 70.9868C76.0191 70.9868 76.0026 70.9936 75.9904 71.0058C75.9782 71.0179 75.9714 71.0344 75.9714 71.0516C75.9714 71.0688 75.9782 71.0854 75.9904 71.0975C76.0026 71.1097 76.0191 71.1165 76.0363 71.1165C79.7843 71.2883 83.5743 72.4676 87.307 72.7921C87.329 72.7922 87.3504 72.7844 87.3672 72.77C87.3839 72.7557 87.3949 72.7358 87.3982 72.7139C87.4014 72.6921 87.3967 72.6699 87.3848 72.6513C87.373 72.6327 87.3548 72.619 87.3337 72.6127Z" fill="#263238"/>
<path d="M86.7727 78.998C85.9224 78.8193 85.0525 78.7526 84.185 78.7995C83.2639 78.7995 82.344 78.8071 81.4255 78.8224C79.5833 78.8682 77.7437 78.9611 75.9065 79.101C75.8264 79.101 75.8149 79.2308 75.9065 79.2308C77.7386 79.1888 79.5744 79.1735 81.4102 79.2079C82.3301 79.2079 83.2461 79.2499 84.1659 79.2804C85.0295 79.3657 85.8999 79.3555 86.7612 79.2499C86.7878 79.2419 86.8112 79.2259 86.8282 79.2041C86.8452 79.1822 86.8551 79.1556 86.8563 79.128C86.8576 79.1003 86.8502 79.0729 86.8352 79.0496C86.8202 79.0263 86.7984 79.0083 86.7727 78.998Z" fill="#263238"/>
<path d="M85.8872 86.7727C85.1773 86.5437 84.288 86.6849 83.5514 86.7192L81.0324 86.8223C79.3568 86.8795 77.6813 86.9368 76.002 86.9368C75.918 86.9368 75.9103 87.0666 76.002 87.0666C77.708 87.0666 79.4141 87.1085 81.1163 87.1009C81.956 87.1009 82.7919 87.1009 83.6315 87.078C84.3414 87.078 85.2345 87.1353 85.9215 86.8566C85.9311 86.8511 85.9383 86.8423 85.9419 86.8318C85.9454 86.8213 85.9451 86.8099 85.9409 86.7997C85.9367 86.7895 85.929 86.7811 85.9191 86.7761C85.9092 86.7712 85.8979 86.7699 85.8872 86.7727Z" fill="#263238"/>
<path d="M56.2276 72.2081L64.4602 99.5242C64.4602 99.5242 34.4763 100.986 28.0451 96.3105C23.5758 93.0587 23.946 86.9405 25.965 84.8337C30.3733 80.2346 56.2276 72.2081 56.2276 72.2081Z" fill="#FEFEFE"/>
<path d="M56.5597 98.4632C55.2658 94.6465 50.5369 78.9217 49.7431 75.4523C49.6896 75.2119 49.827 75.1203 49.9186 75.3608C54.0712 86.6544 55.6437 94.616 56.7085 98.406C56.7314 98.509 56.594 98.5663 56.5597 98.4632Z" fill="#263238"/>
<path d="M56.2353 71.9257C56.0711 71.8913 53.1819 72.6394 52.2583 72.9104C50.4542 73.4472 48.6629 74.0299 46.8843 74.6584C43.3425 75.9063 39.8673 77.3356 36.4724 78.9408L35.9648 79.185C34.7243 79.4827 33.5145 79.9102 32.3084 80.3071C32.274 80.3071 32.3084 80.372 32.3084 80.3606C33.274 80.04 34.2549 79.7881 35.2358 79.5285C34.6938 79.7919 34.148 80.059 33.6137 80.3377C32.6633 80.83 31.7359 81.3605 30.7931 81.8643C30.7897 81.8658 30.7865 81.868 30.784 81.8708C30.7814 81.8736 30.7795 81.8769 30.7783 81.8805C30.7771 81.8841 30.7767 81.8879 30.7771 81.8917C30.7775 81.8955 30.7787 81.8991 30.7806 81.9024C30.7825 81.9056 30.7851 81.9085 30.7881 81.9107C30.7912 81.9129 30.7948 81.9144 30.7985 81.9151C30.8022 81.9159 30.806 81.9158 30.8097 81.9149C30.8134 81.9141 30.8169 81.9124 30.8199 81.9101C32.4038 81.0896 34.0488 80.3606 35.6747 79.6201C37.3006 78.8797 38.9952 78.1583 40.6746 77.479C43.9837 76.1393 47.3576 74.9408 50.7736 73.8874C51.7354 73.5936 52.6819 73.3111 53.6666 73.0363C54.1399 72.9027 56.1093 72.2348 56.1933 72.2272C56.2391 72.2978 56.2739 72.375 56.2963 72.4562C56.3192 72.5363 56.4108 72.5363 56.3917 72.4562C56.3604 72.2739 56.3079 72.0958 56.2353 71.9257Z" fill="#263238"/>
<path d="M60.2962 99.6464C59.426 99.5853 56.2162 99.7418 55.3574 99.7418C53.6246 99.7418 51.8957 99.7418 50.1629 99.7112C46.6821 99.6196 43.2165 99.3677 39.7509 99.0357C38.7929 98.9441 37.8426 98.841 36.8731 98.738C35.9037 98.6349 34.8617 98.5586 33.877 98.3792C33.8389 98.3792 33.8236 98.4326 33.877 98.4403C34.7396 98.5662 35.5869 98.7685 36.4457 98.9174C37.3044 99.0662 38.167 99.196 39.0334 99.3181C40.7662 99.5624 42.5066 99.7341 44.2508 99.8792C47.7317 100.165 51.2354 100.261 54.7277 100.196C55.7124 100.177 59.3879 100.024 60.342 99.8143C60.4374 99.8105 60.3955 99.654 60.2962 99.6464Z" fill="#263238"/>
<path d="M117.94 105.016L86.452 107.299L98.2227 65.8418L129.71 63.5594L117.94 105.016Z" fill="white"/>
<path d="M120.092 104.86L88.6085 107.142L100.379 65.6854L131.863 63.403L120.092 104.86Z" fill="#37474F"/>
<path d="M103.723 65.4487C103.643 65.8056 103.493 66.1432 103.282 66.4419C103.071 66.7407 102.803 66.9946 102.494 67.1891C102.207 67.3723 102.112 66.9868 102.383 66.8074C102.78 66.5457 103.076 66.1567 103.223 65.7044C103.242 65.6319 103.265 65.5479 103.276 65.4754C103.344 65.2254 103.344 64.962 103.276 64.7121C103.243 64.6045 103.175 64.5115 103.081 64.4487C103.072 64.4441 103.065 64.4376 103.059 64.4296C103.059 64.4296 103.024 64.4296 103.02 64.4296C103 64.4323 102.98 64.4323 102.959 64.4296C102.884 64.4206 102.807 64.4325 102.738 64.464C102.604 64.5218 102.487 64.6108 102.394 64.7235C102.281 64.8579 102.186 65.0067 102.112 65.1662C102.067 65.244 102.026 65.3243 101.99 65.4067V65.4639C101.976 65.4904 101.965 65.5186 101.959 65.5479C101.959 65.5479 101.936 65.5823 101.94 65.6014L101.494 65.6357C101.585 65.3503 101.713 65.0783 101.875 64.8266C101.994 64.6098 102.157 64.421 102.355 64.2728C102.552 64.1247 102.779 64.0207 103.02 63.9678C103.2 63.9482 103.38 63.9995 103.523 64.1106C103.665 64.2218 103.759 64.3842 103.784 64.5632C103.838 64.8588 103.817 65.1633 103.723 65.4487Z" fill="#3B98CC"/>
<path d="M106.188 65.2579C106.024 65.9774 105.582 66.603 104.959 66.9983C104.669 67.1815 104.578 66.796 104.849 66.6166C105.246 66.3558 105.541 65.9663 105.684 65.5136C105.709 65.4387 105.728 65.3622 105.742 65.2846C105.809 65.0346 105.809 64.7712 105.742 64.5213C105.708 64.4133 105.638 64.3203 105.543 64.2579C105.537 64.259 105.53 64.259 105.524 64.2579C105.524 64.2579 105.49 64.2579 105.482 64.2579H105.425C105.349 64.2489 105.273 64.2608 105.203 64.2923C105.07 64.3501 104.952 64.4391 104.86 64.5518C104.744 64.6842 104.649 64.8335 104.578 64.9945C104.532 65.0736 104.492 65.1551 104.455 65.2388V65.2922C104.439 65.318 104.427 65.3464 104.421 65.3762C104.421 65.3953 104.402 65.4144 104.421 65.4296L103.975 65.464C104.064 65.178 104.192 64.9057 104.356 64.6548C104.474 64.4378 104.637 64.2487 104.835 64.1005C105.033 63.9523 105.26 63.8485 105.501 63.7961C105.681 63.7775 105.86 63.8291 106.003 63.9401C106.145 64.0511 106.239 64.2128 106.265 64.3915C106.309 64.6822 106.282 64.9793 106.188 65.2579Z" fill="#3B98CC"/>
<path d="M108.639 65.09C108.474 65.8113 108.031 66.4382 107.406 66.8343C107.119 67.0137 107.024 66.6282 107.295 66.4526C107.693 66.192 107.989 65.8026 108.135 65.3496C108.135 65.2771 108.181 65.1969 108.192 65.1244C108.257 64.874 108.257 64.6114 108.192 64.361C108.161 64.2527 108.092 64.1593 107.997 64.0977H107.974C107.974 64.0977 107.944 64.0977 107.936 64.0977H107.875C107.801 64.0863 107.726 64.0969 107.658 64.1282C107.523 64.186 107.404 64.2749 107.31 64.3878C107.197 64.5221 107.102 64.671 107.028 64.8305C106.982 64.9068 106.948 64.9908 106.906 65.0748V65.1282C106.892 65.1549 106.882 65.1831 106.875 65.2122C106.875 65.2313 106.856 65.2503 106.875 65.2656L106.429 65.3C106.518 65.0139 106.646 64.7416 106.81 64.4908C106.928 64.2743 107.092 64.0859 107.289 63.9383C107.487 63.7908 107.714 63.6876 107.955 63.6359C108.135 63.6152 108.315 63.6656 108.458 63.7761C108.6 63.8867 108.694 64.0487 108.719 64.2275C108.761 64.5173 108.734 64.813 108.639 65.09Z" fill="#3B98CC"/>
<path d="M111.116 64.9106C111.035 65.2679 110.886 65.6058 110.675 65.9051C110.464 66.2043 110.196 66.4591 109.887 66.6549C109.6 66.8381 109.505 66.4488 109.776 66.2732C110.172 66.0105 110.468 65.6219 110.616 65.1702C110.635 65.0938 110.658 65.0137 110.669 64.9412C110.736 64.6911 110.736 64.4279 110.669 64.1778C110.636 64.0707 110.567 63.9779 110.474 63.9145H110.451C110.451 63.9145 110.417 63.9145 110.413 63.9145H110.352C110.277 63.9017 110.199 63.9138 110.131 63.9488C109.997 64.0038 109.879 64.0918 109.787 64.2045C109.674 64.3389 109.579 64.4878 109.505 64.6473C109.46 64.7263 109.419 64.8079 109.383 64.8915V64.945C109.37 64.9719 109.36 65 109.352 65.029C109.352 65.048 109.329 65.0671 109.333 65.0862L108.887 65.1167C108.978 64.8314 109.106 64.5593 109.268 64.3076C109.387 64.0913 109.55 63.9029 109.748 63.7554C109.945 63.6079 110.172 63.5046 110.413 63.4527C110.593 63.432 110.773 63.4823 110.915 63.5929C111.058 63.7035 111.152 63.8655 111.177 64.0442C111.227 64.3337 111.206 64.6312 111.116 64.9106Z" fill="#3B98CC"/>
<path d="M113.6 64.7312C113.436 65.4515 112.994 66.078 112.371 66.4754C112.081 66.6586 111.99 66.2693 112.261 66.0938C112.657 65.832 112.952 65.4429 113.096 64.9907C113.121 64.9158 113.14 64.8393 113.154 64.7617C113.221 64.5118 113.221 64.2483 113.154 63.9984C113.12 63.8894 113.05 63.7952 112.955 63.7312C112.949 63.7324 112.942 63.7324 112.936 63.7312C112.936 63.7312 112.902 63.7312 112.894 63.7312H112.837C112.761 63.7203 112.684 63.7322 112.616 63.7656C112.482 63.822 112.364 63.9097 112.272 64.0213C112.157 64.1557 112.062 64.3061 111.99 64.4678C111.944 64.5452 111.903 64.6255 111.867 64.7083V64.7617C111.852 64.7878 111.84 64.8161 111.833 64.8457C111.833 64.8648 111.814 64.8839 111.833 64.903L111.387 64.9335C111.476 64.6475 111.604 64.3752 111.768 64.1243C111.887 63.9082 112.05 63.7199 112.248 63.5724C112.445 63.4249 112.672 63.3216 112.913 63.2694C113.092 63.2497 113.272 63.3005 113.415 63.4108C113.557 63.5212 113.651 63.6826 113.677 63.861C113.721 64.153 113.695 64.4514 113.6 64.7312Z" fill="#3B98CC"/>
<path d="M116.047 64.5556C115.881 65.2753 115.438 65.9005 114.814 66.296C114.528 66.4792 114.432 66.0899 114.703 65.9144C115.1 65.6528 115.397 65.2638 115.543 64.8113C115.562 64.7388 115.589 64.6549 115.6 64.5823C115.666 64.3322 115.666 64.0692 115.6 63.819C115.568 63.7102 115.499 63.6158 115.406 63.5518H115.383C115.383 63.5518 115.352 63.5518 115.344 63.5518C115.324 63.5545 115.304 63.5545 115.283 63.5518C115.209 63.5417 115.133 63.5536 115.066 63.5862C114.93 63.6426 114.811 63.7318 114.718 63.8457C114.605 63.9801 114.51 64.129 114.436 64.2885C114.39 64.361 114.356 64.4449 114.314 64.5289V64.5862C114.3 64.6115 114.29 64.6384 114.283 64.6663C114.278 64.685 114.278 64.7048 114.283 64.7236L113.837 64.7541C113.927 64.4695 114.055 64.1986 114.219 63.9488C114.337 63.7322 114.5 63.5435 114.698 63.3953C114.895 63.2472 115.122 63.1431 115.364 63.09C115.543 63.0694 115.723 63.1197 115.866 63.2303C116.008 63.3408 116.102 63.5028 116.127 63.6816C116.17 63.9752 116.143 64.2749 116.047 64.5556Z" fill="#3B98CC"/>
<path d="M118.509 64.3762C118.429 64.7332 118.279 65.0707 118.068 65.3695C117.857 65.6682 117.589 65.9222 117.28 66.1166C116.993 66.2999 116.898 65.9144 117.169 65.735C117.566 65.4732 117.862 65.0842 118.009 64.632C118.028 64.5594 118.051 64.4755 118.062 64.4029C118.13 64.153 118.13 63.8896 118.062 63.6396C118.029 63.532 117.961 63.439 117.867 63.3763C117.858 63.3717 117.851 63.3651 117.844 63.3572C117.844 63.3572 117.81 63.3572 117.806 63.3572C117.786 63.3598 117.765 63.3598 117.745 63.3572C117.67 63.3482 117.593 63.3601 117.524 63.3915C117.39 63.4494 117.272 63.5384 117.18 63.6511C117.066 63.7844 116.97 63.9335 116.898 64.0938C116.853 64.1716 116.812 64.2518 116.776 64.3343V64.3915C116.762 64.4185 116.751 64.4466 116.741 64.4755C116.741 64.4755 116.722 64.5098 116.741 64.5289L116.295 64.5633C116.386 64.2779 116.514 64.0058 116.676 63.7541C116.795 63.5374 116.958 63.3485 117.156 63.2004C117.353 63.0522 117.58 62.9482 117.822 62.8954C118.001 62.8758 118.181 62.927 118.324 63.0382C118.467 63.1494 118.56 63.3117 118.585 63.4908C118.634 63.7877 118.608 64.0921 118.509 64.3762Z" fill="#3B98CC"/>
<path d="M120.974 64.1969C120.81 64.9164 120.368 65.542 119.745 65.9373C119.455 66.1205 119.363 65.735 119.634 65.5556C120.031 65.2958 120.326 64.9078 120.47 64.4564C120.495 64.3815 120.514 64.305 120.528 64.2274C120.593 63.9772 120.593 63.7143 120.528 63.4641C120.494 63.3561 120.424 63.2631 120.329 63.2007C120.323 63.2019 120.316 63.2019 120.31 63.2007C120.31 63.2007 120.276 63.2007 120.268 63.2007H120.211C120.135 63.1917 120.059 63.2036 119.989 63.2351C119.856 63.293 119.738 63.382 119.646 63.4946C119.53 63.627 119.435 63.7763 119.363 63.9374C119.318 64.0164 119.277 64.098 119.241 64.1816V64.2351C119.225 64.2608 119.213 64.2892 119.207 64.319C119.207 64.3381 119.188 64.3572 119.207 64.3725L118.76 64.4068C118.85 64.1208 118.978 63.8485 119.142 63.5977C119.26 63.3806 119.423 63.1915 119.621 63.0433C119.818 62.8951 120.046 62.7913 120.287 62.7389C120.467 62.7203 120.646 62.7719 120.789 62.8829C120.931 62.9939 121.025 63.1557 121.05 63.3343C121.094 63.6238 121.068 63.9195 120.974 64.1969Z" fill="#3B98CC"/>
<path d="M123.44 64.0174C123.275 64.7387 122.832 65.3656 122.207 65.7617C121.921 65.9411 121.825 65.5556 122.096 65.38C122.494 65.1194 122.791 64.73 122.936 64.277C122.955 64.2045 122.982 64.1243 122.993 64.0518C123.058 63.8015 123.058 63.5388 122.993 63.2885C122.962 63.1802 122.893 63.0867 122.798 63.0251H122.776C122.776 63.0251 122.745 63.0251 122.737 63.0251H122.676C122.602 63.0137 122.527 63.0244 122.459 63.0556C122.324 63.1134 122.205 63.2023 122.111 63.3152C121.998 63.4495 121.903 63.5984 121.829 63.7579C121.783 63.8342 121.749 63.9182 121.707 64.0022V64.0556C121.694 64.0825 121.684 64.1107 121.676 64.1396C121.676 64.1587 121.676 64.1777 121.676 64.193L121.23 64.2274C121.319 63.9413 121.447 63.669 121.611 63.4182C121.73 63.2017 121.893 63.0133 122.091 62.8657C122.288 62.7182 122.515 62.615 122.756 62.5633C122.936 62.5426 123.116 62.593 123.259 62.7035C123.401 62.8141 123.495 62.9761 123.52 63.1549C123.562 63.4447 123.535 63.7404 123.44 64.0174Z" fill="#3B98CC"/>
<path d="M125.901 63.8381C125.821 64.1953 125.671 64.5333 125.461 64.8325C125.25 65.1318 124.982 65.3866 124.672 65.5824C124.386 65.7656 124.291 65.3763 124.562 65.2007C124.957 64.9372 125.253 64.5488 125.401 64.0977C125.421 64.0213 125.443 63.9412 125.455 63.8687C125.522 63.6186 125.522 63.3553 125.455 63.1053C125.421 62.9982 125.353 62.9054 125.26 62.842H125.237C125.237 62.842 125.203 62.842 125.199 62.842H125.138C125.063 62.8292 124.985 62.8413 124.917 62.8763C124.783 62.9313 124.664 63.0193 124.573 63.132C124.458 63.2654 124.363 63.4145 124.291 63.5748C124.246 63.6538 124.205 63.7354 124.169 63.819V63.8725C124.155 63.8993 124.143 63.9274 124.134 63.9564C124.134 63.9755 124.115 63.9946 124.134 64.0137L123.688 64.0442C123.779 63.7589 123.907 63.4868 124.069 63.2351C124.188 63.0187 124.351 62.8304 124.549 62.6829C124.746 62.5354 124.973 62.4321 125.214 62.3801C125.394 62.3595 125.574 62.4098 125.717 62.5204C125.859 62.631 125.953 62.793 125.978 62.9717C126.024 63.2624 125.997 63.5599 125.901 63.8381Z" fill="#3B98CC"/>
<path d="M128.367 63.6587C128.202 64.3789 127.761 65.0055 127.138 65.4029C126.848 65.5861 126.756 65.1968 127.027 65.0213C127.423 64.7595 127.718 64.3704 127.863 63.9182C127.888 63.8433 127.907 63.7668 127.92 63.6892C127.986 63.439 127.986 63.1761 127.92 62.9259C127.886 62.8169 127.816 62.7227 127.722 62.6587C127.716 62.6599 127.709 62.6599 127.703 62.6587C127.703 62.6587 127.669 62.6587 127.661 62.6587H127.604C127.528 62.6478 127.451 62.6597 127.382 62.6931C127.249 62.7495 127.131 62.8372 127.039 62.9488C126.924 63.084 126.827 63.2342 126.753 63.3953C126.708 63.4728 126.668 63.5531 126.634 63.6358V63.6892C126.619 63.7153 126.607 63.7436 126.6 63.7732C126.6 63.7923 126.581 63.8114 126.6 63.8304L126.153 63.861C126.243 63.575 126.371 63.3027 126.535 63.0518C126.653 62.8357 126.817 62.6474 127.015 62.4999C127.212 62.3524 127.439 62.2491 127.68 62.1969C127.859 62.1772 128.039 62.228 128.181 62.3383C128.324 62.4487 128.418 62.6101 128.443 62.7885C128.488 63.0805 128.462 63.3789 128.367 63.6587Z" fill="#3B98CC"/>
<path d="M130.833 63.4832C130.666 64.2028 130.224 64.8281 129.6 65.2236C129.314 65.4068 129.218 65.0175 129.489 64.8419C129.886 64.5804 130.182 64.1913 130.329 63.7389C130.348 63.6664 130.371 63.5824 130.386 63.5099C130.452 63.2597 130.452 62.9967 130.386 62.7466C130.354 62.6377 130.285 62.5434 130.191 62.4794H130.169C130.169 62.4794 130.138 62.4794 130.13 62.4794C130.11 62.482 130.09 62.482 130.069 62.4794C129.995 62.4692 129.919 62.4812 129.852 62.5137C129.716 62.5701 129.597 62.6593 129.504 62.7733C129.391 62.9076 129.296 63.0565 129.222 63.216C129.176 63.2885 129.142 63.3725 129.1 63.4565V63.5137C129.086 63.5391 129.076 63.566 129.069 63.5939C129.064 63.6126 129.064 63.6324 129.069 63.6511L128.623 63.6817C128.713 63.3962 128.842 63.124 129.004 62.8725C129.124 62.6569 129.287 62.4692 129.485 62.3218C129.682 62.1744 129.909 62.0707 130.149 62.0176C130.329 61.9969 130.509 62.0473 130.652 62.1578C130.794 62.2684 130.888 62.4304 130.913 62.6092C130.956 62.9027 130.929 63.2025 130.833 63.4832Z" fill="#3B98CC"/>
<path d="M130.314 72.7234C131.981 76.1317 136.126 80.3568 136.497 83.1392C136.612 83.8248 136.503 84.5293 136.186 85.1481C135.869 85.7669 135.361 86.267 134.737 86.5742C134.737 86.5742 137.55 87.9368 137.466 90.5283C137.42 91.8642 135.252 92.9634 135.252 92.9634C135.252 92.9634 137.455 94.1542 137.241 96.4557C137.065 98.2877 134.92 99.1273 134.92 99.1273C134.92 99.1273 136.5 101.246 135.737 103.043C134.168 106.715 118.363 106.898 115.856 101.104C114.684 98.406 118.547 98.5701 118.547 98.5701C118.547 98.5701 113.051 96.9938 112.928 93.7344C112.806 90.4749 117.814 90.994 117.814 90.994C117.814 90.994 112.501 89.4177 112.715 86.0323C112.94 82.5056 117.86 83.8796 117.86 83.8796C117.86 83.8796 114.318 81.5362 115.077 78.979C116.329 74.7577 123.043 79.9713 126.527 79.1088L128.378 73.357L130.314 72.7234Z" fill="#FFBE9D"/>
<path d="M133.539 77.666C132.245 74.2996 136.382 70.0784 135.603 66.6853C134.554 62.1053 129.42 66.6624 128.352 73.3645L128.428 78.7079L133.539 77.666Z" fill="#FFBE9D"/>
<path d="M134.592 99.299C134.642 99.299 134.661 99.3677 134.592 99.3792C129.409 100.707 123.306 100.578 118.302 98.6158C118.138 98.5509 118.173 98.2571 118.367 98.2952C123.94 99.3257 128.947 99.8181 134.592 99.299Z" fill="#263238"/>
<path d="M135.329 92.9977C135.39 92.9977 135.401 93.0931 135.329 93.1084C129.985 94.448 123.115 94.1122 117.612 91.1504C117.421 91.0512 117.356 90.7687 117.581 90.8718C121.394 92.5588 130.245 93.5015 135.329 92.9977Z" fill="#263238"/>
<path d="M117.512 83.5436C122.898 86.1771 128.581 86.8222 134.523 86.6428C134.6 86.6428 134.596 86.7496 134.523 86.7687C131.642 87.6466 127.848 87.368 124.913 86.8985C122.181 86.5163 119.597 85.4254 117.417 83.7345C117.333 83.6658 117.417 83.4902 117.512 83.5436Z" fill="#263238"/>
<path d="M0 130.176L19.24 130.084L38.4799 130.05L76.9599 129.985L115.44 130.05L134.68 130.084L153.92 130.176L134.68 130.272L115.44 130.302L76.9599 130.367L38.4799 130.302L19.24 130.268L0 130.176Z" fill="#263238"/>
<path d="M23.6063 113.974H6.6525V139.409H23.6063V113.974Z" fill="#3B98CC"/>
<path d="M25.6558 107.142H4.60675V113.97H25.6558V107.142Z" fill="#455A64"/>
<path d="M20.7743 121.291H9.48828V132.577H20.7743V121.291Z" fill="white"/>
<path opacity="0.1" d="M6.6525 113.974V115.955L16.1981 119.562V139.405H20.7743V113.974H6.6525Z" fill="black"/>
<path d="M1.38925 138.825C1.38925 138.545 1.44446 138.268 1.55173 138.009C1.659 137.75 1.81621 137.515 2.01438 137.317C2.21255 137.12 2.44778 136.963 2.70661 136.856C2.96544 136.749 3.24279 136.695 3.52279 136.695H7.76695C8.04713 136.695 8.32467 136.749 8.58371 136.856C8.84276 136.963 9.07824 137.12 9.27671 137.317C9.47518 137.515 9.63276 137.75 9.74044 138.009C9.84812 138.267 9.9038 138.545 9.9043 138.825C9.90329 139.391 9.67766 139.934 9.27694 140.334C8.87622 140.734 8.33315 140.958 7.76695 140.958H3.53805C3.25673 140.96 2.97788 140.906 2.71749 140.799C2.4571 140.693 2.2203 140.536 2.02066 140.338C1.82103 140.139 1.66249 139.904 1.55413 139.644C1.44578 139.385 1.38975 139.106 1.38925 138.825Z" fill="#455A64"/>
<path d="M1.38926 138.825C1.38925 138.545 1.44447 138.268 1.55173 138.009C1.659 137.75 1.81622 137.515 2.01438 137.317C2.21255 137.12 2.44778 136.963 2.70661 136.856C2.96544 136.749 3.24279 136.695 3.52279 136.695H5.64106V140.966H3.53806C3.25609 140.967 2.97661 140.913 2.71573 140.806C2.45484 140.699 2.21769 140.542 2.01796 140.343C1.81822 140.144 1.65984 139.907 1.55194 139.647C1.44404 139.386 1.38875 139.107 1.38926 138.825Z" fill="#3B98CC"/>
<path d="M30.3962 138.825C30.3957 139.105 30.34 139.382 30.2323 139.641C30.1246 139.9 29.967 140.135 29.7686 140.332C29.5701 140.53 29.3346 140.687 29.0756 140.794C28.8165 140.9 28.539 140.955 28.2588 140.955H24.049C23.7688 140.955 23.4913 140.9 23.2322 140.794C22.9732 140.687 22.7377 140.53 22.5392 140.332C22.3408 140.135 22.1832 139.9 22.0755 139.641C21.9678 139.382 21.9122 139.105 21.9117 138.825C21.9117 138.258 22.1368 137.714 22.5377 137.314C22.9385 136.913 23.4821 136.688 24.049 136.688H28.2741C28.8383 136.692 29.378 136.919 29.7756 137.319C30.1731 137.719 30.3962 138.261 30.3962 138.825Z" fill="#455A64"/>
<path d="M30.3962 138.825C30.3957 139.105 30.34 139.382 30.2323 139.641C30.1246 139.9 29.967 140.135 29.7686 140.332C29.5701 140.53 29.3346 140.687 29.0756 140.794C28.8165 140.9 28.539 140.955 28.2588 140.955H26.1596V136.688H28.2741C28.8383 136.692 29.378 136.919 29.7755 137.319C30.1731 137.719 30.3962 138.261 30.3962 138.825Z" fill="#3B98CC"/>
<path d="M35.209 139.684C35.0112 139.882 34.7762 140.039 34.5175 140.147C34.2588 140.254 33.9815 140.309 33.7014 140.309C33.4214 140.309 33.144 140.254 32.8853 140.147C32.6266 140.039 32.3917 139.882 32.1938 139.684L29.2015 136.695C28.8021 136.295 28.5777 135.753 28.5777 135.188C28.5777 134.622 28.8021 134.08 29.2015 133.68C29.6029 133.28 30.1464 133.055 30.713 133.055C31.2795 133.055 31.823 133.28 32.2244 133.68L35.2128 136.668C35.6109 137.069 35.8339 137.612 35.8332 138.177C35.8325 138.742 35.6081 139.284 35.209 139.684Z" fill="#455A64"/>
<path d="M35.209 139.684C35.0112 139.882 34.7762 140.039 34.5175 140.146C34.2588 140.254 33.9815 140.309 33.7014 140.309C33.4214 140.309 33.144 140.254 32.8853 140.146C32.6267 140.039 32.3917 139.882 32.1938 139.684L30.6977 138.187L33.7167 135.168L35.2128 136.665C35.6121 137.066 35.8358 137.609 35.8351 138.175C35.8344 138.741 35.6093 139.283 35.209 139.684Z" fill="#3B98CC"/>
<path d="M15.8698 143.096C15.8703 142.816 15.926 142.538 16.0337 142.28C16.1414 142.021 16.299 141.786 16.4974 141.588C16.6959 141.39 16.9314 141.234 17.1904 141.127C17.4495 141.02 17.727 140.965 18.0072 140.966H22.2323C22.5124 140.965 22.79 141.02 23.049 141.127C23.3081 141.234 23.5435 141.39 23.742 141.588C23.9405 141.786 24.0981 142.021 24.2057 142.28C24.3134 142.538 24.3691 142.816 24.3696 143.096C24.3686 143.662 24.143 144.205 23.7422 144.605C23.3415 145.005 22.7985 145.229 22.2323 145.229H18.0072C17.441 145.229 16.8979 145.005 16.4972 144.605C16.0965 144.205 15.8708 143.662 15.8698 143.096Z" fill="#455A64"/>
<path d="M15.8698 143.096C15.8703 142.816 15.926 142.538 16.0337 142.28C16.1414 142.021 16.299 141.786 16.4974 141.588C16.6959 141.39 16.9314 141.234 17.1904 141.127C17.4495 141.02 17.727 140.965 18.0072 140.966H20.1216V145.237H18.0072C17.7262 145.237 17.4479 145.181 17.1884 145.074C16.9288 144.966 16.693 144.808 16.4945 144.61C16.296 144.411 16.1386 144.175 16.0314 143.915C15.9242 143.655 15.8693 143.377 15.8698 143.096Z" fill="#3B98CC"/>
<path d="M103.356 138.42L103.249 139.916C103.249 139.939 103.249 139.966 103.249 139.993C103.169 140.466 102.631 140.859 101.826 141.103C100.968 141.342 100.077 141.435 99.1883 141.378L98.8066 141.351C98.6768 141.351 98.5432 141.329 98.4249 141.309C96.3868 141.046 94.883 140.206 94.9441 139.332L95.0472 137.84C94.9861 138.714 96.4899 139.554 98.528 139.817L98.9097 139.855C99.0394 139.855 99.173 139.878 99.2913 139.882C100.18 139.941 101.072 139.848 101.929 139.607C102.734 139.367 103.268 138.977 103.352 138.5C103.352 138.47 103.352 138.451 103.356 138.42Z" fill="#FEFEFE"/>
<path d="M96.4632 136.653C97.3181 136.414 98.2071 136.321 99.0929 136.378L98.5089 139.813C98.6349 139.813 98.7685 139.844 98.8906 139.851C99.0127 139.859 99.1501 139.874 99.2723 139.882L99.8562 136.447C101.955 136.714 103.486 137.592 103.329 138.496C103.253 138.974 102.715 139.363 101.91 139.611C101.052 139.85 100.161 139.943 99.2723 139.886C99.1425 139.886 99.0089 139.886 98.8906 139.855C98.7723 139.825 98.6272 139.832 98.5089 139.817C96.4097 139.55 94.8793 138.672 95.0357 137.768C95.1159 137.29 95.6617 136.897 96.4632 136.653Z" fill="white"/>
<path d="M99.0967 136.378L99.4783 136.405L99.86 136.447L99.2761 139.882C99.1463 139.882 99.0127 139.882 98.8944 139.851C98.7761 139.821 98.631 139.829 98.5127 139.813L99.0967 136.378Z" fill="#FEFEFE"/>
<path d="M103.12 141.176V142.672C103.118 142.697 103.118 142.723 103.12 142.748C103.162 143.225 103.669 143.664 104.448 143.97C105.283 144.276 106.165 144.44 107.055 144.454H107.436C107.566 144.454 107.7 144.454 107.818 144.454C109.871 144.355 111.44 143.638 111.448 142.76V141.264C111.448 142.138 109.871 142.855 107.818 142.958H107.436C107.309 142.966 107.182 142.966 107.055 142.958C106.165 142.945 105.284 142.783 104.448 142.477C103.662 142.172 103.162 141.737 103.12 141.256C103.117 141.229 103.117 141.203 103.12 141.176Z" fill="#FEFEFE"/>
<path d="M110.135 139.962C109.3 139.655 108.42 139.492 107.532 139.477L107.841 142.951C107.711 142.951 107.577 142.951 107.459 142.951H107.077L106.768 139.477C104.654 139.577 103.058 140.332 103.142 141.241C103.184 141.725 103.688 142.157 104.471 142.466C105.306 142.773 106.187 142.936 107.077 142.951H107.459C107.589 142.951 107.722 142.951 107.841 142.951C109.951 142.851 111.551 142.096 111.467 141.187C111.425 140.703 110.929 140.271 110.135 139.962Z" fill="white"/>
<path d="M107.532 139.477H107.15C107.02 139.477 106.893 139.477 106.768 139.477L107.077 142.951H107.459C107.589 142.951 107.722 142.951 107.841 142.951L107.532 139.477Z" fill="#FEFEFE"/>
<path d="M91.9709 140.695C91.0589 141.211 90.037 141.501 88.9901 141.542C88.0947 141.604 87.1969 141.467 86.3604 141.141C86.2688 141.103 86.1734 141.054 86.0818 141.008C85.9902 140.962 85.9062 140.909 85.826 140.855C85.5981 140.726 85.4027 140.547 85.2552 140.33C85.1076 140.114 85.0117 139.866 84.9749 139.607L84.8375 138.245C84.8769 138.507 84.9768 138.757 85.1291 138.974C85.2814 139.191 85.4821 139.37 85.7154 139.496C85.7917 139.545 85.8757 139.594 85.9673 139.645C86.0562 139.695 86.1479 139.74 86.2421 139.779C87.0785 140.104 87.9764 140.241 88.8718 140.18C89.9178 140.139 90.9393 139.852 91.8526 139.34C92.7801 138.783 93.2152 138.077 93.1465 137.432L93.2839 138.794C93.3335 139.435 92.8984 140.142 91.9709 140.695Z" fill="#FEFEFE"/>
<path d="M86.2268 139.779L86.3031 140.573L91.845 137.248L91.7114 135.886L85.6886 139.497C85.7612 139.546 85.8489 139.596 85.9405 139.645C86.0321 139.695 86.1199 139.737 86.2268 139.779Z" fill="#3B98CC"/>
<path d="M91.719 135.886C91.8145 135.928 91.9099 135.97 92.0015 136.019C92.0931 136.069 92.1732 136.115 92.2534 136.168L86.2268 139.779C86.1276 139.737 86.0398 139.695 85.9482 139.645C85.8566 139.596 85.7688 139.546 85.6963 139.497L91.719 135.886Z" fill="#FEFEFE"/>
<path d="M92.2533 136.168L92.3907 137.527L86.3603 141.138L86.2268 139.779L92.2533 136.168Z" fill="#FEFEFE"/>
<path d="M89.0893 135.485C89.9847 135.425 90.8823 135.562 91.7191 135.886L85.6963 139.496C85.7688 139.546 85.8566 139.596 85.9482 139.645C86.0398 139.695 86.1276 139.737 86.2268 139.779L92.2534 136.168C93.5663 137.016 93.3984 138.393 91.8336 139.336C90.9217 139.848 89.9016 140.138 88.8565 140.18C87.9612 140.24 87.0636 140.103 86.2268 139.779C86.1276 139.737 86.0398 139.695 85.9482 139.645C85.8566 139.596 85.7688 139.546 85.6963 139.496C84.3834 138.645 84.5513 137.271 86.1161 136.329C87.0268 135.817 88.0456 135.528 89.0893 135.485Z" fill="white"/>
<path d="M114.001 139.596C114.912 140.111 115.932 140.401 116.978 140.443C117.875 140.505 118.774 140.368 119.611 140.042C119.703 140.004 119.799 139.954 119.89 139.909C119.982 139.863 120.066 139.809 120.142 139.756C120.374 139.629 120.574 139.451 120.725 139.234C120.877 139.018 120.976 138.769 121.016 138.508L121.153 137.145C121.113 137.408 121.013 137.657 120.861 137.874C120.709 138.091 120.508 138.27 120.276 138.397C120.199 138.446 120.115 138.495 120.024 138.546C119.935 138.596 119.843 138.641 119.749 138.68C118.911 139.005 118.012 139.142 117.115 139.08C116.07 139.041 115.05 138.753 114.138 138.241C113.211 137.683 112.776 136.977 112.841 136.332L112.703 137.695C112.638 138.34 113.073 139.042 114.001 139.596Z" fill="#FEFEFE"/>
<path d="M119.745 138.68L119.665 139.474L114.115 136.149L114.253 134.79L120.276 138.397C120.194 138.452 120.11 138.501 120.024 138.546C119.932 138.596 119.84 138.638 119.745 138.68Z" fill="#3B98CC"/>
<path d="M114.253 134.79C114.157 134.829 114.062 134.874 113.97 134.92C113.879 134.966 113.799 135.016 113.715 135.069L119.745 138.68C119.84 138.638 119.932 138.596 120.024 138.546C120.11 138.501 120.194 138.452 120.276 138.397L114.253 134.79Z" fill="#FEFEFE"/>
<path d="M113.718 135.069L113.581 136.428L119.611 140.038L119.745 138.68L113.718 135.069Z" fill="#FEFEFE"/>
<path d="M116.879 134.39C115.984 134.326 115.087 134.463 114.253 134.791L120.276 138.397C120.194 138.452 120.11 138.501 120.024 138.546C119.932 138.596 119.84 138.638 119.745 138.68L113.715 135.069C112.406 135.92 112.57 137.294 114.138 138.237C115.05 138.749 116.07 139.038 117.115 139.081C118.011 139.145 118.909 139.008 119.745 138.68C119.84 138.638 119.932 138.596 120.024 138.546C120.11 138.501 120.194 138.452 120.276 138.397C121.588 137.546 121.421 136.172 119.856 135.229C118.944 134.717 117.924 134.429 116.879 134.39Z" fill="white"/>
<path d="M88.6161 134.493L88.597 136.077C88.592 136.18 88.5484 136.278 88.4749 136.352C88.2001 136.664 87.4978 136.913 86.5856 137.054C85.6646 137.188 84.7326 137.23 83.8032 137.18L83.4216 137.153L83.0399 137.115C81.3376 136.928 80.227 136.462 80.2308 135.97L80.2537 134.394C80.2537 134.882 81.3644 135.348 83.0628 135.539C83.1811 135.558 83.3147 135.569 83.4445 135.577L83.8261 135.607C84.7554 135.661 85.6878 135.619 86.6085 135.481C87.5169 135.336 88.223 135.1 88.5168 134.775C88.5852 134.697 88.6207 134.596 88.6161 134.493Z" fill="#FEFEFE"/>
<path d="M83.4483 135.573L83.4254 137.153L83.0437 137.115L83.0628 135.535L83.4483 135.573Z" fill="#FEFEFE"/>
<path d="M85.0551 133.283L85.4368 133.31C85.5665 133.31 85.6938 133.321 85.8184 133.344L83.8338 135.596L83.4521 135.573L83.0704 135.535L85.0551 133.283Z" fill="#FEFEFE"/>
<path d="M85.8146 133.344L85.7917 134.924L83.807 137.18L83.8299 135.596L85.8146 133.344Z" fill="#FEFEFE"/>
<path d="M82.2803 133.405C83.1986 133.269 84.1284 133.228 85.0551 133.283L83.0666 135.535L83.4482 135.573L83.8299 135.596L85.8146 133.344C87.826 133.565 89.0168 134.184 88.4863 134.771C88.2115 135.084 87.5092 135.329 86.5779 135.474C85.6597 135.61 84.7298 135.651 83.8032 135.596L83.4215 135.573L83.0399 135.535C81.0246 135.313 79.8376 134.699 80.3682 134.107C80.6621 133.794 81.3643 133.55 82.2803 133.405Z" fill="white"/>
<path d="M98.9326 134.615L98.9555 136.195C98.9562 136.247 98.9674 136.298 98.9884 136.345C99.0094 136.392 99.0397 136.435 99.0776 136.47C99.3524 136.783 100.055 137.031 100.967 137.176C101.887 137.31 102.817 137.352 103.745 137.302L104.127 137.271C104.249 137.271 104.379 137.252 104.509 137.233C106.211 137.046 107.322 136.58 107.314 136.088V134.508C107.314 135 106.203 135.466 104.505 135.653L104.123 135.691L103.742 135.718C102.814 135.776 101.882 135.733 100.963 135.592C100.051 135.451 99.3486 135.21 99.0738 134.89C99.0324 134.856 98.9985 134.815 98.9742 134.767C98.9498 134.72 98.9357 134.668 98.9326 134.615Z" fill="#FEFEFE"/>
<path d="M104.108 135.691L104.127 137.271C104.253 137.271 104.383 137.248 104.509 137.237L104.486 135.657L104.108 135.691Z" fill="#FEFEFE"/>
<path d="M102.497 133.401L102.116 133.428L101.734 133.462L103.719 135.718L104.1 135.691L104.482 135.657L102.497 133.401Z" fill="#FEFEFE"/>
<path d="M101.738 133.462L101.757 135.046L103.745 137.298L103.723 135.718L101.738 133.462Z" fill="#FEFEFE"/>
<path d="M105.268 133.523C104.351 133.389 103.423 133.348 102.497 133.401L104.482 135.657L104.1 135.691L103.719 135.718L101.734 133.462C99.7189 133.687 98.5319 134.302 99.0624 134.89C99.3372 135.203 100.039 135.451 100.952 135.592C101.871 135.73 102.802 135.772 103.73 135.718L104.112 135.691L104.494 135.657C106.513 135.436 107.7 134.817 107.165 134.229C106.89 133.916 106.184 133.668 105.268 133.523Z" fill="white"/>
<path d="M89.3107 142.409L89.3298 143.993C89.3305 144.044 89.3417 144.095 89.3627 144.142C89.3837 144.19 89.4141 144.232 89.452 144.267C89.7268 144.58 90.429 144.825 91.3412 144.97C92.261 145.103 93.1917 145.146 94.1198 145.096L94.5014 145.069L94.8831 145.031C96.5854 144.844 97.696 144.374 97.6922 143.886L97.6693 142.309C97.6693 142.798 96.5586 143.264 94.8602 143.454L94.4785 143.493L94.0969 143.519C93.1676 143.577 92.2348 143.535 91.3145 143.393C90.4023 143.252 89.7 143.012 89.4252 142.691C89.3514 142.616 89.3102 142.514 89.3107 142.409Z" fill="#FEFEFE"/>
<path d="M94.4824 143.5L94.5053 145.084L94.8869 145.046L94.864 143.466L94.4824 143.5Z" fill="#FEFEFE"/>
<path d="M92.8717 141.21L92.49 141.237L92.1084 141.275L94.093 143.527L94.4747 143.5L94.8564 143.466L92.8717 141.21Z" fill="#FEFEFE"/>
<path d="M92.1122 141.26L92.1312 142.84L94.1197 145.092L94.0968 143.512L92.1122 141.26Z" fill="#FEFEFE"/>
<path d="M95.6617 141.321C94.7436 141.183 93.8138 141.141 92.887 141.195L94.8717 143.451L94.49 143.485L94.1083 143.512L92.1237 141.26C90.1123 141.481 88.9214 142.096 89.452 142.687C89.7268 142.996 90.429 143.244 91.3412 143.389C92.2609 143.524 93.1918 143.565 94.1198 143.512L94.5014 143.485L94.8831 143.451C96.9022 143.229 98.0891 142.611 97.5548 142.023C97.2647 141.71 96.5587 141.466 95.6617 141.321Z" fill="white"/>
<path d="M129.348 107.929H142.573C143.431 107.929 144.254 108.27 144.861 108.877C145.468 109.484 145.809 110.307 145.809 111.165V140.271C145.809 140.592 145.682 140.9 145.455 141.127C145.228 141.354 144.92 141.481 144.599 141.481H127.34C127.019 141.481 126.712 141.354 126.485 141.127C126.258 140.9 126.13 140.592 126.13 140.271V111.161C126.131 110.307 126.47 109.488 127.073 108.882C127.676 108.276 128.493 107.934 129.348 107.929Z" fill="#3B98CC"/>
<path d="M141.664 103.669H130.26V108.894H141.664V103.669Z" fill="#3B98CC"/>
<path d="M145.809 118.856H126.115V132.134H145.809V118.856Z" fill="#FEFEFE"/>
<path d="M145.809 129.42H126.115V130.623H145.809V129.42Z" fill="#455A64"/>
<path d="M145.809 120.371H126.115V121.573H145.809V120.371Z" fill="#455A64"/>
<path d="M142.458 100.013H129.466V104.852H142.458V100.013Z" fill="#455A64"/>
<path d="M143.138 104.849H128.783V106.28H143.138V104.849Z" fill="#37474F"/>
<path d="M130.504 100.688H130.336C130.218 100.688 130.123 100.784 130.123 100.902V103.963C130.123 104.081 130.218 104.177 130.336 104.177H130.504C130.622 104.177 130.718 104.081 130.718 103.963V100.902C130.718 100.784 130.622 100.688 130.504 100.688Z" fill="#37474F"/>
<path d="M131.611 100.688H131.443C131.325 100.688 131.23 100.784 131.23 100.902V103.963C131.23 104.081 131.325 104.177 131.443 104.177H131.611C131.729 104.177 131.825 104.081 131.825 103.963V100.902C131.825 100.784 131.729 100.688 131.611 100.688Z" fill="#37474F"/>
<path d="M132.55 100.688H132.722C132.777 100.688 132.831 100.711 132.87 100.75C132.91 100.789 132.932 100.843 132.932 100.898V103.952C132.932 104.008 132.909 104.063 132.869 104.103C132.829 104.143 132.775 104.165 132.718 104.165H132.546C132.49 104.165 132.435 104.143 132.395 104.103C132.355 104.063 132.333 104.008 132.333 103.952V100.898C132.333 100.87 132.339 100.843 132.35 100.817C132.361 100.791 132.378 100.768 132.398 100.748C132.418 100.729 132.442 100.713 132.468 100.703C132.494 100.693 132.522 100.688 132.55 100.688Z" fill="#37474F"/>
<path d="M133.829 100.688H133.661C133.543 100.688 133.447 100.784 133.447 100.902V103.963C133.447 104.081 133.543 104.177 133.661 104.177H133.829C133.947 104.177 134.042 104.081 134.042 103.963V100.902C134.042 100.784 133.947 100.688 133.829 100.688Z" fill="#37474F"/>
<path d="M134.939 100.688H134.771C134.653 100.688 134.558 100.784 134.558 100.902V103.963C134.558 104.081 134.653 104.177 134.771 104.177H134.939C135.057 104.177 135.153 104.081 135.153 103.963V100.902C135.153 100.784 135.057 100.688 134.939 100.688Z" fill="#37474F"/>
<path d="M135.874 100.688H136.046C136.103 100.688 136.157 100.711 136.197 100.751C136.237 100.791 136.26 100.845 136.26 100.902V103.955C136.26 104.012 136.237 104.067 136.197 104.107C136.157 104.147 136.103 104.169 136.046 104.169H135.874C135.819 104.169 135.765 104.147 135.726 104.108C135.687 104.068 135.665 104.015 135.665 103.959V100.906C135.664 100.878 135.669 100.85 135.679 100.824C135.69 100.798 135.705 100.774 135.724 100.754C135.744 100.733 135.767 100.717 135.793 100.706C135.819 100.695 135.846 100.689 135.874 100.688Z" fill="#37474F"/>
<path d="M137.153 100.688H136.985C136.867 100.688 136.771 100.784 136.771 100.902V103.963C136.771 104.081 136.867 104.177 136.985 104.177H137.153C137.271 104.177 137.367 104.081 137.367 103.963V100.902C137.367 100.784 137.271 100.688 137.153 100.688Z" fill="#37474F"/>
<path d="M138.264 100.688H138.096C137.978 100.688 137.882 100.784 137.882 100.902V103.963C137.882 104.081 137.978 104.177 138.096 104.177H138.264C138.382 104.177 138.477 104.081 138.477 103.963V100.902C138.477 100.784 138.382 100.688 138.264 100.688Z" fill="#37474F"/>
<path d="M139.203 100.688H139.374C139.431 100.688 139.485 100.711 139.525 100.751C139.566 100.791 139.588 100.845 139.588 100.902V103.955C139.588 104.012 139.566 104.067 139.525 104.107C139.485 104.147 139.431 104.169 139.374 104.169H139.203C139.147 104.169 139.094 104.147 139.054 104.108C139.015 104.068 138.993 104.015 138.993 103.959V100.906C138.992 100.878 138.997 100.85 139.007 100.824C139.018 100.798 139.033 100.774 139.053 100.754C139.072 100.733 139.095 100.717 139.121 100.706C139.147 100.695 139.174 100.689 139.203 100.688Z" fill="#37474F"/>
<path d="M140.477 100.688H140.309C140.191 100.688 140.096 100.784 140.096 100.902V103.963C140.096 104.081 140.191 104.177 140.309 104.177H140.477C140.595 104.177 140.691 104.081 140.691 103.963V100.902C140.691 100.784 140.595 100.688 140.477 100.688Z" fill="#37474F"/>
<path d="M141.588 100.688H141.42C141.302 100.688 141.206 100.784 141.206 100.902V103.963C141.206 104.081 141.302 104.177 141.42 104.177H141.588C141.706 104.177 141.802 104.081 141.802 103.963V100.902C141.802 100.784 141.706 100.688 141.588 100.688Z" fill="#37474F"/>
<path d="M47.3349 149.47L47.445 138.406L45.9832 138.392L45.8732 149.456L47.3349 149.47Z" fill="#3B98CC"/>
<path opacity="0.1" d="M47.3349 149.47L47.445 138.406L45.9832 138.392L45.8732 149.456L47.3349 149.47Z" fill="black"/>
<path d="M37.4247 147.416L37.4921 140.642L36.0304 140.628L35.963 147.402L37.4247 147.416Z" fill="#3B98CC"/>
<path opacity="0.1" d="M37.4247 147.416L37.4921 140.642L36.0304 140.628L35.963 147.402L37.4247 147.416Z" fill="black"/>
<path d="M45.9137 145.905L45.9494 142.31L37.4768 142.225L37.441 145.821L45.9137 145.905Z" fill="#3B98CC"/>
<path opacity="0.2" d="M44.5409 145.889L45.0409 142.298L45.9454 142.309L45.9073 145.901L44.5409 145.889Z" fill="black"/>
<path d="M78.4561 144.264C79.9255 144.229 81.395 144.222 82.8682 144.214H87.2765L91.6848 144.286L93.887 144.344C94.6236 144.37 95.3564 144.39 96.0931 144.428C95.3564 144.447 94.6236 144.451 93.887 144.466H91.681H87.2727L82.8644 144.393C81.395 144.351 79.9255 144.313 78.4561 144.264Z" fill="#263238"/>
<path d="M77.406 148.202L77.4848 140.282L47.4298 139.983L47.351 147.903L77.406 148.202Z" fill="#3B98CC"/>
<path opacity="0.6" d="M77.406 148.202L77.4848 140.282L47.4298 139.983L47.351 147.903L77.406 148.202Z" fill="white"/>
<path d="M77.417 147.16L77.475 141.325L48.8436 141.04L48.7855 146.875L77.417 147.16Z" fill="#3B98CC"/>
<path d="M74.3627 142.027L74.3773 140.554L74.2018 140.552L74.1871 142.025L74.3627 142.027Z" fill="#263238"/>
<path d="M73.777 142.031L73.7916 140.558L73.6161 140.556L73.6014 142.029L73.777 142.031Z" fill="#263238"/>
<path d="M73.1836 142.023L73.1983 140.55L73.0227 140.549L73.0081 142.022L73.1836 142.023Z" fill="#263238"/>
<path d="M72.5941 142.02L72.6088 140.547L72.4332 140.545L72.4186 142.018L72.5941 142.02Z" fill="#263238"/>
<path d="M71.9917 143.087L72.0171 140.534L71.8415 140.532L71.8161 143.085L71.9917 143.087Z" fill="#263238"/>
<path d="M71.4415 142.009L71.4561 140.535L71.2806 140.534L71.2659 142.007L71.4415 142.009Z" fill="#263238"/>
<path d="M70.8482 142.001L70.8628 140.528L70.6873 140.526L70.6726 141.999L70.8482 142.001Z" fill="#263238"/>
<path d="M70.2586 141.99L70.2733 140.516L70.0977 140.515L70.0831 141.988L70.2586 141.99Z" fill="#263238"/>
<path d="M69.6563 141.982L69.671 140.508L69.4955 140.507L69.4807 141.98L69.6563 141.982Z" fill="#263238"/>
<path d="M69.0628 143.061L69.0882 140.507L68.9127 140.506L68.8873 143.059L69.0628 143.061Z" fill="#263238"/>
<path d="M68.5165 141.978L68.5311 140.505L68.3556 140.504L68.3409 141.977L68.5165 141.978Z" fill="#263238"/>
<path d="M67.9193 141.963L67.934 140.49L67.7584 140.488L67.7438 141.961L67.9193 141.963Z" fill="#263238"/>
<path d="M67.3298 141.96L67.3444 140.486L67.1689 140.485L67.1542 141.958L67.3298 141.96Z" fill="#263238"/>
<path d="M66.7403 141.963L66.7549 140.49L66.5794 140.489L66.5647 141.962L66.7403 141.963Z" fill="#263238"/>
<path d="M66.1378 143.034L66.1632 140.481L65.9877 140.479L65.9623 143.033L66.1378 143.034Z" fill="#263238"/>
<path d="M65.5877 141.948L65.6023 140.475L65.4268 140.473L65.4121 141.947L65.5877 141.948Z" fill="#263238"/>
<path d="M64.9943 141.937L65.0089 140.464L64.8334 140.462L64.8187 141.935L64.9943 141.937Z" fill="#263238"/>
<path d="M64.4048 141.937L64.4194 140.464L64.2439 140.462L64.2292 141.935L64.4048 141.937Z" fill="#263238"/>
<path d="M63.8115 141.922L63.8261 140.449L63.6506 140.447L63.6359 141.92L63.8115 141.922Z" fill="#263238"/>
<path d="M63.2128 143.001L63.2382 140.447L63.0627 140.446L63.0373 142.999L63.2128 143.001Z" fill="#263238"/>
<path d="M62.6588 141.918L62.6735 140.445L62.4979 140.443L62.4832 141.916L62.6588 141.918Z" fill="#263238"/>
<path d="M62.0655 141.907L62.0801 140.434L61.9046 140.432L61.8899 141.905L62.0655 141.907Z" fill="#263238"/>
<path d="M61.4798 141.907L61.4944 140.434L61.3189 140.432L61.3042 141.905L61.4798 141.907Z" fill="#263238"/>
<path d="M60.8865 141.892L60.9011 140.419L60.7256 140.417L60.7109 141.89L60.8865 141.892Z" fill="#263238"/>
<path d="M60.284 142.974L60.3094 140.421L60.1338 140.419L60.1084 142.972L60.284 142.974Z" fill="#263238"/>
<path d="M59.7338 141.888L59.7484 140.415L59.5729 140.413L59.5582 141.886L59.7338 141.888Z" fill="#263238"/>
<path d="M59.1443 141.884L59.159 140.411L58.9834 140.41L58.9687 141.883L59.1443 141.884Z" fill="#263238"/>
<path d="M58.5548 141.877L58.5694 140.404L58.3939 140.402L58.3792 141.875L58.5548 141.877Z" fill="#263238"/>
<path d="M57.9576 141.866L57.9723 140.392L57.7967 140.391L57.7821 141.864L57.9576 141.866Z" fill="#263238"/>
<path d="M57.359 142.948L57.3844 140.395L57.2088 140.393L57.1834 142.946L57.359 142.948Z" fill="#263238"/>
<path d="M56.805 141.854L56.8196 140.381L56.6441 140.379L56.6294 141.852L56.805 141.854Z" fill="#263238"/>
<path d="M56.2155 141.851L56.2301 140.377L56.0546 140.376L56.0399 141.849L56.2155 141.851Z" fill="#263238"/>
<path d="M55.6221 141.843L55.6368 140.37L55.4612 140.368L55.4466 141.841L55.6221 141.843Z" fill="#263238"/>
<path d="M55.0326 141.839L55.0473 140.366L54.8717 140.364L54.8571 141.837L55.0326 141.839Z" fill="#263238"/>
<path d="M54.434 142.914L54.4594 140.361L54.2839 140.359L54.2585 142.912L54.434 142.914Z" fill="#263238"/>
<path d="M53.88 141.828L53.8946 140.355L53.7191 140.353L53.7044 141.826L53.88 141.828Z" fill="#263238"/>
<path d="M53.2866 141.82L53.3013 140.347L53.1257 140.346L53.1111 141.819L53.2866 141.82Z" fill="#263238"/>
<path d="M52.6933 141.809L52.7079 140.336L52.5324 140.334L52.5177 141.807L52.6933 141.809Z" fill="#263238"/>
<path d="M52.1076 141.817L52.1222 140.344L51.9467 140.342L51.932 141.815L52.1076 141.817Z" fill="#263238"/>
<path d="M51.5013 142.884L51.5267 140.331L51.3512 140.329L51.3257 142.882L51.5013 142.884Z" fill="#263238"/>
<path d="M50.9511 141.798L50.9658 140.325L50.7902 140.323L50.7756 141.796L50.9511 141.798Z" fill="#263238"/>
<path d="M50.3616 141.798L50.3763 140.325L50.2007 140.323L50.186 141.796L50.3616 141.798Z" fill="#263238"/>
<path d="M49.7721 141.787L49.7867 140.313L49.6112 140.312L49.5965 141.785L49.7721 141.787Z" fill="#263238"/>
<path d="M49.1788 141.787L49.1934 140.313L49.0179 140.312L49.0032 141.785L49.1788 141.787Z" fill="#263238"/>
<path d="M48.5763 142.858L48.6017 140.304L48.4262 140.303L48.4008 142.856L48.5763 142.858Z" fill="#263238"/>
<path d="M77.4059 148.199L77.4847 140.279L75.2177 140.257L75.1389 148.176L77.4059 148.199Z" fill="#263238"/>
<path d="M80.0165 146.945L80.0698 141.594L77.4745 141.568L77.4213 146.919L80.0165 146.945Z" fill="#3B98CC"/>
<path d="M83.143 144.981L83.1544 143.603L80.0476 143.325L80.0286 145.199L83.143 144.981Z" fill="#3B98CC"/>
<path opacity="0.1" d="M80.0286 145.199L80.0476 143.328L80.9293 143.405L80.7766 145.145L80.0286 145.199Z" fill="black"/>
</svg>
