<svg width="122" height="150" viewBox="0 0 122 150" fill="none" xmlns="http://www.w3.org/2000/svg">
<path d="M61.6569 130.204C59.1457 131.281 35.4747 141.479 27.0809 144.716C18.687 147.954 -1.35112 102.868 7.09371 99.2735C15.5385 95.6789 39.3944 84.3724 41.1917 83.6075C42.989 82.8427 64.1744 129.127 61.6569 130.204Z" fill="#475564"/>
<path d="M26.1567 150C22.39 150 18.4257 147.138 14.3467 141.459C10.5149 135.887 7.32293 129.901 4.83109 123.614C0.27407 112.371 -3.37792 98.2091 5.11152 94.6018C10.8476 92.1607 24.1554 85.9466 32.1031 82.2309C36.4689 80.1914 38.5913 79.1971 39.2031 78.9358C43.6646 77.0238 46.3733 81.5425 47.4886 83.4737C48.4956 85.1754 49.7767 87.5782 51.3127 90.612C54.1935 96.3481 57.6224 103.818 60.4841 110.516C62.632 115.551 64.3401 119.879 65.4172 123.027C65.9498 124.513 66.3884 126.031 66.7301 127.572C67.7371 132.581 64.92 134.378 63.6581 134.914L62.3324 135.481C45.2324 142.817 33.9897 147.533 28.91 149.503C28.0308 149.837 27.0973 150.006 26.1567 150ZM10.1784 103.505C9.97447 105.774 10.9496 112.39 15.5258 122.69C20.1019 132.989 24.4422 138.254 26.214 139.566C31.3128 137.552 41.3446 133.352 56.0482 127.049C53.3713 118.764 43.8876 97.8458 39.5218 89.9874L36.4116 91.4469C28.381 95.2072 16.469 100.778 10.1784 103.505Z" fill="#475564"/>
<path d="M61.6569 130.204C59.1457 131.281 35.4747 141.479 27.0809 144.716C18.687 147.954 -1.35112 102.868 7.09371 99.2735C15.5385 95.6789 39.3944 84.3724 41.1917 83.6075C42.989 82.8427 64.1744 129.127 61.6569 130.204Z" fill="#9BCDD6"/>
<path d="M111.37 101.581C109.458 102.014 108.712 100.006 110.56 99.3946C116.073 97.5845 117.335 84.2895 109.011 85.6216C107.055 85.9339 106.061 83.8051 108.795 82.9383C114.996 80.9753 114.187 64.9843 105.959 67.4827C102.071 68.6618 101.707 66.5458 103.498 65.5707C107.73 63.3145 107.609 60.5611 106.143 56.8199C103.142 49.1718 92.0326 51.7211 74.8689 53.971C67.004 55.0035 65.3724 58.3878 68.9161 61.8103C68.3972 61.9682 67.8513 62.0169 67.3127 61.9532C66.7741 61.8896 66.2545 61.7151 65.7867 61.4407C62.2048 58.6045 67.6987 54.0283 58.7759 32.1674C53.3648 18.8787 38.9417 22.1483 40.7326 39.892C42.9251 61.6128 35.3279 67.1768 29.356 82.3456C22.2305 100.44 31.5549 118.955 43.3776 125.583C55.2004 132.212 66.3221 133.231 81.4909 128.254C97.125 123.155 104.614 118.98 110.299 116.348C119.687 111.989 116.717 100.357 111.37 101.581Z" fill="#475564"/>
<path d="M64.1107 136.475C56.0355 136.475 48.5722 134.347 40.8667 130.032C26.7622 122.129 16.5264 100.937 24.5825 80.4781C26.2587 76.2334 28.0688 72.6643 29.6812 69.5158C33.9961 61.02 37.1127 54.8568 35.6468 40.4082C34.302 27.1196 40.5798 20.7206 46.3606 19.2866C52.1413 17.8526 59.5982 20.7015 63.4924 30.2489C67.138 39.1718 68.5275 45.5452 69.0692 50.1022C70.7459 49.5299 72.4785 49.1368 74.2381 48.9295C76.2138 48.6746 78.1068 48.4133 79.9168 48.1647C87.2909 47.1513 93.1226 46.3547 97.9601 46.6861C104.576 47.145 108.935 49.9302 110.911 54.9716C112.113 58.0351 112.441 60.7438 111.892 63.0977C114.321 64.3405 116.239 66.6987 117.246 69.9556C118.513 74.1208 118.165 78.6102 116.271 82.5304C118.016 83.9771 119.229 85.9641 119.719 88.1773C120.524 91.8326 119.988 95.6556 118.209 98.9484C119.388 100.142 120.276 101.593 120.803 103.187C122.842 109.159 120.624 117.208 112.447 120.975C111.453 121.434 110.401 121.944 109.26 122.498C100.812 126.686 92.0594 130.231 83.0781 133.104C76.2011 135.341 69.9934 136.475 64.1107 136.475ZM49.235 29.1272C49.0911 29.1267 48.9477 29.1439 48.808 29.1782C47.2783 29.5606 45.105 32.6645 45.7806 39.3757C47.5397 56.8199 43.2758 65.2265 38.7698 74.1238C37.2019 77.2149 35.5831 80.408 34.0853 84.2066C29.9808 94.6208 31.7909 113.244 45.8634 121.128C56.7302 127.215 66.2585 127.852 79.9041 123.403C88.446 120.67 96.7699 117.298 104.805 113.314C106.003 112.734 107.106 112.199 108.151 111.714C109.802 110.95 110.854 109.802 111.185 108.413C111.314 107.857 111.314 107.28 111.185 106.724C109.732 106.837 108.284 106.446 107.086 105.615C105.888 104.785 105.012 103.567 104.608 102.167C103.722 98.9803 105.538 95.7426 108.84 94.5953C109.56 93.9962 110.076 91.7655 109.815 90.6565C106.239 91.2302 102.957 89.1779 102.167 85.8828C101.529 83.1486 102.804 79.5922 107.03 78.1455C107.551 77.2509 107.816 76.2298 107.794 75.1945C107.839 74.2421 107.666 73.2921 107.291 72.4157C100.407 74.4234 98.2086 70.0512 97.8326 69.1461C96.5962 66.157 97.9792 62.7727 101.128 61.0901C101.43 60.937 101.717 60.7534 101.982 60.542C101.865 59.9109 101.676 59.2952 101.421 58.7064C101.172 58.0691 100.784 57.113 97.259 56.8709C93.4349 56.6095 87.8263 57.3807 81.3254 58.2794C79.4898 58.5343 77.5714 58.7956 75.5892 59.0506C74.8727 59.1383 74.1619 59.2681 73.4605 59.4394C73.808 60.098 74.007 60.8247 74.0435 61.5685C74.08 62.3122 73.9532 63.0549 73.6719 63.7444C73.3907 64.4339 72.9618 65.0534 72.4155 65.5594C71.8691 66.0654 71.2186 66.4456 70.5096 66.6732C69.1952 67.0898 67.8022 67.1961 66.4398 66.9838C65.0774 66.7715 63.7828 66.2463 62.6575 65.4495C59.356 62.8364 59.3114 59.4521 59.2796 56.4693C59.235 52.7536 59.1585 46.5331 54.0979 34.1049C52.6639 30.7333 50.6754 29.1272 49.235 29.1272Z" fill="#475564"/>
<path d="M111.37 101.581C109.458 102.014 108.712 100.006 110.56 99.3946C116.073 97.5845 117.335 84.2895 109.011 85.6216C107.055 85.9339 106.061 83.8051 108.795 82.9383C114.996 80.9753 114.187 64.9843 105.959 67.4827C102.071 68.6618 101.707 66.5458 103.498 65.5707C107.73 63.3145 107.609 60.5611 106.143 56.8199C103.142 49.1718 92.0326 51.7211 74.8689 53.971C67.004 55.0035 65.3724 58.3878 68.9161 61.8103C68.3972 61.9682 67.8513 62.0169 67.3127 61.9532C66.7741 61.8896 66.2545 61.7151 65.7867 61.4407C62.2048 58.6045 67.6987 54.0283 58.7759 32.1674C53.3648 18.8787 38.9417 22.1483 40.7326 39.892C42.9251 61.6128 35.3279 67.1768 29.356 82.3456C22.2305 100.44 31.5549 118.955 43.3776 125.583C55.2004 132.212 66.3221 133.231 81.4909 128.254C97.125 123.155 104.614 118.98 110.299 116.348C119.687 111.989 116.717 100.357 111.37 101.581Z" fill="white"/>
<path d="M105.423 55.2712C101.217 49.8729 92.5043 51.6893 75.3469 53.9583C66.7619 55.0927 65.3725 58.4197 68.8906 61.8167C85.946 58.0946 100.331 48.6874 105.423 55.2712Z" fill="#D5DDE8"/>
<path d="M44.8882 0.771745C43.9194 -0.719644 39.3815 0.0770385 39.4516 2.0783C39.4516 2.95147 42.1986 13.8692 42.7339 14.8252C43.4478 16.0999 47.769 14.9909 48.1705 13.5187C48.4446 12.5117 45.4172 1.58117 44.8882 0.771745Z" fill="#475564"/>
<path d="M22.7149 36.6607C20.3695 37.9353 22.1222 42.7728 24.0534 42.2183C24.4995 42.0908 31.6441 40.7524 32.0712 40.4656C33.0654 39.8283 31.9628 34.7295 30.7327 34.908C30.191 34.9908 23.1483 36.4312 22.7149 36.6607Z" fill="#475564"/>
<path d="M76.3731 31.0966C77.7243 29.9367 76.8702 24.5638 75.1876 24.8443C74.0978 25.0227 68.8907 26.342 68.1768 27.075C66.9021 28.3497 67.6797 33.3337 69.63 32.8493C71.0194 32.4924 75.5509 31.8041 76.3731 31.0966Z" fill="#475564"/>
<path d="M69.2157 9.87943C69.7575 7.80168 65.6848 5.61559 63.964 7.04962C62.8487 7.98014 57.718 15.1057 57.444 16.0681C56.9787 17.7124 60.6689 19.9877 62.0584 18.8979C62.9506 18.2032 68.9162 11.1223 69.2157 9.87943Z" fill="#475564"/>
<path d="M23.5371 12.9451C21.1152 12.0974 18.6742 15.6984 20.6181 17.7124C21.1152 18.2414 31.9501 24.6913 32.3707 24.9463C33.4797 25.5836 36.0928 21.3771 35.2898 20.1789C34.9775 19.7455 24.0151 13.1171 23.5371 12.9451Z" fill="#475564"/>
<path d="M66.3669 61.6C64.5122 60.0449 67.2528 57.7377 66.8449 53.0468L66.3669 61.6Z" fill="white"/>
<path d="M66.3668 64.1494C65.7703 64.1488 65.1929 63.939 64.7352 63.5567C62.4598 61.6446 63.2055 59.1653 63.7027 57.5146C64.2036 56.1583 64.4205 54.7135 64.34 53.2699C64.2808 52.5938 64.4927 51.9218 64.929 51.4019C65.3652 50.8819 65.9902 50.5566 66.6663 50.4974C67.0011 50.4681 67.3384 50.5051 67.6589 50.6061C67.9794 50.7072 68.2769 50.8704 68.5343 51.0864C69.0543 51.5227 69.3796 52.1476 69.4388 52.8238C69.5909 54.9071 69.3176 56.9997 68.6357 58.9741C68.5465 59.2801 68.4254 59.6688 68.3616 59.9429C68.6768 60.3138 68.8792 60.7672 68.9449 61.2495C69.0106 61.7317 68.9369 62.2227 68.7325 62.6644C68.528 63.1061 68.2014 63.4801 67.7912 63.7421C67.3811 64.0041 66.9045 64.1432 66.4177 64.143L66.3668 64.1494Z" fill="#475564"/>
</svg>
