<svg width="32" height="20" viewBox="0 0 32 20" fill="none" xmlns="http://www.w3.org/2000/svg">
<path fill-rule="evenodd" clip-rule="evenodd" d="M29.5862 2.02293e-07C27.9869 3.53289e-07 11.055 -3.20637e-07 1.59925 2.02293e-07C0.799627 2.46515e-07 0 0.8 0 1.6C0 6.40977 1.93185e-07 16 0 17.6C-9.25248e-08 19.2 0.799627 20 2.39888 20C11.3194 20 27.9869 20 29.5862 20C31.1855 20 31.9851 19.2 31.9851 17.6C31.9851 16 31.9851 7.71439 31.9851 2.4C31.9851 0.8 31.1855 2.02293e-07 29.5862 2.02293e-07Z" fill="#F4F4F4"/>
<path opacity="0.9375" fill-rule="evenodd" clip-rule="evenodd" d="M5.1279 11.4316C5.10636 11.4174 5.25444 10.8469 5.60753 9.58384C5.88847 8.57886 6.15269 7.63877 6.19468 7.49475L6.27103 7.23291L7.37491 7.25306C8.66537 7.27663 8.86402 7.29368 9.0716 7.39871C9.43963 7.58491 9.54094 7.8714 9.41412 8.36728C9.3061 8.78961 9.09974 9.07704 8.70074 9.36092C8.62506 9.41476 8.55896 9.48058 8.55383 9.50718C8.54814 9.53671 8.5953 9.60177 8.6749 9.67421C8.74661 9.73947 8.82283 9.82681 8.84429 9.8683C8.90201 9.97993 8.89199 10.2036 8.81189 10.5913C8.77261 10.7813 8.73311 11.053 8.7241 11.1949L8.70771 11.4529H8.1734C7.79502 11.4529 7.62932 11.4432 7.60562 11.4195C7.55348 11.3673 7.56527 11.2343 7.65583 10.8532C7.75661 10.429 7.76271 10.2625 7.68126 10.1589C7.57367 10.0222 7.4761 9.99258 7.08982 9.97966C6.77817 9.96924 6.7262 9.97393 6.67893 10.0167C6.60543 10.0832 6.54577 10.255 6.37147 10.902L6.22303 11.4529L5.69105 11.4525C5.39845 11.4523 5.14504 11.4429 5.1279 11.4316V11.4316ZM7.9364 9.06469C8.19009 8.98935 8.29696 8.8239 8.2973 8.50593C8.29742 8.41027 8.28122 8.34294 8.24864 8.3036C8.17164 8.21059 7.9397 8.17902 7.50465 8.20232L7.12646 8.22258L7.07139 8.40804C6.98635 8.69442 6.92672 8.97132 6.93603 9.03655C6.94212 9.07923 6.97159 9.10097 7.0421 9.1148C7.19656 9.1451 7.77471 9.11271 7.9364 9.06469Z" fill="#265797"/>
<path opacity="0.9375" fill-rule="evenodd" clip-rule="evenodd" d="M9.72567 11.5134C9.5567 11.453 9.42387 11.3402 9.36805 11.2097C9.26195 10.9618 9.35951 10.4106 9.74683 9.06976C9.83959 8.74866 9.91548 8.4828 9.91548 8.47895C9.91548 8.4751 9.9352 8.45223 9.95931 8.42812C9.9951 8.39233 10.0768 8.38428 10.4038 8.38428C10.6242 8.38428 10.8357 8.39614 10.8739 8.41064L10.9432 8.437L10.874 8.68264C10.7044 9.28496 10.5285 10.0156 10.498 10.2441C10.4704 10.4516 10.4715 10.5067 10.5044 10.5754C10.5793 10.7317 10.8513 10.7648 11.0827 10.6457C11.3543 10.5061 11.4052 10.3865 11.8417 8.86416C11.9057 8.64095 11.9545 8.52495 12.009 8.46663L12.0859 8.38428H12.522C12.8592 8.38428 12.9612 8.39269 12.9722 8.4214C12.9831 8.44984 12.429 10.5129 12.1955 11.3134L12.1588 11.439L11.6927 11.4529C11.4363 11.4606 11.2266 11.459 11.2266 11.4495C11.2266 11.4399 11.2456 11.3782 11.2689 11.3123C11.3631 11.0451 11.2456 11.0284 10.9023 11.26C10.5631 11.4889 10.4208 11.5432 10.1271 11.5556C9.92858 11.564 9.84156 11.5548 9.72567 11.5134V11.5134Z" fill="#265797"/>
<path opacity="0.9375" fill-rule="evenodd" clip-rule="evenodd" d="M12.825 11.4307C12.8002 11.4149 12.9437 10.8613 13.369 9.33187L13.9468 7.25446L14.9231 7.26263C16.141 7.27282 16.39 7.29443 16.6255 7.41035C16.8191 7.50566 16.9113 7.5909 16.9975 7.75431C17.1422 8.02884 17.1398 8.34726 16.9896 8.78419C16.7588 9.45579 16.3279 9.89737 15.7599 10.0444C15.6678 10.0683 15.3791 10.1005 15.1183 10.1161C14.2566 10.1676 14.3084 10.1579 14.2622 10.2761C14.2402 10.3327 14.1541 10.6206 14.0709 10.9159L13.9198 11.4529L13.3892 11.4525C13.0974 11.4523 12.8435 11.4424 12.825 11.4307V11.4307ZM15.3372 9.19474C15.6212 9.15815 15.7703 9.07056 15.8651 8.88481C15.9669 8.6852 15.9938 8.46791 15.9289 8.36888C15.8405 8.23392 15.7194 8.20444 15.2632 8.20676C15.036 8.20792 14.839 8.22009 14.8253 8.2338C14.7941 8.26519 14.6022 9.02367 14.6022 9.11575C14.6022 9.15328 14.6106 9.19236 14.6208 9.20259C14.6472 9.22902 15.1105 9.22395 15.3372 9.19474Z" fill="#265797"/>
<path opacity="0.9375" fill-rule="evenodd" clip-rule="evenodd" d="M16.9315 11.5249C16.603 11.3873 16.5179 11.1599 16.625 10.7058C16.7746 10.0711 17.1043 9.85881 18.236 9.66849C18.9193 9.55357 19.0899 9.46958 19.1391 9.22386C19.1754 9.04208 19.0196 8.94269 18.6978 8.94237C18.497 8.94216 18.4216 8.97146 18.2474 9.11747L18.1069 9.23514L17.7451 9.24441C17.3257 9.25516 17.1966 9.23847 17.1966 9.17355C17.1966 9.0979 17.361 8.86678 17.5148 8.72636C17.6799 8.57555 17.8985 8.45999 18.1351 8.39836C18.6321 8.26891 19.4875 8.28396 19.7815 8.42732C19.9389 8.50406 20.0787 8.6315 20.1454 8.75884C20.2084 8.87936 20.1859 9.00443 19.8887 10.1824C19.7429 10.7606 19.6236 11.283 19.6236 11.3433V11.4529H19.2788C19.0891 11.4529 18.876 11.4609 18.8051 11.4706L18.6763 11.4883L18.6196 11.3561C18.5531 11.2007 18.5452 11.2008 18.1945 11.3586C17.8135 11.5299 17.6739 11.5681 17.3779 11.582C17.1261 11.5938 17.0827 11.5882 16.9315 11.5249V11.5249V11.5249ZM18.4309 10.8731C18.6233 10.788 18.8406 10.4397 18.8419 10.2145L18.8425 10.1058L18.6652 10.1224C18.4691 10.1407 18.0544 10.2744 17.9024 10.3684C17.774 10.4477 17.6988 10.5755 17.6992 10.7137C17.6996 10.8462 17.7191 10.8824 17.8111 10.9216C17.9161 10.9663 18.2855 10.9374 18.4309 10.8731Z" fill="#265797"/>
<path opacity="0.9375" fill-rule="evenodd" clip-rule="evenodd" d="M19.9673 12.7744C19.8556 12.7492 19.8513 12.7075 19.929 12.4014C20.0331 11.9912 20.0263 11.9998 20.2833 11.9598C20.5607 11.9167 20.6845 11.8557 20.7464 11.7319C20.8149 11.5947 20.81 11.0562 20.727 9.61174C20.6809 8.80793 20.6694 8.44336 20.6895 8.41915C20.7106 8.39364 20.8518 8.38428 21.2154 8.38428H21.7124L21.7211 9.31747C21.727 9.95411 21.7396 10.2605 21.7608 10.2816C21.8116 10.3323 21.9982 10.0167 22.7632 8.58653L22.8713 8.38428H23.3102C23.5515 8.38428 23.7549 8.39389 23.7622 8.40563C23.7762 8.42824 23.1112 9.61358 22.444 10.7555C21.4956 12.3785 21.3172 12.6022 20.8723 12.7262C20.7271 12.7666 20.0847 12.8009 19.9673 12.7744Z" fill="#265797"/>
<path fill-rule="evenodd" clip-rule="evenodd" d="M24.0789 12.4022L25.383 7.62488L26.6244 10.0938L24.0789 12.4022Z" fill="#479951"/>
<path fill-rule="evenodd" clip-rule="evenodd" d="M23.2719 12.4196L24.576 7.64221L25.8174 10.1111L23.2719 12.4196Z" fill="#D97B16"/>
</svg>
