<svg width="30" height="24" viewBox="0 0 30 24" fill="none" xmlns="http://www.w3.org/2000/svg">
<path d="M28.0488 4.04878C27.6585 4.34146 27.2683 4.58537 26.8293 4.82927C26.878 5.21951 26.878 5.65854 26.878 6.09756C26.878 11.7561 24.439 16.878 20.5854 20.439C17.561 22.6829 13.8049 24 9.70732 24C6.14634 24 2.82927 22.9756 0 21.2195C0.585366 21.3171 1.17073 21.3659 1.80488 21.3659C4.63415 21.3659 7.21951 20.3902 9.26829 18.7805C6.63415 18.7317 4.39024 16.9756 3.60976 14.5366C3.95122 14.5854 4.34146 14.6341 4.73171 14.6341C5.26829 14.6341 5.7561 14.5854 6.2439 14.439C5.12195 14.1951 4.14634 13.6098 3.36585 12.8293C2.2439 11.7561 1.56098 10.1951 1.56098 8.53659C1.56098 8.4878 1.56098 8.4878 1.56098 8.43902C2.29268 8.82927 3.07317 9.07317 3.95122 9.17073C3.07317 8.4878 2.34146 7.56097 1.95122 6.4878C1.70732 5.80488 1.56098 5.07317 1.56098 4.34146C1.56098 4.04878 1.56098 3.70732 1.60976 3.41463C1.7561 2.58537 2.04878 1.80488 2.43902 1.17073C2.87805 1.65854 3.36585 2.14634 3.90244 2.63415C4.14634 2.87805 4.43902 3.07317 4.68293 3.31707C6.19512 4.53659 7.90244 5.51219 9.70732 6.2439C9.95122 6.34146 10.1463 6.43902 10.3902 6.4878C11.2195 6.78049 12.0488 7.02439 12.9268 7.17073C13.122 7.21951 13.3171 7.26829 13.5122 7.26829C13.6098 7.26829 13.6585 7.31707 13.7561 7.31707C14.1463 7.36585 14.4878 7.41463 14.878 7.46341C14.7805 7.02439 14.6829 6.53658 14.6829 6C14.6829 3.95122 15.7073 2.14634 17.2683 1.07317C17.3659 0.97561 17.4634 0.926829 17.6098 0.878049C17.6098 0.878049 17.6585 0.878049 17.6585 0.926829V0.878049C18.5854 0.341463 19.6098 0 20.7805 0C22.5366 0 24.0976 0.731707 25.2195 1.95122C25.6098 1.85366 26.0488 1.7561 26.439 1.65854C26.878 1.51219 27.2683 1.41463 27.6585 1.21951C28.1463 1.02439 28.5854 0.780488 29.0244 0.536586C28.7805 1.26829 28.3902 1.95122 27.9024 2.53659C27.561 2.92683 27.1707 3.26829 26.7805 3.60976C26.6829 3.65854 26.5854 3.7561 26.4878 3.80488C26.439 3.80488 26.439 3.80488 26.3902 3.80488C26.3902 3.80488 26.3902 3.80488 26.3902 3.85366L26.439 3.80488C26.5366 3.80488 26.6341 3.7561 26.7805 3.7561C27.2195 3.70732 27.6098 3.60976 28.0488 3.51219C28.4878 3.41463 28.9268 3.26829 29.3171 3.12195C28.878 3.41463 28.439 3.70732 28.0488 4.04878Z" fill="#1DA1F3"/>
</svg>
