<svg width="8" height="6" viewBox="0 0 8 6" fill="none" xmlns="http://www.w3.org/2000/svg">
<path d="M7.27554 0.838538C7.14795 0.733062 6.98384 0.682281 6.81898 0.697257C6.65411 0.712234 6.50184 0.791754 6.39535 0.918495L3.75001 4.09245L1.10464 0.918547C0.998448 0.791309 0.846058 0.711468 0.680997 0.696587C0.515936 0.681706 0.351724 0.733006 0.224486 0.839199C0.0972477 0.945393 0.0174062 1.09778 0.00252569 1.26284C-0.0123549 1.42791 0.0389444 1.59212 0.145138 1.71936L3.27026 5.46945C3.32888 5.53976 3.40224 5.59632 3.48515 5.63513C3.56805 5.67394 3.65847 5.69406 3.75001 5.69406C3.84155 5.69406 3.93197 5.67394 4.01487 5.63513C4.09778 5.59632 4.17114 5.53976 4.22976 5.46945L7.35488 1.7193C7.46104 1.59194 7.51231 1.42764 7.49743 1.26251C7.48256 1.09737 7.40275 0.944883 7.27554 0.838538Z" fill="#475564"/>
</svg>
