<svg width="8" height="6" viewBox="0 0 8 6" fill="none" xmlns="http://www.w3.org/2000/svg">
<path d="M0.724369 5.54958C0.851961 5.65506 1.01607 5.70584 1.18093 5.69087C1.3458 5.67589 1.49806 5.59637 1.60456 5.46963L4.2499 2.29568L6.89527 5.46958C7.00146 5.59681 7.15385 5.67666 7.31891 5.69154C7.48397 5.70642 7.64818 5.65512 7.77542 5.54892C7.90266 5.44273 7.9825 5.29034 7.99738 5.12528C8.01226 4.96022 7.96096 4.79601 7.85477 4.66877L4.72965 0.91867C4.67103 0.848366 4.59767 0.791807 4.51476 0.752993C4.43186 0.71418 4.34144 0.694061 4.2499 0.694061C4.15836 0.694061 4.06794 0.71418 3.98504 0.752993C3.90213 0.791807 3.82877 0.848366 3.77015 0.91867L0.645027 4.66882C0.53887 4.79619 0.487601 4.96048 0.502477 5.12562C0.517353 5.29076 0.597158 5.44324 0.724369 5.54958Z" fill="#475564"/>
</svg>
