<svg width="5" height="9" viewBox="0 0 5 9" fill="none" xmlns="http://www.w3.org/2000/svg">
<path d="M4.85543 7.9696C4.96091 7.84201 5.01169 7.6779 4.99671 7.51304C4.98174 7.34817 4.90222 7.19591 4.77547 7.08941L1.60152 4.44407L4.77542 1.7987C4.90266 1.69251 4.9825 1.54012 4.99738 1.37506C5.01226 1.21 4.96096 1.04579 4.85477 0.918547C4.74858 0.791309 4.59619 0.711468 4.43113 0.696587C4.26606 0.681706 4.10185 0.733006 3.97461 0.839199L0.224517 3.96432C0.154213 4.02294 0.0976539 4.0963 0.0588403 4.17921C0.0200267 4.26211 -9.15527e-05 4.35253 -9.15527e-05 4.44407C-9.15527e-05 4.53561 0.0200267 4.62603 0.0588403 4.70893C0.0976539 4.79184 0.154213 4.8652 0.224517 4.92382L3.97467 8.04894C4.10203 8.1551 4.26633 8.20637 4.43146 8.19149C4.5966 8.17662 4.74909 8.09681 4.85543 7.9696Z" fill="#475564"/>
</svg>
