<svg width="24" height="24" viewBox="0 0 24 24" fill="none" xmlns="http://www.w3.org/2000/svg">
<g clip-path="url(#clip0_616_258)">
<path fill-rule="evenodd" clip-rule="evenodd" d="M11.0047 9.44865C9.4505 9.43903 9.0532 9.89983 9.05716 11.681C9.06592 12.5604 8.96668 13.4719 10.2193 13.4129C12.1629 13.3185 12.5344 13.1064 12.5142 11.8793C12.4769 9.91318 12.1871 9.4534 11.0047 9.44865ZM10.6535 12.0019C10.1943 11.9919 10.2896 11.5814 10.2694 11.2705C10.2443 10.8644 10.4963 10.8107 10.7813 10.8064C11.2076 10.815 11.2366 11.1402 11.2568 11.487C11.2818 11.9832 10.9547 12.0106 10.6535 12.0019Z" fill="#475564"/>
<path fill-rule="evenodd" clip-rule="evenodd" d="M14.3002 10.305C14.4038 11.5771 14.4859 12.8536 14.5605 14.1299C14.6013 14.8613 14.2211 15.1855 13.5968 15.2215C12.7662 15.2761 11.935 15.3211 11.4714 15.3484C10.2733 15.3484 9.42942 15.4337 8.61062 15.3254C7.41646 15.1722 7.04414 14.6213 7.11438 13.3186C7.17234 12.3305 7.247 11.3429 7.1596 10.351C7.12228 9.93619 7.14334 9.46204 7.65616 9.40839C8.16016 9.35382 8.26334 9.8136 8.3257 10.224C8.47408 11.1709 8.4372 12.1231 8.3257 13.0657C8.24316 13.7741 8.52416 14.0897 9.12736 14.0805C10.3396 14.0623 11.5509 14.0039 12.7578 13.968C13.2087 13.9536 13.3198 13.6931 13.2829 13.2366C13.2087 12.2897 13.1674 11.3385 13.1174 10.3911C13.0932 9.93091 13.0471 9.39397 13.6302 9.34944C14.197 9.30877 14.2624 9.85431 14.3002 10.305Z" fill="#475564"/>
<path fill-rule="evenodd" clip-rule="evenodd" d="M16.3755 9.43919C16.3755 9.65618 16.3255 9.85974 16.1358 9.9584C15.7674 10.1476 15.4614 9.95365 15.2015 9.71079C14.1136 8.68629 13.0138 7.6757 11.964 6.61147C10.5744 5.20909 11.017 5.35374 9.70252 6.60287C8.44996 7.79402 7.22194 9.02009 5.98952 10.2329C5.74982 10.468 5.50174 10.6841 5.19574 10.4278C4.86556 10.1562 4.87742 9.76874 5.0763 9.4306C5.2581 9.1241 5.47674 8.81323 5.74148 8.60057C7.2509 7.40991 8.56146 5.97113 9.88384 4.56445C10.5621 3.84215 11.0912 3.76557 11.7906 4.55489C13.0511 5.98021 14.3704 7.34284 15.8087 8.56034C16.0774 8.78543 16.3544 9.02009 16.3755 9.43919Z" fill="#475564"/>
<path fill-rule="evenodd" clip-rule="evenodd" d="M22.0194 13.7918C21.9944 13.4216 21.965 13.0475 21.8992 12.6826C21.3902 9.79163 21.1344 6.87764 21.1422 3.92823C21.1506 1.53302 20.0344 0.171287 17.8757 0.0625834C13.5226 -0.15819 9.1656 0.292495 4.8072 0.0846021C4.3607 0.0625836 3.9102 0.243168 3.4598 0.297251C1.07008 0.58173 0.341708 2.30884 0.255194 4.48237C0.193271 6.01165 0.243338 7.54097 0.243338 9.07457C-0.0797964 10.9775 -0.0666182 12.8851 0.197288 14.7703C0.478242 16.7638 1.21455 18.3926 3.26882 18.8888C4.39406 19.1547 5.5268 19.3257 6.65556 19.2356C7.87918 19.1365 8.55312 19.8041 9.10322 20.8276C9.56598 21.6845 9.99626 22.5648 10.5213 23.3719C11.1 24.2651 11.6374 24.1837 12.1669 23.2678C12.7828 22.2122 13.2004 21.0628 13.642 19.921C13.9402 19.1546 14.3616 18.7485 15.2094 18.8975C16.1437 19.0641 17.1113 19.1187 18.0456 18.9109C21.5636 18.1216 22.1928 16.8811 22.0194 13.7918ZM17.8226 17.6124C16.7228 17.7294 15.6107 17.7427 14.5443 17.4764C13.8287 17.2958 13.4647 17.5717 13.1503 18.1618C12.6876 19.0234 12.2946 19.9124 11.964 20.8416C11.8196 21.2477 11.7533 21.8743 11.3151 21.9148C10.8563 21.9648 10.7439 21.3334 10.5503 20.9546C10.178 20.2376 9.82284 19.5149 9.29292 18.9018C8.70984 18.2213 8.06974 17.8826 7.18858 17.919C6.2464 17.9592 5.2871 17.9232 4.35282 17.7743C2.31872 17.4405 1.63601 16.6248 1.36338 14.3871C1.13157 12.4881 1.23077 10.5895 1.32605 8.68614C1.38837 7.36473 1.42134 6.04329 1.44549 4.71753C1.4837 2.67814 2.01274 1.98413 3.80272 1.57369C5.57598 1.17179 7.3541 1.41133 9.03694 1.44772C10.5745 1.58234 12.0136 1.50138 13.4524 1.35671C14.8915 1.21252 16.3255 1.18569 17.7686 1.36104C19.1823 1.53302 19.9559 2.24136 19.9269 3.80564C19.8606 7.13913 20.3606 10.3913 20.787 13.6701C21.1132 16.2001 20.179 17.3596 17.8226 17.6124Z" fill="#475564"/>
<path fill-rule="evenodd" clip-rule="evenodd" d="M22.0194 13.7918C21.9944 13.4216 21.965 13.0475 21.8992 12.6826C21.3902 9.79163 21.1344 6.87764 21.1422 3.92823C21.1506 1.53302 20.0344 0.171287 17.8757 0.0625834C13.5226 -0.15819 9.1656 0.292495 4.8072 0.0846021C4.3607 0.0625836 3.9102 0.243168 3.4598 0.297251C1.07008 0.58173 0.341708 2.30884 0.255194 4.48237C0.193271 6.01165 0.243338 7.54097 0.243338 9.07457C-0.0797964 10.9775 -0.0666182 12.8851 0.197288 14.7703C0.478242 16.7638 1.21455 18.3926 3.26882 18.8888C4.39406 19.1547 5.5268 19.3257 6.65556 19.2356C7.87918 19.1365 8.55312 19.8041 9.10322 20.8276C9.56598 21.6845 9.99626 22.5648 10.5213 23.3719C11.1 24.2651 11.6374 24.1837 12.1669 23.2678C12.7828 22.2122 13.2004 21.0628 13.642 19.921C13.9402 19.1546 14.3616 18.7485 15.2094 18.8975C16.1437 19.0641 17.1113 19.1187 18.0456 18.9109C21.5636 18.1216 22.1928 16.8811 22.0194 13.7918ZM17.8226 17.6124C16.7228 17.7294 15.6107 17.7427 14.5443 17.4764C13.8287 17.2958 13.4647 17.5717 13.1503 18.1618C12.6876 19.0234 12.2946 19.9124 11.964 20.8416C11.8196 21.2477 11.7533 21.8743 11.3151 21.9148C10.8563 21.9648 10.7439 21.3334 10.5503 20.9546C10.178 20.2376 9.82284 19.5149 9.29292 18.9018C8.70984 18.2213 8.06974 17.8826 7.18858 17.919C6.2464 17.9592 5.2871 17.9232 4.35282 17.7743C2.31872 17.4405 1.63601 16.6248 1.36338 14.3871C1.13157 12.4881 1.23077 10.5895 1.32605 8.68614C1.38837 7.36473 1.42134 6.04329 1.44549 4.71753C1.4837 2.67814 2.01274 1.98413 3.80272 1.57369C5.57598 1.17179 7.3541 1.41133 9.03694 1.44772C10.5745 1.58234 12.0136 1.50138 13.4524 1.35671C14.8915 1.21252 16.3255 1.18569 17.7686 1.36104C19.1823 1.53302 19.9559 2.24136 19.9269 3.80564C19.8606 7.13913 20.3606 10.3913 20.787 13.6701C21.1132 16.2001 20.179 17.3596 17.8226 17.6124Z" fill="#475564"/>
<path fill-rule="evenodd" clip-rule="evenodd" d="M16.3755 9.43919C16.3755 9.65618 16.3255 9.85974 16.1358 9.9584C15.7674 10.1476 15.4614 9.95365 15.2015 9.71079C14.1136 8.68629 13.0138 7.6757 11.964 6.61147C10.5744 5.20909 11.017 5.35374 9.70252 6.60287C8.44996 7.79402 7.22194 9.02009 5.98952 10.2329C5.74982 10.468 5.50174 10.6841 5.19574 10.4278C4.86556 10.1562 4.87742 9.76874 5.0763 9.4306C5.2581 9.1241 5.47674 8.81323 5.74148 8.60057C7.2509 7.40991 8.56146 5.97113 9.88384 4.56445C10.5621 3.84215 11.0912 3.76557 11.7906 4.55489C13.0511 5.98021 14.3704 7.34284 15.8087 8.56034C16.0774 8.78543 16.3544 9.02009 16.3755 9.43919Z" fill="#475564"/>
<path fill-rule="evenodd" clip-rule="evenodd" d="M14.5605 14.1299C14.6013 14.8613 14.2211 15.1855 13.5968 15.2215C12.7662 15.2761 11.935 15.3211 11.4714 15.3484C10.2733 15.3484 9.42942 15.4337 8.61062 15.3254C7.41646 15.1722 7.04414 14.6213 7.11438 13.3186C7.17234 12.3305 7.247 11.3429 7.1596 10.351C7.12228 9.93619 7.14334 9.46206 7.65616 9.40839C8.16016 9.35382 8.26334 9.8136 8.3257 10.224C8.47408 11.1709 8.4372 12.1231 8.3257 13.0657C8.24316 13.7741 8.52416 14.0897 9.12736 14.0806C10.3396 14.0623 11.5509 14.0039 12.7578 13.968C13.2087 13.9536 13.3198 13.6931 13.2829 13.2366C13.2087 12.2897 13.1674 11.3386 13.1174 10.3912C13.0932 9.93091 13.0471 9.39397 13.6302 9.34946C14.1969 9.30872 14.2624 9.85427 14.3002 10.305C14.4038 11.5771 14.4859 12.8535 14.5605 14.1299Z" fill="#475564"/>
<path fill-rule="evenodd" clip-rule="evenodd" d="M11.0047 9.44865C9.4505 9.43903 9.0532 9.89983 9.05716 11.681C9.06592 12.5604 8.96668 13.4719 10.2193 13.4129C12.1629 13.3185 12.5344 13.1064 12.5142 11.8793C12.4769 9.91318 12.1871 9.4534 11.0047 9.44865ZM10.6535 12.0019C10.1943 11.9919 10.2896 11.5814 10.2694 11.2705C10.2443 10.8644 10.4963 10.8107 10.7813 10.8064C11.2076 10.815 11.2366 11.1402 11.2568 11.487C11.2818 11.9832 10.9547 12.0106 10.6535 12.0019Z" fill="#475564"/>
</g>
<defs>
<clipPath id="clip0_616_258">
<rect width="24" height="24" fill="white"/>
</clipPath>
</defs>
</svg>
