<svg width="24" height="24" viewBox="0 0 24 24" fill="none" xmlns="http://www.w3.org/2000/svg">
<path d="M12 0C5.3868 0 0 5.3868 0 12C0 18.6132 5.3868 24 12 24C18.6132 24 24 18.6132 24 12C24 5.3868 18.6132 0 12 0ZM12 2.4C17.3161 2.4 21.6 6.68386 21.6 12C21.6 17.3161 17.3161 21.6 12 21.6C6.68386 21.6 2.4 17.3161 2.4 12C2.4 6.68386 6.68386 2.4 12 2.4Z" fill="#475564"/>
<path d="M12 8.40001C11.6818 8.40001 11.3765 8.52645 11.1515 8.7515C10.9264 8.97654 10.8 9.28175 10.8 9.60001V18C10.8 18.3183 10.9264 18.6235 11.1515 18.8485C11.3765 19.0736 11.6818 19.2 12 19.2C12.3183 19.2 12.6235 19.0736 12.8485 18.8485C13.0736 18.6235 13.2 18.3183 13.2 18V9.60001C13.2 9.28175 13.0736 8.97654 12.8485 8.7515C12.6235 8.52645 12.3183 8.40001 12 8.40001Z" fill="#475564"/>
<path d="M13.2 5.99953C13.2 6.31779 13.0736 6.623 12.8485 6.84804C12.6235 7.07308 12.3183 7.19953 12 7.19953C11.6818 7.19953 11.3765 7.07308 11.1515 6.84804C10.9264 6.623 10.8 6.31779 10.8 5.99953C10.8 5.68127 10.9264 5.37603 11.1515 5.15098C11.3765 4.92594 11.6818 4.79953 12 4.79953C12.3183 4.79953 12.6235 4.92594 12.8485 5.15098C13.0736 5.37603 13.2 5.68127 13.2 5.99953Z" fill="#475564"/>
</svg>
