<svg width="21" height="19" viewBox="0 0 21 19" fill="none" xmlns="http://www.w3.org/2000/svg">
<path d="M19.0602 2.33078C16.8791 0.148489 13.3419 0.148489 11.1608 2.33078L2.10522 11.279C0.4114 12.9728 0.4114 15.7299 2.10522 17.4237C3.79904 19.1175 6.55545 19.1175 8.24864 17.4237L17.3043 8.47483C18.5164 7.26265 18.5164 5.29822 17.3043 4.08604C16.0921 2.87449 14.127 2.87449 12.9161 4.08604L6.10856 10.8936C5.86588 11.1369 5.86588 11.5285 6.10856 11.7718C6.35125 12.0145 6.74351 12.0145 6.98619 11.7718L13.7944 4.96367C14.5206 4.23811 15.7011 4.23811 16.4273 4.96367C17.1535 5.68986 17.1535 6.871 16.4273 7.59719L7.37163 16.5454C6.15946 17.7576 4.19565 17.7576 2.98347 16.5454C1.7713 15.3339 1.7713 13.3688 2.98347 12.1573L11.9503 3.29592C13.6473 1.599 16.3993 1.599 18.0938 3.29592C19.7919 4.99347 19.7919 7.74305 18.095 9.43997L11.3756 16.16C11.1317 16.4033 11.1317 16.795 11.3756 17.0376C11.6183 17.2809 12.0105 17.2809 12.2532 17.0376L19.0602 10.2301C21.2424 8.04904 21.2424 4.51182 19.0602 2.33078Z" fill="#475564"/>
</svg>
