<svg width="19" height="19" viewBox="0 0 19 19" fill="none" xmlns="http://www.w3.org/2000/svg">
<path fill-rule="evenodd" clip-rule="evenodd" d="M8.2553 10.1544C8.2553 9.33882 8.03121 8.07784 9.00415 8.07935C9.97766 8.08086 9.75376 9.33825 9.75376 10.1544C10.5633 10.1544 11.8234 9.93431 11.8249 10.889C11.8266 11.8734 10.6182 11.6525 9.76583 11.6525C9.7249 12.4966 9.99633 13.7172 9.00453 13.7201C8.00989 13.7229 8.28435 12.4964 8.24341 11.6525C7.38874 11.6525 6.18039 11.8772 6.18379 10.8888C6.18699 9.93299 7.44363 10.1544 8.25549 10.1544H8.2553ZM4.75851 2.1936H6.25829C6.25905 1.47681 6.34035 0.795297 5.6213 0.714376C4.70777 0.611574 4.76436 1.51887 4.76436 2.19586C2.87865 2.19586 1.98191 2.01402 0.872593 3.1339C-0.0890312 4.10458 0.028484 4.9951 0.028484 6.58994L0.0275408 12.9488C0.026975 15.2583 -0.269737 16.6557 1.11045 17.9446C2.03548 18.8085 3.19064 18.6519 4.6095 18.6519H12.0905C14.3502 18.651 15.8549 18.999 17.1331 17.7105C18.236 16.5989 17.9806 15.294 17.9806 13.5098V7.89902C17.9796 5.91428 18.2897 4.29604 17.1338 3.13655C15.9962 1.99554 15.1425 2.20567 13.2483 2.19378C13.2475 1.53604 13.3081 0.885839 12.7045 0.733427C11.677 0.473876 11.7498 1.55905 11.7509 2.19378L13.2447 2.19586C13.2522 3.21049 13.4352 4.81741 12.8414 5.10186C11.4414 5.77262 11.7498 3.20521 11.7491 2.19473L6.26018 2.19586V4.15853C6.26282 5.5987 4.76172 5.53759 4.76172 4.15853V2.47522L4.75851 2.1936Z" fill="#475564"/>
</svg>
