<svg width="5" height="8" viewBox="0 0 5 8" fill="none" xmlns="http://www.w3.org/2000/svg">
<path d="M0.144385 0.418522C0.0389092 0.546114 -0.0118719 0.710219 0.00310448 0.875084C0.0180809 1.03995 0.0976013 1.19222 0.224342 1.29872L3.39829 3.94405L0.224394 6.58942C0.0971562 6.69561 0.0173147 6.848 0.00243414 7.01306C-0.0124464 7.17813 0.0388528 7.34234 0.145047 7.46958C0.25124 7.59681 0.40363 7.67666 0.568691 7.69154C0.733752 7.70642 0.897964 7.65512 1.0252 7.54892L4.7753 4.4238C4.8456 4.36518 4.90216 4.29182 4.94098 4.20892C4.97979 4.12601 4.99991 4.03559 4.99991 3.94405C4.99991 3.85251 4.97979 3.76209 4.94098 3.67919C4.90216 3.59628 4.8456 3.52292 4.7753 3.4643L1.02515 0.33918C0.897783 0.233023 0.733491 0.181754 0.568353 0.19663C0.403215 0.211506 0.250731 0.291311 0.144385 0.418522Z" fill="#475564"/>
</svg>
