<svg width="24" height="25" viewBox="0 0 24 25" fill="none" xmlns="http://www.w3.org/2000/svg">
<path d="M14.8225 12.9941L23.4081 4.40851C23.7832 4.03342 23.9939 3.52469 23.9939 2.99423C23.9939 2.46378 23.7832 1.95504 23.4081 1.57995C23.033 1.20486 22.5243 0.994141 21.9938 0.994141C21.4634 0.994141 20.9546 1.20486 20.5795 1.57995L11.9939 10.1656L3.40828 1.58995C3.02588 1.26246 2.53397 1.09134 2.03088 1.11077C1.52778 1.1302 1.05055 1.33876 0.69454 1.69477C0.338532 2.05078 0.129974 2.52801 0.110542 3.03111C0.0911094 3.5342 0.262234 4.02611 0.58972 4.40851L9.16535 12.9941L0.58972 21.5798C0.21463 21.9549 0.00390625 22.4636 0.00390625 22.994C0.00390625 23.5245 0.21463 24.0332 0.58972 24.4083C0.964811 24.7834 1.47354 24.9941 2.004 24.9941C2.53446 24.9941 3.04319 24.7834 3.41828 24.4083L11.9939 15.8227L20.5795 24.4083C20.9546 24.7834 21.4634 24.9941 21.9938 24.9941C22.5243 24.9941 23.033 24.7834 23.4081 24.4083C23.7832 24.0332 23.9939 23.5245 23.9939 22.994C23.9939 22.4636 23.7832 21.9549 23.4081 21.5798L14.8225 12.9941Z" fill="#475564"/>
</svg>
