<svg width="21" height="24" viewBox="0 0 21 24" fill="none" xmlns="http://www.w3.org/2000/svg">
<path fill-rule="evenodd" clip-rule="evenodd" d="M17.1551 6.32795C19.0874 6.32795 18.76 8.81224 17.3895 8.81224C16.9931 8.81224 16.6546 8.80379 16.3298 8.41892C16.1379 8.19147 16.006 7.89714 16.0135 7.55259C16.022 7.17086 16.1487 6.94558 16.3392 6.73093L16.6843 6.46654C16.8154 6.39894 16.9535 6.32795 17.1551 6.32795ZM3.37549 0H3.54136C3.73501 0.0424954 3.89702 0.247004 4.10853 0.671958C4.29203 1.0409 4.79812 1.67591 4.22829 1.97917C3.96559 2.11898 2.97951 2.39061 2.71801 2.39061C2.31069 2.39061 2.24839 2.21894 2.01491 2.06248C1.92533 2.23173 1.93161 2.19841 1.82054 2.33676C1.14617 3.17484 1.0776 4.35385 1.0776 5.43748C1.0776 6.22533 1.52114 5.60746 1.9036 6.76763C2.25708 7.83919 2.67045 8.79027 3.24245 9.7411C3.50346 10.175 3.84656 10.5541 4.12423 10.9686C4.58757 10.9583 4.64045 10.8083 5.11514 10.9619C5.43217 11.0647 5.63354 11.2236 5.96481 11.2854C6.84828 11.4506 7.07911 10.9216 7.82736 10.9216C7.99855 10.9216 8.17916 11.0107 8.38994 11.0152C8.54399 10.7854 8.7118 10.6478 8.86826 10.4155C9.31156 9.75704 9.73603 9.12057 10.0504 8.36338C10.1615 8.09561 10.2626 7.88772 10.3727 7.60764C10.5331 7.19983 10.698 6.36248 11.0065 6.08529C11.5194 5.6246 11.4837 6.26855 11.4837 4.73437C11.4837 3.49476 11.1068 2.89959 10.5461 2.06272C10.3795 2.17427 10.259 2.39085 9.98352 2.39085C9.65418 2.39085 8.58528 2.13298 8.30205 1.963C7.79235 1.65732 8.27139 1.0351 8.46793 0.640811C8.67679 0.221894 8.84532 0.0316301 9.04283 0.000241451H9.16838C9.35213 0.0265596 9.56798 0.160324 9.86135 0.356865C10.3587 0.689826 10.6965 0.720249 10.8252 1.36154C10.8728 1.59913 10.8759 1.51486 11.0254 1.67712C11.4363 2.12308 11.7319 2.70618 11.8956 3.29122C12.2392 4.51876 12.0928 4.86065 12.0928 6.00006C12.3637 6.0725 12.5615 6.40835 12.5615 6.75001C12.5615 7.30679 11.9402 8.72363 11.6872 9.25047C11.2313 10.2001 10.747 11.0092 10.1245 11.8128C9.95817 12.0274 9.42577 12.5364 9.34923 12.6779C9.29225 12.7829 9.28935 12.8833 9.24709 12.9976C9.21474 13.085 9.17152 13.1671 9.12589 13.2513C8.81635 13.8214 7.61319 14.3284 6.93689 14.3436C6.92675 14.7981 6.23644 16.4518 6.04642 16.8282C5.84843 17.2205 5.68617 17.5458 5.45728 17.9263C5.16078 18.4189 4.91087 18.9044 5.091 19.5645C5.17888 19.8869 5.38967 20.2225 5.5768 20.485C6.10074 21.2194 7.06172 21.7405 7.92998 21.9754C8.46938 22.1213 9.03462 22.1565 9.56195 22.1254C10.6475 22.0609 11.4095 21.3112 11.8782 20.5977C12.8305 19.1476 12.7788 16.9257 12.3176 15.2443C12.0129 14.1333 11.9055 13.5997 11.9055 12.3753C11.9055 10.8494 12.8358 9.165 14.0616 8.34431C14.0616 7.42076 13.8308 7.19645 14.3514 6.10292C15.1812 4.35964 17.5883 3.75215 19.1652 4.92826C19.6278 5.27329 20.0387 5.72746 20.2565 6.27435C20.7455 7.50285 20.5313 8.92524 19.6053 9.85676C18.9071 10.5591 18.1629 10.8286 17.0617 10.8286C16.4182 10.8286 15.3925 10.4553 15.046 9.93789C14.6609 10.1958 14.3103 10.6272 14.1085 11.0626C13.4266 12.5323 13.8487 13.6746 14.2024 15.0938C14.595 16.6683 14.6409 18.5017 14.15 20.0571C13.9327 20.7452 13.6326 21.394 13.1992 21.9655C12.5852 22.7746 11.7316 23.4717 10.7402 23.7721C10.1663 23.9459 9.61748 24 8.99961 24C6.98156 24 4.94902 22.8816 3.86201 21.2629C3.35689 20.5105 3.1874 19.8205 3.1874 18.8441C3.1874 17.6766 4.67135 15.9285 5.06226 14.2504C4.8848 14.1652 4.67715 14.1261 4.47192 14.044C2.95609 13.438 3.4443 12.8664 2.94184 12.3867C2.26119 11.7367 1.78529 10.8861 1.30311 10.0881C0.891196 9.40645 0 7.40796 0 6.70389C0 6.41125 0.235898 6.06284 0.479039 6.00006L0.422057 4.96955C0.362418 4.05662 0.755983 2.64123 1.34778 1.91109C1.53611 1.67881 1.68967 1.60927 1.74231 1.32122C1.80557 0.975463 1.87221 0.913651 2.12839 0.722905L2.72816 0.338273C3.00317 0.15477 3.20623 0.0328374 3.37621 0.000724353L3.37549 0Z" fill="#475564"/>
</svg>
