<svg width="18" height="21" viewBox="0 0 18 21" fill="none" xmlns="http://www.w3.org/2000/svg">
<path fill-rule="evenodd" clip-rule="evenodd" d="M14.3136 5.96735C15.9239 5.96735 15.6511 8.0376 14.509 8.0376C14.1786 8.0376 13.8965 8.03055 13.6259 7.70983C13.4659 7.52029 13.3561 7.27501 13.3623 6.98789C13.3693 6.66978 13.475 6.48205 13.6337 6.30317L13.9213 6.08285C14.0305 6.02651 14.1456 5.96735 14.3136 5.96735ZM2.83061 0.694061H2.96884C3.13021 0.729474 3.26522 0.899898 3.44148 1.25403C3.5944 1.56147 4.01613 2.09065 3.54128 2.34337C3.32236 2.45987 2.50062 2.68623 2.28271 2.68623C1.94327 2.68623 1.89136 2.54317 1.69679 2.41279C1.62214 2.55384 1.62737 2.52607 1.53482 2.64136C0.972841 3.33976 0.915697 4.32227 0.915697 5.22529C0.915697 5.88184 1.28532 5.36695 1.60403 6.33376C1.8986 7.22672 2.24307 8.01929 2.71974 8.81165C2.93725 9.17322 3.22316 9.48912 3.45456 9.8346C3.84068 9.82594 3.88474 9.70099 4.28032 9.82896C4.54451 9.91468 4.71231 10.0471 4.98837 10.0986C5.7246 10.2362 5.91695 9.79536 6.5405 9.79536C6.68316 9.79536 6.83366 9.86961 7.00932 9.87343C7.13769 9.68188 7.27753 9.56719 7.40792 9.37362C7.77734 8.82493 8.13106 8.29454 8.39304 7.66355C8.48559 7.44041 8.5699 7.26717 8.66165 7.03376C8.79525 6.69392 8.93268 5.99613 9.18982 5.76514C9.61719 5.38123 9.58741 5.91786 9.58741 4.63937C9.58741 3.60636 9.27333 3.11038 8.80612 2.41299C8.66728 2.50595 8.56688 2.68644 8.3373 2.68644C8.06285 2.68644 7.1721 2.47154 6.93608 2.32989C6.51133 2.07516 6.91053 1.55665 7.07431 1.22807C7.24836 0.878973 7.3888 0.72042 7.55339 0.694262H7.65802C7.81114 0.716194 7.99102 0.827664 8.23549 0.991449C8.64998 1.26892 8.93147 1.29427 9.03872 1.82868C9.07835 2.02667 9.08097 1.95645 9.20552 2.09166C9.54798 2.46329 9.79426 2.94921 9.93068 3.43674C10.217 4.45969 10.0951 4.74461 10.0951 5.69411C10.3208 5.75447 10.4856 6.03436 10.4856 6.31907C10.4856 6.78306 9.9679 7.96375 9.75703 8.40279C9.37715 9.19415 8.97353 9.8684 8.45481 10.538C8.31617 10.7169 7.87251 11.141 7.80872 11.259C7.76124 11.3465 7.75882 11.4302 7.72361 11.5254C7.69665 11.5982 7.66063 11.6666 7.62261 11.7368C7.36466 12.2119 6.36203 12.6344 5.79844 12.6471C5.78999 13.0258 5.21473 14.4039 5.05638 14.7175C4.89139 15.0445 4.75618 15.3155 4.56543 15.6326C4.31835 16.0431 4.1101 16.4477 4.2602 16.9978C4.33344 17.2665 4.50909 17.5461 4.66503 17.7649C5.10165 18.3769 5.90247 18.8111 6.62602 19.0069C7.07552 19.1285 7.54655 19.1578 7.98599 19.1319C8.89063 19.0781 9.52564 18.4534 9.91619 17.8588C10.7098 16.6504 10.6667 14.7988 10.2824 13.3976C10.0285 12.4718 9.93893 12.0272 9.93893 11.0068C9.93893 9.7352 10.7142 8.33156 11.7357 7.64765C11.7357 6.87803 11.5434 6.6911 11.9772 5.77983C12.6687 4.3271 14.6746 3.82085 15.9887 4.80094C16.3742 5.08847 16.7167 5.46695 16.8981 5.92268C17.3056 6.94644 17.1271 8.13176 16.3555 8.90803C15.7736 9.49335 15.1535 9.71789 14.2358 9.71789C13.6995 9.71789 12.8448 9.40683 12.5561 8.97563C12.2351 9.19053 11.943 9.55009 11.7748 9.91287C11.2065 11.1376 11.5583 12.0895 11.853 13.2723C12.1802 14.5843 12.2184 16.1121 11.8094 17.4083C11.6283 17.9818 11.3782 18.5224 11.017 18.9987C10.5053 19.6729 9.79406 20.2538 8.96789 20.5041C8.48962 20.649 8.03227 20.6941 7.51737 20.6941C5.83567 20.6941 4.14189 19.7621 3.23604 18.4132C2.81511 17.7862 2.67386 17.2111 2.67386 16.3974C2.67386 15.4246 3.9105 13.9678 4.23625 12.5694C4.08836 12.4984 3.91532 12.4658 3.7443 12.3974C2.48111 11.8924 2.88795 11.4161 2.46923 11.0163C1.90202 10.4746 1.50544 9.76578 1.10363 9.10079C0.760364 8.53277 0.0177002 6.86736 0.0177002 6.28064C0.0177002 6.03677 0.214282 5.74643 0.416899 5.69411L0.369414 4.83535C0.319715 4.07458 0.647686 2.89509 1.14085 2.28663C1.29779 2.09307 1.42576 2.03512 1.46963 1.79508C1.52234 1.50695 1.57788 1.45544 1.79136 1.29648L2.29116 0.975955C2.52034 0.823036 2.68956 0.721426 2.83121 0.694665L2.83061 0.694061Z" fill="#475564"/>
</svg>
