<svg width="18" height="25" viewBox="0 0 18 25" fill="none" xmlns="http://www.w3.org/2000/svg">
<path d="M17.0921 7.73564L16.216 7.14522C16.0103 7.00809 15.9265 6.74906 16.0103 6.5167L16.3721 5.52632C16.5626 5.00065 16.4826 4.41785 16.1512 3.96456C15.8236 3.51127 15.3018 3.25605 14.7342 3.2751L13.6791 3.31319C13.4124 3.317 13.2143 3.16082 13.1458 2.92466L12.8563 1.91142C12.7039 1.37432 12.2925 0.947698 11.7592 0.776285C11.2259 0.604872 10.647 0.70772 10.2051 1.05055L9.37469 1.70191C9.18042 1.85428 8.90997 1.85428 8.7157 1.70191L7.88911 1.05055C7.44725 0.703911 6.86826 0.604872 6.33497 0.776285C5.80169 0.947698 5.39411 1.37432 5.23793 1.91142L4.94844 2.92466C4.87987 3.16082 4.65894 3.32081 4.41515 3.31319L3.36001 3.2751C2.80387 3.25225 2.27059 3.51508 1.943 3.96456C1.61541 4.41785 1.53161 5.00065 1.72207 5.52632L2.08394 6.5167C2.16774 6.74906 2.08394 7.00809 1.87824 7.14522L1.00214 7.73564C0.537417 8.04799 0.263157 8.56985 0.263157 9.12598C0.263157 9.68593 0.541226 10.204 1.00214 10.5163L1.87824 11.1068C2.08394 11.2439 2.16774 11.5029 2.08394 11.7353L1.72207 12.7256C1.53161 13.2513 1.6116 13.8341 1.943 14.2874C2.27059 14.7407 2.80387 14.9997 3.36001 14.9769L4.37325 14.9426V24.1227C4.37325 24.3246 4.47991 24.5112 4.65132 24.6141C4.74274 24.6674 4.84178 24.6941 4.94463 24.6941C5.03605 24.6941 5.13128 24.6712 5.21508 24.6255L9.05091 22.5609L12.921 24.6255C13.0962 24.7207 13.3134 24.7131 13.4848 24.6103C13.6562 24.5074 13.7629 24.3208 13.7629 24.1189V14.9426L14.738 14.9769C15.2941 14.9997 15.8274 14.7369 16.155 14.2874C16.4826 13.8341 16.5664 13.2513 16.3759 12.7256L16.0141 11.7353C15.9303 11.5029 16.0141 11.2439 16.2198 11.1068L17.0959 10.5163C17.5606 10.204 17.8349 9.68212 17.8349 9.12598C17.831 8.56604 17.553 8.04799 17.0921 7.73564ZM12.6163 23.1666L9.31755 21.4067C9.23375 21.361 9.14233 21.3382 9.0471 21.3382C8.95568 21.3382 8.86045 21.361 8.77665 21.4067L5.516 23.1628V16.8929C5.516 16.8967 5.51981 16.8967 5.51981 16.9005C5.56552 16.9614 5.61504 17.0148 5.66837 17.0681C5.6836 17.0833 5.70265 17.0986 5.7217 17.1176C5.7636 17.1557 5.8055 17.19 5.8474 17.2243C5.87025 17.2395 5.8893 17.2548 5.91215 17.27C5.95786 17.3005 6.00357 17.3271 6.05309 17.3538C6.07595 17.3652 6.095 17.3766 6.11785 17.3881C6.19022 17.4224 6.2626 17.4528 6.33878 17.4795C6.41496 17.5062 6.49496 17.5214 6.57495 17.5366C6.59781 17.5404 6.62447 17.5442 6.64732 17.5442C6.70446 17.5519 6.7616 17.5557 6.81874 17.5557C6.83397 17.5557 6.8454 17.5595 6.86064 17.5595C6.87207 17.5595 6.88349 17.5557 6.89492 17.5557C6.9673 17.5557 7.03967 17.5481 7.10823 17.5366C7.11966 17.5366 7.13109 17.5328 7.14252 17.5328C7.22251 17.5176 7.3025 17.4985 7.38249 17.4719C7.40535 17.4643 7.42439 17.4566 7.44725 17.449C7.50439 17.4262 7.56152 17.4033 7.61866 17.3728C7.64152 17.3614 7.66437 17.35 7.68342 17.3386C7.75579 17.2967 7.82817 17.2509 7.89292 17.2014L8.72332 16.5501C8.81855 16.4739 8.93664 16.4358 9.05472 16.4358C9.1728 16.4358 9.28708 16.4739 9.38612 16.5501L10.2165 17.2014C10.6584 17.5442 11.2374 17.6509 11.7707 17.4757C11.8507 17.449 11.9268 17.4185 11.9992 17.3805C12.0221 17.369 12.0411 17.3576 12.0602 17.3462C12.1135 17.3157 12.163 17.2852 12.2125 17.2509C12.2316 17.2357 12.2506 17.2243 12.2697 17.209C12.3306 17.1633 12.3839 17.1138 12.4373 17.0605C12.4411 17.0567 12.4449 17.0529 12.4525 17.0491C12.5096 16.9919 12.5592 16.9272 12.6087 16.8624C12.6125 16.8548 12.6201 16.851 12.6239 16.8434V23.1666H12.6163ZM16.4521 9.56785L15.576 10.1583C14.9361 10.5887 14.6732 11.3963 14.9361 12.1238L15.2979 13.1142C15.3589 13.2856 15.336 13.4646 15.2294 13.6132C15.1227 13.7579 14.9551 13.8379 14.7761 13.8341L13.721 13.796C13.1877 13.777 12.7115 14.0017 12.3916 14.3788C12.3839 14.3864 12.3763 14.3941 12.3725 14.4055C12.3116 14.4817 12.2544 14.5617 12.2049 14.6493C12.1935 14.6683 12.182 14.6836 12.1744 14.7026C12.1249 14.8016 12.0792 14.9045 12.0487 15.015L11.7592 16.0282C11.7097 16.2034 11.584 16.3329 11.4088 16.3901C11.3669 16.4053 11.3212 16.4129 11.2793 16.4167C11.1498 16.4244 11.0203 16.3863 10.9136 16.3025L10.0832 15.6511C9.9613 15.5559 9.82417 15.4835 9.68704 15.4264C9.65276 15.4111 9.62229 15.3959 9.588 15.3844C9.12329 15.2283 8.61286 15.2816 8.18242 15.5406C8.12528 15.5749 8.06814 15.6092 8.01101 15.6511L7.18061 16.3025C7.03967 16.4129 6.85683 16.4472 6.68542 16.3901C6.514 16.3329 6.38449 16.2034 6.33497 16.0282L6.19022 15.5216L6.04548 15.015C6.015 14.9121 5.9731 14.8131 5.92739 14.7178C5.91596 14.695 5.90454 14.6759 5.8893 14.6569C5.8474 14.5845 5.80169 14.5122 5.74836 14.4474C5.73312 14.4283 5.71789 14.4093 5.70265 14.3941C5.6417 14.3255 5.58076 14.2607 5.50838 14.1998C5.49695 14.1884 5.48553 14.1808 5.4741 14.1693C5.1846 13.937 4.81892 13.7998 4.42658 13.7998C4.40753 13.7998 4.38468 13.7998 4.36563 13.7998L3.31049 13.8379C3.13146 13.8417 2.96386 13.7656 2.8572 13.617C2.75054 13.4722 2.72388 13.2894 2.78864 13.118L3.15051 12.1238C3.41334 11.4001 3.15051 10.5887 2.51057 10.1583L1.63446 9.56785C1.4859 9.465 1.39829 9.30502 1.39829 9.12218C1.39829 8.93934 1.4859 8.77935 1.63446 8.6765L2.51057 8.08608C3.15051 7.65565 3.41334 6.8481 3.15051 6.12055L2.78864 5.13017C2.72769 4.95875 2.75054 4.77972 2.8572 4.63116C2.96386 4.48642 3.13146 4.40642 3.31049 4.41023L4.36563 4.44832C5.13889 4.47499 5.82454 3.97599 6.03786 3.2332L6.32735 2.21996C6.37687 2.04474 6.50258 1.91523 6.6778 1.85809C6.84921 1.80095 7.03205 1.83523 7.17299 1.9457L8.00339 2.59707C8.61286 3.07321 9.4623 3.07321 10.0718 2.59707L10.9022 1.9457C11.0431 1.83523 11.2259 1.80095 11.3974 1.85809C11.5688 1.91523 11.6983 2.04474 11.7478 2.21996L12.0373 3.2332C12.2506 3.97599 12.9248 4.4788 13.7095 4.44832L14.7647 4.41023C14.9437 4.40642 15.1113 4.48261 15.218 4.63116C15.3246 4.77591 15.3513 4.95875 15.2865 5.13017L14.9246 6.12436C14.6618 6.8481 14.9246 7.65946 15.5646 8.08989L16.4407 8.68031C16.5893 8.78316 16.6769 8.94314 16.6769 9.12598C16.6883 9.30502 16.6007 9.46881 16.4521 9.56785Z" fill="#475564"/>
<path d="M12.6125 6.85571H10.5898L9.96511 4.93208C9.8356 4.53593 9.46992 4.26929 9.05472 4.26929C8.63952 4.26929 8.27384 4.53593 8.14433 4.93208L7.51962 6.85571H5.48933C5.07414 6.85571 4.70846 7.12236 4.57894 7.51851C4.44943 7.91466 4.59037 8.3451 4.92558 8.58888L6.56352 9.77735L5.93882 11.701C5.80931 12.0971 5.95024 12.5276 6.28545 12.7714C6.62066 13.0151 7.07395 13.0151 7.41297 12.7714L9.05091 11.5829L10.6889 12.7714C10.8565 12.8932 11.0545 12.9542 11.2526 12.9542C11.4507 12.9542 11.6488 12.8932 11.8164 12.7714C12.1516 12.5276 12.2925 12.0971 12.163 11.701L11.5383 9.77735L13.1762 8.58888C13.5114 8.3451 13.6524 7.91466 13.5229 7.51851C13.3934 7.12236 13.0277 6.85571 12.6125 6.85571ZM10.5289 9.0955C10.327 9.24025 10.2432 9.49928 10.3232 9.73545L10.9022 11.5143L9.38992 10.4135C9.18804 10.2687 8.91759 10.2687 8.71951 10.4135L7.20727 11.5143L7.78626 9.73545C7.86245 9.49928 7.77865 9.24406 7.58057 9.0955L6.06833 7.99466H7.93863C8.18623 7.99466 8.40716 7.83467 8.48334 7.5985L9.06234 5.81962L9.64133 7.5985C9.71751 7.83467 9.93845 7.99466 10.186 7.99466H12.0563L10.5289 9.0955Z" fill="#475564"/>
</svg>
