<svg width="25" height="24" viewBox="0 0 25 24" fill="none" xmlns="http://www.w3.org/2000/svg">
<path fill-rule="evenodd" clip-rule="evenodd" d="M14.2441 18.2985C14.4247 18.1672 15.5955 16.7876 15.8499 16.4962L20.5986 11.0707C21.8172 9.68877 22.3188 7.69091 21.6278 5.73479C21.0933 4.22167 19.7984 2.83303 17.9485 2.72933C15.7628 2.60681 14.6975 4.16916 13.7975 5.19722C13.172 5.91171 12.6732 6.75467 11.8197 6.47131C11.0062 6.20122 9.76337 3.87992 8.38405 3.18228C7.59703 2.78421 6.69152 2.60162 5.74627 2.82974C4.19891 3.20323 2.80135 4.63991 2.51408 6.35874C2.19441 8.10625 2.51302 9.43687 3.41111 10.7083C3.86997 11.358 7.36229 15.132 7.6183 15.559C8.18937 16.5115 7.51796 17.7258 6.60073 17.7029C6.06233 17.6895 5.82615 17.3311 5.54333 17.0079C4.6823 16.0238 1.84366 12.8635 1.34948 12.142C0.535003 10.9528 0.0865603 9.54234 4.35811e-06 8.10344V7.06806C0.127486 4.94765 1.03718 2.86551 2.71934 1.43555C5.23183 -0.700253 8.91009 -0.471826 11.2885 2.24826C11.5094 2.50096 11.9333 3.04182 12.155 3.21145C12.5438 2.91387 13.1751 1.9116 14.1102 1.2135C14.7729 0.718731 15.8459 0.189977 16.8114 0.0680981C18.4671 -0.140895 20.0362 0.235575 21.2808 1.19271C22.4216 2.06996 23.2751 3.16776 23.8154 4.64479C24.0926 5.40253 24.2708 6.30662 24.3099 7.23757V8.0048C24.2803 8.69804 24.1686 9.38814 23.9583 10.0266C23.3607 11.8408 22.7775 12.424 21.6154 13.7521L13.2826 23.2753C12.9634 23.6401 12.7206 24.0371 12.0597 23.9972C11.4854 23.9625 11.2436 23.5225 10.9323 23.1668C10.6121 22.8008 10.3267 22.4746 10.0065 22.1086C9.70641 21.7657 9.30147 21.4318 9.22103 20.8893C9.12 20.2081 9.45417 19.6783 9.79922 19.457C10.2631 19.1596 10.8586 19.2494 11.1949 19.6109C11.4672 19.9037 11.883 20.4761 12.155 20.6842L14.2441 18.2985L14.2441 18.2985Z" fill="#475564"/>
<path fill-rule="evenodd" clip-rule="evenodd" d="M14.2441 18.2985C14.2441 17.634 14.3264 16.9026 14.2178 16.0477C13.8044 12.7958 12.8179 10.7913 10.7183 8.65177C10.3787 8.30566 9.85199 7.90944 9.46362 7.6439C8.22908 6.7998 6.60435 6.18573 5.07916 6.14312C4.82937 6.13615 4.71728 6.08241 4.4147 6.08486C4.12471 6.08721 4.04542 6.13683 3.7507 6.14139C3.48354 6.14551 2.68126 6.26964 2.51409 6.35874C2.80135 4.63989 4.19892 3.2032 5.74628 2.82974C6.69153 2.60161 7.59704 2.7842 8.38406 3.18228C9.76338 3.87992 11.0062 6.20122 11.8197 6.4713C12.6732 6.75467 13.172 5.91171 13.7975 5.19722C14.6975 4.16916 15.7628 2.60681 17.9485 2.72933C19.7984 2.83303 21.0933 4.22166 21.6278 5.73479C22.3188 7.69091 21.8172 9.68877 20.5986 11.0707L15.8499 16.4962C15.5955 16.7876 14.4247 18.1672 14.2441 18.2985V18.2985Z" fill="#475564"/>
</svg>
