<svg width="27" height="26" viewBox="0 0 27 26" fill="none" xmlns="http://www.w3.org/2000/svg">
<path d="M13.1091 18.1044C12.7574 18.1044 12.42 17.9646 12.1713 17.7159C11.9226 17.4672 11.7828 17.1298 11.7828 16.7781V8.82039C11.7828 8.46864 11.9226 8.1313 12.1713 7.88257C12.42 7.63384 12.7574 7.49411 13.1091 7.49411C13.4609 7.49411 13.7982 7.63384 14.047 7.88257C14.2957 8.1313 14.4354 8.46864 14.4354 8.82039V16.7781C14.4354 17.1298 14.2957 17.4672 14.047 17.7159C13.7982 17.9646 13.4609 18.1044 13.1091 18.1044Z" fill="#475564"/>
<path d="M17.088 14.1256H9.13029C8.77853 14.1256 8.44119 13.9859 8.19246 13.7372C7.94374 13.4884 7.804 13.1511 7.804 12.7993C7.804 12.4476 7.94374 12.1102 8.19246 11.8615C8.44119 11.6128 8.77853 11.4731 9.13029 11.4731H17.088C17.4397 11.4731 17.7771 11.6128 18.0258 11.8615C18.2745 12.1102 18.4143 12.4476 18.4143 12.7993C18.4143 13.1511 18.2745 13.4884 18.0258 13.7372C17.7771 13.9859 17.4397 14.1256 17.088 14.1256Z" fill="#475564"/>
<path fill-rule="evenodd" clip-rule="evenodd" d="M15.5594 19.5901C15.7527 19.4495 17.0062 17.9726 17.2786 17.6606L22.3625 11.8521C23.6671 10.3727 24.2041 8.23378 23.4643 6.13959C22.8921 4.51965 21.5058 3.033 19.5253 2.92198C17.1854 2.79082 16.0448 4.46344 15.0813 5.56407C14.4117 6.32899 13.8777 7.23145 12.9639 6.92808C12.093 6.63894 10.7624 4.15379 9.28574 3.4069C8.44317 2.98073 7.47374 2.78525 6.46177 3.02948C4.80519 3.42933 3.30898 4.96742 3.00144 6.80758C2.6592 8.67843 3.0003 10.103 3.96178 11.4642C4.45303 12.1597 8.19187 16.2 8.46595 16.6572C9.07732 17.6769 8.35852 18.977 7.37655 18.9525C6.80015 18.9381 6.5473 18.5544 6.24451 18.2084C5.3227 17.1549 2.28369 13.7715 1.75463 12.999C0.882667 11.7259 0.402571 10.2159 0.309905 8.67543V7.56696C0.446385 5.29688 1.42029 3.06777 3.22118 1.53688C5.91102 -0.74968 9.84891 -0.50513 12.3952 2.40696C12.6317 2.67749 13.0855 3.25653 13.3228 3.43813C13.7391 3.11955 14.4149 2.04653 15.4161 1.29915C16.1256 0.769463 17.2743 0.203387 18.308 0.0729048C20.0805 -0.15084 21.7604 0.252203 23.0928 1.2769C24.3141 2.21606 25.2279 3.39136 25.8064 4.97264C26.1031 5.78387 26.2939 6.75177 26.3357 7.74843V8.56982C26.3041 9.312 26.1845 10.0508 25.9593 10.7344C25.3195 12.6766 24.6952 13.3009 23.451 14.7228L14.5301 24.9182C14.1883 25.3088 13.9284 25.7338 13.2209 25.6911C12.606 25.6539 12.3471 25.1828 12.0139 24.802C11.6711 24.4102 11.3655 24.0609 11.0227 23.6692C10.7014 23.302 10.2679 22.9445 10.1818 22.3638C10.0736 21.6344 10.4314 21.0673 10.8008 20.8304C11.2974 20.512 11.9349 20.6081 12.295 20.9952C12.5865 21.3086 13.0317 21.9214 13.3228 22.1442L15.5594 19.5901L15.5594 19.5901Z" fill="#475564"/>
</svg>
