<svg width="25" height="24" viewBox="0 0 25 24" fill="none" xmlns="http://www.w3.org/2000/svg">
<path fill-rule="evenodd" clip-rule="evenodd" d="M14.5798 18.2985C14.7604 18.1672 15.9312 16.7876 16.1856 16.4962L20.9344 11.0707C22.1529 9.68877 22.6545 7.69091 21.9635 5.73479C21.429 4.22167 20.1341 2.83303 18.2843 2.72933C16.0986 2.60681 15.0332 4.16916 14.1332 5.19722C13.5077 5.91171 13.009 6.75467 12.1554 6.47131C11.342 6.20122 10.0991 3.87992 8.71977 3.18228C7.93275 2.78421 7.02724 2.60162 6.08199 2.82974C4.53463 3.20323 3.13707 4.63991 2.8498 6.35874C2.53013 8.10625 2.84874 9.43687 3.74683 10.7083C4.20569 11.358 7.69802 15.132 7.95403 15.559C8.52509 16.5115 7.85369 17.7258 6.93645 17.7029C6.39806 17.6895 6.16188 17.3311 5.87905 17.0079C5.01802 16.0238 2.17938 12.8635 1.6852 12.142C0.870727 10.9528 0.422284 9.54234 0.335728 8.10344V7.06806C0.46321 4.94765 1.3729 2.86551 3.05506 1.43555C5.56755 -0.700253 9.24581 -0.471826 11.6242 2.24826C11.8451 2.50096 12.2691 3.04182 12.4907 3.21145C12.8795 2.91387 13.5108 1.9116 14.4459 1.2135C15.1087 0.718731 16.1816 0.189977 17.1472 0.0680981C18.8028 -0.140895 20.3719 0.235575 21.6166 1.19271C22.7573 2.06996 23.6108 3.16776 24.1512 4.64479C24.4284 5.40253 24.6065 6.30662 24.6456 7.23757V8.0048C24.616 8.69804 24.5043 9.38814 24.294 10.0266C23.6964 11.8408 23.1133 12.424 21.9511 13.7521L13.6183 23.2753C13.2991 23.6401 13.0563 24.0371 12.3955 23.9972C11.8211 23.9625 11.5793 23.5225 11.2681 23.1668C10.9478 22.8008 10.6624 22.4746 10.3422 22.1086C10.0421 21.7657 9.6372 21.4318 9.55676 20.8893C9.45572 20.2081 9.78989 19.6783 10.1349 19.457C10.5988 19.1596 11.1943 19.2494 11.5306 19.6109C11.8029 19.9037 12.2187 20.4761 12.4907 20.6842L14.5798 18.2985L14.5798 18.2985Z" fill="#475564"/>
</svg>
