<svg width="29" height="24" viewBox="0 0 29 24" fill="none" xmlns="http://www.w3.org/2000/svg">
<path d="M27.6852 21.8182H13.5034C13.2141 21.8182 12.9366 21.7032 12.732 21.4987C12.5274 21.2941 12.4125 21.0166 12.4125 20.7273C12.4125 20.4379 12.5274 20.1605 12.732 19.9559C12.9366 19.7513 13.2141 19.6364 13.5034 19.6364H27.6852C27.9745 19.6364 28.252 19.7513 28.4566 19.9559C28.6612 20.1605 28.7761 20.4379 28.7761 20.7273C28.7761 21.0166 28.6612 21.2941 28.4566 21.4987C28.252 21.7032 27.9745 21.8182 27.6852 21.8182Z" fill="#475564"/>
<path d="M27.6852 13.0909H24.4125C24.1232 13.0909 23.8457 12.976 23.6411 12.7714C23.4365 12.5668 23.3216 12.2893 23.3216 12C23.3216 11.7107 23.4365 11.4332 23.6411 11.2286C23.8457 11.024 24.1232 10.9091 24.4125 10.9091H27.6852C27.9745 10.9091 28.252 11.024 28.4566 11.2286C28.6612 11.4332 28.7761 11.7107 28.7761 12C28.7761 12.2893 28.6612 12.5668 28.4566 12.7714C28.252 12.976 27.9745 13.0909 27.6852 13.0909Z" fill="#475564"/>
<path d="M27.6852 4.36364H9.13977C8.85044 4.36364 8.57296 4.24871 8.36838 4.04412C8.16379 3.83954 8.04886 3.56206 8.04886 3.27273C8.04886 2.98341 8.16379 2.70593 8.36838 2.50134C8.57296 2.29676 8.85044 2.18182 9.13977 2.18182H27.6852C27.9745 2.18182 28.252 2.29676 28.4566 2.50134C28.6612 2.70593 28.7761 2.98341 28.7761 3.27273C28.7761 3.56206 28.6612 3.83954 28.4566 4.04412C28.252 4.24871 27.9745 4.36364 27.6852 4.36364Z" fill="#475564"/>
<path d="M4.77613 4.36364H1.5034C1.21407 4.36364 0.936596 4.24871 0.732011 4.04412C0.527426 3.83954 0.412491 3.56206 0.412491 3.27273C0.412491 2.98341 0.527426 2.70593 0.732011 2.50134C0.936596 2.29676 1.21407 2.18182 1.5034 2.18182H4.77613C5.06545 2.18182 5.34293 2.29676 5.54752 2.50134C5.7521 2.70593 5.86704 2.98341 5.86704 3.27273C5.86704 3.56206 5.7521 3.83954 5.54752 4.04412C5.34293 4.24871 5.06545 4.36364 4.77613 4.36364Z" fill="#475564"/>
<path d="M20.0489 13.0909H1.5034C1.21407 13.0909 0.936596 12.976 0.732011 12.7714C0.527426 12.5668 0.412491 12.2893 0.412491 12C0.412491 11.7107 0.527426 11.4332 0.732011 11.2286C0.936596 11.024 1.21407 10.9091 1.5034 10.9091H20.0489C20.3382 10.9091 20.6157 11.024 20.8202 11.2286C21.0248 11.4332 21.1398 11.7107 21.1398 12C21.1398 12.2893 21.0248 12.5668 20.8202 12.7714C20.6157 12.976 20.3382 13.0909 20.0489 13.0909Z" fill="#475564"/>
<path d="M9.13976 21.8182H1.5034C1.21407 21.8182 0.936596 21.7032 0.732011 21.4987C0.527426 21.2941 0.412491 21.0166 0.412491 20.7273C0.412491 20.4379 0.527426 20.1605 0.732011 19.9559C0.936596 19.7513 1.21407 19.6364 1.5034 19.6364H9.13976C9.42909 19.6364 9.70657 19.7513 9.91115 19.9559C10.1157 20.1605 10.2307 20.4379 10.2307 20.7273C10.2307 21.0166 10.1157 21.2941 9.91115 21.4987C9.70657 21.7032 9.42909 21.8182 9.13976 21.8182Z" fill="#475564"/>
<path d="M22.2307 15.2727C21.5834 15.2727 20.9506 15.0808 20.4124 14.7212C19.8742 14.3616 19.4548 13.8504 19.2071 13.2524C18.9594 12.6544 18.8946 11.9964 19.0208 11.3615C19.1471 10.7267 19.4588 10.1435 19.9165 9.68583C20.3742 9.22813 20.9574 8.91643 21.5922 8.79015C22.227 8.66387 22.8851 8.72868 23.4831 8.97639C24.0811 9.22409 24.5922 9.64357 24.9518 10.1818C25.3115 10.72 25.5034 11.3527 25.5034 12C25.5034 12.868 25.1586 13.7004 24.5448 14.3142C23.9311 14.9279 23.0987 15.2727 22.2307 15.2727ZM22.2307 10.9091C22.0149 10.9091 21.804 10.9731 21.6246 11.0929C21.4452 11.2128 21.3054 11.3832 21.2228 11.5825C21.1402 11.7819 21.1186 12.0012 21.1607 12.2128C21.2028 12.4244 21.3067 12.6188 21.4593 12.7714C21.6119 12.9239 21.8062 13.0278 22.0178 13.0699C22.2295 13.112 22.4488 13.0904 22.6481 13.0079C22.8475 12.9253 23.0179 12.7855 23.1377 12.6061C23.2576 12.4267 23.3216 12.2158 23.3216 12C23.3216 11.7107 23.2067 11.4332 23.0021 11.2286C22.7975 11.024 22.52 10.9091 22.2307 10.9091Z" fill="#475564"/>
<path d="M11.3216 24C10.6743 24 10.0416 23.8081 9.50336 23.4485C8.96516 23.0889 8.54569 22.5777 8.29798 21.9797C8.05028 21.3817 7.98547 20.7237 8.11174 20.0888C8.23802 19.454 8.54972 18.8708 9.00742 18.4131C9.46512 17.9554 10.0483 17.6437 10.6831 17.5174C11.318 17.3912 11.976 17.456 12.574 17.7037C13.172 17.9514 13.6831 18.3709 14.0428 18.9091C14.4024 19.4473 14.5943 20.08 14.5943 20.7273C14.5943 21.5953 14.2495 22.4277 13.6358 23.0415C13.022 23.6552 12.1896 24 11.3216 24ZM11.3216 19.6364C11.1058 19.6364 10.8949 19.7004 10.7155 19.8202C10.5361 19.9401 10.3963 20.1105 10.3137 20.3098C10.2312 20.5092 10.2095 20.7285 10.2516 20.9401C10.2937 21.1517 10.3976 21.3461 10.5502 21.4987C10.7028 21.6512 10.8971 21.7551 11.1088 21.7972C11.3204 21.8393 11.5397 21.8177 11.7391 21.7352C11.9384 21.6526 12.1088 21.5128 12.2286 21.3334C12.3485 21.154 12.4125 20.943 12.4125 20.7273C12.4125 20.438 12.2976 20.1605 12.093 19.9559C11.8884 19.7513 11.6109 19.6364 11.3216 19.6364Z" fill="#475564"/>
<path d="M6.95794 6.54546C6.31066 6.54546 5.67791 6.35351 5.13971 5.9939C4.60151 5.63429 4.18204 5.12316 3.93433 4.52515C3.68663 3.92713 3.62182 3.2691 3.7481 2.63425C3.87438 1.9994 4.18607 1.41626 4.64377 0.958561C5.10147 0.500862 5.68462 0.189165 6.31946 0.062886C6.95431 -0.0633929 7.61235 0.00141803 8.21036 0.249123C8.80837 0.496828 9.3195 0.916301 9.67911 1.4545C10.0387 1.9927 10.2307 2.62544 10.2307 3.27273C10.2307 4.14071 9.88586 4.97314 9.27211 5.5869C8.65835 6.20065 7.82592 6.54546 6.95794 6.54546ZM6.95794 2.18182C6.74218 2.18182 6.53126 2.2458 6.35186 2.36567C6.17246 2.48554 6.03264 2.65592 5.95007 2.85526C5.8675 3.05459 5.8459 3.27394 5.88799 3.48555C5.93009 3.69717 6.03398 3.89155 6.18655 4.04412C6.33912 4.19668 6.5335 4.30058 6.74511 4.34268C6.95673 4.38477 7.17608 4.36317 7.37541 4.2806C7.57475 4.19803 7.74513 4.0582 7.865 3.87881C7.98487 3.69941 8.04885 3.48849 8.04885 3.27273C8.04885 2.9834 7.93391 2.70592 7.72933 2.50134C7.52474 2.29675 7.24727 2.18182 6.95794 2.18182Z" fill="#475564"/>
</svg>
