<svg width="24" height="24" viewBox="0 0 24 24" fill="none" xmlns="http://www.w3.org/2000/svg">
<path d="M12 0C5.38 0 0 5.38 0 12C0 18.62 5.38 24 12 24C18.62 24 24 18.62 24 12C24 5.38 18.62 0 12 0ZM12 22C6.48 22 2 17.52 2 12C2 6.48 6.48 2 12 2C17.52 2 22 6.48 22 12C22 17.52 17.52 22 12 22Z" fill="#475564"/>
<path d="M12.8601 5.10001C10.9401 4.62001 8.80006 5.84001 8.22006 7.72001C8.04006 8.26001 8.34006 8.82 8.86006 8.98C9.38006 9.14 9.94006 8.86 10.1201 8.32C10.4001 7.44 11.4801 6.82 12.4001 7.04C13.3001 7.26 13.9801 8.32 13.8001 9.24C13.6401 10.16 12.6601 10.9 11.7201 10.78C11.4401 10.74 11.1401 10.84 10.9401 11.02C10.7201 11.22 10.6001 11.48 10.6001 11.78L10.5801 14.9C10.5801 15.46 11.0201 15.9 11.5801 15.9C12.1401 15.9 12.5801 15.46 12.5801 14.9L12.6001 12.72C14.1401 12.42 15.5001 11.16 15.7801 9.58C16.1401 7.64 14.8001 5.58001 12.8601 5.10001Z" fill="#475564"/>
<path d="M11.62 16.78H11.6C11.06 16.78 10.62 17.24 10.6 17.78C10.6 17.8 10.6 17.98 10.6 18C10.6 18.54 11.04 18.9 11.58 18.92H11.6C12.14 18.92 12.58 18.42 12.6 17.88C12.6 17.86 12.6 17.74 12.6 17.72C12.58 17.18 12.16 16.78 11.62 16.78Z" fill="#475564"/>
</svg>
