<svg width="25" height="25" viewBox="0 0 25 25" fill="none" xmlns="http://www.w3.org/2000/svg">
<path d="M2.21128 0.957676C1.85982 0.6062 1.28997 0.606188 0.938504 0.957652C0.587027 1.30912 0.587015 1.87897 0.93848 2.23043L7.87483 9.16692V12.694C7.87483 15.3449 10.0238 17.4939 12.6748 17.4939C13.675 17.4939 14.6036 17.188 15.3725 16.6647L16.7475 18.0398C15.6959 18.8273 14.3898 19.2939 12.9748 19.2939H12.3748L12.1151 19.2886C8.75616 19.1524 6.07484 16.3863 6.07484 12.994V12.394L6.06662 12.2718C6.00703 11.8326 5.63049 11.494 5.17485 11.494C4.6778 11.494 4.27486 11.8969 4.27486 12.394V12.994L4.27973 13.2775C4.42225 17.4195 7.6747 20.7718 11.7748 21.072V23.7939L11.783 23.916C11.8426 24.3552 12.2191 24.6938 12.6748 24.6938C13.1718 24.6938 13.5748 24.2909 13.5748 23.7939L13.576 21.0719C15.2548 20.9488 16.7913 20.3139 18.0305 19.3228L23.138 24.4305C23.4894 24.7819 24.0593 24.7819 24.4108 24.4305C24.7623 24.079 24.7623 23.5091 24.4108 23.1576L2.21128 0.957676ZM14.0622 15.3545C13.6474 15.5713 13.1754 15.6939 12.6748 15.6939C11.018 15.6939 9.67481 14.3508 9.67481 12.694V10.9669L14.0622 15.3545Z" fill="#475564"/>
<path d="M15.6748 5.49402V11.8758L17.3909 13.5919C17.446 13.301 17.4748 13.0009 17.4748 12.694V5.49402C17.4748 2.84307 15.3257 0.694061 12.6748 0.694061C10.4573 0.694061 8.59115 2.19767 8.04006 4.24093L9.67483 5.87574V5.49402C9.67483 3.83718 11.018 2.49405 12.6748 2.49405C14.3316 2.49405 15.6748 3.83718 15.6748 5.49402Z" fill="#475564"/>
<path d="M18.9102 15.1112L20.2853 16.4864C20.7913 15.4289 21.0747 14.2445 21.0747 12.994V12.394L21.0666 12.2718C21.0069 11.8326 20.6304 11.494 20.1748 11.494C19.6777 11.494 19.2748 11.8969 19.2748 12.394V12.994L19.2695 13.2536C19.2432 13.903 19.1185 14.5271 18.9102 15.1112Z" fill="#475564"/>
</svg>
