<svg width="19" height="24" viewBox="0 0 19 24" fill="none" xmlns="http://www.w3.org/2000/svg">
<path d="M9.49481 4.00007C9.45416 4.00087 9.41442 4.01226 9.37951 4.03312C9.34461 4.05397 9.31574 4.08357 9.29577 4.11898C9.27579 4.1544 9.26539 4.19441 9.2656 4.23508C9.26581 4.27574 9.27661 4.31564 9.29695 4.35086C9.50962 4.70279 9.62594 5.10451 9.63421 5.51564C9.63912 6.14686 9.39578 6.75473 8.95668 7.20817C8.51757 7.66162 7.91787 7.92433 7.28688 7.93965C6.92113 7.94069 6.56014 7.85674 6.23239 7.69441C5.90463 7.53207 5.61907 7.2958 5.39822 7.00422C5.37223 6.97228 5.3384 6.94761 5.30003 6.93264C5.26166 6.91766 5.22007 6.91288 5.17931 6.91877C5.13854 6.92466 5.1 6.94101 5.06744 6.96624C5.03488 6.99146 5.00941 7.02469 4.99351 7.06269C4.7332 7.70894 4.61658 8.4041 4.65176 9.09993C4.69585 10.0546 5.01957 10.9753 5.58266 11.7475C6.14574 12.5197 6.92337 13.1093 7.81883 13.4431C8.7143 13.7768 9.68811 13.84 10.6192 13.6247C11.5502 13.4094 12.3975 12.9252 13.0556 12.2322C13.7137 11.5392 14.1536 10.668 14.3206 9.72699C14.4876 8.78598 14.3744 7.81663 13.995 6.93946C13.6155 6.06229 12.9867 5.31601 12.1866 4.7934C11.3865 4.2708 10.4504 3.99492 9.49481 4.00007Z" fill="#475564"/>
<path d="M9.52906 0C7.18145 0.0271427 4.93765 0.971787 3.27754 2.63191C1.61742 4.29202 0.672773 6.53582 0.64563 8.88343C0.676073 10.0813 0.951405 11.2602 1.45467 12.3476C1.95794 13.435 2.67848 14.4079 3.57194 15.2063C5.66215 17.4533 8.58846 23.3582 8.58846 23.4104C8.67404 23.5871 8.80766 23.7362 8.97401 23.8404C9.14037 23.9447 9.33273 24 9.52906 24C9.72539 24 9.91775 23.9447 10.0841 23.8404C10.2505 23.7362 10.3841 23.5871 10.4697 23.4104C10.5219 23.3582 13.4482 17.4533 15.4862 15.2063C16.3796 14.4079 17.1002 13.435 17.6034 12.3476C18.1067 11.2602 18.382 10.0813 18.4125 8.88343C18.3853 6.53582 17.4407 4.29202 15.7806 2.63191C14.1205 0.971787 11.8767 0.0271427 9.52906 0ZM14.023 13.7432H13.9708C12.4554 15.3631 10.5742 18.6552 9.52906 20.6932C8.43169 18.6552 6.60275 15.4154 5.08734 13.7432H5.03509C4.33651 13.1363 3.77147 12.391 3.37571 11.5545C2.97994 10.718 2.76206 9.80846 2.73585 8.88343C2.76282 7.09016 3.48719 5.37791 4.75536 4.10973C6.02354 2.84156 7.73579 2.11719 9.52906 2.09022C11.3223 2.11719 13.0346 2.84156 14.3028 4.10973C15.5709 5.37791 16.2953 7.09016 16.3223 8.88343C16.2961 9.80846 16.0782 10.718 15.6824 11.5545C15.2866 12.391 14.7216 13.1363 14.023 13.7432Z" fill="#475564"/>
</svg>
