<svg width="24" height="24" viewBox="0 0 24 24" fill="none" xmlns="http://www.w3.org/2000/svg">
<path d="M7.03436 11.2947C6.70382 10.9642 6.1667 10.9642 5.83615 11.2947C5.50563 11.6253 5.50563 12.1624 5.83615 12.493L9.74064 16.3974C9.90589 16.5627 10.1125 16.6453 10.3397 16.6453C10.3604 16.6453 10.3604 16.6453 10.3811 16.6453C10.6083 16.6247 10.8355 16.5214 11.0008 16.3355L20.7724 4.622C21.0616 4.27082 21.0203 3.7337 20.669 3.42381C20.3179 3.13459 19.7807 3.17589 19.4709 3.5271L10.2778 14.5381L7.03436 11.2947Z" fill="#475564"/>
<path d="M18.3139 1.83328C13.5624 -1.14156 7.4681 -0.439169 3.50164 3.5273C-1.16721 8.19615 -1.16721 15.8192 3.50164 20.488C5.83606 22.8225 8.91421 24 11.9717 24C15.0291 24 18.1073 22.8225 20.4417 20.488C24.4289 16.5009 25.1105 10.386 22.1151 5.63448C21.8673 5.24195 21.3507 5.118 20.9582 5.36592C20.5657 5.61382 20.4417 6.13027 20.6896 6.52278C23.2719 10.6132 22.6728 15.8605 19.2435 19.2898C15.2357 23.2977 8.68695 23.2977 4.67917 19.2898C0.671406 15.2821 0.671406 8.73327 4.67917 4.72549C8.10851 1.31681 13.3351 0.717714 17.4256 3.25872C17.8181 3.50664 18.3345 3.38269 18.5824 2.99016C18.8304 2.59765 18.7064 2.08118 18.3139 1.83328Z" fill="#475564"/>
</svg>
