<svg width="27" height="27" viewBox="0 0 27 27" fill="none" xmlns="http://www.w3.org/2000/svg">
<path d="M12.2126 6.05769H15.8562C16.4349 6.05769 16.9898 6.28756 17.399 6.69673C17.8081 7.1059 18.038 7.66086 18.038 8.23951V11.8831L19.1289 12.9741L25.6744 8.23951V19.1486M18.038 18.0577V19.1486C18.038 19.7273 17.8081 20.2822 17.399 20.6914C16.9898 21.1006 16.4349 21.3304 15.8562 21.3304H3.8562C3.27754 21.3304 2.72259 21.1006 2.31342 20.6914C1.90425 20.2822 1.67438 19.7273 1.67438 19.1486V8.23951C1.67438 7.66086 1.90425 7.1059 2.31342 6.69673C2.72259 6.28756 3.27754 6.05769 3.8562 6.05769H6.03801L18.038 18.0577Z" stroke="#475564" stroke-width="2" stroke-linecap="round" stroke-linejoin="round"/>
<path d="M1.67438 1.69406L25.6744 25.6941" stroke="#475564" stroke-width="2" stroke-linecap="round" stroke-linejoin="round"/>
</svg>
