<svg width="17" height="25" viewBox="0 0 17 25" fill="none" xmlns="http://www.w3.org/2000/svg">
<path fill-rule="evenodd" clip-rule="evenodd" d="M1.87491 18.1316C1.87491 17.0921 3.76385 17.1757 3.75053 14.9447C3.74049 13.258 3.74992 11.5685 3.74992 9.88154C3.74992 8.98486 3.77625 8.2905 4.01248 7.61294C4.31438 6.74689 4.91602 5.93216 5.61099 5.41462C5.87007 5.22162 6.08694 5.0782 6.38987 4.92782C7.65965 4.29738 9.21514 4.29738 10.4849 4.92782C10.7878 5.0782 11.0046 5.22162 11.2638 5.41462C11.9588 5.93216 12.5604 6.74689 12.8623 7.61294C13.0985 8.2906 13.1249 8.98486 13.1249 9.88154C13.1249 11.5685 13.1343 13.258 13.1242 14.9447C13.1109 17.1757 14.9999 17.092 14.9999 18.1316C14.9999 18.6626 14.5289 19.069 13.9686 19.069H2.9061C2.34573 19.069 1.87481 18.6626 1.87481 18.1316H1.87491ZM8.31425 0.694164H8.56053C8.88291 0.735038 9.18727 0.93726 9.33059 1.30093C9.45291 1.61113 9.37484 2.21913 9.37484 2.61609C9.56785 2.66106 9.82436 2.70757 9.99657 2.74445C10.852 2.92752 11.7093 3.37724 12.409 3.89448C12.6654 4.0841 13.1307 4.49295 13.3322 4.75254C13.6258 5.13055 13.7737 5.23637 14.0895 5.77645C14.59 6.63257 14.802 7.27642 14.9744 8.40718C15.0538 8.928 14.9999 13.1958 14.9999 14.1004C14.9999 14.6083 14.9526 15.0745 15.1472 15.4063C15.3453 15.7441 16.0432 15.8312 16.5627 16.8032C16.8595 17.3583 16.8749 17.7628 16.8749 18.3661C16.8749 18.9393 16.467 19.7374 16.0674 20.1368L15.2943 20.6761C15.0745 20.7825 14.5969 20.9442 14.2968 20.9442H2.57807C2.25538 20.9442 1.7741 20.7687 1.54668 20.6631C1.17758 20.4918 0.755413 20.1059 0.514877 19.773C0.0671 19.153 0 18.685 0 17.9442C0 17.2532 0.454026 16.3906 0.936839 16.0216C1.10146 15.8958 1.17 15.8271 1.37437 15.7092C1.96741 15.3671 1.87491 14.9637 1.87491 14.1004C1.87491 13.1473 1.87491 12.1942 1.87491 11.2411C1.87491 9.15962 1.66592 7.78259 2.68615 5.95859C3.13823 5.15042 3.47517 4.76247 4.13582 4.17384C4.58872 3.77031 4.86429 3.60743 5.38777 3.31639C6.18273 2.87456 6.64095 2.81606 7.49983 2.61599C7.49983 2.21902 7.42177 1.61113 7.54409 1.30083C7.68741 0.937158 7.99176 0.734936 8.31415 0.694061L8.31425 0.694164Z" fill="#475564"/>
<path fill-rule="evenodd" clip-rule="evenodd" d="M5.62467 23.616V23.8972C5.62467 24.2408 6.07798 24.6941 6.42158 24.6941H10.4528C10.7964 24.6941 11.2497 24.2408 11.2497 23.8972V23.616C11.2497 23.2724 10.7964 22.8191 10.4528 22.8191H6.42158C6.07798 22.8191 5.62467 23.2724 5.62467 23.616Z" fill="#475564"/>
</svg>
