<svg width="34" height="24" viewBox="0 0 34 24" fill="none" xmlns="http://www.w3.org/2000/svg">
<path d="M19.9956 6.00441C19.9956 9.30684 22.6976 12.0088 26 12.0088C29.3024 12.0088 32.0044 9.30684 32.0044 6.00441C32.0044 2.70199 29.3024 0 26 0C22.6976 0 19.9956 2.70199 19.9956 6.00441ZM30.5916 6.00441C30.5916 8.5298 28.5254 10.596 26 10.596C23.4746 10.596 21.4084 8.5298 21.4084 6.00441C21.4084 3.47903 23.4746 1.4128 26 1.4128C28.5254 1.4128 30.5916 3.47903 30.5916 6.00441Z" fill="#475564"/>
<path d="M19.0066 18.4371C20.8786 16.5651 23.351 15.5408 26 15.5408C28.649 15.5408 31.1214 16.5651 32.9934 18.4371L34 17.4305C31.8631 15.3113 29.0199 14.128 26 14.128C22.9801 14.128 20.1369 15.3113 18 17.4305L19.0066 18.4371Z" fill="#475564"/>
<path d="M2.59772 7.81609C2.59772 12.1149 6.11496 15.6322 10.4138 15.6322C14.7127 15.6322 18.2299 12.1149 18.2299 7.81609C18.2299 3.51724 14.7127 0 10.4138 0C6.11496 0 2.59772 3.51724 2.59772 7.81609ZM16.3908 7.81609C16.3908 11.1034 13.7012 13.7931 10.4138 13.7931C7.12645 13.7931 4.4368 11.1034 4.4368 7.81609C4.4368 4.52874 7.12645 1.83908 10.4138 1.83908C13.7012 1.83908 16.3908 4.52874 16.3908 7.81609Z" fill="#475564"/>
<path d="M1.31034 24C3.74713 21.5632 6.96552 20.2299 10.4138 20.2299C13.8621 20.2299 17.0805 21.5632 19.5172 24L20.8276 22.6897C18.046 19.931 14.3448 18.3908 10.4138 18.3908C6.48276 18.3908 2.78161 19.931 0 22.6897L1.31034 24Z" fill="#475564"/>
</svg>
