<svg width="30" height="24" viewBox="0 0 30 24" fill="none" xmlns="http://www.w3.org/2000/svg">
<path fill-rule="evenodd" clip-rule="evenodd" d="M27.3913 24H2.6087C1.16804 24 0 22.7358 0 21.1765V5.64706C0 4.08776 1.16804 2.82353 2.6087 2.82353H3.26087C3.26087 2.04424 3.84522 1.41176 4.56522 1.41176H5.86957C6.58957 1.41176 7.17391 2.04424 7.17391 2.82353H8.47826C8.47826 2.82353 9.21196 2.73529 9.78261 2.11765L11.087 0.705882C11.087 0.705882 11.5963 0 12.3913 0H17.6087C18.4643 0 18.913 0.705882 18.913 0.705882L20.2174 2.11765C20.788 2.73529 21.5217 2.82353 21.5217 2.82353H27.3913C28.832 2.82353 30 4.08776 30 5.64706V21.1765C30 22.7358 28.832 24 27.3913 24ZM28.6957 5.64706C28.6957 4.86776 28.1113 4.23529 27.3913 4.23529L21.3776 4.22612C21.1787 4.20282 20.1457 4.03624 19.2952 3.11576L17.9061 1.61224L17.8383 1.50565C17.8376 1.50494 17.7365 1.41176 17.6087 1.41176H12.3913C12.2915 1.41176 12.1467 1.53741 12.1148 1.57482L12.0659 1.64259L10.7048 3.11506C9.8537 4.03624 8.82065 4.20212 8.62239 4.22541L5.91522 4.22965C5.89957 4.23106 5.88457 4.23529 5.86957 4.23529H4.56522C4.55609 4.23529 4.54826 4.23247 4.53913 4.23247L2.6087 4.23529C1.8887 4.23529 1.30435 4.86776 1.30435 5.64706V21.1765C1.30435 21.9558 1.8887 22.5882 2.6087 22.5882H27.3913C28.1113 22.5882 28.6957 21.9558 28.6957 21.1765V5.64706ZM15 21.1765C11.038 21.1765 7.82609 17.7 7.82609 13.4118C7.82609 9.12353 11.038 5.64706 15 5.64706C18.962 5.64706 22.1739 9.12353 22.1739 13.4118C22.1739 17.7 18.962 21.1765 15 21.1765ZM15 7.05882C11.758 7.05882 9.13044 9.90282 9.13044 13.4118C9.13044 16.9207 11.758 19.7647 15 19.7647C18.242 19.7647 20.8696 16.9207 20.8696 13.4118C20.8696 9.90282 18.242 7.05882 15 7.05882ZM15 16.9412C13.1987 16.9412 11.7391 15.3614 11.7391 13.4118C11.7391 11.4621 13.1987 9.88235 15 9.88235C16.8013 9.88235 18.2609 11.4621 18.2609 13.4118C18.2609 15.3614 16.8013 16.9412 15 16.9412ZM15 11.2941C13.92 11.2941 13.0435 12.2428 13.0435 13.4118C13.0435 14.5814 13.92 15.5294 15 15.5294C16.0807 15.5294 16.9565 14.5814 16.9565 13.4118C16.9565 12.2428 16.0807 11.2941 15 11.2941ZM5.86957 8.47059H3.26087C2.90022 8.47059 2.6087 8.15506 2.6087 7.76471V6.35294C2.6087 5.96329 2.90022 5.64706 3.26087 5.64706H5.86957C6.23022 5.64706 6.52174 5.96329 6.52174 6.35294V7.76471C6.52174 8.15506 6.23022 8.47059 5.86957 8.47059Z" fill="#475564"/>
</svg>
