<svg width="26" height="25" viewBox="0 0 26 25" fill="none" xmlns="http://www.w3.org/2000/svg">
<path d="M19.9309 24.6941C19.7763 24.6946 19.6239 24.6572 19.4871 24.585L12.7509 21.0426L6.01354 24.585C5.85652 24.6671 5.67968 24.7038 5.50295 24.6908C5.32622 24.6778 5.15663 24.6157 5.01331 24.5115C4.87 24.4072 4.75865 24.265 4.69183 24.1009C4.625 23.9368 4.60536 23.7573 4.63512 23.5826L5.92224 16.0805L0.469415 10.7672C0.342254 10.6433 0.252289 10.4864 0.209698 10.314C0.167108 10.1417 0.173591 9.96091 0.228415 9.79209C0.28324 9.62326 0.384217 9.47314 0.519922 9.35872C0.655628 9.2443 0.820647 9.17014 0.99631 9.14463L8.52945 8.05026L11.8982 1.22409C11.9767 1.06499 12.0982 0.931029 12.2489 0.837364C12.3996 0.743699 12.5735 0.694061 12.7509 0.694061C12.9284 0.694061 13.1023 0.743699 13.253 0.837364C13.4037 0.931029 13.5252 1.06499 13.6037 1.22409L16.9724 8.05026L24.505 9.14463C24.6807 9.17004 24.8458 9.24413 24.9816 9.35851C25.1173 9.4729 25.2184 9.623 25.2733 9.79185C25.3282 9.96069 25.3347 10.1415 25.2922 10.3139C25.2496 10.4863 25.1597 10.6433 25.0325 10.7672L19.5797 16.0805L20.8668 23.5826C20.8901 23.719 20.8834 23.8589 20.8471 23.9925C20.8108 24.1261 20.7457 24.2502 20.6565 24.356C20.5672 24.4619 20.4559 24.547 20.3304 24.6054C20.2049 24.6637 20.0681 24.694 19.9297 24.6941H19.9309ZM3.17681 10.75L7.60564 15.0673C7.71577 15.1746 7.79822 15.3071 7.84593 15.4533C7.89363 15.5995 7.90517 15.7551 7.87955 15.9068L6.834 22.0025L12.3071 19.1265C12.4439 19.0543 12.5963 19.0166 12.7509 19.0166C12.9056 19.0166 13.058 19.0543 13.1948 19.1265L18.6692 22.0044L17.6223 15.9068C17.5963 15.7549 17.6076 15.5989 17.6552 15.4524C17.7028 15.3058 17.7853 15.173 17.8956 15.0654L22.3251 10.75L16.2046 9.86238C16.0521 9.8402 15.9073 9.78129 15.7826 9.69072C15.6579 9.60015 15.557 9.48063 15.4888 9.34246L12.7509 3.79643L10.0138 9.34246C9.94544 9.48071 9.84452 9.60028 9.7197 9.69086C9.59488 9.78143 9.44991 9.8403 9.29728 9.86238L3.17681 10.75Z" fill="#475564"/>
</svg>
