<svg width="25" height="24" viewBox="0 0 25 24" fill="none" xmlns="http://www.w3.org/2000/svg">
<path d="M20.1658 24H5.3966C4.17253 24 2.99859 23.5137 2.13303 22.6482C1.26748 21.7826 0.781219 20.6087 0.781219 19.3846V6.46155C0.781219 5.23747 1.26748 4.06353 2.13303 3.19798C2.99859 2.33242 4.17253 1.84616 5.3966 1.84616H20.1658C21.3899 1.84616 22.5639 2.33242 23.4294 3.19798C24.295 4.06353 24.7812 5.23747 24.7812 6.46155V19.3846C24.7812 20.6087 24.295 21.7826 23.4294 22.6482C22.5639 23.5137 21.3899 24 20.1658 24ZM5.3966 3.69231C4.66216 3.69231 3.95779 3.98407 3.43846 4.5034C2.91913 5.02274 2.62737 5.7271 2.62737 6.46155V19.3846C2.62737 20.1191 2.91913 20.8234 3.43846 21.3428C3.95779 21.8621 4.66216 22.1539 5.3966 22.1539H20.1658C20.9003 22.1539 21.6046 21.8621 22.124 21.3428C22.6433 20.8234 22.9351 20.1191 22.9351 19.3846V6.46155C22.9351 5.7271 22.6433 5.02274 22.124 4.5034C21.6046 3.98407 20.9003 3.69231 20.1658 3.69231H5.3966Z" fill="#475564"/>
<path d="M20.1658 20.3077H16.4735C16.2287 20.3077 15.9939 20.2104 15.8208 20.0373C15.6477 19.8642 15.5505 19.6294 15.5505 19.3846V15.6923C15.5505 15.4475 15.6477 15.2127 15.8208 15.0396C15.9939 14.8665 16.2287 14.7692 16.4735 14.7692H20.1658C20.4107 14.7692 20.6454 14.8665 20.8186 15.0396C20.9917 15.2127 21.0889 15.4475 21.0889 15.6923V19.3846C21.0889 19.6294 20.9917 19.8642 20.8186 20.0373C20.6454 20.2104 20.4107 20.3077 20.1658 20.3077ZM17.3966 18.4615H19.2428V16.6154H17.3966V18.4615Z" fill="#475564"/>
<path d="M23.8581 9.23077H1.7043C1.45948 9.23077 1.22469 9.13351 1.05158 8.9604C0.878472 8.78729 0.781219 8.55251 0.781219 8.30769C0.781219 8.06287 0.878472 7.82809 1.05158 7.65498C1.22469 7.48187 1.45948 7.38461 1.7043 7.38461H23.8581C24.103 7.38461 24.3377 7.48187 24.5109 7.65498C24.684 7.82809 24.7812 8.06287 24.7812 8.30769C24.7812 8.55251 24.684 8.78729 24.5109 8.9604C24.3377 9.13351 24.103 9.23077 23.8581 9.23077Z" fill="#475564"/>
<path d="M8.16584 5.53846C7.92102 5.53846 7.68623 5.44121 7.51312 5.2681C7.34001 5.09499 7.24276 4.8602 7.24276 4.61538V0.923077C7.24276 0.678262 7.34001 0.443473 7.51312 0.270363C7.68623 0.0972524 7.92102 0 8.16584 0C8.41065 0 8.64544 0.0972524 8.81855 0.270363C8.99166 0.443473 9.08891 0.678262 9.08891 0.923077V4.61538C9.08891 4.8602 8.99166 5.09499 8.81855 5.2681C8.64544 5.44121 8.41065 5.53846 8.16584 5.53846Z" fill="#475564"/>
<path d="M17.3966 5.53846C17.1518 5.53846 16.917 5.44121 16.7439 5.2681C16.5708 5.09499 16.4735 4.8602 16.4735 4.61538V0.923077C16.4735 0.678262 16.5708 0.443473 16.7439 0.270363C16.917 0.0972524 17.1518 0 17.3966 0C17.6414 0 17.8762 0.0972524 18.0493 0.270363C18.2224 0.443473 18.3197 0.678262 18.3197 0.923077V4.61538C18.3197 4.8602 18.2224 5.09499 18.0493 5.2681C17.8762 5.44121 17.6414 5.53846 17.3966 5.53846Z" fill="#475564"/>
</svg>
