<svg width="92" height="12" viewBox="0 0 92 12" fill="none" xmlns="http://www.w3.org/2000/svg">
<circle cx="1" cy="1" r="1" fill="#808F9D"/>
<circle cx="6" cy="1" r="1" fill="#808F9D"/>
<circle cx="11" cy="1" r="1" fill="#808F9D"/>
<circle cx="16" cy="1" r="1" fill="#808F9D"/>
<circle cx="21" cy="1" r="1" fill="#808F9D"/>
<circle cx="26" cy="1" r="1" fill="#808F9D"/>
<circle cx="31" cy="1" r="1" fill="#808F9D"/>
<circle cx="36" cy="1" r="1" fill="#808F9D"/>
<circle cx="41" cy="1" r="1" fill="#808F9D"/>
<circle cx="46" cy="1" r="1" fill="#808F9D"/>
<circle cx="51" cy="1" r="1" fill="#808F9D"/>
<circle cx="56" cy="1" r="1" fill="#808F9D"/>
<circle cx="61" cy="1" r="1" fill="#808F9D"/>
<circle cx="66" cy="1" r="1" fill="#808F9D"/>
<circle cx="71" cy="1" r="1" fill="#808F9D"/>
<circle cx="76" cy="1" r="1" fill="#808F9D"/>
<circle cx="81" cy="1" r="1" fill="#808F9D"/>
<circle cx="86" cy="1" r="1" fill="#808F9D"/>
<circle cx="91" cy="1" r="1" fill="#808F9D"/>
<circle cx="1" cy="6" r="1" fill="#808F9D"/>
<circle cx="6" cy="6" r="1" fill="#808F9D"/>
<circle cx="11" cy="6" r="1" fill="#808F9D"/>
<circle cx="16" cy="6" r="1" fill="#808F9D"/>
<circle cx="21" cy="6" r="1" fill="#808F9D"/>
<circle cx="26" cy="6" r="1" fill="#808F9D"/>
<circle cx="31" cy="6" r="1" fill="#808F9D"/>
<circle cx="36" cy="6" r="1" fill="#808F9D"/>
<circle cx="41" cy="6" r="1" fill="#808F9D"/>
<circle cx="46" cy="6" r="1" fill="#808F9D"/>
<circle cx="51" cy="6" r="1" fill="#808F9D"/>
<circle cx="56" cy="6" r="1" fill="#808F9D"/>
<circle cx="61" cy="6" r="1" fill="#808F9D"/>
<circle cx="66" cy="6" r="1" fill="#808F9D"/>
<circle cx="71" cy="6" r="1" fill="#808F9D"/>
<circle cx="76" cy="6" r="1" fill="#808F9D"/>
<circle cx="81" cy="6" r="1" fill="#808F9D"/>
<circle cx="86" cy="6" r="1" fill="#808F9D"/>
<circle cx="91" cy="6" r="1" fill="#808F9D"/>
<circle cx="1" cy="11" r="1" fill="#808F9D"/>
<circle cx="6" cy="11" r="1" fill="#808F9D"/>
<circle cx="11" cy="11" r="1" fill="#808F9D"/>
<circle cx="16" cy="11" r="1" fill="#808F9D"/>
<circle cx="21" cy="11" r="1" fill="#808F9D"/>
<circle cx="26" cy="11" r="1" fill="#808F9D"/>
<circle cx="31" cy="11" r="1" fill="#808F9D"/>
<circle cx="36" cy="11" r="1" fill="#808F9D"/>
<circle cx="41" cy="11" r="1" fill="#808F9D"/>
<circle cx="46" cy="11" r="1" fill="#808F9D"/>
<circle cx="51" cy="11" r="1" fill="#808F9D"/>
<circle cx="56" cy="11" r="1" fill="#808F9D"/>
<circle cx="61" cy="11" r="1" fill="#808F9D"/>
<circle cx="66" cy="11" r="1" fill="#808F9D"/>
<circle cx="71" cy="11" r="1" fill="#808F9D"/>
<circle cx="76" cy="11" r="1" fill="#808F9D"/>
<circle cx="81" cy="11" r="1" fill="#808F9D"/>
<circle cx="86" cy="11" r="1" fill="#808F9D"/>
<circle cx="91" cy="11" r="1" fill="#808F9D"/>
</svg>
