<svg width="18" height="25" viewBox="0 0 18 25" fill="none" xmlns="http://www.w3.org/2000/svg">
<path fill-rule="evenodd" clip-rule="evenodd" d="M9.46836 10.4811C10.2996 11.3217 11.0207 11.644 12.3192 11.6147C12.5374 12.4246 12.745 12.854 12.7456 13.8219C12.7483 19.7721 4.62048 21.7109 2.0101 16.0335C1.1413 14.1439 1.58302 12.3568 2.42687 10.7708C1.91597 10.4199 1.91663 10.544 1.45563 10.1009C0.639386 10.8783 0.18736 13.1996 0.354334 14.6435C0.54459 16.2906 1.28533 17.7116 2.17341 18.5384C3.31329 19.6001 3.99349 20.2038 5.85981 20.5747C8.27361 21.0544 9.18963 20.2501 10.5141 19.8287C11.2901 20.5484 13.8995 24.1746 14.4367 24.489C15.3583 25.0281 15.9391 24.3785 16.3805 23.981C18.0066 22.5145 16.458 21.3318 15.5792 20.4852C14.6432 19.5832 13.6643 18.5754 12.7257 17.7278C12.9302 17.2559 13.2382 16.8807 13.4674 16.2989C14.444 13.8219 13.8892 12.7898 13.4272 10.8663C13.6417 10.5287 13.8446 10.4632 14.0495 10.0158C14.6525 8.69864 14.0092 7.63925 13.7927 6.829C13.2306 4.72653 13.3809 1.86503 11.6374 0.970286C11.1145 0.701865 9.82892 0.607069 9.20826 0.784686C8.39967 1.01619 8.34878 2.20862 9.02465 2.44943C10.24 2.88217 9.93203 1.56068 10.9053 2.07723C11.5346 2.41118 11.7704 2.96865 11.9281 3.82048C12.0448 4.45278 12.4599 6.7638 12.4283 7.34056C12.3897 8.04338 12.4958 7.91931 12.6166 8.49241C12.8005 9.36686 12.3382 10.1568 11.4518 9.83519C11.0024 9.6722 10.6235 9.17794 9.89977 8.71593C9.4208 8.41026 8.89294 7.8947 8.42827 7.51618C6.71164 6.1182 6.13022 5.86042 6.42326 4.35932C6.86364 4.22195 7.12275 4.28415 7.39117 3.92758C7.93168 3.21013 7.1753 1.56667 5.69982 3.2853C4.71294 4.43449 4.85431 6.10589 5.86912 7.12103L8.12991 9.05886C9.19096 9.95393 9.02931 10.0364 9.46969 10.4815L9.46836 10.4811Z" fill="#475564"/>
<path fill-rule="evenodd" clip-rule="evenodd" d="M4.53632 9.34057C5.20588 7.44 2.24692 6.5885 1.71174 8.45082C1.18388 10.2865 3.88938 11.1769 4.53632 9.34057Z" fill="#475564"/>
</svg>
