<svg width="26" height="26" viewBox="0 0 26 26" fill="none" xmlns="http://www.w3.org/2000/svg">
<path d="M19.1673 17.1594C19.741 16.8725 20.0279 16.7769 20.7928 16.7769C23.0876 16.7769 24.9044 18.5936 24.9044 20.8884C24.9044 23.1833 23.0876 25 20.7928 25C18.498 25 16.6813 23.1833 16.6813 20.8884C16.6813 20.506 16.6813 18.8805 16.9681 18.5936L8.93625 14.3865C8.36255 15.8207 6.83267 17.0637 5.11155 17.0637C2.81673 17.0637 1 15.247 1 12.9522C1 10.6574 2.81673 8.84064 5.11155 8.84064C5.97211 8.84064 6.92829 9.31873 7.31076 9.50996C7.69323 9.7012 8.74502 10.8486 8.74502 10.8486L16.6813 5.11155C16.6813 2.81673 18.498 1 20.7928 1C23.0876 1 24.9044 2.81673 24.9044 5.11155C24.9044 7.40637 23.0876 9.22311 20.7928 9.22311C19.6454 9.22311 18.5936 8.74502 17.9243 7.98008" stroke="#475564" stroke-width="2" stroke-miterlimit="10" stroke-linecap="round" stroke-linejoin="round"/>
</svg>
