<svg width="26" height="25" viewBox="0 0 26 25" fill="none" xmlns="http://www.w3.org/2000/svg">
<path d="M8.60727 8.41333C8.60727 8.41333 3.84676 8.9406 0.67107 9.29312C0.384837 9.32777 0.131747 9.51909 0.0368377 9.80984C-0.0580713 10.1006 0.0368375 10.4034 0.247746 10.5947C2.60691 12.7475 6.15169 15.9714 6.15169 15.9714C6.14867 15.9714 5.17849 20.6611 4.53372 23.7901C4.47948 24.0733 4.58192 24.3731 4.82899 24.5524C5.07455 24.7316 5.39091 24.7347 5.63948 24.5946C8.41745 23.0157 12.5784 20.6415 12.5784 20.6415C12.5784 20.6415 16.7408 23.0157 19.5143 24.5961C19.7674 24.7347 20.0837 24.7316 20.3293 24.5524C20.5763 24.3731 20.6788 24.0733 20.623 23.7916C19.9783 20.6611 19.0096 15.9714 19.0096 15.9714C19.0096 15.9714 22.5544 12.7475 24.9135 10.5992C25.1244 10.4019 25.2178 10.0991 25.1244 9.80984C25.031 9.5206 24.778 9.32927 24.4917 9.29613C21.316 8.9406 16.554 8.41333 16.554 8.41333C16.554 8.41333 14.5805 4.04751 13.2653 1.13697C13.1418 0.876347 12.8827 0.694061 12.5784 0.694061C12.2741 0.694061 12.0134 0.877853 11.8959 1.13697C10.5793 4.04751 8.60727 8.41333 8.60727 8.41333Z" fill="#475564"/>
</svg>
