<svg width="26" height="25" viewBox="0 0 26 25" fill="none" xmlns="http://www.w3.org/2000/svg">
<path d="M17.995 14.6827L21.8597 10.902L16.5062 10.1156L15.5138 9.96438L15.0626 9.05701L12.6716 4.18745V18.7508L13.5589 19.2196L18.3408 21.7602L17.4386 16.3916L17.2581 15.3935L17.995 14.6827ZM24.792 10.7205L19.3333 16.074L20.6266 23.6355C20.6767 23.9682 20.6466 24.2278 20.5363 24.4143C20.4261 24.6008 20.2556 24.6941 20.0251 24.6941C19.8546 24.6941 19.6541 24.6336 19.4236 24.5126L12.6716 20.9436L5.91971 24.5126C5.68913 24.6336 5.48863 24.6941 5.3182 24.6941C5.08762 24.6941 4.91719 24.6008 4.80692 24.4143C4.69664 24.2278 4.66657 23.9682 4.71669 23.6355L6.00993 16.074L0.536212 10.7205C0.215408 10.3979 0.100119 10.098 0.190346 9.82072C0.280572 9.54346 0.55125 9.36955 1.00238 9.29898L8.5513 8.19501L11.9348 1.3141C12.1353 0.900741 12.3809 0.694061 12.6716 0.694061C12.9523 0.694061 13.1979 0.900741 13.4085 1.3141L16.792 8.19501L24.3409 9.29898C24.792 9.36955 25.0627 9.54346 25.1529 9.82072C25.2431 10.098 25.1228 10.3979 24.792 10.7205Z" fill="#475564"/>
</svg>
