<svg width="25" height="25" viewBox="0 0 25 25" fill="none" xmlns="http://www.w3.org/2000/svg">
<path d="M12.0863 0.694061C5.45632 0.694061 0.0923157 6.06406 0.0923157 12.6941C0.0923157 19.3241 5.45632 24.6941 12.0863 24.6941C18.7163 24.6941 24.0923 19.3241 24.0923 12.6941C24.0923 6.06406 18.7163 0.694061 12.0863 0.694061ZM12.0923 22.2941C6.78832 22.2941 2.49232 17.9981 2.49232 12.6941C2.49232 7.39006 6.78832 3.09406 12.0923 3.09406C17.3963 3.09406 21.6923 7.39006 21.6923 12.6941C21.6923 17.9981 17.3963 22.2941 12.0923 22.2941Z" fill="#475564"/>
<path d="M12.6923 6.69406H10.8923V13.8941L17.1863 17.6741L18.0923 16.1981L12.6923 12.9941V6.69406Z" fill="#475564"/>
</svg>
