<svg width="25" height="16" viewBox="0 0 25 16" fill="none" xmlns="http://www.w3.org/2000/svg">
<path d="M24.1944 0.746561C24.0515 0.691268 23.8952 0.681034 23.7464 0.717236C23.5975 0.753437 23.4634 0.834338 23.3619 0.949061L18.6744 6.19906V2.94406C18.6744 2.34732 18.4373 1.77503 18.0154 1.35307C17.5934 0.931114 17.0211 0.694061 16.4244 0.694061H2.92441C2.32767 0.694061 1.75537 0.931114 1.33342 1.35307C0.911461 1.77503 0.674408 2.34732 0.674408 2.94406L0.674408 13.444C0.674408 14.0408 0.911461 14.6131 1.33342 15.035C1.75537 15.457 2.32767 15.694 2.92441 15.694H16.4244C17.0211 15.694 17.5934 15.457 18.0154 15.035C18.4373 14.6131 18.6744 14.0408 18.6744 13.444V10.1666L23.3619 15.4165C23.4301 15.5007 23.5156 15.569 23.6127 15.6169C23.7098 15.6648 23.8162 15.6911 23.9244 15.694C24.017 15.6948 24.1088 15.677 24.1944 15.6415C24.3353 15.5872 24.4566 15.4915 24.5422 15.367C24.6279 15.2426 24.6739 15.0951 24.6744 14.944V1.44406C24.6739 1.29298 24.6279 1.14556 24.5422 1.0211C24.4566 0.89664 24.3353 0.80095 24.1944 0.746561V0.746561ZM17.1744 13.444C17.1744 13.643 17.0954 13.8337 16.9547 13.9744C16.8141 14.115 16.6233 14.194 16.4244 14.194H2.92441C2.72549 14.194 2.53473 14.115 2.39408 13.9744C2.25342 13.8337 2.17441 13.643 2.17441 13.444V2.94406C2.17441 2.74515 2.25342 2.55438 2.39408 2.41373C2.53473 2.27308 2.72549 2.19406 2.92441 2.19406H16.4244C16.6233 2.19406 16.8141 2.27308 16.9547 2.41373C17.0954 2.55438 17.1744 2.74515 17.1744 2.94406V13.444ZM23.1744 12.9715L18.9294 8.19405L23.1744 3.41656V12.9715Z" fill="#475564"/>
</svg>
