<svg width="18" height="24" viewBox="0 0 18 24" fill="none" xmlns="http://www.w3.org/2000/svg">
<path d="M16.7749 10.494C17.2305 10.494 17.6071 10.8327 17.6667 11.2719L17.6749 11.3941V11.9941C17.6749 16.2653 14.3689 19.7645 10.1761 20.0721L10.1749 22.794C10.1749 23.2911 9.77193 23.694 9.27489 23.694C8.81925 23.694 8.44269 23.3554 8.38305 22.9162L8.37489 22.794V20.0722C4.27476 19.772 1.02228 16.4197 0.879757 12.2776L0.874886 11.9941V11.3941C0.874886 10.897 1.27783 10.494 1.77489 10.494C2.23053 10.494 2.60707 10.8327 2.66667 11.2719L2.67489 11.3941V11.9941C2.67489 15.3865 5.35623 18.1526 8.71521 18.2888L8.97489 18.294H9.57489C12.9673 18.294 15.7334 15.6128 15.8696 12.2537L15.8749 11.9941V11.3941C15.8749 10.897 16.2778 10.494 16.7749 10.494Z" fill="#475564"/>
<rect x="5.87489" y="1.69406" width="7" height="14.2222" rx="3.5" stroke="#475564" stroke-width="1.5" stroke-linejoin="round"/>
</svg>
