<svg width="22" height="24" viewBox="0 0 22 24" fill="none" xmlns="http://www.w3.org/2000/svg">
<path d="M3.37894 7.81609C3.37894 12.1149 6.89618 15.6322 11.195 15.6322C15.4939 15.6322 19.0111 12.1149 19.0111 7.81609C19.0111 3.51724 15.4939 0 11.195 0C6.89618 0 3.37894 3.51724 3.37894 7.81609ZM17.172 7.81609C17.172 11.1034 14.4824 13.7931 11.195 13.7931C7.90767 13.7931 5.21802 11.1034 5.21802 7.81609C5.21802 4.52874 7.90767 1.83908 11.195 1.83908C14.4824 1.83908 17.172 4.52874 17.172 7.81609Z" fill="#475564"/>
<path d="M2.09156 24C4.52835 21.5632 7.74674 20.2299 11.195 20.2299C14.6433 20.2299 17.8617 21.5632 20.2985 24L21.6088 22.6897C18.8272 19.931 15.126 18.3908 11.195 18.3908C7.26398 18.3908 3.56283 19.931 0.781219 22.6897L2.09156 24Z" fill="#475564"/>
</svg>
