<svg width="25" height="24" viewBox="0 0 25 24" fill="none" xmlns="http://www.w3.org/2000/svg">
<path d="M10.8359 14.0599C10.6162 14.0599 10.3965 13.9757 10.2291 13.8084L6.64951 10.2297C6.48817 10.0683 6.39806 9.85032 6.39806 9.6229C6.39806 9.39547 6.48817 9.17663 6.64951 9.01614L8.7384 6.92811C9.39064 6.27587 9.39064 5.21426 8.7384 4.56202L6.35257 2.17619C5.72007 1.54455 4.61813 1.54369 3.98562 2.17619C3.94786 2.21395 3.90581 2.24828 3.86118 2.27918C3.76249 2.34783 1.36722 4.06082 1.76028 7.59837C1.81263 8.06953 1.47364 8.49349 1.00248 8.54584C0.535612 8.59991 0.107364 8.2592 0.0550133 7.78804C-0.420436 3.51586 2.32842 1.27679 2.82446 0.910329C4.10921 -0.322063 6.30108 -0.301466 7.56523 0.961822L9.95106 3.34765C11.2727 4.6693 11.2727 6.81912 9.95106 8.14076L8.47064 9.6229L11.4426 12.5949C11.7782 12.9304 11.7782 13.4728 11.4426 13.8084C11.2753 13.9766 11.0556 14.0599 10.8359 14.0599Z" fill="#475564"/>
<path d="M6.65985 18.236C6.44015 18.236 6.22044 18.1519 6.05309 17.9846C3.94447 15.8759 2.36621 13.818 1.36125 11.8672C1.14412 11.4459 1.30976 10.9284 1.73114 10.7112C2.15424 10.4941 2.67002 10.6606 2.88715 11.0811C3.81058 12.8739 5.28328 14.7886 7.2666 16.7711C7.60217 17.1066 7.60217 17.649 7.2666 17.9846C7.0984 18.1528 6.87955 18.236 6.65985 18.236Z" fill="#475564"/>
<path d="M17.1574 23.9999C13.7786 23.9999 10.0351 21.9668 6.01437 17.9452C5.67881 17.6096 5.67881 17.0672 6.01437 16.7317C6.34993 16.3961 6.89232 16.3961 7.22788 16.7317C11.1233 20.6279 14.7613 22.5349 17.7702 22.2551C20.422 22.0045 21.7076 20.1568 21.7205 20.137C21.7505 20.0924 21.7849 20.0504 21.8235 20.0126C22.1393 19.6976 22.3135 19.2763 22.3135 18.83C22.3135 18.3837 22.1393 17.9632 21.8235 17.6474L19.4377 15.2607C19.1218 14.9449 18.7013 14.7715 18.2533 14.7715C17.8062 14.7715 17.3865 14.9449 17.0716 15.2607L14.9818 17.3487C14.6463 17.6843 14.1039 17.6843 13.7683 17.3487L10.1904 13.7708C9.85486 13.4353 9.85486 12.8929 10.1904 12.5573C10.526 12.2218 11.0684 12.2218 11.4039 12.5573L14.3751 15.5284L15.8572 14.0472C16.4966 13.4069 17.3471 13.0542 18.2533 13.0542C19.1596 13.0542 20.0109 13.407 20.6512 14.0463L23.037 16.4339C23.6772 17.0732 24.03 17.9246 24.03 18.83C24.03 19.7105 23.6961 20.5404 23.0885 21.1738C22.7761 21.596 21.0914 23.6652 17.9315 23.9638C17.6766 23.9887 17.4174 23.9999 17.1574 23.9999Z" fill="#475564"/>
</svg>
