<svg width="19" height="19" viewBox="0 0 19 19" fill="none" xmlns="http://www.w3.org/2000/svg">
<path d="M8.23726 11.239C8.07248 11.239 7.9077 11.1759 7.78219 11.0504L5.09749 8.3663C4.97648 8.24529 4.9089 8.0818 4.9089 7.91123C4.9089 7.74066 4.97648 7.57653 5.09749 7.45617L6.66415 5.89014C7.15333 5.40096 7.15333 4.60476 6.66415 4.11558L4.87478 2.32621C4.4004 1.85247 3.57395 1.85183 3.09957 2.32621C3.07125 2.35453 3.03971 2.38027 3.00624 2.40344C2.93222 2.45494 1.13577 3.73968 1.43056 6.39284C1.46983 6.74621 1.21558 7.06418 0.862211 7.10344C0.512061 7.14399 0.190875 6.88846 0.151612 6.53509C-0.204976 3.33096 1.85666 1.65165 2.2287 1.37681C3.19226 0.452514 4.83616 0.467962 5.78427 1.41543L7.57364 3.2048C8.56488 4.19603 8.56488 5.8084 7.57364 6.79963L6.46333 7.91123L8.69232 10.1402C8.94399 10.3919 8.94399 10.7987 8.69232 11.0504C8.56681 11.1765 8.40203 11.239 8.23726 11.239Z" fill="#475564"/>
<path d="M5.10524 14.371C4.94046 14.371 4.77569 14.3079 4.65017 14.1824C3.0687 12.6009 1.88501 11.0574 1.13129 9.5944C0.968442 9.27836 1.09267 8.89023 1.4087 8.72739C1.72603 8.56454 2.11287 8.68941 2.27571 9.00481C2.96829 10.3494 4.07281 11.7854 5.56031 13.2723C5.81198 13.5239 5.81198 13.9307 5.56031 14.1824C5.43415 14.3086 5.27002 14.371 5.10524 14.371Z" fill="#475564"/>
<path d="M12.9784 18.6941C10.4444 18.6941 7.63671 17.1692 4.62117 14.153C4.3695 13.9014 4.3695 13.4946 4.62117 13.2429C4.87284 12.9912 5.27963 12.9912 5.53131 13.2429C8.45287 16.1651 11.1813 17.5953 13.438 17.3855C15.4269 17.1976 16.3911 15.8118 16.4008 15.797C16.4233 15.7635 16.449 15.7319 16.478 15.7036C16.7149 15.4674 16.8455 15.1514 16.8455 14.8167C16.8455 14.482 16.7149 14.1666 16.478 13.9297L14.6886 12.1397C14.4518 11.9028 14.1364 11.7728 13.8004 11.7728C13.465 11.7728 13.1503 11.9028 12.9141 12.1397L11.3468 13.7057C11.0951 13.9574 10.6883 13.9574 10.4366 13.7057L7.75322 11.0223C7.50155 10.7706 7.50155 10.3638 7.75322 10.1122C8.00489 9.86048 8.41168 9.86048 8.66335 10.1122L10.8917 12.3405L12.0033 11.2295C12.4828 10.7494 13.1207 10.4848 13.8004 10.4848C14.4801 10.4848 15.1186 10.7494 15.5988 11.2289L17.3881 13.0196C17.8683 13.4991 18.1329 14.1376 18.1329 14.8167C18.1329 15.4771 17.8825 16.0995 17.4268 16.5745C17.1925 16.8912 15.929 18.443 13.559 18.667C13.3679 18.6857 13.1735 18.6941 12.9784 18.6941Z" fill="#475564"/>
</svg>
